<svg width="120" height="120" viewBox="0 0 120 120" fill="none" xmlns="http://www.w3.org/2000/svg">
<path d="M93.1009 114L9 113.957L9.05764 6L71.4922 6.02881L93.1441 26.6146L93.1009 114Z" fill="#E6E9EF"/>
<path opacity="0.6" d="M93.1009 114L9 113.957L9.05764 6L71.4922 6.02881L93.1441 26.6146L93.1009 114Z" fill="white"/>
<path d="M71.4922 6.02808L93.1441 26.6139L71.4778 26.5995L71.4922 6.02808Z" fill="#676879"/>
<path opacity="0.4" d="M71.4922 6.02808L93.1441 26.6139L71.4778 26.5995L71.4922 6.02808Z" fill="white"/>
<path d="M17.2504 26.888L64.0115 26.9125L64.0129 24.1466L17.2518 24.1221L17.2504 26.888Z" fill="#676879"/>
<path d="M17.2396 33.8885L64.0007 33.913L64.0022 31.1471L17.2411 31.1226L17.2396 33.8885Z" fill="#676879"/>
<path d="M17.2288 40.8774L63.9899 40.9019L63.9913 38.136L17.2302 38.1115L17.2288 40.8774Z" fill="#676879"/>
<path d="M17.2325 47.8814L85.7463 47.9172L85.7478 45.1513L17.234 45.1154L17.2325 47.8814Z" fill="#676879"/>
<path d="M17.2362 54.867L85.75 54.9028L85.7514 52.1369L17.2376 52.1011L17.2362 54.867Z" fill="#676879"/>
<path d="M17.2255 61.8692L85.7393 61.905L85.7407 59.1391L17.2269 59.1033L17.2255 61.8692Z" fill="#676879"/>
<path d="M17.2147 68.8696L85.7285 68.9055L85.73 66.1396L17.2162 66.1037L17.2147 68.8696Z" fill="#676879"/>
<path d="M17.2184 75.8718L85.7322 75.9077L85.7336 73.1418L17.2198 73.1059L17.2184 75.8718Z" fill="#676879"/>
<path d="M17.2219 82.8574L85.7357 82.8933L85.7372 80.1274L17.2234 80.0915L17.2219 82.8574Z" fill="#676879"/>
<path d="M17.2112 89.8596L85.725 89.8954L85.7264 87.1295L17.2126 87.0937L17.2112 89.8596Z" fill="#676879"/>
<path d="M17.2006 96.8617L85.7144 96.8976L85.7158 94.1317L17.202 94.0958L17.2006 96.8617Z" fill="#676879"/>
<path d="M17.2042 103.862L85.718 103.898L85.7195 101.132L17.2057 101.096L17.2042 103.862Z" fill="#676879"/>
<path d="M102.22 25.9239H100.779V23.3453L98.9208 21.5733L99.9004 20.5217L102.22 22.7258V25.9239Z" fill="#676879"/>
<path d="M107.929 30.0891C109.85 21.9102 104.777 13.7222 96.5983 11.8008C88.4193 9.87946 80.2314 14.9522 78.31 23.1312C76.3886 31.3102 81.4614 39.4981 89.6404 41.4195C97.8194 43.3409 106.007 38.2681 107.929 30.0891Z" fill="#096561"/>
<path d="M94.6998 17.2225H91.5737V36.0076H94.6998V17.2225Z" fill="white"/>
<path d="M102.537 28.1697V25.0437H83.7515V28.1697H102.537Z" fill="white"/>
</svg>
