<svg width="320" height="320" viewBox="0 0 320 320" fill="none" xmlns="http://www.w3.org/2000/svg">
<path d="M34.3809 187.398H51.3281V180.237H34.3809V187.398Z" fill="#EBEBEB"/>
<path d="M43.8402 171.206L52.237 171.027L56.4994 170.957C57.9266 170.925 59.3602 170.957 60.7874 170.925H61.069V171.213L61.1074 178.374V178.694H60.8002L52.3266 178.656C49.5042 178.656 46.6754 178.579 43.853 178.547H43.6738V178.374C43.6738 177.158 43.725 175.949 43.757 174.758L43.8402 171.206ZM43.8402 171.206L43.9298 174.822C43.9298 176.019 44.0002 177.197 44.013 178.368L43.8402 178.195C46.6626 178.163 49.4914 178.093 52.3138 178.086L60.8002 178.048L60.4802 178.368V171.206L60.8002 171.52C59.405 171.52 58.0098 171.52 56.6082 171.482L52.397 171.411L43.8402 171.206Z" fill="#EBEBEB"/>
<path d="M24.9604 171.206L33.3573 171.027L37.6197 170.957C39.0469 170.925 40.4741 170.957 41.9077 170.925H42.1893V171.213L42.2277 178.374V178.694H41.9077L33.4341 178.656C30.6053 178.656 27.7828 178.579 24.9604 178.547H24.7812V178.374C24.7812 177.158 24.8388 175.949 24.8644 174.758L24.9604 171.206ZM24.9604 171.206L25.05 174.822C25.05 176.019 25.1204 177.197 25.1332 178.368L24.9604 178.195C27.7828 178.163 30.6053 178.093 33.4341 178.086L41.9077 178.048L41.5877 178.368V171.206L41.8757 171.494C40.4741 171.494 39.0853 171.494 37.6837 171.456L33.4725 171.386L24.9604 171.206Z" fill="#EBEBEB"/>
<path d="M285.613 38.3616L277.216 38.5408L272.954 38.6112C271.526 38.6432 270.093 38.6112 268.666 38.6496H268.384V38.3616L268.346 31.2V30.88H268.666L277.139 30.9248C279.968 30.9248 282.79 30.9952 285.613 31.0272H285.792V31.2C285.792 32.416 285.734 33.6256 285.709 34.8224L285.613 38.3616ZM285.613 38.3616L285.523 34.7456C285.523 33.5552 285.453 32.3776 285.44 31.2L285.613 31.3792C282.79 31.3792 279.968 31.4816 277.139 31.4816L268.666 31.52L268.986 31.2L268.954 38.3616L268.666 38.08C270.061 38.08 271.456 38.08 272.858 38.08L277.069 38.1568L285.613 38.3616Z" fill="#EBEBEB"/>
<path d="M295.066 40.2304H278.119V47.392H295.066V40.2304Z" fill="#EBEBEB"/>
<path d="M41.8817 38.4L33.4785 38.5728L29.2161 38.6496C27.7889 38.6496 26.3617 38.6496 24.9345 38.6496H24.6465V38.4V31.2384V30.912H24.9601L33.4337 30.9504C36.2561 30.9504 39.0785 31.0208 41.9073 31.0528H42.0801V31.2256C42.0801 32.4352 42.0225 33.6448 41.9969 34.8416L41.8817 38.4ZM41.8817 38.4L41.7857 34.7776C41.7857 33.5872 41.7153 32.4096 41.7025 31.2384L41.8817 31.4112C39.0529 31.4432 36.2305 31.5136 33.4081 31.5136L24.9601 31.5328L25.2737 31.2128L25.2161 38.4L24.9601 38.0864C26.3553 38.0864 27.7441 38.0864 29.1457 38.1248L33.3569 38.1952L41.8817 38.4Z" fill="#EBEBEB"/>
<path d="M144.045 83.552H160.992V76.3904H144.045V83.552Z" fill="#EBEBEB"/>
<path d="M278.118 173.882L286.522 173.702L290.784 173.632C292.211 173.6 293.638 173.632 295.066 173.594H295.354V173.882L295.386 181.043V181.363H295.04L286.566 181.325C283.744 181.325 280.922 181.248 278.093 181.216H277.92V181.043C277.92 179.827 277.978 178.618 278.003 177.427L278.118 173.882ZM278.118 173.882L278.214 177.498C278.214 178.694 278.285 179.872 278.298 181.043L278.118 180.87C280.947 180.838 283.77 180.768 286.592 180.762L295.066 180.723L294.752 181.043L294.784 173.882L295.066 174.17C293.67 174.17 292.282 174.17 290.88 174.131L286.669 174.061L278.118 173.882Z" fill="#EBEBEB"/>
<path d="M167.309 240.544H184.256V233.382H167.309V240.544Z" fill="#EBEBEB"/>
<path d="M153.491 67.36L161.92 67.2L166.183 67.1296C167.61 67.1296 169.037 67.1296 170.471 67.1296H170.752V67.4176L170.784 74.5792V74.8992H170.464L161.991 74.8608C159.162 74.8608 156.339 74.7904 153.517 74.752H153.338V74.5792C153.338 73.3632 153.395 72.1536 153.421 70.9632L153.491 67.36ZM153.491 67.36L153.587 70.9824C153.587 72.1728 153.658 73.3504 153.671 74.5216L153.498 74.3488C156.32 74.3488 159.143 74.2464 161.971 74.2464L170.445 74.2016L170.125 74.5216L170.157 67.36L170.445 67.648C169.044 67.648 167.655 67.648 166.253 67.6096L162.042 67.5392L153.491 67.36Z" fill="#EBEBEB"/>
<path d="M68.8133 233.6H47.3349L35.0469 172.32L54.7077 163.283L68.8133 233.6Z" fill="#DBDBDB"/>
<path d="M130.291 233.6H68.8126L54.707 163.283H116.185L130.291 233.6Z" fill="#EBEBEB"/>
<path d="M57.7863 200.723H24.8711V268.262H57.7863V200.723Z" fill="#DBDBDB"/>
<path d="M146.087 268.262H137.095L123.693 200.723H146.087V268.262Z" fill="#DBDBDB"/>
<path d="M75.8716 200.723H57.7852V268.262H75.8716V200.723Z" fill="#EBEBEB"/>
<path d="M164.172 200.723H146.086V268.262H164.172V200.723Z" fill="#EBEBEB"/>
<path d="M146.087 233.6H75.873V268.256H146.087V233.6Z" fill="#EBEBEB"/>
<path d="M146.087 218.618H75.873V233.741H146.087V218.618Z" fill="#EBEBEB"/>
<path d="M62.2207 200.723L69.0495 200.602L75.8719 200.512H76.0767V200.723L76.1599 208.64V216.544C76.1599 221.811 76.1983 227.078 76.1599 232.352C76.1215 237.626 76.1599 242.886 76.0703 248.16C75.9807 253.434 75.9551 258.694 75.8399 263.968C75.729 258.694 75.6543 253.425 75.6159 248.16C75.5455 242.886 75.5391 237.619 75.5199 232.352C75.5007 227.085 75.5199 221.811 75.5199 216.544V208.64L75.5967 200.736L75.8015 200.941L68.9791 200.858L62.2207 200.723Z" fill="#DBDBDB"/>
<path d="M146.087 200.723C146.228 206.01 146.292 211.296 146.35 216.589L146.426 232.454L146.35 248.32L146.254 256.256L146.087 264.186L145.921 256.256L145.825 248.32L145.748 232.454L145.825 216.589C145.882 211.296 145.921 206.01 146.087 200.723Z" fill="#DBDBDB"/>
<path d="M146.087 233.6C140.238 233.741 134.388 233.805 128.532 233.862L110.983 233.939L93.441 233.862L84.6666 233.766L75.873 233.6L84.6538 233.434L93.4282 233.338L110.983 233.261L128.532 233.338C134.401 233.395 140.238 233.459 146.087 233.6Z" fill="#DBDBDB"/>
<path d="M146.086 218.618C140.237 218.758 134.387 218.822 128.531 218.88L110.982 218.957L93.44 218.88L84.6656 218.784L75.8848 218.618L84.6656 218.451L93.44 218.355L110.995 218.278L128.544 218.355C134.4 218.413 140.237 218.477 146.086 218.618Z" fill="#DBDBDB"/>
<path d="M37.3821 268.256L36.9341 273.728L35.8973 286.374H31.1293L30.0925 273.728L29.6445 268.256H37.3821Z" fill="#C7C7C7"/>
<path d="M29.6445 268.256H37.3821L36.9341 273.728H30.0925L29.6445 268.256Z" fill="#A6A6A6"/>
<path d="M70.7005 268.256L70.2525 273.728L69.2157 286.374H64.4477L63.4109 273.728L62.9629 268.256H70.7005Z" fill="#C7C7C7"/>
<path d="M62.9629 268.256H70.7005L70.2525 273.728H63.4109L62.9629 268.256Z" fill="#A6A6A6"/>
<path d="M125.958 268.256L125.516 273.728L124.479 286.374H119.711L118.675 273.728L118.227 268.256H125.958Z" fill="#C7C7C7"/>
<path d="M118.227 268.256H125.958L125.516 273.728H118.675L118.227 268.256Z" fill="#A6A6A6"/>
<path d="M159.29 268.256L158.842 273.728L157.806 286.374H153.038L152.001 273.728L151.553 268.256H159.29Z" fill="#C7C7C7"/>
<path d="M159.29 268.256L158.842 273.728H152.001L151.553 268.256H159.29Z" fill="#A6A6A6"/>
<path d="M147.79 71.0144H37.9336V75.7312H147.79V71.0144Z" fill="#EBEBEB"/>
<path d="M53.907 94.2976H49.6254L47.9102 75.7312H53.907V94.2976Z" fill="#EBEBEB"/>
<path d="M131.814 94.2976H136.096L137.811 75.7312H131.814V94.2976Z" fill="#EBEBEB"/>
<path d="M47.9102 75.7312H53.9006V82.1248H48.499L47.9102 75.7312Z" fill="#DBDBDB"/>
<path d="M137.811 75.7312L137.222 82.1248H131.814V75.7312H137.811Z" fill="#DBDBDB"/>
<path d="M77.7151 42.72C72.8383 49.3184 67.7567 56.96 66.5215 65.28C66.5211 65.3057 66.5299 65.3308 66.5462 65.3507C66.5626 65.3706 66.5855 65.3841 66.6108 65.3887C66.6362 65.3933 66.6623 65.3888 66.6847 65.3759C66.707 65.363 66.724 65.3426 66.7327 65.3184C67.2949 63.0624 68.0156 60.8489 68.8895 58.6944C72.0895 57.8112 75.2383 57.088 76.9215 53.9072C78.6047 50.7264 78.4191 46.3744 78.0927 42.8096C78.0799 42.5984 77.8111 42.592 77.7151 42.72Z" fill="#EBEBEB"/>
<path d="M68.9403 58.6112C71.0842 53.5783 73.9731 48.8966 77.5099 44.7232L77.5483 44.7616C75.3108 47.6406 73.3461 50.7217 71.6795 53.9648C73.2923 52.3264 75.0587 50.8544 76.5883 49.12C76.5883 49.12 76.6651 49.12 76.6395 49.1712C75.1227 50.9888 73.4395 52.9664 71.5195 54.2912C70.9905 55.2725 70.4529 56.2539 69.9067 57.2352C70.0411 57.1584 70.1819 57.0944 70.3163 57.024V57.0624L69.8619 57.2864C69.6059 57.7472 69.3499 58.2144 69.0875 58.6752C69.0363 58.8032 68.8891 58.7136 68.9403 58.6112Z" fill="#A6A6A6"/>
<path d="M70.5658 56.896C71.8759 56.1613 73.1276 55.3268 74.3098 54.4C74.3098 54.4 74.3866 54.4 74.3546 54.4448C73.2093 55.4365 71.9555 56.2953 70.617 57.0048C70.6098 57.0082 70.6021 57.0101 70.5942 57.0105C70.5863 57.0108 70.5784 57.0097 70.571 57.007C70.5636 57.0043 70.5568 57.0002 70.5509 56.9949C70.5451 56.9896 70.5403 56.9832 70.537 56.976C70.5336 56.9689 70.5317 56.9611 70.5313 56.9533C70.5309 56.9454 70.5321 56.9375 70.5348 56.9301C70.5375 56.9226 70.5416 56.9158 70.5469 56.91C70.5522 56.9041 70.5586 56.8994 70.5658 56.896Z" fill="#A6A6A6"/>
<path d="M65.9834 65.184C65.9834 65.2864 66.1626 65.28 66.1626 65.184C66.1626 62.4576 66.1626 59.7184 66.2074 56.9792C66.905 55.5712 68.4026 54.7904 69.4458 53.6576C70.1886 52.8327 70.833 51.9242 71.3658 50.9504C72.6199 48.6228 73.3865 46.0641 73.6186 43.4304C73.9066 40.512 72.7994 30.8928 71.5706 31.2256C70.9306 31.3984 68.8698 36.1664 68.3258 37.7408C67.4444 40.3393 66.8018 43.0128 66.4058 45.728C65.4138 52.1408 65.497 58.7264 65.9834 65.184Z" fill="#EBEBEB"/>
<path d="M65.9658 53.4208C66.2249 49.9537 66.7795 46.5151 67.6234 43.1424C68.4042 39.5328 69.3194 36.1408 71.1754 32.9024C71.1754 32.8384 71.297 32.9024 71.265 32.9536C70.0289 35.4544 69.0717 38.0835 68.4106 40.7936C68.5386 40.6016 68.6858 40.416 68.8138 40.2304C68.865 40.16 68.9866 40.2304 68.9354 40.3008C68.7715 40.5926 68.5785 40.8671 68.3594 41.12C67.7194 43.68 67.2586 46.3296 66.8682 48.96L66.9578 48.8576C66.9578 48.8576 67.009 48.8576 66.9962 48.8576L66.8426 49.12C66.6442 50.4512 66.4586 51.7824 66.273 53.1008C68.7112 51.147 70.6192 48.6117 71.8218 45.728C70.8066 48.8032 68.8413 51.4768 66.209 53.3632C66.1642 53.7216 66.113 54.0736 66.0618 54.432C66.0618 54.5024 65.9338 54.4832 65.9338 54.432C65.9338 54.1184 65.9338 53.792 65.9338 53.4848C65.9329 53.4722 65.9354 53.4597 65.941 53.4484C65.9467 53.4372 65.9552 53.4276 65.9658 53.4208Z" fill="#A6A6A6"/>
<path d="M67.0841 48.4224C68.9399 45.7977 70.559 43.0134 71.9225 40.1024C71.9225 40.1024 71.9993 40.1024 71.9865 40.1024C70.9094 43.1648 69.2876 46.0073 67.1993 48.4928C67.1947 48.5004 67.1886 48.507 67.1815 48.5122C67.1743 48.5174 67.1662 48.5212 67.1576 48.5232C67.1489 48.5253 67.14 48.5257 67.1312 48.5243C67.1225 48.5229 67.1141 48.5198 67.1065 48.5152C67.099 48.5106 67.0924 48.5045 67.0872 48.4974C67.0819 48.4902 67.0782 48.4821 67.0761 48.4735C67.074 48.4648 67.0737 48.4559 67.075 48.4471C67.0764 48.4384 67.0795 48.43 67.0841 48.4224Z" fill="#A6A6A6"/>
<path d="M69.4985 39.4176C70.2537 38.0864 71.0409 36.7936 71.7513 35.4368C71.7513 35.3984 71.8217 35.4368 71.8089 35.4688C71.2278 36.8855 70.4916 38.2334 69.6137 39.488C69.6024 39.4982 69.5881 39.5044 69.573 39.5058C69.5579 39.5072 69.5427 39.5037 69.5298 39.4958C69.5168 39.4879 69.5068 39.476 69.5011 39.4619C69.4955 39.4478 69.4946 39.4323 69.4985 39.4176Z" fill="#A6A6A6"/>
<path d="M64.6409 58.1952C64.6048 60.0039 64.3905 61.8046 64.0009 63.5712C64.0009 63.7632 64.0585 63.9552 64.0841 64.16C64.641 62.2082 64.9654 60.1975 65.0505 58.1696C65.0647 58.1407 65.072 58.109 65.072 58.0768C65.072 58.0446 65.0647 58.0129 65.0505 57.984C65.1282 55.2676 64.9266 52.5504 64.4489 49.8752C63.6041 44.864 61.7609 40.0512 58.2665 36.3008C58.2373 36.2763 58.2029 36.2587 58.166 36.2493C58.129 36.2398 58.0904 36.2387 58.053 36.2461C58.0156 36.2534 57.9803 36.2691 57.9497 36.2918C57.9191 36.3146 57.894 36.3439 57.8761 36.3776C56.4681 39.9616 56.9609 44.2432 58.1641 47.8208C58.8152 49.7586 59.749 51.5896 60.9353 53.2544C62.1513 54.9312 63.6809 56.3584 64.6409 58.1952Z" fill="#EBEBEB"/>
<path d="M58.695 37.9712C62.0102 43.3472 64.3142 49.7152 64.5958 56.064C64.5958 56.1792 64.4102 56.2112 64.391 56.096C64.3142 55.5264 64.231 54.9568 64.135 54.3936C62.6977 53.1184 61.4345 51.6595 60.3782 50.0544C60.3782 50.0544 60.3782 49.9904 60.4294 50.0544C61.5677 51.4465 62.7858 52.7714 64.0774 54.0224C63.8385 52.6229 63.5548 51.2405 63.2262 49.8752C63.1366 49.7792 63.0534 49.6704 62.9638 49.568C62.8742 49.4656 63.0022 49.4016 63.0598 49.472L63.143 49.5616C62.6774 47.6954 62.0982 45.8595 61.4086 44.064C60.4885 43.1264 59.6809 42.0847 59.0022 40.96C59.0022 40.96 59.0022 40.9024 59.047 40.96C59.524 41.6621 60.0367 42.3392 60.583 42.9888C60.8006 43.2448 61.0502 43.488 61.2806 43.7376C60.5159 41.7899 59.6089 39.901 58.567 38.0864C58.5518 38.0694 58.5438 38.0471 58.545 38.0243C58.5462 38.0015 58.5565 37.9801 58.5734 37.9648C58.5904 37.9495 58.6127 37.9416 58.6356 37.9428C58.6584 37.944 58.6797 37.9542 58.695 37.9712Z" fill="#A6A6A6"/>
<path d="M59.3657 44.6016C60.4345 46.0416 61.6569 47.4176 62.6489 48.9024C62.6489 48.9472 62.6489 48.992 62.5785 48.96C61.3123 47.659 60.2098 46.2083 59.2953 44.64C59.2633 44.5952 59.3337 44.5568 59.3657 44.6016Z" fill="#A6A6A6"/>
<path d="M62.8035 49.2352L62.8483 49.2864C62.8483 49.2864 62.8483 49.3632 62.7971 49.3312L62.7523 49.28C62.7203 49.28 62.7715 49.2096 62.8035 49.2352Z" fill="#A6A6A6"/>
<path d="M52.9985 46.944C53.385 49.9468 54.5944 52.7841 56.4929 55.1424C57.2712 56.0696 58.2347 56.8239 59.3217 57.3568C60.5505 57.9648 61.8369 58.6368 63.1041 59.1616C63.7079 60.6985 64.1581 62.2913 64.4481 63.9168C64.4865 63.776 64.5249 63.6352 64.5697 63.4944C63.7505 56.4928 59.2257 50.5088 53.4273 46.6688C53.382 46.6404 53.3296 46.6255 53.2762 46.6258C53.2228 46.6261 53.1706 46.6415 53.1256 46.6704C53.0806 46.6993 53.0448 46.7403 53.0223 46.7887C52.9998 46.8372 52.9915 46.891 52.9985 46.944Z" fill="#EBEBEB"/>
<path d="M55.1242 51.4304C55.2019 51.4795 55.2767 51.5329 55.3482 51.5904C55.3482 51.5904 55.3482 51.6352 55.3482 51.6288C55.268 51.5903 55.1909 51.5453 55.1178 51.4944C55.1129 51.4904 55.109 51.4852 55.1065 51.4793C55.104 51.4735 55.1031 51.467 55.1037 51.4607C55.1043 51.4543 55.1066 51.4482 55.1101 51.443C55.1137 51.4377 55.1186 51.4334 55.1242 51.4304Z" fill="#A6A6A6"/>
<path d="M71.6938 71.0144H59.7578L60.3466 63.1936L60.5706 60.64H70.7722L71.0026 63.1936L71.6938 71.0144Z" fill="#DBDBDB"/>
<path d="M71.0017 63.1936H60.3457L60.5697 60.64H70.7713L71.0017 63.1936Z" fill="#C7C7C7"/>
<path d="M71.585 58.5472H59.7578V61.1648H71.585V58.5472Z" fill="#DBDBDB"/>
<path d="M100.686 71.0016V42.5984H93.5303V71.0016H100.686Z" fill="#C7C7C7"/>
<path d="M100.691 44.1984V41.0752H93.5362V44.1984H100.691Z" fill="#DBDBDB"/>
<path d="M100.686 49.3504V48.192H93.5303V49.3504H100.686Z" fill="#DBDBDB"/>
<path d="M100.686 67.2704V64.1472H93.5303V67.2704H100.686Z" fill="#DBDBDB"/>
<path d="M105.684 71.0016V37.8688H100.685V71.0016H105.684Z" fill="#DBDBDB"/>
<path d="M104.666 53.7216V40.9792H101.664V53.7216H104.666Z" fill="#EBEBEB"/>
<path d="M141.28 67.4125L117.717 44.1194L114.203 47.6741L137.766 70.9672L141.28 67.4125Z" fill="#C7C7C7"/>
<path d="M135.062 62.6464L126 53.6882L123.89 55.8228L132.952 64.781L135.062 62.6464Z" fill="#DBDBDB"/>
<path d="M114.176 71.0016V45.8368H105.689V71.0016H114.176Z" fill="#A6A6A6"/>
<path d="M114.17 68.3328V65.9904H105.684V68.3328H114.17Z" fill="#C7C7C7"/>
<path d="M114.176 64.448V63.5392H105.689V64.448H114.176Z" fill="#C7C7C7"/>
<path d="M84.6269 71.3728L93.8496 49.6166L88.4562 47.3303L79.2335 69.0865L84.6269 71.3728Z" fill="#A6A6A6"/>
<path d="M85.241 68.715L86.1094 66.6919L80.7222 64.3796L79.8539 66.4027L85.241 68.715Z" fill="#C7C7C7"/>
<path d="M90.7918 55.7937L91.6602 53.7706L86.273 51.4584L85.4047 53.4815L90.7918 55.7937Z" fill="#C7C7C7"/>
<path d="M89.861 57.9678L90.1992 57.1797L84.8121 54.8675L84.4738 55.6556L89.861 57.9678Z" fill="#C7C7C7"/>
<path d="M271.424 209.018H208.838V286.374H271.424V209.018Z" fill="#EBEBEB"/>
<path d="M274.451 205.805H205.805V209.018H274.451V205.805Z" fill="#DBDBDB"/>
<path d="M296.044 205.805H274.457V209.018H296.044V205.805Z" fill="#EBEBEB"/>
<path d="M292.627 209.018H271.424V286.374H292.627V209.018Z" fill="#DBDBDB"/>
<path d="M264.685 244.934H215.578V217.171H264.685V244.934ZM215.738 244.774H264.525V217.331H215.738V244.774Z" fill="#C7C7C7"/>
<path d="M242.841 225.286H233.279V230.784H242.841V225.286Z" fill="#C7C7C7"/>
<path d="M245.76 230.445H236.025V225.619H245.76V230.445ZM236.16 230.285H245.561V225.805H236.16V230.285Z" fill="#C7C7C7"/>
<path d="M264.685 279.802H215.578V252.038H264.685V279.802ZM215.738 279.642H264.525V252.198H215.738V279.642Z" fill="#C7C7C7"/>
<path d="M242.841 260.154H233.279V265.651H242.841V260.154Z" fill="#C7C7C7"/>
<path d="M245.76 265.312H236.025V260.48H245.76V265.312ZM236.16 265.152H245.561V260.672H236.16V265.152Z" fill="#C7C7C7"/>
<path d="M296.359 286.374L262.081 286.528L227.796 286.586L159.227 286.694L90.6569 286.586L56.3785 286.528L22.0938 286.374L56.3785 286.214L90.6569 286.163L159.227 286.054L227.796 286.163L262.081 286.214L296.359 286.374Z" fill="#263238"/>
<path d="M280.25 286.374H283.918L258.234 150.656H249.102L280.25 286.374Z" fill="#455A64"/>
<path d="M249.102 150.656L253.71 170.726H262.03L258.241 150.675L258.234 150.656H249.102Z" fill="#37474F"/>
<path d="M242.784 286.374H246.451L245.632 150.656H236.506L242.784 286.374Z" fill="#455A64"/>
<path d="M236.506 150.656L237.434 170.726H245.754L245.632 150.675V150.656H236.506Z" fill="#37474F"/>
<path d="M208.985 286.374H205.324L225.542 150.656H234.675L208.985 286.374Z" fill="#455A64"/>
<path d="M222.553 170.726H230.873L234.674 150.656H225.542L225.535 150.675L222.553 170.726Z" fill="#37474F"/>
<path d="M216.506 230.88H269.799V228.23H216.506V230.88Z" fill="#455A64"/>
<path d="M296.066 100.391C297.938 62.5252 277.653 30.7509 250.759 29.4215C223.866 28.092 200.546 57.7109 198.674 95.577C196.803 133.443 217.087 165.217 243.981 166.547C270.875 167.876 294.194 138.257 296.066 100.391Z" fill="#0B7D77"/>
<path d="M240.122 28.7424L251.565 29.4528L242.848 166.483L231.398 165.773L240.122 28.7424Z" fill="#0B7D77"/>
<g opacity="0.1">
<path d="M240.122 28.7424L251.565 29.4528L242.848 166.483L231.398 165.773L240.122 28.7424Z" fill="black"/>
</g>
<path d="M285.531 99.738C287.403 61.8719 267.118 30.0976 240.224 28.7682C213.33 27.4387 190.011 57.0575 188.139 94.9237C186.267 132.79 206.552 164.564 233.446 165.894C260.34 167.223 283.659 137.604 285.531 99.738Z" fill="#0B7D77"/>
<path d="M274.825 99.2087C276.285 69.6706 260.46 44.8845 239.48 43.8473C218.499 42.8102 200.307 65.9148 198.847 95.4529C197.387 124.991 213.211 149.777 234.192 150.814C255.173 151.851 273.364 128.747 274.825 99.2087Z" fill="white"/>
<path d="M264.22 98.6845C265.272 77.3861 253.866 59.5143 238.742 58.7667C223.618 58.0191 210.504 74.6788 209.451 95.9772C208.398 117.276 219.805 135.147 234.929 135.895C250.053 136.643 263.167 119.983 264.22 98.6845Z" fill="#0B7D77"/>
<path d="M253.506 98.1549C254.147 85.1881 247.203 74.3074 237.996 73.8523C228.789 73.3971 220.806 83.5399 220.165 96.5067C219.524 109.474 226.468 120.354 235.675 120.809C244.882 121.264 252.865 111.122 253.506 98.1549Z" fill="white"/>
<path d="M244.236 96C244.633 101.76 241.638 106.976 237.542 107.725C233.446 108.474 229.817 104.448 229.427 98.72C229.036 92.992 232.025 87.744 236.115 86.9888C240.204 86.2336 243.84 90.24 244.236 96Z" fill="#0B7D77"/>
<path opacity="0.4" d="M285.531 99.738C287.403 61.8719 267.118 30.0976 240.224 28.7682C213.33 27.4387 190.011 57.0575 188.139 94.9237C186.267 132.79 206.552 164.564 233.446 165.894C260.34 167.223 283.659 137.604 285.531 99.738Z" fill="white"/>
<path d="M190.873 248.32C191.094 242.728 191.017 237.129 190.643 231.546C189.818 220.03 188.061 208.601 185.388 197.37C183.923 191.046 182.118 184.826 180.236 178.618C180.179 178.426 179.884 178.483 179.936 178.675C185.747 200.57 190.521 223.168 190.176 245.926C190.086 252.326 189.35 258.554 188.742 264.883C188.742 265.056 189.004 265.12 189.043 264.947C190.259 259.558 190.649 253.882 190.873 248.32Z" fill="#0B7D77"/>
<path d="M179.936 178.701C179.936 178.701 171.123 201.062 173.094 206.317C175.065 211.571 179.136 212.717 179.136 212.717C179.136 212.717 173.747 220.397 177.51 227.629C181.273 234.861 189.67 234.509 190.201 242.688C190.201 242.662 190.668 208.448 179.936 178.701Z" fill="#0B7D77"/>
<path d="M189.249 228.538C189.261 228.498 189.261 228.456 189.249 228.416C188.09 213.151 185.224 198.064 180.704 183.437C180.704 183.398 180.621 183.437 180.634 183.437C182.375 189.978 183.917 196.553 185.261 203.162C184.078 202.041 182.632 201.235 181.056 200.819C181.024 200.819 181.012 200.851 181.056 200.864C182.713 201.471 184.201 202.465 185.396 203.763C185.658 205.043 185.908 206.323 186.144 207.654C184.18 205.453 181.447 204.365 178.714 203.328C178.676 203.328 178.656 203.373 178.714 203.386C181.562 204.544 184.391 206.035 186.324 208.506C186.994 212.218 187.582 215.94 188.09 219.674C186.666 218.184 184.841 217.139 182.836 216.666C182.778 216.666 182.74 216.742 182.804 216.762C184.872 217.357 186.723 218.543 188.129 220.173H188.167C188.34 221.485 188.506 222.803 188.66 224.115C187.558 223.185 186.316 222.436 184.98 221.894C184.948 221.894 184.928 221.939 184.98 221.952C186.343 222.543 187.591 223.371 188.666 224.397C188.683 224.403 188.701 224.403 188.717 224.397C188.858 225.677 189.005 226.906 189.133 228.16C187.149 225.762 184.575 223.923 181.664 222.822C181.653 222.818 181.64 222.819 181.628 222.824C181.617 222.83 181.608 222.839 181.604 222.851C181.599 222.863 181.6 222.876 181.605 222.888C181.611 222.899 181.621 222.908 181.632 222.912C184.507 224.182 187.032 226.127 188.992 228.582C189.014 228.61 189.043 228.63 189.076 228.64C189.11 228.65 189.145 228.65 189.178 228.64C189.37 230.56 189.543 232.48 189.684 234.4C189.684 234.4 189.729 234.432 189.729 234.4C189.543 232.486 189.441 230.509 189.249 228.538Z" fill="#263238"/>
<path d="M182.171 198.618C180.575 197.626 178.754 197.058 176.878 196.966C176.869 196.966 176.861 196.97 176.855 196.976C176.849 196.982 176.846 196.99 176.846 196.998C176.846 197.007 176.849 197.015 176.855 197.021C176.861 197.027 176.869 197.03 176.878 197.03C178.689 197.371 180.449 197.945 182.113 198.739C182.177 198.771 182.235 198.662 182.171 198.618Z" fill="#263238"/>
<path d="M183.239 222.291C182.013 221.588 180.664 221.126 179.265 220.928C179.214 220.928 179.214 220.998 179.265 221.005C180.633 221.278 181.955 221.741 183.195 222.381C183.246 222.406 183.291 222.317 183.239 222.291Z" fill="#263238"/>
<path d="M214.028 206.682C210.305 209.258 206.885 212.246 203.833 215.59C200.689 219.133 198.261 223.252 196.684 227.718C193.338 237.031 191.539 246.829 191.36 256.723C191.243 262.202 191.77 267.675 192.928 273.03C192.935 273.071 192.959 273.107 192.993 273.131C193.027 273.154 193.069 273.163 193.11 273.155C193.151 273.148 193.187 273.124 193.21 273.09C193.234 273.056 193.242 273.014 193.235 272.973C191.793 263.521 191.847 253.902 193.395 244.467C194.905 235.213 197.286 225.152 203.161 217.632C206.361 213.542 210.355 210.323 214.304 206.995C214.508 206.816 214.246 206.528 214.028 206.682Z" fill="#0B7D77"/>
<path d="M192.641 250.061C194.762 246.631 197.256 243.446 200.077 240.563C204.481 236.154 208.193 233.024 208.769 230.112C209.345 227.2 204.353 225.05 204.353 225.05C204.353 225.05 210.452 226.144 212.116 223.584C213.78 221.024 214.593 206.202 214.593 206.202C214.593 206.202 203.521 214.125 198.343 225.229C193.165 236.333 192.641 250.061 192.641 250.061Z" fill="#0B7D77"/>
<path d="M210.643 220.109C209.912 220.003 209.172 219.977 208.435 220.032C208.418 220.037 208.403 220.047 208.392 220.062C208.381 220.076 208.375 220.094 208.375 220.112C208.375 220.13 208.381 220.148 208.392 220.162C208.403 220.177 208.418 220.187 208.435 220.192C209.165 220.192 209.901 220.154 210.631 220.192C210.64 220.19 210.648 220.186 210.654 220.179C210.661 220.172 210.665 220.164 210.666 220.155C210.667 220.146 210.666 220.137 210.662 220.128C210.658 220.12 210.651 220.113 210.643 220.109Z" fill="#263238"/>
<path d="M202.656 234.49C201.486 234.518 200.329 234.75 199.238 235.174C199.238 235.174 199.238 235.232 199.238 235.226C200.371 234.957 201.51 234.848 202.656 234.656C202.678 234.656 202.699 234.647 202.715 234.632C202.73 234.616 202.739 234.595 202.739 234.573C202.739 234.551 202.73 234.53 202.715 234.514C202.699 234.498 202.678 234.49 202.656 234.49Z" fill="#263238"/>
<path d="M200.262 229.523C199.774 229.518 199.288 229.561 198.809 229.651C198.764 229.651 198.764 229.741 198.809 229.741C199.294 229.766 199.781 229.742 200.262 229.67C200.351 229.658 200.351 229.523 200.262 229.523Z" fill="#263238"/>
<path d="M160.136 222.413C163.745 223.636 167.205 225.265 170.446 227.27C173.81 229.408 176.727 232.18 179.035 235.43C183.906 242.191 187.638 249.704 190.081 257.67C191.437 262.079 192.277 266.63 192.584 271.232C192.577 271.262 192.56 271.289 192.536 271.308C192.513 271.327 192.483 271.337 192.452 271.337C192.422 271.337 192.392 271.327 192.368 271.308C192.344 271.289 192.328 271.262 192.321 271.232C191.298 263.248 189.031 255.474 185.601 248.192C182.235 241.056 177.992 233.472 171.521 228.736C167.982 226.176 164.008 224.48 160.046 222.701C159.777 222.63 159.924 222.342 160.136 222.413Z" fill="#0B7D77"/>
<path d="M187.463 252.576C184.954 250.291 182.2 248.291 179.251 246.611C174.663 244.051 170.931 242.387 169.799 240.16C168.666 237.933 172.205 235.04 172.205 235.04C172.205 235.04 167.52 237.331 165.581 235.648C163.642 233.965 159.559 222.15 159.559 222.15C159.559 222.15 170.368 225.99 177.12 233.792C183.872 241.594 187.463 252.576 187.463 252.576Z" fill="#0B7D77"/>
<path d="M169.056 229.357C168.572 229.324 168.086 229.352 167.609 229.44C167.597 229.44 167.586 229.445 167.578 229.453C167.569 229.462 167.564 229.473 167.564 229.485C167.564 229.497 167.569 229.508 167.578 229.517C167.586 229.525 167.597 229.53 167.609 229.53C168.083 229.478 168.55 229.498 169.03 229.485C169.047 229.488 169.065 229.485 169.079 229.475C169.093 229.466 169.103 229.451 169.107 229.434C169.11 229.417 169.107 229.399 169.097 229.385C169.088 229.37 169.073 229.36 169.056 229.357Z" fill="#263238"/>
<path d="M201.403 286.131H177.006L180.481 260.646L181.371 254.118H197.031L197.921 260.646L201.403 286.131Z" fill="#455A64"/>
<path d="M197.92 260.646H180.48L181.37 254.118H197.031L197.92 260.646Z" fill="#263238"/>
<path d="M199.27 251.846H179.129V257.382H199.27V251.846Z" fill="#455A64"/>
<path d="M199.647 83.8226L29.9043 93.7883L31.7007 124.385L201.444 114.42L199.647 83.8226Z" fill="#0B7D77"/>
<path d="M199.154 75.456L201.932 122.778L236.319 97.0176L199.154 75.456Z" fill="#0B7D77"/>
<g opacity="0.5">
<path d="M236.32 97.0176L201.932 122.771L201.44 114.419L31.6988 124.384L29.9004 93.7856L199.641 83.8208L199.148 75.456L236.32 97.0176Z" fill="white"/>
<path d="M30.1949 126.08L28.2109 92.288L197.945 82.3232L197.382 72.5888L239.219 96.8512L200.505 125.843L199.936 116.115L30.1949 126.08ZM31.5901 95.296L33.2029 122.701L202.944 112.723L203.353 119.706L233.433 97.184L200.921 78.336L201.331 85.3248L31.5901 95.296Z" fill="#0B7D77"/>
</g>
<path d="M116.37 253.734C116.37 253.734 115.73 279.085 115.73 279.104C115.73 283.789 115.846 287.898 116.095 289.984V290.022C116.104 290.525 116.224 291.019 116.447 291.469C117.849 292.41 155.302 293.389 156.62 292.979C157.938 292.57 156.882 288.781 155.462 287.584C154.041 286.387 139.878 279.68 139.878 279.68L140.287 254.342L116.37 253.734Z" fill="#EB9481"/>
<path d="M115.686 274.074C115.686 274.074 115.73 279.085 115.724 279.104C115.724 283.789 115.839 287.898 116.089 289.984V290.022C116.152 290.516 116.27 291.001 116.441 291.469C117.842 292.41 155.295 293.389 156.614 292.979C157.932 292.57 156.876 288.781 155.455 287.584C154.034 286.387 139.878 279.68 139.878 279.68V274.56L115.686 274.074Z" fill="white"/>
<path d="M142.169 279.68C139.679 279.27 136.646 279.718 134.783 281.53C134.713 281.6 134.815 281.696 134.892 281.67C137.251 280.854 139.69 280.291 142.169 279.994C142.205 279.986 142.238 279.967 142.261 279.938C142.284 279.909 142.297 279.874 142.297 279.837C142.297 279.8 142.284 279.764 142.261 279.736C142.238 279.707 142.205 279.687 142.169 279.68Z" fill="#263238"/>
<path d="M144.001 280.717C141.505 280.307 138.478 280.755 136.615 282.56C136.545 282.63 136.647 282.733 136.724 282.707C139.083 281.89 141.523 281.328 144.001 281.03C144.037 281.023 144.07 281.003 144.093 280.975C144.116 280.946 144.129 280.91 144.129 280.874C144.129 280.837 144.116 280.801 144.093 280.772C144.07 280.744 144.037 280.724 144.001 280.717Z" fill="#263238"/>
<path d="M145.804 281.76C143.308 281.35 140.281 281.792 138.419 283.603C138.348 283.674 138.419 283.776 138.528 283.75C140.884 282.933 143.322 282.371 145.798 282.074C145.834 282.067 145.867 282.048 145.891 282.02C145.915 281.992 145.929 281.956 145.93 281.919C145.93 281.882 145.918 281.846 145.895 281.817C145.873 281.788 145.841 281.768 145.804 281.76Z" fill="#263238"/>
<path d="M156.639 293.037C155.321 293.44 117.868 292.467 116.466 291.526C115.929 291.181 115.75 285.715 115.73 279.104V278.893L139.897 279.251V279.661C139.897 279.661 154.066 286.445 155.5 287.648C156.934 288.851 157.958 292.634 156.639 293.037Z" fill="#37474F"/>
<path d="M115.725 278.893V279.104C115.757 285.715 115.929 291.181 116.467 291.526C117.107 291.955 125.222 292.39 133.99 292.704C144.493 293.075 155.923 293.261 156.64 293.037C157.958 292.634 156.896 288.838 155.481 287.642C154.067 286.445 139.878 279.68 139.878 279.68V279.277L131.84 279.136L115.725 278.893Z" fill="#0B7D77"/>
<path d="M156.25 291.571C149.946 291.251 124.468 290.56 118.208 290.726C118.157 290.726 118.157 290.765 118.208 290.765C124.455 291.219 149.933 291.706 156.25 291.674C156.384 291.674 156.384 291.578 156.25 291.571Z" fill="#263238"/>
<path opacity="0.1" d="M131.84 279.136C132.429 283.181 133.331 289.146 133.99 292.704C144.493 293.075 155.923 293.261 156.64 293.037C157.958 292.634 156.896 288.838 155.481 287.642C154.067 286.445 139.878 279.68 139.878 279.68V279.277L131.84 279.136Z" fill="black"/>
<path d="M113.549 279.238L140.653 279.501C140.653 279.501 142.189 235.341 142.304 220.659C142.438 203.846 141.485 153.459 141.485 153.459H121.222C121.222 153.459 115.789 164.576 118.893 177.075L119.75 222.061L113.549 279.238Z" fill="#263238"/>
<path d="M115.557 274.496C116.273 274.4 116.993 274.342 117.714 274.323C118.514 274.266 119.314 274.208 120.114 274.176C121.657 274.106 123.199 274.08 124.741 274.074C127.858 274.074 130.969 274.074 134.079 274.182C135.852 274.24 137.618 274.31 139.385 274.413C139.455 274.413 139.449 274.522 139.385 274.522C136.3 274.637 133.209 274.682 130.124 274.746C127.039 274.81 123.954 274.861 120.876 274.803C119.986 274.803 119.103 274.803 118.22 274.726C117.337 274.65 116.434 274.726 115.57 274.598C115.519 274.592 115.493 274.509 115.557 274.496Z" fill="#37474F"/>
<path d="M138.702 250.138C139.015 242.842 139.252 235.539 139.45 228.243C139.847 213.638 139.952 199.031 139.764 184.422C139.662 176.23 139.444 168.038 139.201 159.846C139.201 159.75 139.335 159.757 139.342 159.846C140.116 174.509 140.417 189.203 140.43 203.885C140.442 218.566 140.161 233.107 139.418 247.68C139.015 255.866 138.516 264.064 137.748 272.224C137.748 272.294 137.633 272.294 137.633 272.224C137.966 264.87 138.382 257.51 138.702 250.138Z" fill="#37474F"/>
<path d="M145.363 257.76C145.363 257.76 145.568 282.266 145.568 282.285C145.568 286.97 145.677 291.078 145.926 293.197C145.923 293.207 145.923 293.218 145.926 293.229C145.927 293.732 146.048 294.228 146.278 294.675C146.276 294.686 146.276 294.697 146.278 294.707C147.674 295.648 185.126 296.627 186.445 296.211C187.763 295.795 186.714 292.019 185.286 290.822C183.859 289.626 169.683 282.842 169.683 282.842L169.248 258.349L145.363 257.76Z" fill="#EB9481"/>
<path d="M145.523 277.248C145.523 277.248 145.568 282.266 145.568 282.285C145.568 286.97 145.677 291.078 145.927 293.197C145.923 293.207 145.923 293.218 145.927 293.229C145.986 293.723 146.104 294.209 146.279 294.675C146.276 294.686 146.276 294.697 146.279 294.707C147.674 295.648 185.127 296.627 186.445 296.211C187.763 295.795 186.714 292.019 185.287 290.822C183.859 289.626 169.683 282.842 169.683 282.842L169.715 277.722L145.523 277.248Z" fill="white"/>
<path d="M172.013 282.88C169.517 282.47 166.49 282.912 164.628 284.723C164.557 284.794 164.628 284.896 164.737 284.87C167.093 284.053 169.531 283.491 172.007 283.194C172.043 283.187 172.076 283.168 172.1 283.14C172.124 283.112 172.138 283.076 172.139 283.039C172.139 283.002 172.127 282.966 172.104 282.937C172.082 282.908 172.05 282.888 172.013 282.88Z" fill="#263238"/>
<path d="M173.83 283.898C171.334 283.488 168.307 283.93 166.444 285.741C166.374 285.811 166.444 285.914 166.553 285.888C168.91 285.071 171.347 284.508 173.823 284.211C173.86 284.205 173.893 284.186 173.917 284.158C173.941 284.129 173.954 284.094 173.955 284.057C173.956 284.02 173.944 283.984 173.921 283.955C173.898 283.926 173.866 283.906 173.83 283.898Z" fill="#263238"/>
<path d="M175.647 284.941C173.151 284.531 170.118 284.941 168.262 286.784C168.185 286.854 168.262 286.957 168.37 286.931C170.727 286.114 173.164 285.552 175.641 285.254C175.677 285.248 175.71 285.229 175.734 285.201C175.758 285.173 175.771 285.137 175.772 285.1C175.773 285.063 175.761 285.027 175.738 284.998C175.715 284.969 175.683 284.949 175.647 284.941Z" fill="#263238"/>
<path d="M186.477 296.211C185.159 296.621 147.712 295.648 146.311 294.707C145.773 294.355 145.594 288.89 145.568 282.285C145.568 282.214 145.568 282.144 145.568 282.074L169.735 282.432V282.842C169.735 282.842 183.898 289.626 185.332 290.822C186.765 292.019 187.802 295.814 186.477 296.211Z" fill="#0B7D77"/>
<path d="M186.094 294.752C179.783 294.432 154.311 293.741 148.046 293.907C148.001 293.907 147.995 293.907 148.046 293.946C154.292 294.4 179.777 294.88 186.094 294.854C186.241 294.854 186.241 294.758 186.094 294.752Z" fill="#263238"/>
<path d="M132.979 179.366C132.979 179.366 144.095 214.413 144.3 220.851C144.467 226.342 143.769 282.688 143.769 282.688L171.929 282.854C171.929 282.854 169.555 225.395 169.113 219.674C168.294 208.973 158.918 179.597 152.217 153.427H121.855C121.855 153.427 122.118 167.136 128.351 177.043C128.351 177.043 131.199 178.349 132.979 179.366Z" fill="#263238"/>
<path d="M145.28 277.498C148.531 277.402 151.904 277.306 155.155 277.389C158.406 277.472 161.619 277.517 164.838 277.709C166.662 277.818 168.486 277.882 170.31 278.061C170.368 278.061 170.368 278.157 170.31 278.157C167.059 278.349 163.795 278.31 160.544 278.278C157.293 278.246 154.086 278.214 150.861 278.067C149.03 277.984 147.213 277.894 145.389 277.766C145.171 277.76 145.069 277.504 145.28 277.498Z" fill="#37474F"/>
<path d="M148.871 159.309C149.876 162.656 162.311 208.589 163.591 215.258C164.871 221.926 166.605 265.715 166.484 272.736C166.484 273.606 166.452 274.477 166.42 275.347C166.42 275.364 166.413 275.38 166.401 275.392C166.389 275.404 166.373 275.411 166.356 275.411C166.339 275.411 166.322 275.404 166.31 275.392C166.298 275.38 166.292 275.364 166.292 275.347C166.1 268.371 164.237 222.419 163.04 215.578C161.92 208.858 149.53 163.2 148.666 159.36C148.666 159.336 148.674 159.312 148.689 159.293C148.704 159.274 148.725 159.26 148.748 159.254C148.772 159.249 148.797 159.251 148.819 159.261C148.841 159.27 148.859 159.287 148.871 159.309Z" fill="#37474F"/>
<path d="M139.943 180.045C138.542 180.035 137.144 179.908 135.764 179.667C134.395 179.369 133.043 179 131.713 178.56C130.403 178.263 129.075 178.05 127.738 177.92C126.392 177.724 125.081 177.334 123.847 176.762C123.789 176.762 123.745 176.819 123.802 176.845C124.997 177.49 126.246 178.032 127.533 178.464C128.865 178.886 130.26 178.944 131.617 179.277C132.984 179.683 134.376 180.004 135.783 180.237C137.171 180.407 138.575 180.381 139.956 180.16C140.013 180.128 139.994 180.045 139.943 180.045Z" fill="#37474F"/>
<path d="M141.715 207.923C141.446 206.88 141.197 205.843 140.915 204.806C140.345 202.714 139.769 200.621 139.136 198.547C137.856 194.426 136.691 190.278 135.366 186.182C134.611 183.853 133.933 181.504 133.049 179.219C133.045 179.207 133.036 179.198 133.025 179.192C133.014 179.187 133 179.186 132.989 179.19C132.977 179.195 132.967 179.203 132.962 179.215C132.956 179.226 132.956 179.239 132.96 179.251C133.408 181.376 134.035 183.456 134.598 185.549C135.161 187.642 135.763 189.728 136.371 191.814C137.568 195.949 138.745 200.096 140.057 204.205C140.42 205.357 140.8 206.505 141.197 207.648C141.6 208.813 141.92 210.016 142.406 211.149C142.438 211.213 142.521 211.187 142.509 211.149C142.323 210.042 141.99 208.986 141.715 207.923Z" fill="#37474F"/>
<path d="M145.043 119.482C143.008 119.75 139.501 116.07 138.406 113.466C138.604 112.092 138.871 110.729 139.206 109.382C139.469 108.102 139.725 106.611 139.846 105.261L148.109 108.192C147.452 109.837 146.999 111.557 146.758 113.312C146.745 113.497 146.745 113.683 146.758 113.869C146.758 113.869 146.758 113.926 146.758 113.965C146.848 115.021 147.014 119.226 145.043 119.482Z" fill="#EB9481"/>
<path d="M138.49 112.794C142.829 114.253 145.972 111.808 147.405 110.31C147.757 109.094 148.129 108.192 148.129 108.192L139.866 105.261C139.725 106.611 139.469 108.077 139.226 109.382C138.919 110.816 138.625 112.064 138.49 112.794Z" fill="#263238"/>
<path d="M150.687 95.3024C151.718 98.2848 150.444 107.066 148.364 109.088C145.356 112.026 140.268 112.48 137.734 108.826C135.282 105.28 137.145 93.8688 139.481 92.0128C142.918 89.28 149.164 90.88 150.687 95.3024Z" fill="#EB9481"/>
<path d="M142.042 100.89C142.042 100.89 142.087 100.922 142.08 100.947C141.984 101.536 141.978 102.227 142.49 102.496C142.49 102.496 142.49 102.534 142.49 102.496C141.837 102.355 141.856 101.434 142.042 100.89Z" fill="#263238"/>
<path d="M142.649 100.339C143.616 100.384 143.443 102.31 142.553 102.259C141.663 102.208 141.843 100.294 142.649 100.339Z" fill="#263238"/>
<path d="M138.701 100.589C138.701 100.589 138.65 100.589 138.65 100.634C138.65 101.235 138.477 101.914 137.92 102.061V102.099C138.586 102.061 138.765 101.158 138.701 100.589Z" fill="#263238"/>
<path d="M138.239 99.9168C137.286 99.7632 137.049 101.677 137.926 101.837C138.803 101.997 139.02 100.051 138.239 99.9168Z" fill="#263238"/>
<path d="M143.487 99.5264C143.231 99.4368 143.007 99.3088 142.764 99.2C142.521 99.0912 142.252 98.9952 142.124 98.72C142.086 98.6382 142.076 98.5463 142.096 98.4583C142.115 98.3704 142.164 98.2914 142.233 98.2336C142.388 98.1437 142.565 98.0964 142.745 98.0964C142.924 98.0964 143.101 98.1437 143.257 98.2336C143.601 98.3651 143.884 98.6208 144.05 98.9504C144.085 99.0297 144.095 99.1174 144.079 99.2023C144.063 99.2873 144.022 99.3656 143.962 99.4274C143.902 99.4892 143.824 99.5316 143.74 99.5492C143.655 99.5668 143.567 99.5589 143.487 99.5264Z" fill="#263238"/>
<path d="M137.562 98.8864C137.831 98.8864 138.08 98.8032 138.343 98.7584C138.625 98.7465 138.896 98.6457 139.117 98.4704C139.171 98.3984 139.2 98.3108 139.2 98.2208C139.2 98.1308 139.171 98.0432 139.117 97.9712C138.992 97.8418 138.835 97.7481 138.662 97.6997C138.488 97.6514 138.305 97.6501 138.131 97.696C137.762 97.7336 137.42 97.9069 137.171 98.1824C137.118 98.2498 137.085 98.3317 137.078 98.4176C137.07 98.5036 137.089 98.5898 137.131 98.6652C137.173 98.7406 137.236 98.802 137.313 98.8413C137.389 98.8807 137.476 98.8964 137.562 98.8864Z" fill="#263238"/>
<path d="M141.728 104.518C141.558 104.741 141.343 104.925 141.097 105.06C140.851 105.194 140.58 105.276 140.301 105.299C140.057 105.335 139.809 105.335 139.565 105.299L139.431 105.267L139.296 105.235C139.266 105.226 139.24 105.207 139.222 105.182C139.203 105.156 139.194 105.126 139.194 105.094C139.191 105.075 139.191 105.056 139.194 105.037V104.96C139.226 104.499 139.328 103.808 139.328 103.808C139.155 103.878 138.266 104.186 138.298 103.949C138.535 101.887 138.979 99.8546 139.623 97.8816C139.626 97.8703 139.634 97.8605 139.644 97.8535C139.653 97.8466 139.665 97.8429 139.677 97.8429C139.689 97.8429 139.701 97.8466 139.71 97.8535C139.72 97.8605 139.727 97.8703 139.731 97.8816C139.527 99.8016 138.989 101.645 138.752 103.558C139.067 103.441 139.396 103.37 139.731 103.347C139.795 103.347 139.507 104.685 139.507 104.89C139.88 104.96 140.263 104.955 140.633 104.874C141.003 104.794 141.354 104.64 141.664 104.422C141.728 104.429 141.767 104.474 141.728 104.518Z" fill="#263238"/>
<path d="M139.859 105.062C140.083 105.411 140.391 105.697 140.755 105.894C140.954 105.991 141.177 106.025 141.395 105.99C141.882 105.907 141.933 105.472 141.875 105.094C141.844 104.891 141.79 104.691 141.715 104.499C141.171 104.877 140.522 105.074 139.859 105.062Z" fill="#263238"/>
<path d="M140.756 105.894C140.954 105.991 141.178 106.025 141.396 105.99C141.882 105.907 141.933 105.472 141.876 105.094C141.627 105.083 141.381 105.156 141.177 105.301C140.974 105.446 140.826 105.655 140.756 105.894Z" fill="#FF98B9"/>
<path d="M148.397 101.12C147.917 99.296 149.146 96.384 148.308 95.5264C146.503 93.664 142.33 96.7104 139.623 96.544C136.916 96.3776 136.237 94.624 136.858 92.5312C137.479 90.4384 139.386 89.1328 142.362 88.896C144.952 88.7763 147.502 89.5689 149.568 91.136C149.568 91.136 148.98 90.0288 149.255 89.7152C149.53 89.4016 150.74 90.5152 151.098 90.9952C151.359 91.3848 151.548 91.8184 151.655 92.2752C152.052 92.2044 152.457 92.1914 152.858 92.2368C153.439 92.3195 153.973 92.6024 154.368 93.0368C154.407 93.2032 153.44 93.2544 152.768 93.2416C152.768 93.2416 153.901 94.9888 153.78 96.4032C153.658 97.8176 150.983 104.403 150.452 104.442C149.76 104.467 148.596 101.837 148.397 101.12Z" fill="#263238"/>
<path d="M152.525 93.0367C152.525 93.0367 152.467 93.0367 152.487 93.0367C153.102 93.6052 153.545 94.3346 153.767 95.1423C153.972 96.1151 153.913 97.1254 153.594 98.0671C152.952 99.8567 152.122 101.573 151.117 103.187C151.114 103.193 151.112 103.199 151.112 103.205C151.111 103.211 151.112 103.217 151.113 103.223C151.115 103.229 151.118 103.235 151.122 103.239C151.126 103.244 151.131 103.248 151.136 103.251C151.142 103.254 151.148 103.256 151.154 103.257C151.16 103.257 151.166 103.257 151.172 103.255C151.178 103.253 151.184 103.25 151.188 103.246C151.193 103.242 151.197 103.237 151.2 103.232C152.375 101.544 153.278 99.6827 153.875 97.7151C154.298 96.0767 154.042 94.0799 152.525 93.0367Z" fill="#263238"/>
<path d="M148.479 94.816C147.688 94.6688 146.877 94.6688 146.085 94.816C145.351 95.0188 144.643 95.3111 143.98 95.6864C142.46 96.4777 140.747 96.8238 139.039 96.6848V96.7168C140.594 96.9609 142.187 96.7382 143.615 96.0768C144.323 95.7068 145.055 95.3819 145.804 95.104C146.677 94.9206 147.573 94.8774 148.46 94.976C148.47 94.9773 148.481 94.9764 148.491 94.9736C148.501 94.9707 148.511 94.9659 148.519 94.9594C148.528 94.9528 148.535 94.9447 148.54 94.9355C148.545 94.9263 148.548 94.9161 148.549 94.9056C148.551 94.8951 148.55 94.8844 148.547 94.8743C148.544 94.8641 148.539 94.8545 148.533 94.8462C148.526 94.8379 148.518 94.8309 148.509 94.8258C148.5 94.8206 148.49 94.8173 148.479 94.816Z" fill="#263238"/>
<path d="M148.006 90.24C146.98 89.6348 145.872 89.182 144.716 88.896C143.617 88.5812 142.471 88.4621 141.331 88.544C139.366 88.7232 137.491 89.824 136.902 91.808C136.581 92.8131 136.647 93.9019 137.087 94.8608C137.095 94.871 137.106 94.8782 137.119 94.8814C137.131 94.8846 137.144 94.8835 137.156 94.8784C137.168 94.8732 137.177 94.8643 137.184 94.853C137.19 94.8417 137.192 94.8286 137.19 94.816C136.835 93.9368 136.775 92.9664 137.019 92.0503C137.262 91.1341 137.796 90.3215 138.54 89.7344C140.23 88.4544 142.47 88.5056 144.441 88.96C145.668 89.262 146.861 89.691 147.999 90.24C147.999 90.24 148.012 90.24 148.006 90.24Z" fill="#263238"/>
<path d="M148.98 102.477C148.98 102.477 150.9 99.6223 152.18 100.307C153.46 100.992 152.058 105.101 150.561 105.69C150.374 105.777 150.172 105.827 149.966 105.834C149.761 105.842 149.555 105.808 149.363 105.735C149.17 105.661 148.995 105.55 148.846 105.407C148.698 105.264 148.58 105.092 148.5 104.902L148.98 102.477Z" fill="#EB9481"/>
<path d="M116.537 160.39C116.621 160.499 155.577 164.026 155.974 163.654C156.518 163.136 154.195 124.154 147.238 116.192C145.529 114.227 139.481 111.872 137.491 113.094C132.326 116.294 129.139 123.469 127.097 127.648C125.581 130.746 123.635 136.077 121.83 141.555C118.854 150.586 116.249 160 116.537 160.39Z" fill="#0B7D77"/>
<path d="M140.039 124.557C140.143 125.221 140.342 125.868 140.627 126.477C140.903 127.09 141.26 127.662 141.69 128.179C141.588 127.514 141.39 126.867 141.101 126.259C140.826 125.646 140.469 125.073 140.039 124.557ZM146.592 150.086C146.698 150.751 146.899 151.398 147.187 152.006C147.456 152.625 147.814 153.2 148.25 153.715C148.025 152.383 147.454 151.133 146.592 150.093V150.086ZM130.413 148.864C130.518 149.529 130.719 150.176 131.008 150.784C131.276 151.403 131.636 151.977 132.077 152.486C131.972 151.82 131.769 151.173 131.475 150.566C131.204 149.951 130.846 149.378 130.413 148.864ZM119.328 156.915C120.658 156.684 121.904 156.11 122.944 155.251C121.614 155.478 120.366 156.052 119.328 156.915ZM145.715 136.717C146.38 136.612 147.026 136.414 147.635 136.128C148.251 135.856 148.825 135.496 149.338 135.059C148.673 135.165 148.026 135.366 147.418 135.654C146.801 135.923 146.228 136.281 145.715 136.717ZM135.258 116.973C135.922 116.868 136.569 116.67 137.178 116.384C137.796 116.112 138.371 115.752 138.887 115.315C137.557 115.549 136.31 116.12 135.264 116.973H135.258ZM146.387 119.878C146.781 119.334 147.095 118.737 147.322 118.106C147.482 117.669 147.606 117.219 147.693 116.762L147.514 116.518C147.24 116.961 147.013 117.431 146.835 117.92C146.591 118.547 146.44 119.207 146.387 119.878ZM130.855 135.878C131.248 135.332 131.562 134.733 131.789 134.099C132.031 133.473 132.181 132.816 132.237 132.147C131.845 132.692 131.53 133.289 131.303 133.92C131.06 134.552 130.909 135.216 130.855 135.891V135.878ZM128.429 161.478L128.794 161.51C128.847 161.259 128.881 161.005 128.896 160.749C128.718 160.993 128.562 161.252 128.429 161.523V161.478ZM152.506 162.982C152.899 162.438 153.214 161.842 153.44 161.21C153.684 160.582 153.835 159.922 153.888 159.251C153.112 160.354 152.636 161.64 152.506 162.982ZM121.408 142.842C121.562 142.914 121.715 142.978 121.869 143.034C122.497 143.275 123.157 143.426 123.827 143.482C123.282 143.088 122.683 142.775 122.048 142.554L121.562 142.387L121.408 142.842ZM137.831 158.317C138.932 159.095 140.219 159.572 141.562 159.699C141.017 159.308 140.421 158.995 139.789 158.771C139.162 158.525 138.502 158.372 137.831 158.317ZM136.551 142.957C137.096 143.351 137.695 143.666 138.33 143.891C138.945 144.132 139.592 144.283 140.25 144.339C139.148 143.561 137.862 143.084 136.519 142.957H136.551ZM150.496 125.901C150.822 126.151 151.174 126.366 151.546 126.541C151.507 126.374 151.463 126.214 151.424 126.048C151.113 125.976 150.796 125.931 150.477 125.914L150.496 125.901ZM129.53 122.784C130.087 122.989 130.671 123.114 131.264 123.155C130.806 122.816 130.305 122.54 129.773 122.336L129.53 122.784Z" fill="white"/>
<path d="M143.822 122.323C153.812 124.698 169.364 127.046 174.484 123.808C177.102 122.15 183.182 107.635 184.878 99.488C185.319 97.3696 167.943 94.4 167.393 96.64C166.651 99.6608 164.91 109.184 164.052 110.682C163.559 111.539 152.532 112.819 143.649 114.227C133.23 115.891 135.713 120.397 143.822 122.323Z" fill="#EB9481"/>
<path d="M170.24 78.2656C170.661 78.3074 171.064 78.4526 171.415 78.6882C171.766 78.9238 172.052 79.2426 172.25 79.616C172.767 78.9623 173.496 78.5096 174.311 78.336C175.764 78.0864 176.788 80.256 176.788 80.256C177.465 79.6845 178.299 79.33 179.181 79.2384C180.596 79.1424 181.946 81.1584 181.946 81.1584C182.394 81.0182 182.868 80.984 183.331 81.0584C183.794 81.1328 184.234 81.3138 184.615 81.5872C187.309 83.8464 186.464 96.1792 184.301 101.101L167.847 98.6176C167.847 98.6176 165.639 89.3248 166.004 86.4576C166.298 84.096 167.68 78.0224 170.24 78.2656Z" fill="#EB9481"/>
<path d="M172.161 79.6544C171.319 82.1657 170.788 84.7707 170.58 87.4112C170.58 87.4688 170.663 87.4816 170.67 87.4112C170.938 84.8512 171.911 82.24 172.282 79.6736C172.314 79.616 172.206 79.5904 172.161 79.6544Z" fill="#263238"/>
<path d="M176.576 80.3007C176.415 80.8822 176.333 81.4829 176.333 82.0863C176.288 82.7263 176.263 83.3663 176.237 84.0063C176.199 85.2863 176.188 86.5663 176.205 87.8463C176.205 87.9039 176.295 87.9167 176.301 87.8463C176.34 86.5663 176.404 85.2863 176.506 84.0063C176.551 83.3663 176.608 82.7263 176.666 82.0863C176.761 81.4919 176.789 80.8886 176.749 80.2879C176.743 80.2692 176.73 80.2532 176.714 80.2423C176.697 80.2314 176.678 80.2263 176.658 80.2278C176.638 80.2292 176.619 80.2372 176.605 80.2504C176.59 80.2636 176.58 80.2813 176.576 80.3007Z" fill="#263238"/>
<path d="M181.926 81.2288C181.792 81.7551 181.746 82.3002 181.792 82.8416C181.792 83.424 181.792 84.0064 181.792 84.5888C181.76 85.7536 181.734 86.9184 181.664 88.0768C181.664 88.1408 181.754 88.1472 181.754 88.0768C181.83 86.8992 181.92 85.7152 181.984 84.5376C182.016 83.9552 182.048 83.3728 182.074 82.7968C182.145 82.268 182.124 81.7308 182.01 81.2096C182.01 81.2096 181.939 81.2032 181.926 81.2288Z" fill="#263238"/>
<path d="M157.792 126.97L157.152 111.322C157.152 111.322 146.234 112.026 140.045 114.298C133.856 116.57 135.962 119.942 141.965 122.285C147.968 124.627 157.792 126.97 157.792 126.97Z" fill="#0B7D77"/>
<path d="M155.227 112.134C154.599 111.89 153.939 111.739 153.268 111.686C153.814 112.081 154.413 112.396 155.047 112.621C155.673 112.864 156.33 113.015 156.999 113.069C156.458 112.672 155.86 112.357 155.227 112.134ZM146.836 117.894C146.595 118.523 146.444 119.182 146.388 119.853C146.781 119.306 147.096 118.708 147.323 118.074C147.561 117.458 147.712 116.811 147.771 116.154C147.378 116.698 147.064 117.295 146.836 117.926V117.894ZM157.537 120.902C156.989 121.017 156.456 121.196 155.95 121.434C155.332 121.703 154.756 122.061 154.241 122.496C154.905 122.391 155.552 122.193 156.161 121.907C156.652 121.688 157.118 121.415 157.55 121.094L157.537 120.902ZM137.255 115.782C136.97 116.02 136.73 116.306 136.545 116.627C136.756 116.55 136.967 116.467 137.185 116.378C137.803 116.105 138.378 115.745 138.894 115.309C138.329 115.395 137.778 115.556 137.255 115.789V115.782Z" fill="white"/>
<path d="M154.343 112.243C154.27 116.682 154.499 121.121 155.028 125.53H155.13C155.162 121.894 154.676 114.65 154.49 112.243C154.497 112.198 154.343 112.198 154.343 112.243Z" fill="#263238"/>
<path d="M157.709 125.005C157.811 125.645 157.869 126.285 157.952 126.963V127.168L157.728 127.123C156.359 126.835 154.989 126.56 153.632 126.227C152.275 125.894 150.919 125.549 149.575 125.165C148.231 124.781 146.887 124.384 145.568 123.923C144.25 123.462 142.925 123.002 141.639 122.432L145.696 123.494C147.047 123.846 148.397 124.198 149.741 124.563L153.779 125.664C155.123 126.022 156.461 126.438 157.805 126.816L157.613 126.976C157.664 126.317 157.664 125.664 157.709 125.005Z" fill="#263238"/>
<path d="M145.197 123.648C144.699 123.769 144.183 123.802 143.674 123.744C143.163 123.698 142.667 123.55 142.215 123.309C142.471 123.309 142.72 123.341 142.97 123.36L143.706 123.424C144.207 123.471 144.705 123.546 145.197 123.648Z" fill="#263238"/>
<path d="M50.0356 279.11C47.834 277.92 44.8516 277.363 42.5284 278.47C42.4388 278.509 42.5284 278.637 42.5796 278.637C45.047 278.628 47.5083 278.885 49.9204 279.405C49.9576 279.413 49.9966 279.408 50.0302 279.39C50.0639 279.372 50.09 279.342 50.1039 279.307C50.1178 279.271 50.1186 279.232 50.106 279.196C50.0935 279.16 50.0685 279.13 50.0356 279.11Z" fill="#263238"/>
<path d="M51.3989 280.672C49.1973 279.482 46.2149 278.925 43.8917 280.032C43.8021 280.07 43.8917 280.198 43.9429 280.198C46.4144 280.186 48.8799 280.442 51.2965 280.96C51.3306 280.961 51.3643 280.952 51.3926 280.933C51.4209 280.914 51.4424 280.886 51.4538 280.854C51.4652 280.822 51.4661 280.787 51.4562 280.754C51.4463 280.721 51.4262 280.692 51.3989 280.672Z" fill="#263238"/>
<path d="M52.762 282.24C50.5604 281.05 47.578 280.493 45.2548 281.6C45.1652 281.638 45.2548 281.766 45.3124 281.766C47.7824 281.761 50.2458 282.023 52.6596 282.547C52.7003 282.561 52.7448 282.558 52.7832 282.538C52.8216 282.519 52.8508 282.486 52.8644 282.445C52.8779 282.404 52.8748 282.36 52.8556 282.321C52.8364 282.283 52.8027 282.254 52.762 282.24Z" fill="#263238"/>
<path d="M54.1316 283.795C51.9236 282.605 48.9476 282.048 46.618 283.155C46.5284 283.194 46.618 283.322 46.6756 283.322C49.1457 283.316 51.6091 283.578 54.0228 284.102C54.0636 284.117 54.1084 284.114 54.1474 284.096C54.1864 284.077 54.2164 284.044 54.2308 284.003C54.2453 283.962 54.2429 283.918 54.2243 283.879C54.2057 283.84 54.1724 283.81 54.1316 283.795Z" fill="#263238"/>
<path d="M56.103 275.078C55.591 273.517 53.6902 273.536 52.4486 274.042C50.3338 274.955 48.4956 276.407 47.1174 278.253C47.1094 278.259 47.103 278.267 47.0986 278.275C47.0941 278.284 47.0918 278.294 47.0918 278.304C47.0918 278.314 47.0941 278.324 47.0986 278.333C47.103 278.342 47.1094 278.349 47.1174 278.355C47.0662 278.534 47.1622 278.778 47.3862 278.765C49.5558 278.669 51.8662 278.835 53.9526 278.08C55.1878 277.638 56.5894 276.557 56.103 275.078ZM50.6694 277.952C49.607 278.022 48.551 278.042 47.4694 278.157C48.5126 277.338 49.511 276.48 50.6694 275.763C51.2037 275.411 51.7619 275.097 52.3398 274.822C53.2422 274.413 56.4358 273.946 55.1942 276.384C54.503 277.76 51.9366 277.862 50.6694 277.952Z" fill="#263238"/>
<path d="M41.3567 275.731C43.0271 277.171 45.2607 277.843 47.2511 278.701C47.2966 278.716 47.3451 278.72 47.3925 278.713C47.4399 278.706 47.485 278.687 47.5238 278.659C47.5626 278.631 47.5942 278.594 47.6158 278.551C47.6373 278.508 47.6484 278.461 47.6479 278.413C47.6582 278.413 47.6684 278.411 47.6778 278.407C47.6871 278.403 47.6953 278.396 47.7016 278.388C47.7079 278.38 47.7121 278.37 47.7139 278.36C47.7157 278.35 47.715 278.339 47.7119 278.33C47.0803 276.116 45.8774 274.107 44.2239 272.506C43.2447 271.584 41.4783 270.893 40.4415 272.173C39.4047 273.453 40.3839 274.886 41.3567 275.731ZM40.8383 273.722C40.5439 271.002 43.3983 272.57 44.0383 273.274C44.4771 273.739 44.8874 274.231 45.2671 274.746C46.0607 275.814 46.6943 276.973 47.3791 278.106C46.4255 277.626 45.4591 277.229 44.4735 276.787C43.3471 276.256 40.9983 275.2 40.8383 273.722Z" fill="#263238"/>
<path d="M25.3438 275.757C25.203 276.608 25.0622 277.44 24.9342 278.246C24.0894 283.424 23.5902 287.418 23.9806 287.782C25.171 288.915 60.9022 296.102 62.2398 295.923C63.5774 295.744 63.187 291.942 62.0222 290.56C61.3118 289.722 56.4286 286.112 52.7102 283.418C50.3166 281.69 48.4094 280.326 48.4094 280.326L55.5774 257.158L31.5518 252.416C31.5518 252.416 25.5998 274.387 25.3438 275.757Z" fill="#FFC4C0"/>
<path d="M62.2398 295.923C60.9022 296.083 25.171 288.915 23.9806 287.782C23.5902 287.411 24.0894 283.424 24.9342 278.246C25.0622 277.446 25.1966 276.608 25.3438 275.757C25.427 275.277 26.2142 272.282 27.1934 268.589C30.675 269.28 44.6462 272.09 50.5726 273.28L48.3966 280.32C48.3966 280.32 50.3166 281.677 52.6974 283.411C56.4158 286.106 61.299 289.709 62.003 290.554C63.1806 291.942 63.571 295.75 62.2398 295.923Z" fill="#EBEBEB"/>
<path d="M62.5346 296.154C61.6514 296.256 46.157 293.178 34.925 290.656C32.3266 290.074 29.9586 289.517 28.0514 289.043C25.421 288.403 23.6674 287.878 23.4178 287.642C22.9826 287.219 25.7218 272.57 26.2018 270.874L49.9586 275.789L48.5634 280.179C48.5634 280.179 61.1458 289.242 62.3426 290.662C63.5394 292.083 63.8978 295.981 62.5346 296.154Z" fill="#0B7D77"/>
<path d="M61.9777 294.515C55.8785 293.12 31.1681 288 25.0369 287.066C24.9857 287.066 24.9793 287.066 25.0369 287.104C31.0401 288.64 55.7953 293.542 61.9521 294.618C62.0801 294.637 62.0801 294.547 61.9777 294.515Z" fill="#263238"/>
<path d="M55.5456 270.17C55.8016 270.048 62.7648 240.16 65.9392 227.974C70.5216 210.387 74.9632 181.722 76.2944 175.75C79.0425 168.875 80.909 161.68 81.8496 154.336H52.96C52.96 154.336 45.3888 168.819 49.28 179.059C49.6384 180 44.2368 216.179 41.44 222.061C39.0272 227.13 28 264.25 28 264.25L55.5456 270.17Z" fill="#37474F"/>
<path d="M55.3927 264.045C54.6887 263.789 53.9335 263.661 53.2039 263.469C52.4743 263.277 51.6615 263.078 50.8871 262.906C49.3383 262.554 47.7895 262.221 46.2407 261.882C43.1367 261.21 40.0263 260.602 36.9159 259.962C36.0626 259.787 35.2093 259.62 34.3559 259.462C33.5157 259.258 32.6591 259.127 31.7959 259.072C31.7879 259.076 31.7813 259.083 31.7766 259.091C31.772 259.099 31.7695 259.108 31.7695 259.117C31.7695 259.126 31.772 259.135 31.7766 259.143C31.7813 259.151 31.7879 259.157 31.7959 259.162C32.5006 259.425 33.2264 259.629 33.9655 259.77C34.7335 259.962 35.5079 260.141 36.2823 260.314C37.8055 260.659 39.3287 261.011 40.8583 261.344C43.9303 261.984 47.0087 262.694 50.0935 263.322C50.9703 263.494 51.8407 263.674 52.7239 263.821C53.6071 263.968 54.4775 264.198 55.3607 264.262C55.4375 264.256 55.5207 264.09 55.3927 264.045Z" fill="#263238"/>
<path d="M68.7357 174.426C68.1789 177.434 67.7181 180.461 67.2189 183.475C66.9693 185.018 66.6301 186.541 66.3741 188.077C66.1181 189.613 65.8813 191.098 65.6381 192.608C64.6567 198.688 63.6861 204.766 62.7261 210.842C62.2482 213.862 61.7639 216.879 61.2733 219.891C60.8224 222.863 60.2135 225.809 59.4493 228.717C58.6557 231.622 57.7213 234.477 56.8317 237.363L54.1117 246.208C52.3133 252.07 52.5693 253.069 50.9565 259.008C50.7581 259.744 50.5533 260.48 50.3165 261.216C50.3158 261.232 50.3208 261.248 50.3307 261.261C50.3406 261.274 50.3546 261.284 50.3705 261.287C50.3864 261.291 50.4031 261.289 50.4177 261.282C50.4324 261.275 50.4441 261.263 50.4509 261.248C52.4413 255.437 52.1661 254.438 54.0157 248.576C55.8653 242.714 57.7597 236.902 59.5197 231.04C60.3726 228.186 61.0544 225.284 61.5613 222.349C62.0733 219.328 62.5213 216.301 63.0077 213.274C63.9634 207.198 64.9341 201.12 65.9197 195.04C66.3933 192.058 66.9181 189.069 67.2893 186.08C67.6733 182.97 68.2109 179.878 68.6717 176.781C68.7869 176.019 68.8957 175.264 68.9981 174.502C68.9981 174.33 68.7677 174.259 68.7357 174.426Z" fill="#263238"/>
<path d="M93.5802 281.101C91.1162 280.627 88.1082 280.986 86.2138 282.726C86.1434 282.797 86.2138 282.899 86.3226 282.874C88.6781 282.128 91.1071 281.639 93.5674 281.414C93.604 281.409 93.6374 281.39 93.6621 281.363C93.6867 281.335 93.701 281.3 93.7025 281.263C93.704 281.226 93.6927 281.189 93.6704 281.16C93.6481 281.13 93.6162 281.109 93.5802 281.101Z" fill="#263238"/>
<path d="M95.3599 282.182C92.9023 281.709 89.8879 282.067 87.9999 283.808C87.9231 283.878 88 283.981 88.1024 283.955C90.4622 283.21 92.8954 282.72 95.3599 282.496C95.3961 282.489 95.4286 282.469 95.452 282.44C95.4753 282.412 95.4881 282.376 95.4881 282.339C95.4881 282.302 95.4753 282.267 95.452 282.238C95.4286 282.209 95.3961 282.19 95.3599 282.182Z" fill="#263238"/>
<path d="M97.1129 283.264C94.6553 282.79 91.6473 283.149 89.7529 284.89C89.6825 284.96 89.7529 285.062 89.8617 285.037C92.2172 284.292 94.6461 283.802 97.1065 283.578C97.1428 283.571 97.1758 283.552 97.1997 283.524C97.2237 283.496 97.2372 283.46 97.238 283.423C97.2387 283.386 97.2267 283.35 97.2039 283.321C97.1811 283.292 97.1489 283.272 97.1129 283.264Z" fill="#263238"/>
<path d="M98.8873 284.346C96.4297 283.872 93.4153 284.23 91.5273 285.971C91.4505 286.042 91.5273 286.144 91.6297 286.118C93.9854 285.374 96.4143 284.885 98.8745 284.659C98.9111 284.653 98.9445 284.635 98.9692 284.608C98.9938 284.58 99.0081 284.545 99.0096 284.508C99.0111 284.471 98.9997 284.434 98.9774 284.405C98.9551 284.375 98.9233 284.354 98.8873 284.346Z" fill="#263238"/>
<path d="M98.1564 275.443C97.1964 274.106 95.3916 274.688 94.3612 275.546C92.6103 277.047 91.2859 278.983 90.5212 281.158C90.5171 281.168 90.5152 281.178 90.5157 281.188C90.5162 281.198 90.5191 281.207 90.5241 281.216C90.529 281.225 90.536 281.232 90.5444 281.238C90.5528 281.243 90.5624 281.247 90.5724 281.248C90.5724 281.434 90.7452 281.638 90.9564 281.562C92.998 280.819 95.2636 280.282 97.0108 278.938C98.054 278.157 99.0652 276.704 98.1564 275.443ZM93.8364 279.808C92.8444 280.192 91.8396 280.531 90.8604 280.954C91.6092 279.866 92.3068 278.746 93.1644 277.754C93.5681 277.256 94.0065 276.788 94.4764 276.352C95.2124 275.712 98.1244 274.291 97.6764 276.992C97.4204 278.451 95.0204 279.341 93.8364 279.808Z" fill="#263238"/>
<path d="M84.2882 280.48C86.3106 281.357 88.6402 281.325 90.797 281.549C90.8448 281.55 90.8922 281.539 90.9354 281.518C90.9785 281.498 91.0162 281.467 91.0454 281.429C91.0746 281.391 91.0946 281.347 91.1037 281.3C91.1128 281.253 91.1107 281.204 91.0978 281.158C91.1047 281.152 91.1103 281.144 91.1141 281.135C91.1179 281.126 91.1199 281.117 91.1199 281.107C91.1199 281.098 91.1179 281.088 91.1141 281.079C91.1103 281.07 91.1047 281.063 91.0978 281.056C89.8299 279.132 88.0801 277.574 86.0226 276.538C84.813 275.962 82.9186 275.827 82.317 277.357C81.7154 278.886 83.1042 279.968 84.2882 280.48ZM83.2002 278.72C82.1058 276.211 85.2674 276.864 86.1442 277.325C86.7051 277.633 87.244 277.979 87.757 278.362C88.8386 279.142 89.7858 280.058 90.7778 280.922C89.7282 280.749 88.6722 280.666 87.6098 280.531C86.3362 280.384 83.789 280.102 83.2002 278.72Z" fill="#263238"/>
<path d="M68.9283 278.266C68.9283 279.725 69.5683 294.323 70.0099 294.605C71.3987 295.488 107.847 295.59 109.12 295.174C110.394 294.758 109.28 291.085 107.84 289.958C106.983 289.267 101.498 286.675 97.3251 284.755C94.6435 283.52 92.5059 282.56 92.5059 282.56L92.6211 278.278L92.9539 258.803H68.8899C68.8899 258.803 68.7683 268.8 68.9283 278.266Z" fill="#FFC4C0"/>
<path d="M109.127 295.174C107.847 295.59 71.3994 295.482 70.017 294.605C69.5626 294.317 68.9482 279.725 68.929 278.272C68.929 277.306 68.929 276.352 68.8906 275.366H92.6922L92.641 278.272L92.5194 282.541L97.3386 284.742C101.505 286.662 106.99 289.267 107.854 289.952C109.281 291.085 110.395 294.752 109.127 295.174Z" fill="#EBEBEB"/>
<path d="M109.985 295.469C109.14 295.75 93.345 295.75 81.825 295.469C79.1626 295.405 76.705 295.322 74.785 295.232C72.0778 295.098 70.2602 294.944 69.9658 294.752C69.4538 294.426 68.7306 279.52 68.8714 277.766L92.9482 277.888L93.0378 282.477C93.0378 282.477 107.278 288.96 108.731 290.118C110.183 291.277 111.291 295.04 109.985 295.469Z" fill="#0B7D77"/>
<path d="M109.114 293.978C102.861 293.786 77.6258 293.6 71.4306 293.882C71.3858 293.882 71.3794 293.92 71.4306 293.92C77.6258 294.246 102.861 294.227 109.114 294.08C109.248 294.074 109.248 293.978 109.114 293.978Z" fill="#263238"/>
<path d="M64.6403 180.179C64.6403 180.179 68.7555 220.563 68.8195 221.51C68.8195 221.888 67.0531 271.238 67.0531 271.238H94.2723C94.2723 271.238 93.2995 224.992 92.8835 219.29C92.8387 218.65 91.0787 177.574 83.1555 154.336H52.9219C52.9219 154.336 53.1843 167.987 59.3923 177.862C61.1829 178.538 62.9349 179.311 64.6403 180.179Z" fill="#37474F"/>
<path d="M92.5509 266.138C91.8021 266.029 91.0406 266.054 90.2854 266.016C89.5302 265.978 88.7045 265.939 87.9109 265.92C86.3237 265.888 84.7109 265.875 83.1493 265.856C79.9493 265.818 76.8006 265.856 73.6262 265.856H71.0278C70.153 265.824 69.277 265.869 68.4102 265.99C68.3654 265.99 68.3718 266.074 68.4102 266.086C69.151 266.203 69.9002 266.258 70.6502 266.253C71.4438 266.285 72.2374 266.304 73.031 266.317C74.5926 266.349 76.1542 266.387 77.7222 266.406C80.8646 266.445 84.0134 266.502 87.1622 266.49C88.0582 266.49 88.9478 266.49 89.8438 266.458C90.7397 266.426 91.6357 266.458 92.5189 266.355C92.6341 266.336 92.6853 266.157 92.5509 266.138Z" fill="#263238"/>
<path d="M86.4008 223.77C85.684 209.222 84.1544 194.739 82.228 180.314C81.1784 172.41 79.9432 164.518 77.8056 156.826C77.8056 156.826 77.748 156.826 77.7544 156.826C79.4212 163.863 80.6778 170.992 81.5176 178.176C82.4136 185.28 83.2712 192.397 83.9944 199.526C85.46 213.99 86.1128 228.506 86.2024 243.046C86.2536 251.226 86.036 255.078 85.8056 263.251C85.8056 263.328 85.9208 263.322 85.9272 263.251C87.1112 248.71 87.092 238.336 86.4008 223.77Z" fill="#263238"/>
<path d="M84.9224 159.962C84.9224 159.95 84.9177 159.938 84.9093 159.93C84.9009 159.922 84.8895 159.917 84.8776 159.917C84.8657 159.917 84.8544 159.922 84.8459 159.93C84.8375 159.938 84.8328 159.95 84.8328 159.962C84.948 161.683 85.2424 163.558 84.4744 165.184C83.8024 166.611 82.516 167.418 81.332 168.384C81.332 168.416 81.332 168.474 81.3832 168.461C82.9512 167.987 84.5192 167.117 85.14 165.504C85.8312 163.718 85.4536 161.754 84.9224 159.962Z" fill="#263238"/>
<path d="M71.8149 179.29C70.5527 179.252 69.2893 179.295 68.0325 179.418C66.8016 179.483 65.5676 179.461 64.3397 179.354C63.7237 179.29 63.1124 179.187 62.5093 179.046C61.8693 178.899 61.2933 178.669 60.6725 178.496C60.1088 178.373 59.523 178.395 58.9701 178.56C58.3301 178.707 57.6901 178.81 56.9925 178.899C55.4772 179.12 53.941 179.159 52.4165 179.014C52.3589 179.014 52.3333 179.098 52.4165 179.11C53.6984 179.379 55.0045 179.514 56.3141 179.514C56.9851 179.499 57.6543 179.439 58.3173 179.334C58.9259 179.156 59.5586 179.074 60.1925 179.091C60.8142 179.257 61.4254 179.46 62.0229 179.699C62.6316 179.87 63.2519 179.996 63.8789 180.077C65.1347 180.243 66.4041 180.282 67.6677 180.192C69.0931 180.16 70.5084 179.945 71.8789 179.552C71.9137 179.544 71.9437 179.522 71.9623 179.491C71.9809 179.46 71.9866 179.424 71.9781 179.389C71.9696 179.354 71.9477 179.324 71.9171 179.305C71.8864 179.287 71.8497 179.281 71.8149 179.29Z" fill="#263238"/>
<path d="M68.1603 212.333C67.9214 209.717 67.6654 207.102 67.3923 204.486C66.8419 199.251 66.3235 194.016 65.7859 188.781C65.4787 185.811 65.2611 182.816 64.7747 179.872C64.7747 179.795 64.6403 179.795 64.6467 179.872C64.6851 182.496 64.9667 185.12 65.1907 187.738C65.4147 190.355 65.6451 192.973 65.8883 195.59C66.3811 200.826 66.8483 206.067 67.4627 211.296C67.6376 212.777 67.8211 214.27 68.0131 215.776C68.2115 217.261 68.4739 218.739 68.6531 220.224C68.6531 220.238 68.6585 220.251 68.6681 220.26C68.6777 220.27 68.6907 220.275 68.7043 220.275C68.7179 220.275 68.7309 220.27 68.7405 220.26C68.7501 220.251 68.7555 220.238 68.7555 220.224C68.5251 217.6 68.4035 214.95 68.1603 212.333Z" fill="#263238"/>
<path d="M68.3717 121.51C68.5765 122.074 71.8085 125.491 74.4389 125.037C75.2965 124.89 74.6949 120.173 74.6949 120.173L74.7269 119.814L75.2197 114.803L69.0309 111.834L68.1413 111.45C68.1413 111.45 68.0965 112.832 68.0645 114.547C68.0645 114.63 68.0645 114.707 68.0645 114.797C68.0645 114.886 68.0645 114.982 68.0645 115.072V115.853C68.0645 116.058 68.0645 116.25 68.0645 116.454C68.0645 116.659 68.0645 116.87 68.0645 117.094C68.0627 118.572 68.1654 120.047 68.3717 121.51Z" fill="#FFC4C0"/>
<path d="M68.0645 114.56C68.7252 115.87 69.6636 117.019 70.8142 117.929C71.9649 118.839 73.3001 119.486 74.7269 119.827L75.2197 114.816L69.0309 111.846L68.1413 111.462C68.1413 111.462 68.0965 112.832 68.0645 114.56Z" fill="#263238"/>
<path d="M82.9129 146.445L83.1561 154.336H52.9609C52.9609 154.336 56.5193 130.944 64.4809 122.336C68.4617 118.01 72.6921 118.822 75.6745 121.843C76.4233 122.611 84.6729 133.363 85.6201 137.907C86.4457 141.875 82.9129 146.445 82.9129 146.445Z" fill="#0B7D77"/>
<path opacity="0.1" d="M83.1243 153.395H53.1211C53.1595 153.152 53.2107 152.87 53.2683 152.55H83.1051L83.1243 153.395ZM83.0283 150.195H53.7099C53.6523 150.49 53.5947 150.771 53.5435 151.04H83.0539L83.0283 150.195ZM82.9579 147.834H54.2027C54.1387 148.122 54.0811 148.403 54.0235 148.678H82.9835L82.9579 147.834ZM54.7403 145.466C54.6763 145.754 54.6059 146.035 54.5419 146.31H83.0155C83.1371 146.15 83.3419 145.856 83.5851 145.466H54.7403ZM55.3227 143.104L55.1115 143.949H84.4363C84.5771 143.68 84.7051 143.398 84.8331 143.104H55.3227ZM55.9627 140.742L55.7323 141.587H85.3771C85.4539 141.312 85.5243 141.03 85.5819 140.742H55.9627ZM85.7099 138.381H56.6539C56.5643 138.662 56.4811 138.944 56.3979 139.226H85.7611C85.7581 138.941 85.7389 138.657 85.7035 138.374L85.7099 138.381ZM85.0059 136.019H57.4091C57.3131 136.301 57.2235 136.582 57.1275 136.864H85.3259C85.2363 136.589 85.1211 136.32 84.9995 136.013L85.0059 136.019ZM83.8283 133.651H58.2411C58.1323 133.933 58.0299 134.214 57.9275 134.502H84.2699C84.1355 134.214 83.9819 133.933 83.8411 133.645L83.8283 133.651ZM82.4395 131.29H59.1819C59.0624 131.571 58.9472 131.853 58.8363 132.134H82.9515C82.7851 131.849 82.6123 131.565 82.4331 131.283L82.4395 131.29ZM80.9163 128.928H60.2379C60.1035 129.21 59.9691 129.491 59.8411 129.773H81.4667L80.9163 128.928ZM79.2907 126.566H61.4731C61.3131 126.842 61.1531 127.123 61.0059 127.411H79.8667C79.6747 127.117 79.4763 126.835 79.2843 126.56L79.2907 126.566ZM77.5691 124.205H62.9579C62.7595 124.48 62.5739 124.762 62.3883 125.05H78.1835L77.5691 124.205ZM75.7067 121.843H64.9227C64.7776 121.988 64.6304 122.142 64.4811 122.304C64.3318 122.466 64.2166 122.594 64.1355 122.688H76.3979C76.0651 122.24 75.8219 121.965 75.7003 121.837L75.7067 121.843ZM71.7899 119.475H68.8971C68.1811 119.65 67.4966 119.935 66.8683 120.32H73.8059C73.1779 119.937 72.4963 119.65 71.7835 119.469L71.7899 119.475Z" fill="#030402"/>
<path d="M73.0426 128.442C78.4506 130.515 98.6042 135.13 102.847 131.603C109.51 126.067 114.719 116.147 117.407 108.013C118.335 105.184 100.575 102.746 99.6026 105.939C98.3226 110.099 95.1226 117.67 94.2714 118.97C93.4202 120.269 81.369 120.486 73.241 121.248C66.457 121.882 66.1818 125.818 73.0426 128.442Z" fill="#FFC4C0"/>
<path d="M101.716 87.04C102.201 86.8764 102.725 86.8653 103.217 87.0084C103.709 87.1514 104.145 87.4416 104.468 87.84C104.995 87.1501 105.746 86.6658 106.592 86.4704C108.103 86.2016 109.191 88.448 109.191 88.448C109.886 87.8445 110.747 87.4652 111.661 87.36C113.133 87.2448 114.554 89.3568 114.554 89.3568C115.499 89.155 116.485 89.3004 117.332 89.7664C119.54 91.1104 119.591 95.0528 119.655 97.5616C119.719 100.07 117.536 107.238 117.261 108.646L101.824 110.138C101.824 110.138 97.0884 103.482 98.0484 95.0464C98.3364 92.5376 99.8852 87.7248 101.716 87.04Z" fill="#FFC4C0"/>
<path d="M104.211 87.9488C103.264 90.5088 103.13 93.2352 102.842 95.936C102.845 95.9458 102.852 95.9542 102.861 95.9602C102.869 95.9662 102.879 95.9694 102.89 95.9694C102.9 95.9694 102.91 95.9662 102.919 95.9602C102.928 95.9542 102.934 95.9458 102.938 95.936C103.194 93.2416 103.975 90.6368 104.339 87.9616C104.352 87.904 104.237 87.8784 104.211 87.9488Z" fill="#263238"/>
<path d="M108.98 88.4928C108.82 89.0983 108.742 89.7226 108.749 90.3488C108.711 90.9888 108.685 91.6736 108.666 92.3328C108.666 93.6576 108.666 94.9888 108.666 96.3136C108.666 96.3712 108.756 96.384 108.756 96.3136C108.79 94.9909 108.847 93.6683 108.928 92.3456C108.971 91.6843 109.022 91.0251 109.082 90.368C109.174 89.7495 109.195 89.1226 109.146 88.4992C109.138 88.4842 109.127 88.4716 109.112 88.4626C109.098 88.4536 109.082 88.4485 109.065 88.4478C109.048 88.4472 109.031 88.451 109.016 88.4589C109.001 88.4668 108.989 88.4785 108.98 88.4928Z" fill="#263238"/>
<path d="M114.561 89.3952C114.427 89.9457 114.386 90.5145 114.439 91.0784C114.439 91.6864 114.439 92.288 114.439 92.896C114.439 94.1056 114.407 95.3088 114.35 96.5184C114.35 96.5824 114.439 96.5888 114.439 96.5184C114.51 95.2896 114.593 94.0608 114.644 92.8384C114.644 92.1984 114.695 91.6288 114.714 91.0272C114.785 90.4786 114.759 89.9219 114.638 89.3824C114.636 89.3722 114.63 89.3631 114.622 89.3571C114.613 89.3511 114.603 89.3487 114.593 89.3504C114.583 89.3521 114.574 89.3578 114.568 89.3662C114.562 89.3746 114.559 89.385 114.561 89.3952Z" fill="#263238"/>
<path d="M95.8729 114.56L110.241 126.253C110.241 126.253 104.775 132.429 101.806 133.062C98.8361 133.696 82.7657 132.774 73.6457 129.088C64.5257 125.402 66.8553 121.824 73.5177 121.043C80.1801 120.262 92.5257 118.797 92.9289 118.554C93.3321 118.31 95.8729 114.56 95.8729 114.56Z" fill="#0B7D77"/>
<path opacity="0.1" d="M74.9816 129.594C74.5294 129.436 74.0878 129.269 73.6568 129.094C73.1896 128.902 72.748 128.717 72.3384 128.531L67.7112 124.749C67.6136 124.4 67.6339 124.029 67.7688 123.693L74.9816 129.594ZM69.5224 122.086C69.251 122.214 68.9918 122.366 68.748 122.541L78.764 130.726C79.404 130.886 80.044 131.04 80.6456 131.174L69.5224 122.086ZM72.236 121.248C71.8648 121.318 71.5192 121.395 71.1864 121.485L83.8392 131.84C84.4024 131.942 84.9656 132.038 85.5288 132.128L72.236 121.248ZM75.436 120.826L74.2648 120.96L88.3896 132.48C88.9144 132.55 89.4392 132.614 89.9512 132.666L75.436 120.826ZM78.6936 120.442L77.5352 120.582L92.684 132.96L94.1496 133.075L78.6936 120.442ZM81.9512 120.051L80.7928 120.192L96.7224 133.21L98.0984 133.248L81.9512 120.051ZM85.196 119.648L84.0376 119.795L100.454 133.235C100.853 133.221 101.25 133.18 101.644 133.114L85.196 119.648ZM88.396 119.238L87.244 119.392L103.244 132.454C103.494 132.314 103.743 132.154 103.999 131.981L88.396 119.238ZM91.596 118.803L90.4568 118.963L105.228 131.04C105.452 130.867 105.676 130.682 105.868 130.496L91.596 118.803ZM93.7528 117.523C93.5608 117.786 93.388 118.016 93.2408 118.163L107.039 129.446L107.679 128.858L93.7528 117.523ZM95.1288 115.603L94.6424 116.294L108.722 127.814L109.305 127.174L95.1288 115.603Z" fill="#030402"/>
<path d="M106.962 127.699C103.122 124.314 99.2312 120.934 95.0712 117.939C95.0627 117.933 95.0522 117.931 95.042 117.933C95.0318 117.935 95.0228 117.94 95.0168 117.949C95.0109 117.957 95.0086 117.968 95.0104 117.978C95.0122 117.988 95.0179 117.997 95.0264 118.003C98.764 121.504 102.834 124.653 106.892 127.77C106.943 127.808 107.007 127.738 106.962 127.699Z" fill="#263238"/>
<path d="M65.9644 100.806C65.7055 101.002 65.3948 101.118 65.0706 101.14C64.7465 101.162 64.4232 101.088 64.1404 100.928C63.334 100.608 62.3036 99.776 61.4268 100.358C60.4412 100.998 60.7868 102.426 61.254 103.27C61.7063 103.982 62.1083 104.724 62.4572 105.491C62.7341 106.232 62.8771 107.017 62.8796 107.808C62.8796 109.402 62.0092 110.874 62.1116 112.461C62.246 114.381 64.0316 115.763 65.5548 116.634C67.078 117.504 68.934 117.856 70.6748 118.464C72.1361 119.023 73.4331 119.941 74.4464 121.134C75.4598 122.326 76.1567 123.754 76.4732 125.286C76.6465 126.039 76.7472 126.806 76.774 127.578C76.774 128.403 76.7164 129.235 76.774 130.061C76.7995 130.529 76.9365 130.984 77.1737 131.388C77.4108 131.792 77.7412 132.134 78.1372 132.384C78.8935 132.782 79.7151 133.04 80.5628 133.146C80.5897 133.153 80.6139 133.168 80.6326 133.189C80.6513 133.21 80.6637 133.235 80.6684 133.263C80.6731 133.29 80.6698 133.318 80.6591 133.344C80.6483 133.37 80.6305 133.392 80.6076 133.408C80.146 133.727 79.6627 134.014 79.1612 134.266C78.7287 134.516 78.2505 134.677 77.7549 134.739C77.2592 134.802 76.756 134.765 76.2748 134.63C75.1868 134.246 74.534 133.229 73.9388 132.307C73.285 131.204 72.3653 130.282 71.2636 129.626C70.1261 129.024 68.8948 128.619 67.622 128.429C65.158 128.006 62.6364 128.134 60.1852 127.616C58.9968 127.405 57.8632 126.956 56.8525 126.296C55.8418 125.637 54.9748 124.779 54.3036 123.776C53.6447 122.756 53.2085 121.609 53.0236 120.41C52.8867 119.099 52.9558 117.775 53.2284 116.486C53.742 113.723 53.9246 110.909 53.7724 108.102C53.6767 106.78 53.51 105.464 53.2732 104.16C53.0243 102.943 52.902 101.703 52.9084 100.461C52.9343 99.3838 53.2438 98.3327 53.8056 97.4136C54.3674 96.4944 55.1618 95.7397 56.1084 95.2256C57.0397 94.6798 58.0957 94.3825 59.175 94.3624C60.2543 94.3422 61.3206 94.5998 62.2716 95.1104C65.3564 96.8704 66.3676 100.41 65.9644 100.806Z" fill="#263238"/>
<path d="M62.5273 113.862C62.8794 114.714 63.4016 115.485 64.0619 116.127C64.7222 116.77 65.5067 117.271 66.3673 117.6C68.1273 118.24 70.0601 118.278 71.8521 118.88C73.518 119.371 75.0026 120.342 76.1209 121.67C77.0673 122.999 77.5609 124.597 77.5289 126.227C77.5929 128.07 77.4073 129.907 77.6057 131.744C77.6057 131.776 77.5545 131.789 77.5481 131.744C76.9081 128.544 78.1433 124.96 76.1401 122.099C74.9183 120.513 73.1869 119.396 71.2377 118.938C69.5417 118.458 67.7113 118.413 66.0793 117.715C65.2602 117.342 64.5239 116.81 63.9139 116.148C63.3039 115.486 62.8325 114.709 62.5273 113.862Z" fill="#263238"/>
<path d="M52.7115 122.714C52.5468 121.639 52.5816 120.544 52.8139 119.482C53.0507 118.202 53.3515 116.922 53.6267 115.642C53.4027 116.736 53.2171 117.843 53.0251 118.95C52.808 119.991 52.737 121.058 52.8139 122.118C52.9581 123.165 53.3362 124.166 53.9201 125.047C54.504 125.928 55.2786 126.666 56.1867 127.206C58.0299 128.339 60.1291 128.557 62.2411 128.563C64.1182 128.53 65.9954 128.622 67.8603 128.838C69.9505 129.068 71.9694 129.733 73.7867 130.79C73.7867 130.79 73.7867 130.854 73.7867 130.835C70.1259 128.691 65.9275 128.8 61.8315 128.806C59.8052 128.903 57.7935 128.419 56.0331 127.411C55.1852 126.9 54.4524 126.218 53.8808 125.41C53.3091 124.601 52.911 123.683 52.7115 122.714Z" fill="#263238"/>
<path d="M64.6852 102.861C64.8004 102.861 66.362 101.222 66.5284 101.062C66.6948 100.902 68.346 99.3728 68.3716 99.264C67.8364 98.7274 67.2074 98.2935 66.5156 97.984C66.0996 97.8944 64.858 98.9312 64.6532 99.1232C64.4484 99.3152 63.3732 100.544 63.4756 100.966C63.7616 101.665 64.1713 102.307 64.6852 102.861Z" fill="#0B7D77"/>
<path d="M81.7353 106.131C84.0521 114.662 79.2457 117.094 77.3577 117.51C75.6681 117.888 69.9401 119.283 66.7593 111.034C63.5785 102.784 66.8105 99.0144 70.5993 97.7792C74.3881 96.544 79.4249 97.5936 81.7353 106.131Z" fill="#FFC4C0"/>
<path d="M80.8131 104.403C80.6083 104.403 80.4163 104.403 80.1731 104.403C79.9514 104.434 79.7257 104.389 79.5331 104.275C79.4816 104.23 79.4462 104.17 79.4323 104.103C79.4184 104.035 79.4269 103.966 79.4563 103.904C79.5369 103.79 79.6462 103.699 79.7732 103.64C79.9002 103.582 80.0403 103.558 80.1795 103.571C80.4633 103.559 80.7416 103.652 80.9603 103.834C81.003 103.875 81.0339 103.928 81.0499 103.985C81.066 104.043 81.0665 104.103 81.0516 104.161C81.0367 104.219 81.0068 104.272 80.9649 104.314C80.923 104.357 80.8707 104.387 80.8131 104.403Z" fill="#263238"/>
<path d="M75.2773 105.811C75.4672 105.743 75.6531 105.664 75.8341 105.574C76.0459 105.517 76.2328 105.391 76.3653 105.216C76.3959 105.154 76.4049 105.084 76.391 105.017C76.3771 104.95 76.341 104.889 76.2885 104.845C76.1695 104.774 76.0335 104.736 75.8949 104.736C75.7563 104.736 75.6203 104.774 75.5013 104.845C75.2259 104.934 74.9962 105.126 74.8613 105.382C74.8403 105.441 74.8362 105.504 74.8493 105.565C74.8625 105.626 74.8924 105.682 74.9357 105.726C74.9791 105.771 75.034 105.803 75.0944 105.818C75.1548 105.833 75.2181 105.83 75.2773 105.811Z" fill="#263238"/>
<path d="M76.9739 107.693C76.9739 107.693 76.9355 107.731 76.9739 107.757C77.1211 108.339 77.1915 109.037 76.7051 109.344C76.7051 109.344 76.7051 109.382 76.7051 109.376C77.3131 109.146 77.2107 108.224 76.9739 107.693Z" fill="#263238"/>
<path d="M76.3135 107.2C75.3535 107.334 75.6735 109.248 76.5887 109.12C77.5039 108.992 77.1199 107.078 76.3135 107.2Z" fill="#263238"/>
<path d="M75.9554 107.366C75.8082 107.507 75.6802 107.725 75.4818 107.782C75.2834 107.84 75.0402 107.68 74.8418 107.514C74.9058 107.885 75.1106 108.23 75.4818 108.218C75.853 108.205 76.0514 107.834 76.077 107.443C76.0898 107.398 76.013 107.309 75.9554 107.366Z" fill="#263238"/>
<path d="M80.0962 106.79C80.0962 106.79 80.1474 106.79 80.1538 106.835C80.237 107.43 80.4354 108.115 81.005 108.205V108.237C80.333 108.256 80.0834 107.366 80.0962 106.79Z" fill="#263238"/>
<path d="M80.5193 106.08C81.4665 105.837 81.8697 107.738 80.9993 107.962C80.1289 108.186 79.7321 106.278 80.5193 106.08Z" fill="#263238"/>
<path d="M80.9481 106.118C81.1145 106.189 81.3065 106.336 81.4857 106.31C81.6649 106.285 81.8057 106.042 81.8953 105.818C81.8953 105.818 81.8953 105.818 81.9337 105.818C82.0169 106.182 81.9785 106.586 81.6457 106.726C81.3129 106.867 81.0377 106.598 80.8777 106.253C80.8457 106.202 80.8777 106.093 80.9481 106.118Z" fill="#263238"/>
<path d="M79.853 109.658C79.853 109.658 80.141 110.515 80.2242 110.938C80.2242 110.976 80.1346 111.014 79.9938 111.053C79.6489 111.187 79.2737 111.224 78.9092 111.16C78.5447 111.095 78.2048 110.932 77.9266 110.688C77.9201 110.68 77.9164 110.671 77.916 110.661C77.9157 110.651 77.9187 110.641 77.9246 110.633C77.9305 110.625 77.9389 110.619 77.9486 110.616C77.9583 110.613 77.9685 110.614 77.9778 110.618C78.5831 110.879 79.2566 110.937 79.8978 110.784C79.8978 110.662 79.3474 109.331 79.4114 109.312C79.7399 109.279 80.0714 109.289 80.397 109.344C79.8402 107.539 79.0018 105.83 78.477 104.026C78.4721 104.012 78.4723 103.998 78.4775 103.985C78.4828 103.971 78.4927 103.961 78.5053 103.954C78.518 103.948 78.5326 103.946 78.5462 103.95C78.5599 103.954 78.5717 103.963 78.5794 103.974C79.5386 105.775 80.3168 107.665 80.9026 109.619C80.9474 109.843 80.0322 109.696 79.853 109.658Z" fill="#263238"/>
<path d="M79.8978 110.72C79.7516 111.116 79.5071 111.468 79.1874 111.744C79.0042 111.889 78.7807 111.974 78.5474 111.987C78.0482 111.987 77.9074 111.59 77.869 111.2C77.8432 110.987 77.8432 110.773 77.869 110.56C78.5098 110.833 79.2221 110.889 79.8978 110.72Z" fill="#263238"/>
<path d="M79.1875 111.757C79.0044 111.902 78.7809 111.987 78.5475 112C78.0483 112 77.9075 111.603 77.8691 111.213C78.118 111.141 78.3839 111.156 78.6233 111.255C78.8628 111.353 79.0617 111.53 79.1875 111.757Z" fill="#FF98B9"/>
<path d="M68.0255 113.773C68.7743 113.638 68.0255 108.928 68.0255 108.928C68.0255 108.928 70.9567 107.36 71.0911 102.906C71.2502 104.202 71.0277 105.516 70.4511 106.688C70.4511 106.688 75.5711 105.094 76.8959 100.288C76.8959 100.288 76.4607 102.688 75.7951 103.642C77.0399 102.975 78.0215 101.905 78.5791 100.608C78.5791 100.608 79.9935 102.95 80.8383 103.507C80.8383 103.507 79.8719 94.624 70.5343 97.0624C68.8566 97.4698 67.3233 98.3307 66.102 99.5508C64.8807 100.771 64.0184 102.304 63.6095 103.981C62.9375 106.842 63.8911 110.24 65.0687 112.147C65.8047 113.28 68.0255 113.773 68.0255 113.773Z" fill="#263238"/>
<path d="M70.4011 109.638C70.4011 109.638 68.2315 107.078 67.0411 107.859C65.8507 108.64 67.6811 112.512 69.1787 112.922C69.3689 112.987 69.5704 113.014 69.771 112.999C69.9717 112.985 70.1675 112.931 70.3467 112.84C70.5259 112.748 70.6848 112.622 70.814 112.468C70.9432 112.313 71.0401 112.135 71.0987 111.942L70.4011 109.638Z" fill="#FFC4C0"/>
</svg>
