<svg width="416" height="416" viewBox="0 0 416 416" fill="none" xmlns="http://www.w3.org/2000/svg">
<path d="M75.3791 286.632C75.3791 285.035 75.2876 283.454 75.2709 281.89L75.5039 282.123C71.7266 282.164 67.941 282.256 64.1637 282.264L52.8236 282.314L53.2479 281.89V291.474L52.8652 291.092C54.7289 291.092 56.5925 291.092 58.4729 291.141L64.0639 291.2L75.5039 291.441L75.3791 286.632ZM64.2636 291.707L58.5561 291.807C56.6508 291.807 54.7372 291.807 52.8236 291.857H52.4159V291.474V281.89V281.457H52.8485L64.1887 281.515C67.966 281.515 71.7516 281.607 75.5289 281.657H75.7119V281.89C75.7119 283.512 75.637 285.134 75.6037 286.732L75.4789 291.474L64.2636 291.707Z" fill="#EBEBEB"/>
<path d="M62.7328 298.688C62.6912 297.09 62.6329 295.518 62.6163 293.945L62.8492 294.178C59.072 294.228 55.2947 294.32 51.5091 294.32L40.1689 294.378L40.6015 293.945L40.5516 303.53L40.1689 303.147C42.0409 303.147 43.9046 303.147 45.7766 303.197L51.4092 303.297L62.8492 303.53L62.7328 298.688ZM51.584 303.796L45.8764 303.888C43.9711 303.929 42.0575 303.888 40.1439 303.938H39.7612V303.547V293.962V293.538H40.1939L51.534 293.588C55.3196 293.588 59.0969 293.687 62.8742 293.729H63.1155V293.954C63.1155 295.618 63.0406 297.198 63.0073 298.796L62.8825 303.538L51.584 303.796Z" fill="#EBEBEB"/>
<path d="M88.0338 298.688C88.0338 297.09 87.934 295.518 87.9173 293.945L88.1586 294.178C84.373 294.228 80.5957 294.32 76.8185 294.32L65.4783 294.378L65.9026 293.945L65.8527 303.53L65.4783 303.147C67.342 303.147 69.2057 303.147 71.0777 303.197L76.7186 303.297L88.1586 303.53L88.0338 298.688ZM76.91 303.771L71.2108 303.863C69.3055 303.904 67.3836 303.863 65.4783 303.913H65.0956V303.522L65.0457 293.937V293.513H65.4783L76.8185 293.563C80.5957 293.563 84.373 293.662 88.1586 293.704H88.3916V293.929C88.3916 295.593 88.3167 297.174 88.2751 298.771L88.1586 303.513L76.91 303.771Z" fill="#EBEBEB"/>
<path d="M363.251 298.688C363.21 297.091 363.151 295.518 363.135 293.946L363.368 294.179C359.59 294.229 355.813 294.32 352.027 294.32L340.687 294.378L341.12 293.946L341.07 303.53L340.687 303.148C342.559 303.148 344.423 303.148 346.295 303.198L351.936 303.297L363.368 303.53L363.251 298.688ZM352.127 303.772L346.428 303.863C344.515 303.905 342.601 303.863 340.687 303.913H340.288V303.522V293.971V293.546H340.712L352.052 293.596C355.838 293.596 359.615 293.696 363.393 293.738H363.584V293.962C363.584 295.626 363.509 297.207 363.467 298.805L363.343 303.547L352.127 303.772Z" fill="#EBEBEB"/>
<path d="M363.251 45.7599C363.21 44.1625 363.151 42.59 363.135 41.0175L363.368 41.2505C359.59 41.2921 355.813 41.3836 352.027 41.3919L340.687 41.4418L341.12 41.0175L341.07 50.6022L340.687 50.2194C342.559 50.2194 344.423 50.2194 346.295 50.2694L351.936 50.3609L363.368 50.6022L363.251 45.7599ZM352.127 50.8434L346.428 50.935C344.515 50.9766 342.601 50.935 340.687 50.9849H340.288V50.6022V41.0508V40.6182H340.712L352.052 40.6681C355.838 40.6681 359.615 40.7679 363.393 40.8095H363.584V41.0425C363.584 42.6649 363.509 44.2873 363.467 45.8847L363.343 50.6271L352.127 50.8434Z" fill="#EBEBEB"/>
<path d="M375.906 57.8739C375.864 56.2847 375.806 54.7039 375.789 53.1398L376.022 53.3727C372.245 53.3727 368.459 53.5059 364.682 53.5059L353.342 53.5641L353.766 53.1398L353.725 62.7161L353.342 62.3417C355.214 62.3417 357.078 62.3417 358.95 62.3417L364.582 62.4416L376.022 62.6745L375.906 57.8739ZM364.782 62.9574L359.075 63.0572C357.169 63.0572 355.256 63.0572 353.342 63.0572H352.959V62.6662L352.918 53.0899V52.6572H353.35L364.691 52.7155C368.468 52.7155 372.253 52.807 376.031 52.8486H376.272V53.0815C376.272 54.7039 376.197 56.318 376.164 57.9238L376.064 62.7161L364.782 62.9574Z" fill="#EBEBEB"/>
<path d="M62.7328 45.8015C62.6912 44.204 62.6329 42.6316 62.6163 41.0591L62.8492 41.292C59.072 41.342 55.2947 41.4335 51.5091 41.4335L40.1689 41.4917L40.6015 41.0591L40.5516 50.6437L40.1689 50.261C42.0409 50.261 43.9046 50.261 45.7766 50.3109L51.4092 50.4024L62.8492 50.6437L62.7328 45.8015ZM51.584 50.885L45.8764 50.9765C43.9711 50.9765 42.0575 50.9765 40.1439 51.0264H39.7612V50.6437V41.0591V40.6348H40.1939L51.534 40.6847C55.3196 40.6847 59.0969 40.7845 62.8742 40.8261H63.1155V41.0591C63.1155 42.7231 63.0406 44.3039 63.0073 45.9013L62.8825 50.6437L51.584 50.885Z" fill="#EBEBEB"/>
<path d="M230.996 272.255C231.038 273.853 231.096 275.433 231.105 276.998L230.872 276.765C234.657 276.765 238.435 276.632 242.212 276.623L253.552 276.573L253.128 276.998L253.178 267.413L253.552 267.796C251.688 267.796 249.825 267.796 247.953 267.754L242.312 267.654L230.872 267.413L230.996 272.255ZM242.12 267.18L247.819 267.08C249.725 267.039 251.647 267.08 253.552 267.039H253.935V267.421L253.985 277.006V277.439H253.552L242.212 277.38C238.435 277.38 234.657 277.289 230.872 277.239H230.639V277.006C230.639 275.384 230.714 273.769 230.755 272.164L230.872 267.421L242.12 267.18Z" fill="#EBEBEB"/>
<path d="M243.651 260.175C243.651 261.772 243.743 263.345 243.759 264.917L243.526 264.684C247.304 264.634 251.089 264.543 254.867 264.543L266.207 264.484L265.782 264.917L265.824 255.332L266.207 255.715C264.343 255.715 262.479 255.715 260.599 255.665L254.966 255.574L243.526 255.332L243.651 260.175ZM254.767 255.091L260.474 255C262.379 254.958 264.293 255 266.207 254.95H266.589V255.332L266.639 264.917V265.341H266.24L254.9 265.291C251.123 265.291 247.337 265.192 243.56 265.15H243.327V264.917C243.327 263.253 243.402 261.672 243.435 260.075L243.56 255.332L254.767 255.091Z" fill="#EBEBEB"/>
<path d="M77.3759 152.639C77.3759 154.236 77.4758 155.808 77.4924 157.381L77.2511 157.148C81.0367 157.148 84.814 157.007 88.5913 157.007L99.9315 156.948L99.5071 157.381L99.5571 147.796L99.9315 148.179C98.0678 148.179 96.2041 148.179 94.3321 148.129L88.6911 148.038L77.2511 147.796L77.3759 152.639ZM88.4998 147.555L94.199 147.464C96.1043 147.422 98.0262 147.463 99.9315 147.414H100.314V147.796L100.364 157.381V157.814H99.9315L88.5913 157.764C84.814 157.764 81.0367 157.664 77.2511 157.622H77.0182V157.389C77.0182 155.725 77.0931 154.144 77.1347 152.547L77.2511 147.805L88.4998 147.555Z" fill="#EBEBEB"/>
<path d="M277.322 220.222V346.22H353.483V220.222H277.322ZM346.569 299.72H284.236V266.922H346.569V299.72ZM346.569 259.11H284.236V226.304H346.569V259.11Z" fill="#EBEBEB"/>
<path d="M383.943 220.222H353.483V346.212H383.943V220.222Z" fill="#DBDBDB"/>
<path d="M299.046 226.312H284.236V259.109H299.046V226.312Z" fill="#DBDBDB"/>
<path d="M346.877 338.624H284.311V306.725H346.877V338.624ZM284.935 338H346.253V307.349H284.935V338Z" fill="#DBDBDB"/>
<path d="M319.155 315.835H306.85V322.059H319.155V315.835Z" fill="#DBDBDB"/>
<path d="M323.099 321.901H310.17V315.994H323.099V321.901ZM310.794 321.277H322.442V316.618H310.794V321.277Z" fill="#DBDBDB"/>
<path d="M299.046 266.922H284.236V299.72H299.046V266.922Z" fill="#DBDBDB"/>
<path d="M147.697 88.0669H43.6965V94.2403H147.697V88.0669Z" fill="#EBEBEB"/>
<path d="M57.7657 94.2407H51.584V114.666H57.7657V94.2407Z" fill="#EBEBEB"/>
<path d="M57.7657 94.2407H51.584V100.556H57.7657V94.2407Z" fill="#DBDBDB"/>
<path d="M139.801 94.2407H133.619V114.666H139.801V94.2407Z" fill="#EBEBEB"/>
<path d="M139.801 94.2407H133.619V100.556H139.801V94.2407Z" fill="#DBDBDB"/>
<path d="M79.8885 88.0587V48.7051H69.9794V88.0587H79.8885Z" fill="#C7C7C7"/>
<path d="M79.8885 50.9348V46.6084H69.9794V50.9348H79.8885Z" fill="#DBDBDB"/>
<path d="M79.8885 58.0818V56.4761H69.9794V58.0818H79.8885Z" fill="#DBDBDB"/>
<path d="M81.12 82.9089V78.5825H69.9712V82.9089H81.12Z" fill="#DBDBDB"/>
<path d="M86.8108 88.067V42.1572H79.8802V88.067H86.8108Z" fill="#DBDBDB"/>
<path d="M85.4048 64.1306V46.4756H81.2448V64.1306H85.4048Z" fill="#EBEBEB"/>
<path d="M136.09 83.1565L103.44 50.8809L98.5677 55.8097L131.217 88.0852L136.09 83.1565Z" fill="#C7C7C7"/>
<path d="M127.464 76.5447L114.909 64.1328L111.984 67.0913L124.54 79.5032L127.464 76.5447Z" fill="#DBDBDB"/>
<path d="M98.5753 88.0674V53.1982H86.8108V88.0674H98.5753Z" fill="#A6A6A6"/>
<path d="M98.5753 84.3815V81.1284H86.8108V84.3815H98.5753Z" fill="#C7C7C7"/>
<path d="M98.5753 78.9902V77.7339H86.8108V78.9902H98.5753Z" fill="#C7C7C7"/>
<path d="M69.9795 88.0752V55.3027H61.8508V88.0752H69.9795Z" fill="#A6A6A6"/>
<path d="M69.9795 84.5979V81.5444H61.8508V84.5979H69.9795Z" fill="#C7C7C7"/>
<path d="M69.9795 65.112V62.0586H61.8509V65.112H69.9795Z" fill="#C7C7C7"/>
<path d="M69.9795 68.3821V67.2007H61.8508V68.3821H69.9795Z" fill="#C7C7C7"/>
<path d="M93.7248 270.533C83.3748 284.552 72.5837 300.818 69.9546 318.398C69.9425 318.459 69.9549 318.522 69.9893 318.573C70.0236 318.625 70.077 318.66 70.1376 318.672C70.1983 318.685 70.2613 318.672 70.3128 318.638C70.3643 318.603 70.4001 318.55 70.4122 318.489C71.6004 313.694 73.1297 308.99 74.9882 304.412C81.794 302.54 88.4749 301.001 92.0442 294.245C95.6884 287.306 95.2308 278.254 94.5402 270.691C94.482 270.283 93.9328 270.267 93.7248 270.533Z" fill="#0B7D77"/>
<path d="M75.088 304.279C79.7389 293.846 85.7127 283.371 93.3005 274.793C93.3504 274.735 93.4253 274.793 93.3837 274.876C88.3917 280.983 84.6394 287.639 80.9536 294.412C84.3815 290.934 88.1338 287.814 91.3786 284.128C91.4451 284.053 91.545 284.128 91.4867 284.228C88.2586 288.097 84.7392 292.298 80.5459 295.16C79.4144 297.24 78.2829 299.32 77.1264 301.409C77.4093 301.251 77.7005 301.109 77.9584 300.968C78.0083 300.968 78.0499 301.018 78 301.043C77.6839 301.209 77.3677 301.375 77.0349 301.517C76.4858 302.507 75.9533 303.489 75.3709 304.471C75.296 304.695 74.9965 304.512 75.088 304.279Z" fill="#263238"/>
<path d="M78.5491 300.643C81.3409 299.09 84.0084 297.324 86.528 295.36C86.5946 295.31 86.6944 295.36 86.6279 295.46C84.1994 297.556 81.5391 299.368 78.6989 300.859C78.5325 300.901 78.4243 300.71 78.5491 300.643Z" fill="#263238"/>
<path d="M68.7566 315.786C68.7566 316.002 69.1393 315.994 69.1393 315.786C69.1892 309.962 69.1393 304.179 69.2308 298.364C70.7118 295.368 73.8983 293.713 76.1114 291.317C77.7104 289.563 79.1059 287.634 80.2714 285.567C82.9289 280.613 84.5482 275.169 85.0305 269.568C85.6378 263.37 83.2916 242.944 80.6791 243.651C79.323 244.017 74.9466 254.134 73.7818 257.487C71.882 263.001 70.4896 268.677 69.6218 274.444C67.5418 288.088 67.7249 302.074 68.7566 315.786Z" fill="#0B7D77"/>
<path d="M68.7149 290.809C69.0311 283.479 70.6868 276.083 72.226 268.977C73.89 261.323 75.8368 254.118 79.7805 247.296C79.8471 247.171 80.0384 247.296 79.9719 247.412C77.3462 252.72 75.3122 258.3 73.9066 264.052C74.1728 263.644 74.4973 263.22 74.7386 262.862C74.8468 262.704 75.0964 262.862 74.9882 263.012C74.6372 263.632 74.2247 264.214 73.7568 264.751H73.7069C72.3508 270.225 71.3773 275.817 70.5453 281.391C70.6108 281.323 70.6719 281.25 70.7284 281.175C70.7284 281.175 70.8448 281.175 70.8199 281.241L70.4871 281.799C70.0628 284.627 69.6551 287.456 69.2807 290.26C74.3309 285.95 78.6407 280.867 81.0701 274.602C81.0701 274.602 81.1284 274.602 81.0701 274.602C78.6906 281.1 74.9383 286.874 69.1642 290.809C69.056 291.566 68.9479 292.323 68.848 293.072C68.848 293.23 68.5735 293.189 68.5735 293.072C68.5735 292.398 68.5735 291.733 68.6317 291.067C68.6159 291.046 68.6054 291.021 68.6011 290.995C68.5967 290.969 68.5987 290.942 68.6069 290.917C68.615 290.891 68.6291 290.869 68.6479 290.85C68.6667 290.831 68.6897 290.817 68.7149 290.809Z" fill="#263238"/>
<path d="M71.0944 280.201C74.9465 274.444 78.5824 268.861 81.3696 262.496C81.3696 262.429 81.5193 262.496 81.4944 262.554C79.1149 268.869 75.7869 275.276 71.2857 280.351C71.1942 280.451 71.0112 280.317 71.0944 280.201Z" fill="#263238"/>
<path d="M76.2113 261.082C77.8087 258.253 79.5393 255.499 80.9953 252.62C81.0452 252.537 81.1534 252.62 81.1201 252.695C79.8854 255.708 78.3229 258.576 76.4609 261.248C76.3527 261.364 76.1198 261.248 76.2113 261.082Z" fill="#263238"/>
<path d="M64.8377 299.046C64.7605 302.883 64.3091 306.703 63.4899 310.453C63.5454 310.863 63.6036 311.279 63.6646 311.701C64.8553 307.56 65.548 303.292 65.728 298.988C65.763 298.927 65.7815 298.858 65.7815 298.788C65.7815 298.718 65.763 298.649 65.728 298.588C65.8989 292.819 65.4723 287.047 64.455 281.366C62.6579 270.725 58.7475 260.516 51.3261 252.537C51.264 252.483 51.1901 252.444 51.1104 252.423C51.0307 252.402 50.9472 252.4 50.8665 252.417C50.7859 252.434 50.7103 252.47 50.6456 252.521C50.581 252.572 50.5291 252.637 50.4941 252.712C47.4989 260.325 48.5472 269.402 51.1014 276.998C52.4834 281.113 54.4656 285.002 56.9837 288.538C59.5296 292.107 62.7744 295.135 64.8377 299.046Z" fill="#0B7D77"/>
<path d="M52.1914 256.09C59.2218 267.505 64.1223 281.05 64.713 294.52C64.713 294.753 64.3219 294.819 64.2886 294.578C64.1222 293.363 63.9392 292.165 63.7479 290.967C60.8442 288.18 57.8573 285.235 55.769 281.757C55.769 281.699 55.8272 281.624 55.8688 281.682C58.2868 284.641 60.876 287.455 63.6231 290.11C63.1155 287.132 62.5248 284.203 61.8176 281.308L61.2602 280.659C61.1354 280.509 61.3434 280.301 61.4682 280.451L61.6346 280.634C60.6461 276.68 59.418 272.79 57.9571 268.986C56.1683 266.848 54.1715 265.009 52.8653 262.43C52.8587 262.418 52.8571 262.403 52.861 262.39C52.8649 262.377 52.874 262.366 52.8861 262.359C52.8982 262.352 52.9125 262.351 52.9258 262.355C52.939 262.359 52.9502 262.368 52.9568 262.38C54.0051 263.852 55.0202 265.333 56.2099 266.698C56.6842 267.239 57.2083 267.746 57.6992 268.279C56.0714 264.135 54.1415 260.117 51.9251 256.256C51.9086 256.221 51.9055 256.181 51.9164 256.144C51.9274 256.107 51.9515 256.075 51.9843 256.055C52.0172 256.034 52.0564 256.027 52.0945 256.033C52.1327 256.039 52.1671 256.06 52.1914 256.09Z" fill="#263238"/>
<path d="M53.6141 270.176C55.8854 273.229 58.4813 276.149 60.5945 279.328C60.6528 279.419 60.5197 279.511 60.4448 279.444C57.7325 276.89 55.4528 273.412 53.4643 270.292C53.3977 270.159 53.5475 270.084 53.6141 270.176Z" fill="#263238"/>
<path d="M60.9108 280.018L61.0023 280.118C61.0772 280.184 61.0023 280.284 60.9024 280.218L60.8026 280.126C60.736 280.06 60.8442 279.951 60.9108 280.018Z" fill="#263238"/>
<path d="M41.1757 278.029C42.004 284.405 44.5717 290.43 48.5971 295.443C50.2562 297.406 52.3045 299.004 54.6125 300.135C57.2167 301.425 59.9456 302.914 62.6413 303.971C63.926 307.234 64.8793 310.618 65.4867 314.071C65.5783 313.772 65.6615 313.472 65.7447 313.173C64.0141 298.313 54.3962 285.6 42.0909 277.447C41.9948 277.386 41.8833 277.353 41.7695 277.354C41.6557 277.354 41.5442 277.386 41.4482 277.447C41.3522 277.508 41.2755 277.595 41.2273 277.699C41.179 277.802 41.1611 277.916 41.1757 278.029Z" fill="#0B7D77"/>
<path d="M45.4272 282.422C45.344 282.347 45.4272 282.189 45.552 282.264C52.3139 287.29 57.7063 293.933 61.2352 301.583C61.3184 301.791 61.0438 301.966 60.9273 301.766C60.3533 300.76 59.7708 299.786 59.1801 298.829C56.368 298.305 53.7056 296.333 51.6256 294.445C51.5673 294.395 51.6256 294.312 51.7088 294.362C52.7814 295.342 53.9753 296.181 55.2614 296.858C56.4096 297.44 57.6409 297.806 58.8307 298.272C57.7935 296.608 56.7063 295.019 55.5692 293.505C52.5368 292.349 49.6934 290.748 47.1328 288.754C47.0496 288.696 47.1328 288.571 47.2076 288.621C49.7493 290.142 52.3681 291.53 55.0534 292.781C53.3421 290.518 51.4944 288.362 49.5206 286.324C48.5638 285.817 47.5987 285.309 46.6668 284.777C46.6506 284.766 46.6387 284.75 46.6333 284.731C46.6279 284.712 46.6293 284.692 46.6373 284.674C46.6452 284.656 46.6592 284.642 46.6768 284.633C46.6944 284.625 46.7144 284.622 46.7334 284.627C47.4988 284.9 48.2302 285.26 48.9132 285.7C47.7984 284.611 46.6502 283.504 45.4272 282.422Z" fill="#263238"/>
<path d="M45.6935 287.556C45.8574 287.657 46.0132 287.771 46.1594 287.897C46.2093 287.939 46.1594 287.997 46.1011 287.972C45.9296 287.892 45.7653 287.797 45.6103 287.689C45.5926 287.678 45.5801 287.66 45.5754 287.64C45.5707 287.62 45.5743 287.598 45.5853 287.581C45.5963 287.563 45.6139 287.551 45.6342 287.546C45.6545 287.541 45.6758 287.545 45.6935 287.556Z" fill="#263238"/>
<path d="M84.9556 346.262H51.2346L53.9553 315.561L54.5543 308.789H81.6276L82.2266 315.561L84.9556 346.262Z" fill="#455A64"/>
<path d="M82.2266 315.561H53.9552L54.5542 308.789H81.6275L82.2266 315.561Z" fill="#263238"/>
<path d="M83.2416 304.054H52.9402V310.752H83.2416V304.054Z" fill="#455A64"/>
<path d="M31.9238 346.262L75.945 346.062L119.958 345.987L208 345.846L296.042 345.987L340.063 346.062L384.076 346.262L340.063 346.47L296.042 346.536L208 346.678L119.958 346.536L75.945 346.461L31.9238 346.262Z" fill="#263238"/>
<path d="M208 389.218C265.286 389.218 311.725 385.284 311.725 380.432C311.725 375.58 265.286 371.646 208 371.646C150.714 371.646 104.275 375.58 104.275 380.432C104.275 385.284 150.714 389.218 208 389.218Z" fill="#EBEBEB"/>
<path d="M371.654 45.3691H116.788V249.126H371.654V45.3691Z" fill="white"/>
<path d="M372.07 249.534H116.372V44.9282H372.07V249.534ZM117.204 248.702H371.238V45.7602H117.204V248.702Z" fill="#EBEBEB"/>
<path d="M371.654 45.3691H116.788V55.0287H371.654V45.3691Z" fill="#455A64"/>
<path d="M124.867 50.195C124.868 50.6281 124.741 51.052 124.502 51.4129C124.262 51.7739 123.921 52.0556 123.522 52.2225C123.122 52.3894 122.682 52.4339 122.257 52.3504C121.832 52.267 121.441 52.0592 121.134 51.7535C120.827 51.4478 120.618 51.058 120.533 50.6333C120.448 50.2086 120.491 49.7682 120.656 49.3679C120.821 48.9676 121.102 48.6253 121.462 48.3845C121.822 48.1437 122.245 48.0152 122.678 48.0152C122.965 48.0141 123.25 48.0696 123.515 48.1787C123.781 48.2877 124.022 48.4481 124.225 48.6507C124.428 48.8532 124.59 49.0939 124.7 49.3589C124.81 49.6239 124.867 49.908 124.867 50.195Z" fill="#0B7D77"/>
<path d="M133.769 50.195C133.769 50.6261 133.641 51.0476 133.402 51.406C133.162 51.7645 132.822 52.0439 132.423 52.2089C132.025 52.3739 131.587 52.417 131.164 52.3329C130.741 52.2488 130.353 52.0412 130.048 51.7364C129.743 51.4315 129.535 51.0431 129.451 50.6202C129.367 50.1974 129.41 49.7591 129.575 49.3608C129.74 48.9625 130.02 48.622 130.378 48.3825C130.737 48.143 131.158 48.0151 131.589 48.0151C132.167 48.0151 132.722 48.2448 133.131 48.6536C133.539 49.0624 133.769 49.6168 133.769 50.195Z" fill="#EBEBEB"/>
<path d="M142.671 50.195C142.671 50.6261 142.543 51.0476 142.304 51.406C142.064 51.7645 141.724 52.0439 141.326 52.2089C140.927 52.3739 140.489 52.417 140.066 52.3329C139.643 52.2488 139.255 52.0412 138.95 51.7364C138.645 51.4315 138.438 51.0431 138.354 50.6202C138.269 50.1974 138.313 49.7591 138.478 49.3608C138.643 48.9625 138.922 48.622 139.28 48.3825C139.639 48.143 140.06 48.0151 140.491 48.0151C141.07 48.0151 141.624 48.2448 142.033 48.6536C142.442 49.0624 142.671 49.6168 142.671 50.195Z" fill="white"/>
<path d="M331.402 181.659H270.783V224H331.402V181.659Z" fill="#DBDBDB"/>
<path d="M312.3 177.274H331.402V181.659H311.201L312.3 177.274Z" fill="#DBDBDB"/>
<path d="M270.924 224.008H331.544L335.712 185.179H275.093L270.924 224.008Z" fill="#EBEBEB"/>
<path d="M317.042 181.151H336.145L335.712 185.178H315.511L317.042 181.151Z" fill="#EBEBEB"/>
<path d="M234.499 229.008L185.927 228.983L185.96 166.633L222.027 166.649L234.524 178.539L234.499 229.008Z" fill="#0B7D77"/>
<path opacity="0.6" d="M234.499 229.008L185.927 228.983L185.96 166.633L222.027 166.649L234.524 178.539L234.499 229.008Z" fill="white"/>
<path d="M222.027 166.649L234.524 178.539L222.019 178.53L222.027 166.649Z" fill="#0B7D77"/>
<path opacity="0.4" d="M222.027 166.649L234.524 178.539L222.019 178.53L222.027 166.649Z" fill="white"/>
<path d="M190.687 178.691L217.694 178.705L217.695 177.108L190.688 177.093L190.687 178.691Z" fill="#0B7D77"/>
<path d="M190.698 182.743L217.704 182.757L217.705 181.159L190.699 181.145L190.698 182.743Z" fill="#0B7D77"/>
<path d="M190.692 186.778L217.698 186.792L217.699 185.195L190.692 185.18L190.692 186.778Z" fill="#0B7D77"/>
<path d="M190.685 190.823L230.255 190.844L230.256 189.246L190.686 189.226L190.685 190.823Z" fill="#0B7D77"/>
<path d="M190.679 194.858L230.249 194.879L230.25 193.281L190.68 193.261L190.679 194.858Z" fill="#0B7D77"/>
<path d="M190.681 198.902L230.251 198.923L230.252 197.325L190.682 197.305L190.681 198.902Z" fill="#0B7D77"/>
<path d="M190.683 202.946L230.253 202.966L230.254 201.369L190.684 201.348L190.683 202.946Z" fill="#0B7D77"/>
<path d="M190.677 206.981L230.247 207.001L230.248 205.404L190.678 205.383L190.677 206.981Z" fill="#0B7D77"/>
<path d="M190.671 211.024L230.241 211.045L230.242 209.447L190.672 209.427L190.671 211.024Z" fill="#0B7D77"/>
<path d="M190.681 215.059L230.251 215.08L230.252 213.483L190.682 213.462L190.681 215.059Z" fill="#0B7D77"/>
<path d="M190.675 219.111L230.245 219.132L230.246 217.534L190.676 217.514L190.675 219.111Z" fill="#0B7D77"/>
<path d="M190.669 223.146L230.239 223.167L230.24 221.57L190.67 221.549L190.669 223.146Z" fill="#0B7D77"/>
<path d="M302.54 142.546L253.968 142.521L254.001 80.1714L290.06 80.188L302.565 92.0773L302.54 142.546Z" fill="#0B7D77"/>
<path opacity="0.6" d="M302.54 142.546L253.968 142.521L254.001 80.1714L290.06 80.188L302.565 92.0773L302.54 142.546Z" fill="white"/>
<path d="M290.06 80.188L302.565 92.0773L290.052 92.069L290.06 80.188Z" fill="#0B7D77"/>
<path opacity="0.4" d="M290.06 80.188L302.565 92.0773L290.052 92.069L290.06 80.188Z" fill="white"/>
<path d="M258.733 92.2354L285.74 92.2495L285.74 90.6521L258.734 90.6379L258.733 92.2354Z" fill="#0B7D77"/>
<path d="M258.727 96.2788L285.733 96.293L285.734 94.6955L258.728 94.6814L258.727 96.2788Z" fill="#0B7D77"/>
<path d="M258.72 100.314L285.727 100.328L285.728 98.7307L258.721 98.7165L258.72 100.314Z" fill="#0B7D77"/>
<path d="M258.723 104.36L298.292 104.38L298.293 102.783L258.723 102.762L258.723 104.36Z" fill="#0B7D77"/>
<path d="M258.725 108.395L298.295 108.416L298.296 106.818L258.726 106.797L258.725 108.395Z" fill="#0B7D77"/>
<path d="M258.719 112.438L298.288 112.459L298.289 110.862L258.719 110.841L258.719 112.438Z" fill="#0B7D77"/>
<path d="M258.712 116.482L298.282 116.502L298.283 114.905L258.713 114.884L258.712 116.482Z" fill="#0B7D77"/>
<path d="M258.714 120.525L298.284 120.546L298.285 118.948L258.715 118.928L258.714 120.525Z" fill="#0B7D77"/>
<path d="M258.717 124.56L298.286 124.581L298.287 122.984L258.717 122.963L258.717 124.56Z" fill="#0B7D77"/>
<path d="M258.71 128.604L298.28 128.625L298.281 127.027L258.711 127.006L258.71 128.604Z" fill="#0B7D77"/>
<path d="M258.704 132.647L298.274 132.668L298.275 131.071L258.705 131.05L258.704 132.647Z" fill="#0B7D77"/>
<path d="M258.706 136.691L298.276 136.712L298.277 135.114L258.707 135.094L258.706 136.691Z" fill="#0B7D77"/>
<path d="M250.806 147.763H248.726V145.683H249.558V146.931H250.806V147.763Z" fill="#A6A6A6"/>
<path d="M249.6 142.413H248.768V139.143H249.6V142.413ZM249.6 135.874H248.768V132.604H249.6V135.874ZM249.6 129.334H248.768V126.064H249.6V129.334ZM249.6 122.794H248.768V119.525H249.6V122.794ZM249.6 116.255H248.768V112.985H249.6V116.255ZM249.6 109.715H248.768V106.446H249.6V109.715ZM249.6 103.176H248.768V99.9062H249.6V103.176ZM249.6 96.6364H248.768V93.3667H249.6V96.6364ZM249.6 90.0969H248.768V86.8271H249.6V90.0969ZM249.6 83.5574H248.768V80.2793H249.6V83.5574Z" fill="#A6A6A6"/>
<path d="M249.583 77.0097H248.751L248.76 74.9297H250.84V75.7617H249.592L249.583 77.0097Z" fill="#A6A6A6"/>
<path d="M303.58 86.9604L301.267 84.7556L301.841 84.1565L304.154 86.3613L303.58 86.9604ZM298.946 82.5591L296.633 80.3543L297.207 79.7469L299.52 81.9517L298.946 82.5591ZM294.312 78.1495L292.032 75.9447L292.606 75.3456L294.919 77.5504L294.312 78.1495ZM289.195 75.7783H286V74.9463H289.195V75.7783ZM282.805 75.7783H279.61V74.9463H282.805V75.7783ZM276.407 75.7783H273.212V74.9463H276.407V75.7783ZM270.017 75.7783H266.822V74.9463H270.017V75.7783ZM263.619 75.7783H260.416V74.9463H263.611L263.619 75.7783ZM257.229 75.7783H254.035V74.9463H257.229V75.7783Z" fill="#A6A6A6"/>
<path d="M307.807 91.6776H306.975V90.1883L305.901 89.165L306.467 88.5576L307.807 89.8306V91.6776Z" fill="#A6A6A6"/>
<path d="M307.773 142.538H306.941V139.36H307.773V142.538ZM307.773 136.181H306.941V133.003H307.773V136.181ZM307.773 129.817H306.941V126.638H307.773V129.817ZM307.773 123.46H306.941V120.282H307.773V123.46ZM307.773 117.104H306.941V113.925H307.773V117.104ZM307.773 110.747H306.941V107.569H307.773V110.747ZM307.773 104.391H306.941V101.212H307.773V104.391ZM307.773 98.0342H306.941V94.8477H307.773V98.0342Z" fill="#A6A6A6"/>
<path d="M307.773 147.796H305.693V146.964H306.941V145.716H307.773V147.796Z" fill="#A6A6A6"/>
<path d="M302.465 147.788H299.237V146.956H302.465V147.788ZM296.009 147.788H292.781V146.956H296.009V147.788ZM289.553 147.788H286.324V146.956H289.536L289.553 147.788ZM283.088 147.788H279.86V146.956H283.088V147.788ZM276.632 147.788H273.403V146.956H276.632V147.788ZM270.175 147.788H266.947V146.956H270.175V147.788ZM263.719 147.788H260.491V146.956H263.744L263.719 147.788ZM257.263 147.788H254.035V146.956H257.263V147.788Z" fill="#A6A6A6"/>
<path d="M222.269 166.99L221.786 166.317L224.49 164.386L224.973 165.06L222.269 166.99ZM227.685 163.13L227.203 162.456L229.915 160.526L230.397 161.2L227.685 163.13ZM233.11 159.27L232.627 158.596L235.34 156.665L235.822 157.339L233.11 159.27ZM238.534 155.409L238.052 154.735L240.764 152.805L241.247 153.479L238.534 155.409ZM243.951 151.549L243.468 150.875L246.181 148.944L246.663 149.618L243.951 151.549ZM249.375 147.688L248.901 147.006L249.375 147.688Z" fill="#A6A6A6"/>
<path d="M311.104 94.0836C312.214 89.3599 309.284 84.6309 304.56 83.5213C299.836 82.4116 295.107 85.3413 293.998 90.0651C292.888 94.7888 295.818 99.5177 300.542 100.627C305.265 101.737 309.994 98.8073 311.104 94.0836Z" fill="#0B7D77"/>
<path d="M303.464 86.6523H301.658V97.5016H303.464V86.6523Z" fill="white"/>
<path d="M307.99 92.9758V91.1704H297.14V92.9758H307.99Z" fill="white"/>
<path d="M311.958 155.742L315.644 164.645L311.958 166.167L308.256 157.207L302.174 161.932V136.856L319.721 154.586L311.958 155.742Z" fill="#263238"/>
<path d="M302.174 134.119C302.019 133.718 301.943 133.292 301.949 132.862C301.943 132.43 302.019 132.001 302.174 131.598C302.329 132.001 302.405 132.43 302.399 132.862C302.406 133.292 302.329 133.718 302.174 134.119Z" fill="#263238"/>
<path d="M300.003 135.017C299.217 134.653 298.586 134.022 298.222 133.237C299.007 133.601 299.638 134.232 300.003 135.017Z" fill="#263238"/>
<path d="M299.104 137.189C298.702 137.347 298.272 137.424 297.839 137.413C297.41 137.424 296.982 137.347 296.583 137.189C296.983 137.032 297.41 136.959 297.839 136.972C298.271 136.963 298.7 137.036 299.104 137.189Z" fill="#263238"/>
<path d="M300.003 139.36C299.827 139.756 299.579 140.114 299.27 140.417C298.969 140.723 298.614 140.972 298.222 141.149C298.392 140.754 298.641 140.397 298.954 140.101C299.252 139.788 299.608 139.537 300.003 139.36Z" fill="#263238"/>
<path d="M305.244 137.189C305.645 137.036 306.072 136.963 306.5 136.972C306.932 136.959 307.362 137.032 307.765 137.189C307.363 137.347 306.933 137.424 306.5 137.413C306.071 137.424 305.643 137.347 305.244 137.189Z" fill="#263238"/>
<path d="M304.346 135.017C304.523 134.626 304.771 134.27 305.078 133.969C305.377 133.659 305.733 133.411 306.126 133.237C305.952 133.63 305.703 133.986 305.394 134.285C305.096 134.596 304.74 134.845 304.346 135.017Z" fill="#263238"/>
<path d="M117.37 80.521H78.0083V119.883H117.37V80.521Z" fill="#0B7D77"/>
<path d="M125.283 127.787H85.0803V87.5928H125.283V127.787ZM85.9123 126.955H124.451V88.4248H85.9123V126.955Z" fill="#0B7D77"/>
<path d="M99.6903 88.167H95.6884V112.237H99.6903V88.167Z" fill="white"/>
<path d="M109.732 102.203V98.2012H85.6627V102.203H109.732Z" fill="white"/>
<path d="M131.847 316.875C131.847 316.875 130.824 357.011 130.824 357.036C130.824 364.458 131.007 370.964 131.398 374.317C131.394 374.336 131.394 374.356 131.398 374.375C131.402 375.17 131.59 375.953 131.947 376.663L131.997 376.713C134.21 378.202 193.506 379.741 195.586 379.092C197.666 378.443 196.011 372.436 193.756 370.564C191.501 368.692 169.054 357.918 169.054 357.918L169.728 317.824L131.847 316.875Z" fill="#AD6359"/>
<path d="M130.757 349.074C130.757 349.074 130.824 357.012 130.824 357.036C130.824 364.458 131.007 370.964 131.398 374.317C131.394 374.336 131.394 374.356 131.398 374.375C131.492 375.157 131.676 375.924 131.947 376.663L131.997 376.713C134.21 378.203 193.507 379.742 195.587 379.093C197.667 378.444 196.011 372.437 193.756 370.565C191.501 368.693 169.054 357.918 169.054 357.918L169.096 349.84L130.757 349.074Z" fill="white"/>
<path d="M172.698 357.943C168.746 357.294 163.946 358.001 161 360.864C160.884 360.98 161.05 361.138 161.175 361.096C164.907 359.801 168.768 358.912 172.69 358.442C172.756 358.444 172.82 358.418 172.868 358.372C172.915 358.326 172.943 358.263 172.944 358.197C172.945 358.131 172.92 358.067 172.873 358.019C172.827 357.972 172.764 357.944 172.698 357.943Z" fill="#263238"/>
<path d="M175.552 359.591C171.608 358.942 166.808 359.649 163.862 362.519C163.746 362.627 163.904 362.785 164.029 362.744C167.765 361.453 171.628 360.563 175.552 360.09C175.618 360.09 175.682 360.063 175.728 360.017C175.775 359.97 175.802 359.906 175.802 359.84C175.802 359.774 175.775 359.71 175.728 359.664C175.682 359.617 175.618 359.591 175.552 359.591Z" fill="#263238"/>
<path d="M178.447 361.246C174.495 360.597 169.703 361.304 166.749 364.166C166.641 364.274 166.799 364.441 166.924 364.399C170.656 363.104 174.517 362.214 178.439 361.745C178.505 361.746 178.569 361.721 178.617 361.675C178.664 361.629 178.692 361.566 178.693 361.5C178.694 361.433 178.669 361.37 178.623 361.322C178.577 361.274 178.514 361.247 178.447 361.246Z" fill="#263238"/>
<path d="M195.595 379.093C193.506 379.742 134.218 378.202 131.997 376.705C131.165 376.156 130.865 367.503 130.832 357.036V356.712L169.104 357.278V357.927C169.104 357.927 191.568 368.668 193.806 370.565C196.044 372.462 197.691 378.46 195.595 379.093Z" fill="#37474F"/>
<path d="M130.824 356.704V357.045C130.874 367.503 131.14 376.181 131.997 376.713C133.003 377.387 145.858 378.078 159.744 378.569C176.384 379.159 194.463 379.45 195.603 379.101C197.691 378.46 196.011 372.445 193.764 370.565C191.518 368.684 169.062 357.927 169.062 357.927V357.278L156.308 357.086L130.824 356.704Z" fill="#0B7D77"/>
<path d="M194.988 376.78C185.004 376.272 144.668 375.182 134.751 375.44C134.676 375.44 134.668 375.499 134.751 375.507C144.643 376.222 184.979 376.988 194.988 376.946C195.196 376.946 195.196 376.788 194.988 376.78Z" fill="#263238"/>
<path opacity="0.1" d="M156.341 357.086C157.248 363.501 158.696 372.944 159.744 378.56C176.384 379.151 194.463 379.442 195.603 379.092C197.691 378.452 196.011 372.436 193.764 370.556C191.518 368.676 169.062 357.926 169.062 357.926V357.277L156.341 357.086Z" fill="black"/>
<path d="M127.379 357.261L170.285 357.669C170.285 357.669 172.723 287.781 172.906 264.485C173.114 237.861 171.608 158.055 171.608 158.055H139.526C139.526 158.055 130.923 175.644 135.841 195.445L137.197 266.656L127.379 357.261Z" fill="#37474F"/>
<path d="M130.557 349.739C131.683 349.578 132.816 349.478 133.952 349.44C135.217 349.348 136.448 349.257 137.754 349.199C140.192 349.099 142.638 349.057 145.076 349.041C150.001 349.041 154.935 349.041 159.86 349.215C162.656 349.307 165.46 349.415 168.255 349.573C168.28 349.573 168.303 349.583 168.32 349.6C168.337 349.617 168.347 349.64 168.347 349.665C168.347 349.689 168.337 349.712 168.32 349.729C168.303 349.746 168.28 349.756 168.255 349.756C163.372 349.931 158.488 350.006 153.596 350.097C148.703 350.189 143.828 350.289 138.952 350.197C137.546 350.197 136.148 350.155 134.792 350.081C133.436 350.006 131.964 350.081 130.591 349.873C130.499 349.897 130.458 349.764 130.557 349.739Z" fill="#263238"/>
<path d="M167.232 311.168C167.731 299.611 168.064 288.055 168.413 276.499C169.046 253.374 169.212 230.25 168.913 207.126C168.754 194.147 168.405 181.176 168.022 168.214C168.022 168.064 168.239 168.072 168.247 168.214C169.478 191.435 169.911 214.698 169.969 237.944C170.027 261.19 169.512 284.203 168.372 307.299C167.731 320.27 166.941 333.241 165.718 346.162C165.712 346.181 165.7 346.197 165.685 346.208C165.669 346.22 165.65 346.226 165.63 346.226C165.611 346.226 165.592 346.22 165.576 346.208C165.56 346.197 165.549 346.181 165.543 346.162C166.034 334.506 166.691 322.816 167.232 311.168Z" fill="#263238"/>
<path d="M177.748 323.249C177.748 323.249 178.073 362.045 178.073 362.07C178.073 369.491 178.248 375.997 178.639 379.35C178.635 379.37 178.635 379.389 178.639 379.409C178.649 380.204 178.839 380.986 179.196 381.697L179.238 381.746C181.451 383.227 240.747 384.775 242.836 384.126C244.924 383.477 243.252 377.47 240.997 375.598C238.742 373.726 216.32 362.952 216.32 362.952L215.629 324.18L177.748 323.249Z" fill="#AD6359"/>
<path d="M178.048 354.107C178.048 354.107 178.115 362.045 178.115 362.07C178.115 369.491 178.289 375.997 178.68 379.35C178.677 379.37 178.677 379.389 178.68 379.409C178.777 380.19 178.964 380.958 179.238 381.697L179.279 381.746C181.492 383.227 240.789 384.775 242.877 384.126C244.966 383.477 243.293 377.47 241.039 375.598C238.784 373.726 216.32 362.952 216.32 362.952V354.873L178.048 354.107Z" fill="white"/>
<path d="M219.939 362.977C215.987 362.328 211.195 363.035 208.25 365.897C208.133 366.014 208.25 366.172 208.416 366.13C212.148 364.836 216.009 363.946 219.931 363.476C219.997 363.477 220.061 363.452 220.109 363.406C220.156 363.36 220.184 363.297 220.185 363.231C220.186 363.164 220.16 363.101 220.114 363.053C220.068 363.005 220.005 362.978 219.939 362.977Z" fill="#263238"/>
<path d="M222.818 364.624C218.866 363.975 214.065 364.682 211.12 367.552C211.003 367.661 211.17 367.819 211.295 367.777C215.028 366.486 218.888 365.596 222.809 365.123C222.876 365.124 222.94 365.099 222.987 365.053C223.035 365.007 223.062 364.944 223.063 364.878C223.064 364.811 223.039 364.747 222.993 364.7C222.947 364.652 222.884 364.625 222.818 364.624Z" fill="#263238"/>
<path d="M225.688 366.28C221.745 365.631 216.944 366.338 213.999 369.2C213.882 369.308 214.04 369.475 214.173 369.433C217.905 368.137 221.766 367.247 225.688 366.779C225.755 366.779 225.818 366.753 225.865 366.706C225.912 366.659 225.938 366.595 225.938 366.529C225.938 366.463 225.912 366.4 225.865 366.353C225.818 366.306 225.755 366.28 225.688 366.28Z" fill="#263238"/>
<path d="M242.844 384.126C240.756 384.775 181.459 383.236 179.246 381.738C178.414 381.189 178.114 372.536 178.073 362.07V361.745L216.345 362.311V362.96C216.345 362.96 238.809 373.701 241.039 375.598C243.268 377.495 244.932 383.494 242.844 384.126Z" fill="#0B7D77"/>
<path d="M242.228 381.813C232.244 381.305 191.909 380.216 182 380.473C181.917 380.473 181.917 380.532 182 380.54C191.884 381.256 232.228 382.021 242.228 381.979C242.436 381.979 242.445 381.821 242.228 381.813Z" fill="#263238"/>
<path d="M158.138 199.131C158.138 199.131 175.743 254.617 176.06 264.859C176.334 273.545 175.228 362.752 175.228 362.752L219.789 363.018C219.789 363.018 216.02 272.006 215.322 262.912C214.024 245.973 199.181 199.464 188.564 158.08H140.525C140.525 158.08 140.941 179.779 150.808 195.47C150.808 195.462 155.276 197.525 158.138 199.131Z" fill="#37474F"/>
<path d="M177.59 354.499C182.732 354.349 188.074 354.199 193.224 354.324C198.374 354.449 203.449 354.532 208.549 354.831C211.436 355.006 214.323 355.106 217.21 355.389C217.227 355.394 217.241 355.405 217.252 355.419C217.262 355.433 217.267 355.45 217.267 355.468C217.267 355.485 217.262 355.502 217.252 355.517C217.241 355.531 217.227 355.541 217.21 355.547C212.068 355.846 206.902 355.78 201.752 355.738C196.602 355.697 191.526 355.638 186.418 355.397C183.531 355.264 180.644 355.123 177.757 354.923C177.441 354.898 177.274 354.507 177.59 354.499Z" fill="#263238"/>
<path d="M187.333 184.205C188.922 189.513 190.262 194.888 191.684 200.237C193.107 205.587 194.547 211.053 195.961 216.42C198.707 226.853 201.427 237.311 203.449 247.903C205.553 258.539 206.744 269.336 207.01 280.176C207.251 291.225 207.01 302.282 206.943 313.331C206.877 324.38 206.777 335.546 206.586 346.611C206.586 347.992 206.527 349.373 206.477 350.771C206.477 350.904 206.278 350.896 206.269 350.771C205.978 339.722 206.136 328.657 206.17 317.608C206.203 306.559 206.353 295.501 206.261 284.453C206.216 273.483 205.267 262.535 203.424 251.722C201.56 241.089 198.94 230.605 196.227 220.164C194.68 214.207 193.127 208.25 191.568 202.292C190.012 196.302 188.348 190.312 186.975 184.271C186.967 184.224 186.977 184.175 187.004 184.135C187.032 184.095 187.074 184.068 187.121 184.059C187.168 184.05 187.217 184.061 187.257 184.088C187.297 184.115 187.324 184.157 187.333 184.205Z" fill="#263238"/>
<path d="M169.162 200.204C166.931 200.19 164.704 199.99 162.506 199.605C160.342 199.12 158.204 198.526 156.1 197.825C154.027 197.35 151.926 197.009 149.81 196.801C147.679 196.492 145.605 195.872 143.653 194.963C143.635 194.959 143.617 194.961 143.601 194.969C143.584 194.976 143.571 194.989 143.562 195.005C143.554 195.021 143.551 195.04 143.554 195.057C143.557 195.075 143.565 195.092 143.578 195.104C145.469 196.123 147.442 196.98 149.477 197.667C151.59 198.332 153.804 198.424 155.942 198.948C158.107 199.592 160.31 200.098 162.54 200.462C164.739 200.734 166.965 200.698 169.154 200.354C169.27 200.337 169.245 200.204 169.162 200.204Z" fill="#263238"/>
<path d="M171.974 244.342C171.55 242.678 171.142 241.014 170.71 239.408C169.803 236.08 168.888 232.752 167.889 229.499C165.901 222.976 164.02 216.411 161.915 209.922C160.726 206.236 159.652 202.509 158.255 198.906C158.247 198.89 158.234 198.878 158.218 198.871C158.201 198.864 158.183 198.863 158.167 198.868C158.15 198.873 158.135 198.883 158.125 198.898C158.116 198.913 158.111 198.93 158.113 198.948C158.812 202.276 159.777 205.604 160.701 208.932C161.624 212.26 162.548 215.546 163.505 218.841C165.41 225.397 167.265 231.962 169.329 238.468C169.911 240.29 170.502 242.104 171.134 243.917C171.766 245.731 172.282 247.67 173.056 249.467C173.064 249.486 173.079 249.502 173.098 249.51C173.117 249.519 173.138 249.521 173.158 249.514C173.178 249.508 173.195 249.495 173.205 249.477C173.215 249.459 173.219 249.437 173.214 249.417C172.931 247.695 172.407 246.022 171.974 244.342Z" fill="#263238"/>
<path d="M179.038 105.806C175.851 106.421 169.953 100.938 167.972 96.9365C167.839 96.662 168.363 93.8498 168.846 90.4053C169.129 88.3087 169.395 85.9791 169.487 83.8242L182.799 87.6597C181.911 90.316 181.352 93.071 181.135 95.8633C181.124 96.1585 181.143 96.454 181.193 96.7452C181.193 96.7452 181.193 96.8367 181.193 96.8949C181.459 98.5839 182.125 105.207 179.038 105.806Z" fill="#AD6359"/>
<path d="M181.243 96.7449C181.243 96.7449 181.243 96.8448 181.243 96.8947C180.78 96.9327 180.316 96.9327 179.853 96.8947C171.933 96.2457 170.227 87.2768 169.869 83.9238L182.832 87.6512C181.943 90.3043 181.384 93.0567 181.168 95.8464C181.166 96.1475 181.191 96.4483 181.243 96.7449Z" fill="#263238"/>
<path d="M167.149 67.3337C165.426 72.0262 167.149 85.9705 170.402 89.232C175.078 93.966 183.123 94.848 187.242 89.1321C191.235 83.5993 188.631 65.4784 184.987 62.5081C179.629 58.0403 169.728 60.3948 167.149 67.3337Z" fill="#AD6359"/>
<path d="M180.669 76.4443C180.669 76.4443 180.594 76.4943 180.602 76.5359C180.735 77.4677 180.727 78.5659 179.903 78.9736C179.903 78.9736 179.903 79.0319 179.903 79.0235C180.943 78.7656 180.943 77.3096 180.669 76.4443Z" fill="#263238"/>
<path d="M179.712 75.5541C178.189 75.5541 178.397 78.6492 179.803 78.5993C181.21 78.5493 181.002 75.5125 179.712 75.5541Z" fill="#263238"/>
<path d="M185.969 76.0697C185.969 76.0281 186.044 76.0697 186.044 76.1446C186.044 77.0931 186.276 78.1663 187.15 78.4243V78.4825C186.102 78.3993 185.852 76.9683 185.969 76.0697Z" fill="#263238"/>
<path d="M186.742 75.0213C188.257 74.805 188.581 77.8418 187.183 78.0498C185.786 78.2578 185.478 75.2043 186.742 75.0213Z" fill="#263238"/>
<path d="M178.422 74.2396C178.816 74.0939 179.202 73.9273 179.579 73.7404C180.007 73.6244 180.384 73.3699 180.652 73.0166C180.715 72.8882 180.733 72.7428 180.704 72.6029C180.676 72.463 180.602 72.3364 180.494 72.2428C180.253 72.089 179.976 72.0025 179.691 71.9922C179.405 71.982 179.123 72.0484 178.872 72.1846C178.323 72.3825 177.866 72.7767 177.59 73.2911C177.534 73.4124 177.515 73.5472 177.534 73.6793C177.553 73.8114 177.61 73.9352 177.698 74.0355C177.786 74.1359 177.902 74.2086 178.03 74.2448C178.159 74.281 178.295 74.2792 178.422 74.2396Z" fill="#263238"/>
<path d="M187.816 73.4072C187.401 73.3545 186.99 73.2767 186.584 73.1743C186.138 73.1559 185.71 72.989 185.37 72.7C185.284 72.5861 185.237 72.4474 185.237 72.3048C185.237 72.1623 185.284 72.0236 185.37 71.9096C185.572 71.7087 185.824 71.5652 186.101 71.4935C186.377 71.4219 186.667 71.4248 186.942 71.502C187.528 71.5822 188.062 71.879 188.44 72.334C188.512 72.4415 188.552 72.5671 188.556 72.6964C188.56 72.8258 188.528 72.9537 188.463 73.0656C188.398 73.1775 188.303 73.2689 188.188 73.3293C188.074 73.3897 187.945 73.4167 187.816 73.4072Z" fill="#263238"/>
<path d="M183.997 83.1169C183.634 83.6649 183.135 84.1093 182.549 84.4065C182.227 84.5557 181.867 84.6021 181.517 84.5397C180.752 84.3899 180.685 83.7077 180.777 83.1003C180.834 82.7797 180.929 82.4669 181.06 82.1685C181.912 82.7911 182.941 83.1236 183.997 83.1169Z" fill="#263238"/>
<path d="M182.549 84.4062C182.227 84.5553 181.867 84.6018 181.517 84.5393C180.752 84.3896 180.685 83.7073 180.777 83.1C181.177 83.0845 181.57 83.2053 181.892 83.4427C182.214 83.68 182.446 84.0198 182.549 84.4062Z" fill="#FF97B8"/>
<path opacity="0.2" d="M170.119 63.1489C170.269 65.0126 170.593 70.8033 169.853 72.0929C169.112 73.3825 167.598 76.3444 166.691 76.9019C166.308 73.058 166.417 69.339 167.157 67.3339C167.757 65.7015 168.779 64.2575 170.119 63.1489Z" fill="#263238"/>
<path d="M181.967 66.9925C181.514 67.6368 180.904 68.1547 180.195 68.4969C179.486 68.8391 178.701 68.9943 177.915 68.9477C177.109 68.8982 176.329 68.6427 175.65 68.2056C174.972 67.7686 174.416 67.1647 174.038 66.4517C174.038 66.4517 173.946 66.4517 173.971 66.4517C174.307 67.2301 174.848 67.9023 175.537 68.3963C176.226 68.8903 177.037 69.1873 177.882 69.2555C178.712 69.2734 179.533 69.074 180.262 68.677C180.992 68.2801 181.605 67.6994 182.042 66.9925C182.1 66.9925 182.008 66.9259 181.967 66.9925Z" fill="#263238"/>
<path d="M176.134 56.0852C174.922 56.2032 173.759 56.6238 172.751 57.3085C171.744 57.9932 170.924 58.92 170.369 60.0039C169.922 61.0868 169.854 62.289 170.177 63.4151C170.177 63.465 170.285 63.4151 170.277 63.4151C170.126 62.4053 170.25 61.3735 170.635 60.4278C171.02 59.4822 171.652 58.6576 172.465 58.0404C173.353 57.3264 174.395 56.8286 175.508 56.586C176.621 56.3434 177.775 56.3628 178.88 56.6426C179.949 56.8946 180.895 57.5164 181.551 58.3981C181.609 58.4896 181.8 58.3981 181.75 58.3149C180.843 56.7175 178.547 55.8023 176.134 56.0852Z" fill="#263238"/>
<path d="M192.192 60.4033C191.631 59.13 190.638 58.0958 189.388 57.483C187.658 56.651 185.819 56.9422 184.005 57.3083C183.955 57.3083 184.005 57.3915 184.005 57.3832C185.525 56.9606 187.135 56.9895 188.639 57.4664C189.884 57.9579 190.921 58.8628 191.576 60.0289C192.212 61.2306 192.393 62.621 192.088 63.9456C191.782 65.2702 191.01 66.4405 189.912 67.2424C189.267 67.6863 188.538 67.9936 187.77 68.1453C187.001 68.297 186.21 68.2898 185.444 68.1243C185.386 68.1243 185.345 68.1992 185.444 68.2158C186.826 68.5593 188.285 68.3849 189.547 67.7258C190.808 67.0666 191.785 65.9683 192.292 64.6382C192.784 63.2629 192.748 61.7539 192.192 60.4033Z" fill="#263238"/>
<path d="M166.4 70.1209C166.4 70.1209 163.438 65.5781 165.31 62.6329C166.367 60.9689 170.369 60.8025 170.369 60.8025C170.83 59.9679 171.452 59.2331 172.199 58.6404C172.945 58.0477 173.802 57.609 174.72 57.3497C177.99 56.293 182.125 57.8821 182.125 57.8821C182.125 57.8821 185.12 55.7938 188.24 57.2165C192.583 59.2133 192.625 65.5365 188.648 67.9493C185.852 69.6133 181.659 67.4002 181.659 67.4002C181.284 67.4834 177.59 70.1874 174.321 66.9676C174.321 66.9676 172.116 69.3138 169.828 68.0076C169.544 68.6704 169.063 69.2293 168.449 69.6076C167.835 69.986 167.119 70.1652 166.4 70.1209Z" fill="#263238"/>
<path d="M179.213 81.6192C178.492 81.5442 177.806 81.2684 177.234 80.8233C176.661 80.3782 176.225 79.7815 175.975 79.101C175.725 78.4205 175.67 77.6835 175.818 76.9737C175.966 76.2638 176.309 75.6095 176.81 75.0852C177.311 74.5608 177.948 74.1874 178.651 74.0073C179.353 73.8272 180.092 73.8476 180.783 74.0662C181.474 74.2849 182.091 74.693 182.562 75.2442C183.033 75.7954 183.34 76.4677 183.448 77.1846C183.523 77.6894 183.499 78.2041 183.375 78.6994C183.252 79.1947 183.032 79.6608 182.728 80.071C182.424 80.4813 182.043 80.8277 181.605 81.0905C181.168 81.3533 180.683 81.5273 180.178 81.6025C179.858 81.6455 179.534 81.6511 179.213 81.6192ZM179.945 74.4141C179.669 74.3775 179.389 74.3775 179.113 74.4141C178.273 74.5199 177.505 74.9418 176.965 75.594C176.425 76.2461 176.154 77.0795 176.208 77.9244C176.261 78.7693 176.634 79.5622 177.251 80.1418C177.868 80.7213 178.682 81.044 179.529 81.044C180.376 81.044 181.19 80.7213 181.807 80.1418C182.424 79.5622 182.797 78.7693 182.85 77.9244C182.903 77.0795 182.632 76.2461 182.093 75.594C181.553 74.9418 180.785 74.5199 179.945 74.4141Z" fill="#0B7D77"/>
<path d="M188.124 81.4364C186.643 81.2866 185.453 79.6393 185.42 77.6092C185.39 76.6403 185.663 75.6864 186.202 74.8802C186.422 74.5313 186.723 74.2404 187.079 74.032C187.435 73.8235 187.836 73.7035 188.248 73.6821C188.663 73.6877 189.07 73.7945 189.434 73.9931C189.798 74.1918 190.108 74.4763 190.337 74.822C190.889 75.6115 191.18 76.5542 191.169 77.5177C191.169 79.6559 189.929 81.4197 188.34 81.4447L188.124 81.4364ZM188.456 74.2146C188.39 74.2066 188.323 74.2066 188.257 74.2146C187.921 74.2291 187.594 74.3254 187.304 74.495C187.014 74.6647 186.77 74.9026 186.593 75.1881C186.116 75.9032 185.877 76.7505 185.91 77.6092C185.91 79.4645 187.017 80.9372 188.332 80.9372C189.646 80.9372 190.678 79.3897 190.653 77.5343C190.651 76.6757 190.384 75.8387 189.887 75.1381C189.726 74.8937 189.515 74.6854 189.269 74.5265C189.022 74.3675 188.746 74.2613 188.456 74.2146Z" fill="#0B7D77"/>
<path d="M183.323 77.6421L182.982 77.2427C183.564 76.7435 184.912 76.0529 185.877 77.0513L185.503 77.4174C184.637 76.5438 183.373 77.5921 183.323 77.6421Z" fill="#0B7D77"/>
<path d="M166.042 78.9151L165.585 78.6821C165.693 78.4658 166.666 76.5605 167.823 76.3525C168.979 76.1445 175.868 76.702 176.143 76.7269V77.2428C174.146 77.0847 168.763 76.7103 167.931 76.8601C167.099 77.0098 166.308 78.3909 166.042 78.9151Z" fill="#0B7D77"/>
<path d="M169.47 78.7405C169.47 78.7405 166.508 74.1646 164.478 75.2046C162.448 76.2445 164.528 82.809 166.874 83.7741C167.166 83.9203 167.485 84.0056 167.811 84.025C168.137 84.0444 168.463 83.9975 168.77 83.887C169.078 83.7766 169.359 83.6049 169.598 83.3824C169.837 83.16 170.029 82.8913 170.161 82.5927L169.47 78.7405Z" fill="#AD6359"/>
<path d="M165.094 77.0767C165.094 77.0767 165.052 77.0767 165.094 77.1349C166.758 77.8671 167.59 79.4479 168.122 81.0786C168.031 80.9077 167.904 80.7585 167.75 80.6413C167.596 80.5242 167.419 80.4418 167.23 80.3999C167.041 80.358 166.845 80.3575 166.656 80.3986C166.466 80.4396 166.288 80.5212 166.134 80.6376C166.134 80.6376 166.134 80.7375 166.175 80.7291C166.473 80.646 166.789 80.6574 167.079 80.7618C167.37 80.8661 167.621 81.0582 167.798 81.3115C168.096 81.7307 168.344 82.183 168.538 82.6594C168.613 82.8091 168.879 82.7426 168.829 82.5679C168.896 80.4047 167.373 77.3762 165.094 77.0767Z" fill="#263238"/>
<path d="M132.346 167.374C132.471 167.548 194.114 173.672 194.746 173.089C195.578 172.257 192.475 110.531 181.576 97.8267C178.897 94.6984 169.362 90.8795 166.192 92.8347C157.963 97.8267 152.822 109.134 149.552 115.723C147.114 120.607 143.953 129.035 141.024 137.671C136.148 151.882 131.889 166.741 132.346 167.374Z" fill="#0B7D77"/>
<path opacity="0.1" d="M169.495 116.563C169.19 117.412 169.011 118.3 168.962 119.201C169.474 118.463 169.873 117.652 170.144 116.796C170.443 115.946 170.622 115.058 170.676 114.159C170.164 114.896 169.766 115.707 169.495 116.563ZM144.535 132.305C144.243 133.153 144.067 134.038 144.011 134.934C144.523 134.199 144.921 133.391 145.192 132.537C145.497 131.689 145.674 130.8 145.716 129.9C145.215 130.638 144.818 131.442 144.535 132.288V132.305ZM180.236 168.912C179.937 169.76 179.761 170.645 179.712 171.542C180.224 170.803 180.625 169.993 180.902 169.137C181.191 168.288 181.367 167.404 181.426 166.508C180.915 167.242 180.514 168.046 180.236 168.896V168.912ZM149.452 169.062V169.179L150.159 169.237C150.452 168.406 150.623 167.537 150.667 166.658C150.148 167.392 149.742 168.2 149.46 169.054L149.452 169.062ZM133.428 163.904C133.134 164.753 132.955 165.637 132.895 166.533C133.415 165.795 133.816 164.981 134.085 164.12C134.392 163.275 134.568 162.389 134.609 161.491C134.11 162.239 133.713 163.051 133.428 163.904ZM165.094 148.57C164.796 149.418 164.617 150.303 164.561 151.199C165.079 150.464 165.48 149.653 165.751 148.795C166.046 147.947 166.223 147.062 166.275 146.166C165.768 146.906 165.37 147.716 165.094 148.57ZM156.216 105.439C155.91 106.284 155.733 107.171 155.692 108.068C156.193 107.323 156.588 106.51 156.865 105.656C157.171 104.813 157.351 103.93 157.398 103.035C156.891 103.775 156.493 104.585 156.216 105.439ZM188.789 116.771C187.948 116.461 187.064 116.281 186.168 116.239C186.908 116.75 187.718 117.151 188.573 117.428C188.722 117.428 188.864 117.52 189.014 117.553C188.914 117.312 188.864 117.021 188.789 116.771ZM148.021 151.066C147.174 150.765 146.289 150.585 145.392 150.534C146.131 151.049 146.945 151.447 147.805 151.715C148.647 152.021 149.53 152.201 150.426 152.248C149.709 151.745 148.925 151.347 148.096 151.066H148.021ZM194.688 170.127C193.842 169.823 192.956 169.646 192.059 169.603C192.802 170.11 193.615 170.508 194.472 170.785L194.854 170.901C194.854 170.676 194.854 170.443 194.854 170.194L194.688 170.127ZM171.891 160.867C171.042 160.565 170.154 160.389 169.254 160.343C169.998 160.848 170.81 161.243 171.666 161.516C172.514 161.825 173.403 162.004 174.304 162.049C173.558 161.545 172.746 161.147 171.891 160.867ZM188.781 142.397C187.936 142.101 187.054 141.925 186.16 141.873C186.9 142.381 187.71 142.779 188.564 143.054C189.412 143.354 190.297 143.533 191.194 143.586C190.45 143.077 189.638 142.676 188.781 142.397ZM163.962 128.253C163.117 127.948 162.231 127.772 161.333 127.729C162.076 128.235 162.889 128.63 163.746 128.902C164.59 129.211 165.477 129.39 166.375 129.434C165.631 128.927 164.819 128.529 163.962 128.253ZM142.705 161.974C142.318 161.164 141.82 160.414 141.224 159.744C141.375 160.626 141.656 161.481 142.056 162.281C142.439 163.092 142.938 163.843 143.537 164.511C143.379 163.631 143.099 162.777 142.705 161.974ZM169.329 98.0427C168.944 97.2304 168.442 96.4791 167.839 95.813C168.201 97.5765 169.009 99.2178 170.186 100.58C170.026 99.6981 169.74 98.8434 169.337 98.0427H169.329ZM182.058 127.113C181.673 126.303 181.174 125.552 180.577 124.883C180.933 126.65 181.744 128.294 182.932 129.65C182.765 128.768 182.474 127.913 182.066 127.113H182.058ZM164.403 169.304C164.019 168.493 163.52 167.742 162.922 167.074C163.078 167.957 163.358 168.815 163.754 169.62C163.929 169.952 164.112 170.294 164.32 170.618L164.944 170.676C164.796 170.207 164.616 169.748 164.403 169.304ZM179.529 151C179.142 150.19 178.644 149.44 178.048 148.77C178.205 149.637 178.485 150.478 178.88 151.266C179.268 152.076 179.767 152.83 180.361 153.504C180.199 152.648 179.919 151.819 179.529 151.041V151ZM155.784 139.776C155.395 138.963 154.894 138.21 154.294 137.538C154.646 139.311 155.461 140.959 156.657 142.313C156.484 141.431 156.19 140.577 155.784 139.776ZM138.653 144.693C138.561 144.993 138.461 145.284 138.37 145.583L138.611 145.475C139.421 145.09 140.172 144.591 140.841 143.994C140.084 144.121 139.348 144.35 138.653 144.676V144.693ZM157.248 158.404C156.434 158.79 155.677 159.289 155.002 159.885C156.772 159.535 158.418 158.726 159.777 157.539C158.896 157.702 158.044 157.994 157.248 158.404ZM152.788 120.457C151.983 120.845 151.235 121.344 150.567 121.938C151.451 121.782 152.308 121.502 153.113 121.106C153.922 120.712 154.672 120.208 155.343 119.608C154.465 119.774 153.614 120.059 152.813 120.457H152.788ZM187.982 160.31C187.17 160.696 186.417 161.194 185.744 161.791C186.626 161.639 187.481 161.358 188.282 160.959C189.095 160.579 189.846 160.08 190.511 159.478C189.649 159.633 188.813 159.913 188.032 160.31H187.982ZM175.178 137.663C174.367 138.052 173.614 138.55 172.939 139.144C173.821 138.988 174.675 138.708 175.477 138.312C176.29 137.928 177.041 137.426 177.707 136.822C176.837 136.985 175.994 137.268 175.202 137.663H175.178ZM181.675 104.832C180.869 105.222 180.118 105.721 179.446 106.313C181.217 105.961 182.866 105.152 184.23 103.967C183.34 104.127 182.479 104.419 181.675 104.832Z" fill="black"/>
<path d="M177.05 109.957C186.068 123.477 204.123 147.905 215.654 148.712C227.885 149.544 243.984 136.232 250.906 132.072C253.835 130.324 237.295 111.663 233.8 112.728C230.306 113.793 219.814 122.753 217.102 123.053C214.39 123.352 197.35 108.318 185.536 100.397C171.683 91.0789 169.728 99.0079 177.05 109.957Z" fill="#AD6359"/>
<path d="M266.531 95.8965C268.07 98.6921 260.865 101.895 260.865 101.895C262.234 102.009 263.52 102.598 264.501 103.559C266.165 105.34 264.068 108.693 264.068 108.693C265.463 109.11 266.701 109.936 267.621 111.064C269.019 112.928 267.413 116.613 267.413 116.613C268.484 117.702 269.125 119.141 269.219 120.665C269.31 124.75 264.102 128.153 260.815 130.383C257.529 132.613 245.082 135.616 242.944 136.448L229.632 115.648C229.632 115.648 241.563 101.504 245.806 99.4908C249.384 97.7353 264.185 91.6284 266.531 95.8965Z" fill="#AD6359"/>
<path d="M260.765 101.845C256.53 102.769 252.52 104.707 248.676 106.621C248.661 106.631 248.65 106.646 248.645 106.664C248.64 106.682 248.642 106.701 248.65 106.717C248.658 106.734 248.672 106.747 248.69 106.753C248.707 106.76 248.726 106.76 248.743 106.754C252.545 104.807 256.963 103.834 260.832 102.037C260.94 101.995 260.882 101.82 260.765 101.845Z" fill="#263238"/>
<path d="M263.819 108.476C262.875 108.773 261.976 109.198 261.148 109.741C260.233 110.248 259.326 110.781 258.427 111.321C256.639 112.403 254.866 113.535 253.128 114.708C253.053 114.766 253.128 114.891 253.202 114.841C254.991 113.768 256.797 112.711 258.627 111.712C259.542 111.205 260.466 110.714 261.398 110.223C262.3 109.822 263.154 109.32 263.944 108.726C263.971 108.706 263.99 108.677 263.998 108.645C264.006 108.612 264.002 108.578 263.987 108.548C263.972 108.518 263.947 108.494 263.916 108.481C263.885 108.468 263.851 108.466 263.819 108.476Z" fill="#263238"/>
<path d="M267.338 116.663C266.49 116.949 265.697 117.377 264.992 117.928C264.16 118.444 263.378 118.951 262.562 119.451C260.94 120.457 259.309 121.464 257.654 122.412C257.638 122.422 257.627 122.438 257.622 122.456C257.617 122.473 257.619 122.492 257.627 122.509C257.636 122.525 257.65 122.538 257.667 122.545C257.684 122.552 257.703 122.552 257.72 122.546C259.384 121.589 261.115 120.657 262.795 119.683C263.627 119.209 264.459 118.735 265.291 118.244C266.083 117.877 266.802 117.369 267.413 116.747C267.424 116.737 267.431 116.723 267.432 116.708C267.432 116.693 267.427 116.678 267.417 116.667C267.407 116.656 267.393 116.65 267.379 116.649C267.364 116.648 267.349 116.653 267.338 116.663Z" fill="#263238"/>
<path d="M228.567 114.966L245.157 139.776C245.157 139.776 223.525 153.421 211.677 149.169C199.83 144.918 181.235 119.633 175.069 108.077C168.904 96.5205 174.063 91.9944 185.053 99.524C196.044 107.054 215.579 121.68 216.345 121.988C217.11 122.296 228.567 114.966 228.567 114.966Z" fill="#0B7D77"/>
<path opacity="0.1" d="M181.675 104.832C180.869 105.223 180.118 105.721 179.446 106.313C181.217 105.961 182.866 105.152 184.23 103.967C183.34 104.128 182.479 104.419 181.675 104.832ZM217.867 138.944C217.054 139.327 216.3 139.826 215.629 140.425C217.4 140.072 219.047 139.26 220.405 138.07C219.521 138.234 218.665 138.529 217.867 138.944ZM230.214 117.412C229.871 117.54 229.535 117.688 229.208 117.853C228.391 118.236 227.635 118.735 226.961 119.334C227.848 119.18 228.708 118.9 229.515 118.502C229.865 118.319 230.206 118.127 230.539 117.911L230.214 117.412ZM203.416 121.181C203.03 120.369 202.532 119.615 201.935 118.943C202.289 120.711 203.098 122.357 204.281 123.718C204.118 122.843 203.826 121.996 203.416 121.206V121.181ZM210.529 147.805C210.139 146.998 209.641 146.248 209.048 145.575C209.204 146.456 209.484 147.311 209.88 148.113L210.072 148.47C210.371 148.612 210.671 148.745 210.954 148.862C210.845 148.52 210.687 148.179 210.496 147.83L210.529 147.805ZM228.051 130.333C227.662 129.523 227.16 128.773 226.562 128.103C226.717 128.984 226.997 129.839 227.394 130.641C227.783 131.448 228.282 132.198 228.875 132.87C228.723 131.989 228.446 131.135 228.051 130.333ZM204.098 135.683C203.251 135.384 202.366 135.207 201.469 135.158C202.214 135.662 203.026 136.06 203.882 136.34C204.732 136.637 205.62 136.816 206.519 136.872C205.773 136.362 204.957 135.962 204.098 135.683ZM242.844 136.298C242.461 136.115 242.062 135.966 241.663 135.816C240.816 135.516 239.93 135.342 239.034 135.3C239.781 135.798 240.593 136.192 241.446 136.473C242.04 136.677 242.649 136.83 243.268 136.931L242.844 136.298ZM188.764 116.755C187.923 116.445 187.039 116.265 186.143 116.222C186.883 116.733 187.693 117.134 188.548 117.412C189.396 117.706 190.281 117.88 191.177 117.928C190.429 117.419 189.611 117.024 188.747 116.755H188.764ZM193.756 130.607C193.461 131.455 193.287 132.34 193.24 133.237C194.216 131.744 194.789 130.024 194.904 128.245C194.416 128.981 194.032 129.782 193.764 130.624L193.756 130.607ZM216.578 127.279C216.273 128.128 216.094 129.017 216.045 129.917C216.557 129.177 216.957 128.367 217.235 127.512C217.533 126.662 217.709 125.774 217.759 124.875C217.249 125.618 216.853 126.435 216.586 127.296L216.578 127.279ZM227.868 143.87C227.578 144.719 227.399 145.603 227.336 146.499C227.855 145.764 228.256 144.953 228.525 144.094C228.832 143.249 229.009 142.363 229.05 141.465C228.556 142.215 228.162 143.026 227.876 143.878L227.868 143.87Z" fill="black"/>
<path d="M231.229 129.942C230.106 128.145 228.933 126.372 227.768 124.6C227.203 123.768 226.653 122.936 226.063 122.104C225.472 121.272 224.856 120.241 224.157 119.392C224.149 119.379 224.135 119.37 224.119 119.366C224.104 119.363 224.087 119.366 224.074 119.375C224.061 119.384 224.052 119.398 224.049 119.413C224.046 119.429 224.049 119.445 224.058 119.459C224.523 120.449 225.147 121.389 225.68 122.346C226.212 123.302 226.703 124.101 227.227 124.975C228.326 126.797 229.416 128.611 230.555 130.399C232.827 133.994 235.198 137.505 237.611 140.999C237.616 141.008 237.623 141.015 237.632 141.021C237.64 141.027 237.65 141.032 237.66 141.034C237.67 141.036 237.68 141.037 237.69 141.035C237.701 141.033 237.71 141.029 237.719 141.024C237.728 141.018 237.735 141.011 237.741 141.003C237.747 140.995 237.752 140.985 237.754 140.975C237.756 140.965 237.757 140.955 237.755 140.944C237.753 140.934 237.749 140.925 237.744 140.916C235.631 137.188 233.484 133.536 231.229 129.942Z" fill="#263238"/>
<path d="M191.476 131.597C189.929 129.551 184.088 121.281 183.032 119.733C180.902 116.621 178.805 113.476 176.675 110.356C176.675 110.356 176.6 110.356 176.617 110.356C177.649 112.378 178.772 114.35 179.945 116.28L179.629 115.923C178.98 115.207 178.298 114.516 177.615 113.826C177.574 113.826 177.507 113.826 177.54 113.892C178.164 114.658 178.78 115.44 179.437 116.18C179.853 116.655 180.269 117.096 180.727 117.553C181.251 118.385 181.8 119.217 182.349 120.049C183.423 121.63 189.213 129.917 191.335 131.697C191.427 131.755 191.535 131.672 191.476 131.597Z" fill="#263238"/>
<path d="M178.048 95.2058C173.455 91.8362 159.977 88.7246 153.92 91.6282C146.315 95.2974 136.074 121.372 138.678 123.377C143.329 126.947 163.055 113.759 167.798 107.861C172.54 101.962 178.048 95.2058 178.048 95.2058Z" fill="#0B7D77"/>
<path opacity="0.1" d="M158.08 90.5796C157.696 90.8252 157.334 91.1036 156.998 91.4116C157.866 91.256 158.707 90.9757 159.494 90.5796C159.532 90.5665 159.568 90.5498 159.603 90.5297C159.103 90.4881 158.571 90.5297 158.08 90.5796ZM149.203 97.6184C149.044 97.3272 148.895 97.036 148.72 96.7864C148.587 96.9694 148.462 97.1691 148.312 97.3688C148.395 97.5601 148.487 97.7598 148.579 97.9512C148.967 98.7592 149.465 99.5095 150.059 100.181C149.897 99.2892 149.606 98.4259 149.194 97.6184H149.203ZM169.345 98.0427C168.961 97.2303 168.459 96.479 167.856 95.8129C168.218 97.5764 169.026 99.2178 170.202 100.58C170.038 99.6971 169.746 98.8424 169.337 98.0427H169.345ZM144.019 112.004C143.169 111.708 142.281 111.535 141.382 111.488C142.124 111.992 142.934 112.389 143.786 112.669C144.636 112.969 145.524 113.146 146.424 113.193C145.68 112.689 144.871 112.288 144.019 112.004ZM156.216 105.439C155.91 106.284 155.733 107.17 155.692 108.068C156.193 107.323 156.588 106.51 156.865 105.655C157.171 104.813 157.351 103.93 157.398 103.035C156.891 103.775 156.493 104.585 156.216 105.439Z" fill="black"/>
<path d="M173.331 102.777C172.307 103.609 171.251 104.366 170.235 105.198C171.675 103.534 173.131 101.804 174.52 100.057C174.57 99.9983 174.52 99.9151 174.42 99.965C172.6 101.685 170.867 103.495 169.229 105.39C167.498 107.27 165.759 109.142 163.929 110.931C162.13 112.735 160.2 114.404 158.155 115.923C155.962 117.474 153.66 118.865 151.266 120.083C149.918 120.782 148.556 121.45 147.181 122.088C145.706 122.759 144.182 123.315 142.621 123.752C142.33 123.827 142.505 123.935 142.621 123.918C143.945 123.63 145.239 123.223 146.49 122.704C147.788 122.179 149.094 121.664 150.384 121.123C152.877 120.125 155.281 118.92 157.572 117.52C162.024 114.708 165.526 110.864 168.854 106.837L169.046 106.604C169.653 106.105 170.252 105.598 170.835 105.065C171.667 104.3 172.54 103.576 173.447 102.885C173.505 102.835 173.405 102.711 173.331 102.777Z" fill="#263238"/>
</svg>
