<svg width="320" height="320" viewBox="0 0 320 320" fill="none" xmlns="http://www.w3.org/2000/svg">
<path d="M267.136 52.6976H284.083V45.536H267.136V52.6976Z" fill="#EBEBEB"/>
<path d="M293.76 43.904H276.352V36.2624H293.76V43.904ZM276.813 43.424H293.28V36.7424H276.832L276.813 43.424Z" fill="#EBEBEB"/>
<path d="M231.405 179.93H213.978V172.288H231.405V179.93ZM214.458 179.45H230.925V172.8H214.458V179.45Z" fill="#EBEBEB"/>
<path d="M240.858 170.88H223.43V163.258H240.858V170.88ZM223.91 170.4H240.378V163.738H223.91V170.4Z" fill="#EBEBEB"/>
<path d="M233.088 179.693H250.035V172.531H233.088V179.693Z" fill="#EBEBEB"/>
<path d="M106.022 77.1264H88.5952V69.4848H106.022V77.1264ZM89.0752 76.6464H105.542V69.9648H89.0752V76.6464Z" fill="#EBEBEB"/>
<path d="M43.648 43.904H26.24V36.2624H43.648V43.904ZM26.7008 43.424H43.168V36.7424H26.7008V43.424Z" fill="#EBEBEB"/>
<path d="M53.12 256.902H35.6736V249.261H53.12V256.902ZM36.1728 256.422H52.6208V249.741H36.1536L36.1728 256.422Z" fill="#EBEBEB"/>
<path d="M26.4576 247.635H43.4048V240.474H26.4576V247.635Z" fill="#EBEBEB"/>
<path d="M267.136 256.666H284.083V249.504H267.136V256.666Z" fill="#EBEBEB"/>
<path d="M56.1217 183.443H55.4817V289.946H56.1217V183.443Z" fill="#EBEBEB"/>
<path d="M55.8015 183.763C55.4367 183.764 55.0797 183.657 54.7757 183.456C54.4718 183.254 54.2345 182.966 54.0941 182.63C53.9536 182.293 53.9161 181.922 53.9865 181.564C54.0569 181.206 54.232 180.877 54.4895 180.619C54.747 180.361 55.0754 180.184 55.4332 180.113C55.7909 180.041 56.1618 180.077 56.499 180.216C56.8362 180.356 57.1244 180.592 57.3272 180.895C57.53 181.199 57.6383 181.555 57.6383 181.92C57.6383 182.408 57.445 182.876 57.1007 183.221C56.7564 183.567 56.2892 183.761 55.8015 183.763ZM55.8015 180.723C55.563 180.722 55.3295 180.792 55.1306 180.923C54.9318 181.055 54.7766 181.243 54.6847 181.463C54.5929 181.683 54.5685 181.926 54.6147 182.16C54.6609 182.394 54.7757 182.608 54.9443 182.777C55.113 182.946 55.328 183.061 55.562 183.107C55.7959 183.153 56.0384 183.129 56.2585 183.037C56.4786 182.945 56.6665 182.79 56.7982 182.591C56.9299 182.392 56.9996 182.158 56.9983 181.92C56.9966 181.603 56.87 181.3 56.6459 181.076C56.4218 180.851 56.1184 180.725 55.8015 180.723Z" fill="#EBEBEB"/>
<path d="M52.0319 289.946H51.3919V235.891L39.7759 213.99V174.637H40.4159V213.83L52.0319 235.738V289.946Z" fill="#EBEBEB"/>
<path d="M40.0959 174.957C39.7313 174.957 39.375 174.849 39.0719 174.646C38.7687 174.444 38.5325 174.156 38.393 173.819C38.2535 173.482 38.217 173.112 38.2881 172.754C38.3592 172.396 38.5348 172.068 38.7925 171.81C39.0503 171.552 39.3787 171.377 39.7363 171.306C40.0938 171.235 40.4644 171.271 40.8012 171.411C41.1381 171.55 41.4259 171.786 41.6285 172.09C41.831 172.393 41.9391 172.749 41.9391 173.114C41.9391 173.602 41.7449 174.071 41.3992 174.417C41.0536 174.763 40.5847 174.957 40.0959 174.957ZM40.0959 171.917C39.8576 171.917 39.6248 171.988 39.4268 172.12C39.2288 172.252 39.0746 172.441 38.9837 172.661C38.8928 172.881 38.8693 173.124 38.9163 173.357C38.9632 173.591 39.0785 173.805 39.2474 173.973C39.4163 174.141 39.6313 174.255 39.8651 174.301C40.0989 174.347 40.341 174.322 40.5608 174.23C40.7805 174.138 40.968 173.982 41.0994 173.784C41.2309 173.585 41.3004 173.352 41.2991 173.114C41.2991 172.956 41.2679 172.8 41.2074 172.654C41.1468 172.508 41.0581 172.376 40.9463 172.265C40.8345 172.154 40.7018 172.066 40.5558 172.006C40.4099 171.946 40.2536 171.916 40.0959 171.917Z" fill="#EBEBEB"/>
<path d="M47.968 289.946H47.328V238.24L33.6384 214.022V188.07H34.2784V213.856L47.968 238.074V289.946Z" fill="#EBEBEB"/>
<path d="M33.9585 188.39C33.5934 188.392 33.2361 188.285 32.932 188.082C32.628 187.88 32.3907 187.593 32.2504 187.256C32.1101 186.918 32.0731 186.547 32.144 186.189C32.2149 185.831 32.3906 185.502 32.6487 185.244C32.9069 184.986 33.2359 184.81 33.5941 184.739C33.9522 184.668 34.3233 184.705 34.6604 184.846C34.9975 184.986 35.2853 185.223 35.4873 185.527C35.6894 185.831 35.7965 186.189 35.7953 186.554C35.7936 187.04 35.5995 187.506 35.2554 187.851C34.9113 188.195 34.4451 188.389 33.9585 188.39ZM33.9585 185.35C33.7202 185.349 33.487 185.419 33.2883 185.55C33.0896 185.682 32.9344 185.869 32.8423 186.089C32.7503 186.308 32.7255 186.551 32.7712 186.784C32.8169 187.018 32.931 187.233 33.099 187.402C33.267 187.571 33.4814 187.686 33.715 187.733C33.9486 187.78 34.1908 187.757 34.411 187.666C34.6313 187.575 34.8196 187.421 34.952 187.223C35.0845 187.025 35.1553 186.792 35.1553 186.554C35.1553 186.236 35.0294 185.931 34.8051 185.705C34.5809 185.48 34.2765 185.352 33.9585 185.35Z" fill="#EBEBEB"/>
<path d="M262.029 289.946H261.389V171.014L261.446 170.931L278.496 147.667V104.038H279.136V147.878L262.029 171.226V289.946Z" fill="#EBEBEB"/>
<path d="M278.816 104.384C278.451 104.385 278.094 104.278 277.79 104.076C277.486 103.875 277.249 103.587 277.108 103.251C276.968 102.914 276.931 102.543 277.001 102.185C277.071 101.827 277.246 101.498 277.504 101.24C277.761 100.981 278.09 100.805 278.448 100.733C278.805 100.662 279.176 100.698 279.513 100.837C279.851 100.977 280.139 101.213 280.342 101.516C280.544 101.819 280.653 102.176 280.653 102.541C280.653 103.029 280.459 103.496 280.115 103.842C279.771 104.187 279.304 104.382 278.816 104.384ZM278.816 101.344C278.577 101.343 278.344 101.412 278.145 101.544C277.946 101.676 277.791 101.864 277.699 102.084C277.607 102.304 277.583 102.546 277.629 102.78C277.675 103.014 277.79 103.229 277.959 103.398C278.127 103.567 278.342 103.681 278.576 103.728C278.81 103.774 279.053 103.749 279.273 103.658C279.493 103.566 279.681 103.41 279.813 103.212C279.944 103.013 280.014 102.779 280.013 102.541C280.011 102.224 279.884 101.92 279.66 101.696C279.436 101.472 279.133 101.346 278.816 101.344Z" fill="#EBEBEB"/>
<path d="M266.432 289.946H265.792V173.837L265.856 173.754L282.899 150.483V120.032H283.539V150.694L266.432 174.042V289.946Z" fill="#EBEBEB"/>
<path d="M283.219 120.378C282.854 120.378 282.498 120.269 282.194 120.067C281.891 119.864 281.655 119.575 281.516 119.238C281.376 118.901 281.34 118.53 281.412 118.172C281.484 117.815 281.66 117.486 281.918 117.229C282.177 116.971 282.506 116.796 282.864 116.726C283.221 116.655 283.592 116.693 283.929 116.833C284.266 116.974 284.553 117.211 284.755 117.515C284.957 117.819 285.064 118.176 285.062 118.541C285.061 119.029 284.866 119.496 284.52 119.84C284.175 120.184 283.707 120.378 283.219 120.378ZM283.219 117.338C282.981 117.338 282.749 117.408 282.551 117.54C282.353 117.673 282.199 117.861 282.108 118.08C282.016 118.3 281.993 118.542 282.039 118.776C282.086 119.009 282.2 119.223 282.368 119.392C282.537 119.56 282.751 119.674 282.984 119.721C283.218 119.767 283.46 119.743 283.68 119.652C283.899 119.561 284.087 119.407 284.22 119.209C284.352 119.011 284.422 118.779 284.422 118.541C284.422 118.222 284.296 117.916 284.07 117.69C283.844 117.464 283.538 117.338 283.219 117.338Z" fill="#EBEBEB"/>
<path d="M257.786 145.043H257.146V289.946H257.786V145.043Z" fill="#EBEBEB"/>
<path d="M257.466 145.363C257.101 145.364 256.744 145.257 256.44 145.056C256.136 144.854 255.899 144.566 255.758 144.23C255.618 143.893 255.58 143.522 255.651 143.164C255.721 142.806 255.896 142.477 256.154 142.219C256.411 141.961 256.739 141.784 257.097 141.713C257.455 141.641 257.826 141.677 258.163 141.817C258.5 141.956 258.788 142.192 258.991 142.495C259.194 142.799 259.302 143.155 259.302 143.52C259.302 144.008 259.109 144.476 258.765 144.821C258.42 145.167 257.953 145.362 257.466 145.363ZM257.466 142.323C257.227 142.322 256.994 142.392 256.795 142.523C256.596 142.655 256.441 142.843 256.349 143.063C256.257 143.283 256.233 143.526 256.279 143.76C256.325 143.994 256.44 144.209 256.608 144.377C256.777 144.546 256.992 144.661 257.226 144.707C257.46 144.753 257.702 144.729 257.923 144.637C258.143 144.545 258.331 144.39 258.462 144.191C258.594 143.992 258.664 143.759 258.662 143.52C258.661 143.203 258.534 142.9 258.31 142.676C258.086 142.452 257.782 142.325 257.466 142.323Z" fill="#EBEBEB"/>
<path d="M253.696 289.946H253.056V197.491L241.44 175.59V136.237H242.08V175.43L253.696 197.338V289.946Z" fill="#EBEBEB"/>
<path d="M241.76 136.557C241.395 136.557 241.039 136.449 240.736 136.246C240.433 136.044 240.197 135.756 240.057 135.419C239.918 135.082 239.881 134.712 239.952 134.354C240.023 133.996 240.199 133.668 240.457 133.41C240.714 133.152 241.043 132.977 241.4 132.906C241.758 132.835 242.129 132.871 242.465 133.011C242.802 133.15 243.09 133.386 243.293 133.69C243.495 133.993 243.603 134.349 243.603 134.714C243.603 135.202 243.409 135.671 243.063 136.017C242.718 136.363 242.249 136.557 241.76 136.557ZM241.76 133.517C241.522 133.517 241.289 133.588 241.091 133.72C240.893 133.853 240.739 134.041 240.648 134.261C240.557 134.481 240.533 134.724 240.58 134.957C240.627 135.191 240.743 135.405 240.911 135.573C241.08 135.741 241.295 135.855 241.529 135.901C241.763 135.947 242.005 135.922 242.225 135.83C242.445 135.738 242.632 135.582 242.763 135.384C242.895 135.185 242.964 134.952 242.963 134.714C242.963 134.556 242.932 134.4 242.871 134.254C242.811 134.108 242.722 133.976 242.61 133.865C242.499 133.754 242.366 133.666 242.22 133.606C242.074 133.546 241.918 133.516 241.76 133.517Z" fill="#EBEBEB"/>
<path d="M249.632 289.946H248.992V199.84L235.302 175.622V149.67H235.942V175.456L249.632 199.674V289.946Z" fill="#EBEBEB"/>
<path d="M235.622 149.99C235.257 149.992 234.9 149.884 234.596 149.682C234.292 149.48 234.055 149.193 233.914 148.856C233.774 148.518 233.737 148.147 233.808 147.789C233.879 147.431 234.054 147.102 234.313 146.844C234.571 146.586 234.9 146.41 235.258 146.339C235.616 146.268 235.987 146.305 236.324 146.446C236.661 146.586 236.949 146.823 237.151 147.127C237.353 147.431 237.46 147.789 237.459 148.154C237.457 148.64 237.263 149.106 236.919 149.451C236.575 149.795 236.109 149.989 235.622 149.99ZM235.622 146.95C235.384 146.949 235.151 147.019 234.952 147.15C234.753 147.281 234.598 147.469 234.506 147.689C234.414 147.908 234.389 148.151 234.435 148.384C234.481 148.618 234.595 148.833 234.763 149.002C234.931 149.171 235.145 149.286 235.379 149.333C235.612 149.38 235.855 149.357 236.075 149.266C236.295 149.175 236.483 149.021 236.616 148.823C236.748 148.625 236.819 148.392 236.819 148.154C236.819 147.836 236.693 147.531 236.469 147.305C236.245 147.08 235.94 146.952 235.622 146.95Z" fill="#EBEBEB"/>
<path d="M270.867 106.176L274.63 100.102L272.774 98.9504C272.507 98.7828 272.292 98.5447 272.152 98.2623C272.012 97.98 271.953 97.6643 271.981 97.3504C272.013 96.9951 272.026 96.6383 272.019 96.2816C272.009 95.968 272.087 95.6577 272.243 95.3854C272.399 95.1131 272.627 94.8894 272.902 94.7392L274.822 93.7088L271.443 87.4048L269.523 88.4416C269.246 88.5875 268.933 88.6539 268.621 88.6336C268.308 88.6133 268.007 88.507 267.75 88.3264C267.458 88.123 267.154 87.935 266.842 87.7632C266.565 87.6136 266.335 87.3904 266.176 87.1182C266.018 86.846 265.938 86.5355 265.946 86.2208L266.016 84.032L258.867 83.84L258.803 86.0352C258.789 86.3497 258.689 86.6541 258.512 86.915C258.336 87.1759 258.091 87.383 257.805 87.5136C257.651 87.584 257.491 87.6672 257.338 87.7504C257.184 87.8336 257.03 87.9168 256.883 88.0064C256.616 88.1712 256.308 88.2584 255.994 88.2584C255.68 88.2584 255.372 88.1712 255.104 88.0064L253.229 86.848L249.466 92.9216L251.328 94.08C251.594 94.2478 251.809 94.4862 251.948 94.7687C252.087 95.0511 252.145 95.3666 252.115 95.68C252.082 96.0331 252.071 96.3879 252.083 96.7424C252.09 97.0563 252.011 97.3661 251.854 97.6381C251.697 97.91 251.469 98.1338 251.194 98.2848L249.274 99.3152L252.653 105.619L254.573 104.582C254.85 104.437 255.163 104.37 255.475 104.39C255.788 104.411 256.089 104.517 256.346 104.698C256.637 104.901 256.941 105.087 257.254 105.254C257.531 105.405 257.761 105.628 257.919 105.9C258.077 106.172 258.157 106.482 258.15 106.797L258.08 108.992L265.229 109.216L265.293 107.021C265.306 106.708 265.406 106.404 265.581 106.145C265.756 105.885 266 105.679 266.285 105.549L266.758 105.306C266.918 105.222 267.072 105.139 267.219 105.05C267.488 104.885 267.797 104.798 268.112 104.798C268.427 104.798 268.736 104.885 269.005 105.05L270.867 106.176ZM264.813 101.664C263.793 102.209 262.634 102.439 261.483 102.326C260.332 102.212 259.24 101.76 258.346 101.026C257.452 100.292 256.796 99.3101 256.46 98.2034C256.124 97.0967 256.123 95.9153 256.459 94.8084C256.794 93.7015 257.45 92.7188 258.344 91.9845C259.237 91.2503 260.328 90.7974 261.479 90.6832C262.63 90.5689 263.789 90.7984 264.81 91.3427C265.83 91.8869 266.667 92.7214 267.213 93.7408C267.576 94.4185 267.802 95.1612 267.878 95.9263C267.954 96.6915 267.878 97.4641 267.656 98.2C267.433 98.9359 267.067 99.6206 266.579 100.215C266.091 100.809 265.491 101.302 264.813 101.664Z" fill="#EBEBEB"/>
<path d="M138.157 52.4288L135.68 48.096L134.349 48.8576C134.158 48.9681 133.94 49.0231 133.719 49.0163C133.499 49.0095 133.285 48.9412 133.101 48.8192C132.894 48.6823 132.681 48.5562 132.461 48.4416C132.267 48.3415 132.105 48.19 131.992 48.0036C131.879 47.8173 131.82 47.6035 131.821 47.3856V45.8496H126.816V47.36C126.815 47.5776 126.756 47.7909 126.643 47.9769C126.53 48.163 126.369 48.3148 126.176 48.416C125.952 48.5312 125.734 48.6592 125.536 48.7936C125.349 48.9221 125.129 48.994 124.902 49.0008C124.675 49.0076 124.451 48.949 124.256 48.832L122.88 48.096L120.378 52.4288L121.709 53.1968C121.9 53.3086 122.055 53.4715 122.158 53.6672C122.261 53.8629 122.307 54.0835 122.291 54.304C122.291 54.4256 122.291 54.5472 122.291 54.6688C122.291 54.7904 122.291 54.9184 122.291 55.04C122.307 55.2589 122.262 55.478 122.16 55.6726C122.058 55.8671 121.904 56.0293 121.715 56.1408L120.378 56.9152L122.88 61.248L124.211 60.48C124.403 60.3719 124.621 60.3188 124.842 60.3267C125.062 60.3346 125.276 60.4032 125.459 60.5248C125.666 60.6617 125.88 60.7878 126.099 60.9024C126.292 61.0031 126.454 61.1548 126.567 61.3409C126.68 61.5271 126.739 61.7407 126.739 61.9584V63.488H131.744V61.9584C131.743 61.7404 131.802 61.5262 131.915 61.3398C132.028 61.1534 132.19 61.0019 132.384 60.9024C132.608 60.7872 132.819 60.6592 133.024 60.5248C133.208 60.4032 133.422 60.3346 133.642 60.3267C133.862 60.3188 134.08 60.3719 134.272 60.48L135.68 61.248L138.182 56.9152L136.851 56.1472C136.661 56.0349 136.506 55.8718 136.403 55.6763C136.3 55.4807 136.254 55.2604 136.269 55.04C136.269 54.9184 136.269 54.7968 136.269 54.6688C136.269 54.5408 136.269 54.4256 136.269 54.304C136.253 54.0835 136.299 53.8629 136.402 53.6672C136.505 53.4715 136.661 53.3086 136.851 53.1968L138.157 52.4288ZM133.37 54.6688C133.368 55.4805 133.126 56.2735 132.674 56.9476C132.222 57.6216 131.58 58.1464 130.83 58.4556C130.079 58.7647 129.254 58.8443 128.458 58.6842C127.663 58.5242 126.932 58.1317 126.36 57.5564C125.787 56.9812 125.398 56.249 125.242 55.4525C125.085 54.6561 125.169 53.8311 125.481 53.0821C125.794 52.3331 126.322 51.6937 126.998 51.2447C127.674 50.7958 128.468 50.5575 129.28 50.56C130.367 50.5634 131.408 50.998 132.175 51.7684C132.942 52.5387 133.371 53.5819 133.37 54.6688Z" fill="#EBEBEB"/>
<path d="M23.584 289.811L57.6896 289.651L91.7952 289.6L160 289.491L228.205 289.594L262.31 289.651L296.416 289.811L262.31 289.965L228.205 290.022L160 290.131L91.7952 290.022L57.6896 289.965L23.584 289.811Z" fill="#263238"/>
<path d="M80.8324 289.946H80.1445V203.391L80.2133 203.302L98.5313 178.298V131.405H99.2192V178.518L99.1504 178.614L80.8324 203.618V289.946Z" fill="#EBEBEB"/>
<path d="M98.8754 131.776C98.4835 131.776 98.1005 131.66 97.7747 131.442C97.4489 131.225 97.195 130.915 97.0451 130.553C96.8951 130.191 96.8559 129.793 96.9324 129.409C97.0088 129.025 97.1975 128.672 97.4745 128.394C97.7516 128.117 98.1046 127.929 98.4889 127.852C98.8732 127.776 99.2715 127.815 99.6335 127.965C99.9955 128.115 100.305 128.369 100.523 128.695C100.74 129.02 100.856 129.403 100.856 129.795C100.856 130.321 100.648 130.825 100.276 131.196C99.9047 131.568 99.4008 131.776 98.8754 131.776ZM98.8754 128.509C98.6193 128.509 98.369 128.585 98.1562 128.727C97.9434 128.87 97.7776 129.072 97.68 129.309C97.5823 129.546 97.5571 129.806 97.6075 130.057C97.658 130.308 97.7818 130.538 97.9634 130.719C98.1449 130.9 98.376 131.022 98.6273 131.071C98.8786 131.12 99.1388 131.094 99.375 130.995C99.6112 130.896 99.8127 130.729 99.954 130.516C100.095 130.302 100.17 130.051 100.169 129.795C100.169 129.626 100.135 129.458 100.07 129.301C100.005 129.145 99.9095 129.003 99.7894 128.883C99.6692 128.764 99.5266 128.669 99.3697 128.605C99.2129 128.541 99.0449 128.508 98.8754 128.509Z" fill="#EBEBEB"/>
<path d="M85.5651 289.945H84.8772V206.424L84.946 206.335L103.271 181.331V148.595H103.959V181.551L103.89 181.647L85.5651 206.644V289.945Z" fill="#EBEBEB"/>
<path d="M103.615 148.966C103.222 148.968 102.839 148.853 102.512 148.635C102.185 148.418 101.93 148.109 101.779 147.747C101.628 147.384 101.588 146.985 101.665 146.601C101.741 146.216 101.93 145.862 102.207 145.584C102.485 145.307 102.838 145.118 103.223 145.042C103.608 144.966 104.007 145.006 104.369 145.156C104.732 145.307 105.041 145.562 105.258 145.889C105.475 146.216 105.59 146.6 105.589 146.992C105.587 147.515 105.379 148.016 105.009 148.386C104.639 148.756 104.138 148.965 103.615 148.966ZM103.615 145.699C103.359 145.698 103.108 145.772 102.895 145.914C102.681 146.055 102.514 146.256 102.415 146.493C102.316 146.729 102.29 146.989 102.339 147.24C102.388 147.492 102.511 147.723 102.691 147.904C102.872 148.086 103.102 148.21 103.353 148.26C103.604 148.31 103.865 148.285 104.101 148.188C104.338 148.09 104.54 147.924 104.683 147.711C104.825 147.499 104.901 147.248 104.901 146.992C104.901 146.65 104.766 146.323 104.525 146.08C104.284 145.838 103.957 145.701 103.615 145.699Z" fill="#EBEBEB"/>
<path d="M85.7921 159.697L89.8436 153.169L87.8419 151.931C87.5557 151.752 87.3249 151.497 87.1755 151.195C87.026 150.892 86.9638 150.554 86.9958 150.218C87.0163 149.836 87.0163 149.452 86.9958 149.07C86.9851 148.732 87.0689 148.397 87.2378 148.104C87.4067 147.812 87.6541 147.572 87.952 147.412L90.0156 146.297L86.3836 139.522L84.32 140.636C84.0205 140.793 83.6838 140.864 83.3465 140.842C83.0093 140.82 82.6845 140.706 82.4077 140.512C82.0929 140.294 81.7669 140.092 81.431 139.907C81.1328 139.747 80.885 139.507 80.7149 139.214C80.5449 138.922 80.4594 138.588 80.4679 138.249L80.6124 135.904L72.9357 135.663L72.867 138.022C72.8518 138.36 72.7436 138.688 72.5542 138.968C72.3649 139.248 72.1018 139.471 71.7939 139.611L71.2849 139.866L70.7965 140.148C70.509 140.321 70.1796 140.413 69.8438 140.413C69.508 140.413 69.1785 140.321 68.8911 140.148L66.855 138.91L62.7896 145.465L64.7914 146.683C65.0787 146.862 65.3102 147.118 65.4597 147.422C65.6092 147.726 65.6708 148.065 65.6374 148.402C65.6374 148.781 65.5962 149.166 65.6374 149.544C65.6482 149.882 65.5644 150.216 65.3955 150.509C65.2265 150.802 64.9792 151.042 64.6813 151.202L62.6177 152.316L66.2496 159.085L68.3133 157.977C68.6117 157.818 68.9484 157.745 69.2859 157.766C69.6235 157.786 69.9487 157.9 70.2255 158.094C70.538 158.313 70.8617 158.515 71.1954 158.7C71.4936 158.86 71.7414 159.1 71.9114 159.392C72.0815 159.685 72.167 160.019 72.1585 160.357L72.0897 162.71L79.7663 162.951L79.842 160.591C79.8554 160.255 79.9623 159.928 80.1506 159.649C80.3389 159.37 80.6012 159.148 80.9082 159.009L81.4172 158.755L81.9056 158.473C82.1944 158.296 82.5265 158.202 82.8652 158.202C83.2039 158.202 83.536 158.296 83.8248 158.473L85.7921 159.697ZM79.2917 154.882C78.1946 155.47 76.9478 155.72 75.7089 155.599C74.47 155.479 73.2946 154.994 72.3314 154.205C71.3682 153.417 70.6604 152.36 70.2975 151.17C69.9345 149.979 69.9328 148.708 70.2925 147.516C70.6522 146.324 71.3572 145.266 72.3183 144.475C73.2794 143.684 74.4535 143.196 75.692 143.072C76.9306 142.948 78.1781 143.194 79.2768 143.78C80.3754 144.365 81.2759 145.262 81.8643 146.359C82.6449 147.828 82.8125 149.546 82.3305 151.138C81.8484 152.729 80.7559 154.066 79.2917 154.855V154.882Z" fill="#EBEBEB"/>
<path d="M240.006 141.544H79.3054V289.801H240.006V141.544Z" fill="#263238"/>
<path d="M251.693 146.462H104.282V176.825H251.693V146.462Z" fill="#37474F"/>
<path d="M75.5771 176.825H104.282V146.462H75.5771V176.825Z" fill="#455A64"/>
<path d="M200.584 151.477H109.819V154.043H200.584V151.477Z" fill="#455A64"/>
<path d="M200.584 155.921H109.819V158.486H200.584V155.921Z" fill="#455A64"/>
<path d="M200.584 160.357H109.819V162.923H200.584V160.357Z" fill="#455A64"/>
<path d="M200.584 164.8H109.819V167.366H200.584V164.8Z" fill="#455A64"/>
<path d="M200.584 169.244H109.819V171.81H200.584V169.244Z" fill="#455A64"/>
<path d="M214.231 154.015C214.233 154.519 214.085 155.012 213.806 155.431C213.527 155.851 213.13 156.178 212.665 156.371C212.2 156.565 211.688 156.617 211.194 156.519C210.7 156.422 210.246 156.18 209.889 155.824C209.532 155.469 209.289 155.015 209.191 154.521C209.092 154.027 209.142 153.515 209.334 153.05C209.527 152.584 209.853 152.186 210.272 151.906C210.69 151.626 211.183 151.477 211.686 151.477C212.36 151.477 213.006 151.744 213.483 152.22C213.961 152.696 214.23 153.341 214.231 154.015Z" fill="#0B7D77"/>
<path d="M222.61 154.015C222.611 154.519 222.463 155.012 222.184 155.431C221.905 155.851 221.508 156.178 221.043 156.371C220.578 156.565 220.066 156.617 219.572 156.519C219.078 156.422 218.624 156.18 218.267 155.824C217.911 155.469 217.667 155.015 217.569 154.521C217.47 154.027 217.52 153.515 217.712 153.05C217.905 152.584 218.231 152.186 218.65 151.906C219.068 151.626 219.561 151.477 220.064 151.477C220.738 151.477 221.385 151.744 221.862 152.22C222.339 152.696 222.608 153.341 222.61 154.015Z" fill="#0B7D77"/>
<path d="M230.988 154.015C230.989 154.519 230.841 155.012 230.562 155.431C230.284 155.851 229.887 156.178 229.422 156.371C228.957 156.565 228.445 156.617 227.951 156.519C227.456 156.422 227.002 156.18 226.646 155.824C226.289 155.469 226.046 155.015 225.947 154.521C225.848 154.027 225.898 153.515 226.091 153.05C226.283 152.584 226.609 152.186 227.028 151.906C227.447 151.626 227.939 151.477 228.443 151.477C229.117 151.477 229.763 151.744 230.24 152.22C230.717 152.696 230.986 153.341 230.988 154.015Z" fill="#263238"/>
<path d="M239.366 154.015C239.367 154.519 239.219 155.012 238.94 155.432C238.661 155.851 238.263 156.179 237.798 156.372C237.333 156.566 236.82 156.617 236.326 156.519C235.832 156.421 235.378 156.178 235.021 155.822C234.665 155.465 234.422 155.011 234.324 154.517C234.226 154.023 234.277 153.51 234.471 153.045C234.664 152.58 234.992 152.182 235.411 151.903C235.831 151.624 236.324 151.476 236.828 151.477C237.5 151.479 238.145 151.747 238.621 152.222C239.096 152.698 239.364 153.343 239.366 154.015Z" fill="#0B7D77"/>
<path d="M247.765 154.015C247.766 154.519 247.618 155.012 247.339 155.432C247.06 155.851 246.662 156.179 246.197 156.372C245.732 156.566 245.219 156.617 244.725 156.519C244.231 156.421 243.777 156.178 243.42 155.822C243.064 155.465 242.821 155.011 242.723 154.517C242.625 154.023 242.676 153.51 242.87 153.045C243.063 152.58 243.391 152.182 243.81 151.903C244.23 151.624 244.723 151.476 245.227 151.477C245.899 151.479 246.544 151.747 247.02 152.222C247.495 152.698 247.763 153.343 247.765 154.015Z" fill="white"/>
<path d="M214.231 161.643C214.231 162.146 214.082 162.639 213.802 163.057C213.523 163.476 213.125 163.802 212.66 163.994C212.195 164.187 211.683 164.237 211.19 164.139C210.696 164.041 210.243 163.799 209.887 163.443C209.531 163.087 209.288 162.633 209.19 162.14C209.092 161.646 209.142 161.134 209.335 160.669C209.527 160.204 209.854 159.807 210.272 159.527C210.691 159.247 211.183 159.098 211.686 159.098C212.361 159.098 213.009 159.366 213.486 159.843C213.963 160.321 214.231 160.968 214.231 161.643Z" fill="#0B7D77"/>
<path d="M222.61 161.643C222.61 162.146 222.46 162.639 222.181 163.057C221.901 163.476 221.503 163.802 221.038 163.994C220.573 164.187 220.062 164.237 219.568 164.139C219.074 164.041 218.621 163.799 218.265 163.443C217.909 163.087 217.666 162.633 217.568 162.14C217.47 161.646 217.52 161.134 217.713 160.669C217.906 160.204 218.232 159.807 218.65 159.527C219.069 159.247 219.561 159.098 220.064 159.098C220.739 159.098 221.387 159.366 221.864 159.843C222.341 160.321 222.61 160.968 222.61 161.643Z" fill="white"/>
<path d="M230.988 161.643C230.988 162.146 230.839 162.639 230.559 163.057C230.279 163.476 229.882 163.802 229.417 163.994C228.952 164.187 228.44 164.237 227.946 164.139C227.453 164.041 226.999 163.799 226.643 163.443C226.287 163.087 226.045 162.633 225.947 162.14C225.848 161.646 225.899 161.134 226.091 160.669C226.284 160.204 226.61 159.807 227.029 159.527C227.447 159.247 227.939 159.098 228.443 159.098C229.118 159.098 229.765 159.366 230.243 159.843C230.72 160.321 230.988 160.968 230.988 161.643Z" fill="#0B7D77"/>
<path d="M239.366 161.643C239.366 162.147 239.217 162.639 238.937 163.058C238.657 163.476 238.259 163.803 237.793 163.995C237.328 164.188 236.816 164.238 236.322 164.139C235.828 164.04 235.375 163.797 235.019 163.44C234.663 163.084 234.421 162.63 234.324 162.135C234.227 161.641 234.278 161.129 234.472 160.664C234.665 160.199 234.993 159.802 235.412 159.524C235.831 159.245 236.324 159.097 236.828 159.098C237.162 159.098 237.492 159.164 237.801 159.292C238.109 159.42 238.389 159.607 238.625 159.844C238.861 160.08 239.048 160.361 239.175 160.67C239.302 160.978 239.367 161.309 239.366 161.643Z" fill="white"/>
<path d="M247.765 161.643C247.765 162.147 247.616 162.639 247.336 163.058C247.056 163.476 246.658 163.803 246.192 163.995C245.727 164.188 245.215 164.238 244.721 164.139C244.227 164.04 243.773 163.797 243.418 163.44C243.062 163.084 242.82 162.63 242.723 162.135C242.625 161.641 242.677 161.129 242.871 160.664C243.064 160.199 243.391 159.802 243.811 159.524C244.23 159.245 244.723 159.097 245.227 159.098C245.561 159.098 245.891 159.164 246.2 159.292C246.508 159.42 246.788 159.607 247.024 159.844C247.26 160.08 247.447 160.361 247.574 160.67C247.701 160.978 247.766 161.309 247.765 161.643Z" fill="#0B7D77"/>
<path d="M214.231 169.265C214.233 169.769 214.085 170.262 213.806 170.681C213.527 171.101 213.13 171.428 212.665 171.622C212.2 171.815 211.688 171.867 211.194 171.769C210.7 171.672 210.246 171.43 209.889 171.074C209.532 170.719 209.289 170.265 209.191 169.771C209.092 169.277 209.142 168.765 209.334 168.3C209.527 167.834 209.853 167.436 210.272 167.156C210.69 166.876 211.183 166.727 211.686 166.727C212.36 166.727 213.006 166.994 213.483 167.47C213.961 167.946 214.23 168.591 214.231 169.265Z" fill="white"/>
<path d="M222.61 169.265C222.611 169.769 222.463 170.262 222.184 170.681C221.905 171.101 221.508 171.428 221.043 171.622C220.578 171.815 220.066 171.867 219.572 171.769C219.078 171.672 218.624 171.43 218.267 171.074C217.911 170.719 217.667 170.265 217.569 169.771C217.47 169.277 217.52 168.765 217.712 168.3C217.905 167.834 218.231 167.436 218.65 167.156C219.068 166.876 219.561 166.727 220.064 166.727C220.738 166.727 221.385 166.994 221.862 167.47C222.339 167.946 222.608 168.591 222.61 169.265Z" fill="#0B7D77"/>
<path d="M230.988 169.265C230.989 169.769 230.841 170.262 230.562 170.681C230.284 171.101 229.887 171.428 229.422 171.622C228.957 171.815 228.445 171.867 227.951 171.769C227.456 171.672 227.002 171.43 226.646 171.074C226.289 170.719 226.046 170.265 225.947 169.771C225.848 169.277 225.898 168.765 226.091 168.3C226.283 167.834 226.609 167.436 227.028 167.156C227.447 166.876 227.939 166.727 228.443 166.727C229.117 166.727 229.763 166.994 230.24 167.47C230.717 167.946 230.986 168.591 230.988 169.265Z" fill="#0B7D77"/>
<path d="M239.366 169.265C239.367 169.769 239.219 170.262 238.94 170.682C238.661 171.101 238.263 171.429 237.798 171.622C237.333 171.816 236.82 171.867 236.326 171.769C235.832 171.671 235.378 171.428 235.021 171.072C234.665 170.715 234.422 170.261 234.324 169.767C234.226 169.273 234.277 168.76 234.471 168.295C234.664 167.83 234.992 167.432 235.411 167.153C235.831 166.874 236.324 166.726 236.828 166.727C237.5 166.729 238.145 166.997 238.621 167.472C239.096 167.948 239.364 168.593 239.366 169.265Z" fill="#0B7D77"/>
<path d="M247.765 169.265C247.766 169.769 247.618 170.262 247.339 170.682C247.06 171.101 246.662 171.429 246.197 171.622C245.732 171.816 245.219 171.867 244.725 171.769C244.231 171.671 243.777 171.428 243.42 171.072C243.064 170.715 242.821 170.261 242.723 169.767C242.625 169.273 242.676 168.76 242.87 168.295C243.063 167.83 243.391 167.432 243.81 167.153C244.23 166.874 244.723 166.726 245.227 166.727C245.899 166.729 246.544 166.997 247.02 167.472C247.495 167.948 247.763 168.593 247.765 169.265Z" fill="#263238"/>
<path d="M205.791 151.477H204.326V171.81H205.791V151.477Z" fill="#263238"/>
<path d="M251.693 180.677H104.282V211.039H251.693V180.677Z" fill="#37474F"/>
<path d="M75.5771 211.04H104.282V180.677H75.5771V211.04Z" fill="#455A64"/>
<path d="M200.584 185.691H109.819V188.257H200.584V185.691Z" fill="#455A64"/>
<path d="M200.584 190.135H109.819V192.701H200.584V190.135Z" fill="#455A64"/>
<path d="M200.584 194.578H109.819V197.144H200.584V194.578Z" fill="#455A64"/>
<path d="M200.584 199.015H109.819V201.581H200.584V199.015Z" fill="#455A64"/>
<path d="M200.584 203.459H109.819V206.025H200.584V203.459Z" fill="#455A64"/>
<path d="M214.231 188.229C214.233 188.733 214.085 189.226 213.806 189.645C213.527 190.065 213.13 190.392 212.665 190.586C212.2 190.779 211.688 190.831 211.194 190.733C210.7 190.636 210.246 190.394 209.889 190.038C209.532 189.683 209.289 189.229 209.191 188.735C209.092 188.241 209.142 187.729 209.334 187.264C209.527 186.798 209.853 186.401 210.272 186.121C210.69 185.841 211.183 185.691 211.686 185.691C212.36 185.691 213.006 185.958 213.483 186.434C213.961 186.91 214.23 187.556 214.231 188.229Z" fill="#0B7D77"/>
<path d="M222.61 188.229C222.611 188.733 222.463 189.226 222.184 189.645C221.905 190.065 221.508 190.392 221.043 190.586C220.578 190.779 220.066 190.831 219.572 190.733C219.078 190.636 218.624 190.394 218.267 190.038C217.911 189.683 217.667 189.229 217.569 188.735C217.47 188.241 217.52 187.729 217.712 187.264C217.905 186.798 218.231 186.401 218.65 186.121C219.068 185.841 219.561 185.691 220.064 185.691C220.738 185.691 221.385 185.958 221.862 186.434C222.339 186.91 222.608 187.556 222.61 188.229Z" fill="#263238"/>
<path d="M230.988 188.229C230.989 188.733 230.841 189.226 230.562 189.645C230.284 190.065 229.887 190.392 229.422 190.586C228.957 190.779 228.445 190.831 227.951 190.733C227.456 190.636 227.002 190.394 226.646 190.038C226.289 189.683 226.046 189.229 225.947 188.735C225.848 188.241 225.898 187.729 226.091 187.264C226.283 186.798 226.609 186.401 227.028 186.121C227.447 185.841 227.939 185.691 228.443 185.691C229.117 185.691 229.763 185.958 230.24 186.434C230.717 186.91 230.986 187.556 230.988 188.229Z" fill="#0B7D77"/>
<path d="M239.366 188.229C239.367 188.733 239.219 189.226 238.94 189.646C238.661 190.066 238.263 190.393 237.798 190.586C237.333 190.78 236.82 190.831 236.326 190.733C235.832 190.635 235.378 190.392 235.021 190.036C234.665 189.68 234.422 189.225 234.324 188.731C234.226 188.237 234.277 187.724 234.471 187.259C234.664 186.794 234.992 186.396 235.411 186.117C235.831 185.838 236.324 185.69 236.828 185.691C237.5 185.693 238.145 185.961 238.621 186.437C239.096 186.912 239.364 187.557 239.366 188.229Z" fill="#0B7D77"/>
<path d="M247.765 188.229C247.766 188.733 247.618 189.226 247.339 189.646C247.06 190.066 246.662 190.393 246.197 190.586C245.732 190.78 245.219 190.831 244.725 190.733C244.231 190.635 243.777 190.392 243.42 190.036C243.064 189.68 242.821 189.225 242.723 188.731C242.625 188.237 242.676 187.724 242.87 187.259C243.063 186.794 243.391 186.396 243.81 186.117C244.23 185.838 244.723 185.69 245.227 185.691C245.899 185.693 246.544 185.961 247.02 186.437C247.495 186.912 247.763 187.557 247.765 188.229Z" fill="#0B7D77"/>
<path d="M211.686 198.403C213.092 198.403 214.231 197.264 214.231 195.858C214.231 194.452 213.092 193.313 211.686 193.313C210.281 193.313 209.141 194.452 209.141 195.858C209.141 197.264 210.281 198.403 211.686 198.403Z" fill="#0B7D77"/>
<path d="M222.61 195.858C222.61 196.361 222.46 196.853 222.181 197.272C221.901 197.691 221.503 198.017 221.038 198.209C220.573 198.402 220.062 198.452 219.568 198.354C219.074 198.256 218.621 198.014 218.265 197.658C217.909 197.302 217.666 196.848 217.568 196.354C217.47 195.861 217.52 195.349 217.713 194.884C217.906 194.419 218.232 194.021 218.65 193.742C219.069 193.462 219.561 193.313 220.064 193.313C220.739 193.313 221.387 193.581 221.864 194.058C222.341 194.536 222.61 195.183 222.61 195.858Z" fill="white"/>
<path d="M230.988 195.858C230.988 196.361 230.839 196.853 230.559 197.272C230.279 197.691 229.882 198.017 229.417 198.209C228.952 198.402 228.44 198.452 227.946 198.354C227.453 198.256 226.999 198.014 226.643 197.658C226.287 197.302 226.045 196.848 225.947 196.354C225.848 195.861 225.899 195.349 226.091 194.884C226.284 194.419 226.61 194.021 227.029 193.742C227.447 193.462 227.939 193.313 228.443 193.313C229.118 193.313 229.765 193.581 230.243 194.058C230.72 194.536 230.988 195.183 230.988 195.858Z" fill="#0B7D77"/>
<path d="M239.366 195.858C239.366 196.362 239.217 196.854 238.937 197.273C238.657 197.691 238.259 198.018 237.793 198.21C237.328 198.402 236.816 198.452 236.322 198.354C235.828 198.255 235.375 198.012 235.019 197.655C234.663 197.299 234.421 196.844 234.324 196.35C234.227 195.856 234.278 195.344 234.472 194.879C234.665 194.414 234.993 194.017 235.412 193.738C235.831 193.46 236.324 193.311 236.828 193.313C237.162 193.313 237.492 193.379 237.801 193.507C238.109 193.635 238.389 193.822 238.625 194.059C238.861 194.295 239.048 194.576 239.175 194.885C239.302 195.193 239.367 195.524 239.366 195.858Z" fill="white"/>
<path d="M247.765 195.858C247.765 196.362 247.616 196.854 247.336 197.273C247.056 197.691 246.658 198.018 246.192 198.21C245.727 198.402 245.215 198.452 244.721 198.354C244.227 198.255 243.773 198.012 243.418 197.655C243.062 197.299 242.82 196.844 242.723 196.35C242.625 195.856 242.677 195.344 242.871 194.879C243.064 194.414 243.391 194.017 243.811 193.738C244.23 193.46 244.723 193.311 245.227 193.313C245.561 193.313 245.891 193.379 246.2 193.507C246.508 193.635 246.788 193.822 247.024 194.059C247.26 194.295 247.447 194.576 247.574 194.885C247.701 195.193 247.766 195.524 247.765 195.858Z" fill="#0B7D77"/>
<path d="M214.231 203.479C214.233 203.983 214.085 204.476 213.806 204.895C213.527 205.315 213.13 205.642 212.665 205.836C212.2 206.029 211.688 206.081 211.194 205.983C210.7 205.886 210.246 205.644 209.889 205.288C209.532 204.933 209.289 204.479 209.191 203.985C209.092 203.492 209.142 202.979 209.334 202.514C209.527 202.049 209.853 201.651 210.272 201.371C210.69 201.091 211.183 200.941 211.686 200.941C212.36 200.941 213.006 201.208 213.483 201.684C213.961 202.16 214.23 202.806 214.231 203.479Z" fill="white"/>
<path d="M222.61 203.479C222.611 203.983 222.463 204.476 222.184 204.895C221.905 205.315 221.508 205.642 221.043 205.836C220.578 206.029 220.066 206.081 219.572 205.983C219.078 205.886 218.624 205.644 218.267 205.288C217.911 204.933 217.667 204.479 217.569 203.985C217.47 203.492 217.52 202.979 217.712 202.514C217.905 202.049 218.231 201.651 218.65 201.371C219.068 201.091 219.561 200.941 220.064 200.941C220.738 200.941 221.385 201.208 221.862 201.684C222.339 202.16 222.608 202.806 222.61 203.479Z" fill="#0B7D77"/>
<path d="M230.988 203.479C230.989 203.983 230.841 204.476 230.562 204.895C230.284 205.315 229.887 205.642 229.422 205.836C228.957 206.029 228.445 206.081 227.951 205.983C227.456 205.886 227.002 205.644 226.646 205.288C226.289 204.933 226.046 204.479 225.947 203.985C225.848 203.492 225.898 202.979 226.091 202.514C226.283 202.049 226.609 201.651 227.028 201.371C227.447 201.091 227.939 200.941 228.443 200.941C229.117 200.941 229.763 201.208 230.24 201.684C230.717 202.16 230.986 202.806 230.988 203.479Z" fill="#0B7D77"/>
<path d="M239.366 203.479C239.367 203.983 239.219 204.476 238.94 204.896C238.661 205.316 238.263 205.643 237.798 205.836C237.333 206.03 236.82 206.081 236.326 205.983C235.832 205.885 235.378 205.642 235.021 205.286C234.665 204.93 234.422 204.476 234.324 203.981C234.226 203.487 234.277 202.975 234.471 202.509C234.664 202.044 234.992 201.646 235.411 201.367C235.831 201.088 236.324 200.94 236.828 200.941C237.5 200.943 238.145 201.211 238.621 201.687C239.096 202.162 239.364 202.807 239.366 203.479Z" fill="#0B7D77"/>
<path d="M247.765 203.479C247.766 203.983 247.618 204.476 247.339 204.896C247.06 205.316 246.662 205.643 246.197 205.836C245.732 206.03 245.219 206.081 244.725 205.983C244.231 205.885 243.777 205.642 243.42 205.286C243.064 204.93 242.821 204.476 242.723 203.981C242.625 203.487 242.676 202.975 242.87 202.509C243.063 202.044 243.391 201.646 243.81 201.367C244.23 201.088 244.723 200.94 245.227 200.941C245.899 200.943 246.544 201.211 247.02 201.687C247.495 202.162 247.763 202.807 247.765 203.479Z" fill="#263238"/>
<path d="M205.791 185.691H204.326V206.025H205.791V185.691Z" fill="#263238"/>
<path d="M251.693 214.891H104.282V245.254H251.693V214.891Z" fill="#37474F"/>
<path d="M75.5771 245.254H104.282V214.891H75.5771V245.254Z" fill="#455A64"/>
<path d="M200.584 219.906H109.819V222.472H200.584V219.906Z" fill="#455A64"/>
<path d="M200.584 224.35H109.819V226.915H200.584V224.35Z" fill="#455A64"/>
<path d="M200.584 228.793H109.819V231.359H200.584V228.793Z" fill="#455A64"/>
<path d="M200.584 233.23H109.819V235.796H200.584V233.23Z" fill="#455A64"/>
<path d="M200.584 237.674H109.819V240.24H200.584V237.674Z" fill="#455A64"/>
<path d="M214.231 222.444C214.233 222.948 214.085 223.441 213.806 223.86C213.527 224.28 213.13 224.607 212.665 224.801C212.2 224.994 211.688 225.046 211.194 224.948C210.7 224.851 210.246 224.609 209.889 224.253C209.532 223.898 209.289 223.444 209.191 222.95C209.092 222.456 209.142 221.944 209.334 221.479C209.527 221.013 209.853 220.615 210.272 220.335C210.69 220.056 211.183 219.906 211.686 219.906C212.36 219.906 213.006 220.173 213.483 220.649C213.961 221.125 214.23 221.77 214.231 222.444Z" fill="#0B7D77"/>
<path d="M222.61 222.444C222.611 222.948 222.463 223.441 222.184 223.86C221.905 224.28 221.508 224.607 221.043 224.801C220.578 224.994 220.066 225.046 219.572 224.948C219.078 224.851 218.624 224.609 218.267 224.253C217.911 223.898 217.667 223.444 217.569 222.95C217.47 222.456 217.52 221.944 217.712 221.479C217.905 221.013 218.231 220.615 218.65 220.335C219.068 220.056 219.561 219.906 220.064 219.906C220.738 219.906 221.385 220.173 221.862 220.649C222.339 221.125 222.608 221.77 222.61 222.444Z" fill="white"/>
<path d="M230.988 222.444C230.989 222.948 230.841 223.441 230.562 223.86C230.284 224.28 229.887 224.607 229.422 224.801C228.957 224.994 228.445 225.046 227.951 224.948C227.456 224.851 227.002 224.609 226.646 224.253C226.289 223.898 226.046 223.444 225.947 222.95C225.848 222.456 225.898 221.944 226.091 221.479C226.283 221.013 226.609 220.615 227.028 220.335C227.447 220.056 227.939 219.906 228.443 219.906C229.117 219.906 229.763 220.173 230.24 220.649C230.717 221.125 230.986 221.77 230.988 222.444Z" fill="#0B7D77"/>
<path d="M239.366 222.444C239.367 222.948 239.219 223.441 238.94 223.861C238.661 224.28 238.263 224.608 237.798 224.801C237.333 224.995 236.82 225.046 236.326 224.948C235.832 224.85 235.378 224.607 235.021 224.251C234.665 223.895 234.422 223.44 234.324 222.946C234.226 222.452 234.277 221.939 234.471 221.474C234.664 221.009 234.992 220.611 235.411 220.332C235.831 220.053 236.324 219.905 236.828 219.906C237.5 219.908 238.145 220.176 238.621 220.652C239.096 221.127 239.364 221.772 239.366 222.444Z" fill="#0B7D77"/>
<path d="M247.765 222.444C247.766 222.948 247.618 223.441 247.339 223.861C247.06 224.28 246.662 224.608 246.197 224.801C245.732 224.995 245.219 225.046 244.725 224.948C244.231 224.85 243.777 224.607 243.42 224.251C243.064 223.895 242.821 223.44 242.723 222.946C242.625 222.452 242.676 221.939 242.87 221.474C243.063 221.009 243.391 220.611 243.81 220.332C244.23 220.053 244.723 219.905 245.227 219.906C245.899 219.908 246.544 220.176 247.02 220.652C247.495 221.127 247.763 221.772 247.765 222.444Z" fill="#0B7D77"/>
<path d="M211.686 232.618C213.092 232.618 214.231 231.478 214.231 230.073C214.231 228.667 213.092 227.528 211.686 227.528C210.281 227.528 209.141 228.667 209.141 230.073C209.141 231.478 210.281 232.618 211.686 232.618Z" fill="white"/>
<path d="M222.61 230.073C222.61 230.576 222.46 231.068 222.181 231.487C221.901 231.905 221.503 232.232 221.038 232.424C220.573 232.617 220.062 232.667 219.568 232.569C219.074 232.471 218.621 232.228 218.265 231.873C217.909 231.517 217.666 231.063 217.568 230.569C217.47 230.076 217.52 229.564 217.713 229.099C217.906 228.634 218.232 228.236 218.65 227.957C219.069 227.677 219.561 227.528 220.064 227.528C220.739 227.528 221.387 227.796 221.864 228.273C222.341 228.75 222.61 229.398 222.61 230.073Z" fill="#263238"/>
<path d="M230.988 230.073C230.988 230.576 230.839 231.068 230.559 231.487C230.279 231.905 229.882 232.232 229.417 232.424C228.952 232.617 228.44 232.667 227.946 232.569C227.453 232.471 226.999 232.228 226.643 231.873C226.287 231.517 226.045 231.063 225.947 230.569C225.848 230.076 225.899 229.564 226.091 229.099C226.284 228.634 226.61 228.236 227.029 227.957C227.447 227.677 227.939 227.528 228.443 227.528C229.118 227.528 229.765 227.796 230.243 228.273C230.72 228.75 230.988 229.398 230.988 230.073Z" fill="#0B7D77"/>
<path d="M239.366 230.073C239.366 230.577 239.217 231.069 238.937 231.488C238.657 231.906 238.259 232.232 237.793 232.425C237.328 232.617 236.816 232.667 236.322 232.569C235.828 232.47 235.375 232.227 235.019 231.87C234.663 231.513 234.421 231.059 234.324 230.565C234.227 230.071 234.278 229.559 234.472 229.094C234.665 228.629 234.993 228.232 235.412 227.953C235.831 227.674 236.324 227.526 236.828 227.528C237.162 227.528 237.492 227.594 237.801 227.722C238.109 227.85 238.389 228.037 238.625 228.274C238.861 228.51 239.048 228.791 239.175 229.099C239.302 229.408 239.367 229.739 239.366 230.073Z" fill="#263238"/>
<path d="M247.765 230.073C247.765 230.577 247.616 231.069 247.336 231.488C247.056 231.906 246.658 232.232 246.192 232.425C245.727 232.617 245.215 232.667 244.721 232.569C244.227 232.47 243.773 232.227 243.418 231.87C243.062 231.513 242.82 231.059 242.723 230.565C242.625 230.071 242.677 229.559 242.871 229.094C243.064 228.629 243.391 228.232 243.811 227.953C244.23 227.674 244.723 227.526 245.227 227.528C245.561 227.528 245.891 227.594 246.2 227.722C246.508 227.85 246.788 228.037 247.024 228.274C247.26 228.51 247.447 228.791 247.574 229.099C247.701 229.408 247.766 229.739 247.765 230.073Z" fill="white"/>
<path d="M214.231 237.694C214.233 238.198 214.085 238.691 213.806 239.11C213.527 239.53 213.13 239.857 212.665 240.051C212.2 240.244 211.688 240.296 211.194 240.198C210.7 240.101 210.246 239.859 209.889 239.503C209.532 239.148 209.289 238.694 209.191 238.2C209.092 237.706 209.142 237.194 209.334 236.729C209.527 236.263 209.853 235.865 210.272 235.585C210.69 235.306 211.183 235.156 211.686 235.156C212.36 235.156 213.006 235.423 213.483 235.899C213.961 236.375 214.23 237.021 214.231 237.694Z" fill="#0B7D77"/>
<path d="M222.61 237.694C222.611 238.198 222.463 238.691 222.184 239.11C221.905 239.53 221.508 239.857 221.043 240.051C220.578 240.244 220.066 240.296 219.572 240.198C219.078 240.101 218.624 239.859 218.267 239.503C217.911 239.148 217.667 238.694 217.569 238.2C217.47 237.706 217.52 237.194 217.712 236.729C217.905 236.263 218.231 235.865 218.65 235.585C219.068 235.306 219.561 235.156 220.064 235.156C220.738 235.156 221.385 235.423 221.862 235.899C222.339 236.375 222.608 237.021 222.61 237.694Z" fill="#0B7D77"/>
<path d="M230.988 237.694C230.989 238.198 230.841 238.691 230.562 239.11C230.284 239.53 229.887 239.857 229.422 240.051C228.957 240.244 228.445 240.296 227.951 240.198C227.456 240.101 227.002 239.859 226.646 239.503C226.289 239.148 226.046 238.694 225.947 238.2C225.848 237.706 225.898 237.194 226.091 236.729C226.283 236.263 226.609 235.865 227.028 235.585C227.447 235.306 227.939 235.156 228.443 235.156C229.117 235.156 229.763 235.423 230.24 235.899C230.717 236.375 230.986 237.021 230.988 237.694Z" fill="#0B7D77"/>
<path d="M239.366 237.694C239.367 238.198 239.219 238.691 238.94 239.111C238.661 239.531 238.263 239.858 237.798 240.051C237.333 240.245 236.82 240.296 236.326 240.198C235.832 240.1 235.378 239.857 235.021 239.501C234.665 239.145 234.422 238.69 234.324 238.196C234.226 237.702 234.277 237.189 234.471 236.724C234.664 236.259 234.992 235.861 235.411 235.582C235.831 235.303 236.324 235.155 236.828 235.156C237.5 235.158 238.145 235.426 238.621 235.902C239.096 236.377 239.364 237.022 239.366 237.694Z" fill="#0B7D77"/>
<path d="M247.765 237.694C247.766 238.198 247.618 238.691 247.339 239.111C247.06 239.531 246.662 239.858 246.197 240.051C245.732 240.245 245.219 240.296 244.725 240.198C244.231 240.1 243.777 239.857 243.42 239.501C243.064 239.145 242.821 238.69 242.723 238.196C242.625 237.702 242.676 237.189 242.87 236.724C243.063 236.259 243.391 235.861 243.81 235.582C244.23 235.303 244.723 235.155 245.227 235.156C245.899 235.158 246.544 235.426 247.02 235.902C247.495 236.377 247.763 237.022 247.765 237.694Z" fill="#0B7D77"/>
<path d="M205.791 219.906H204.326V240.24H205.791V219.906Z" fill="#263238"/>
<path d="M251.693 249.106H104.282V279.469H251.693V249.106Z" fill="#37474F"/>
<path d="M75.5771 279.469H104.282V249.106H75.5771V279.469Z" fill="#455A64"/>
<path d="M200.584 254.121H109.819V256.687H200.584V254.121Z" fill="#455A64"/>
<path d="M200.584 258.565H109.819V261.13H200.584V258.565Z" fill="#455A64"/>
<path d="M200.584 263.008H109.819V265.574H200.584V263.008Z" fill="#455A64"/>
<path d="M200.584 267.445H109.819V270.011H200.584V267.445Z" fill="#455A64"/>
<path d="M200.584 271.889H109.819V274.454H200.584V271.889Z" fill="#455A64"/>
<path d="M214.231 256.659C214.233 257.163 214.085 257.656 213.806 258.075C213.527 258.494 213.13 258.822 212.665 259.015C212.2 259.209 211.688 259.261 211.194 259.163C210.7 259.066 210.246 258.824 209.889 258.468C209.532 258.112 209.289 257.659 209.191 257.165C209.092 256.671 209.142 256.159 209.334 255.694C209.527 255.228 209.853 254.83 210.272 254.55C210.69 254.27 211.183 254.121 211.686 254.121C212.36 254.121 213.006 254.388 213.483 254.864C213.961 255.34 214.23 255.985 214.231 256.659Z" fill="white"/>
<path d="M222.61 256.659C222.611 257.163 222.463 257.656 222.184 258.075C221.905 258.494 221.508 258.822 221.043 259.015C220.578 259.209 220.066 259.261 219.572 259.163C219.078 259.066 218.624 258.824 218.267 258.468C217.911 258.112 217.667 257.659 217.569 257.165C217.47 256.671 217.52 256.159 217.712 255.694C217.905 255.228 218.231 254.83 218.65 254.55C219.068 254.27 219.561 254.121 220.064 254.121C220.738 254.121 221.385 254.388 221.862 254.864C222.339 255.34 222.608 255.985 222.61 256.659Z" fill="#0B7D77"/>
<path d="M230.988 256.659C230.989 257.163 230.841 257.656 230.562 258.075C230.284 258.494 229.887 258.822 229.422 259.015C228.957 259.209 228.445 259.261 227.951 259.163C227.456 259.066 227.002 258.824 226.646 258.468C226.289 258.112 226.046 257.659 225.947 257.165C225.848 256.671 225.898 256.159 226.091 255.694C226.283 255.228 226.609 254.83 227.028 254.55C227.447 254.27 227.939 254.121 228.443 254.121C229.117 254.121 229.763 254.388 230.24 254.864C230.717 255.34 230.986 255.985 230.988 256.659Z" fill="#0B7D77"/>
<path d="M239.366 256.659C239.373 257.164 239.229 257.66 238.954 258.083C238.678 258.506 238.282 258.838 237.817 259.036C237.353 259.233 236.839 259.288 236.343 259.193C235.847 259.099 235.391 258.858 235.031 258.503C234.672 258.148 234.427 257.694 234.327 257.199C234.227 256.704 234.276 256.19 234.468 255.723C234.661 255.256 234.988 254.857 235.409 254.577C235.829 254.296 236.323 254.147 236.828 254.149C237.496 254.15 238.136 254.414 238.611 254.884C239.086 255.354 239.357 255.991 239.366 256.659Z" fill="#0B7D77"/>
<path d="M247.765 256.659C247.766 257.163 247.618 257.656 247.339 258.076C247.06 258.495 246.662 258.823 246.197 259.016C245.732 259.21 245.219 259.261 244.725 259.163C244.231 259.065 243.777 258.822 243.42 258.466C243.064 258.109 242.821 257.655 242.723 257.161C242.625 256.667 242.676 256.154 242.87 255.689C243.063 255.224 243.391 254.826 243.81 254.547C244.23 254.268 244.723 254.12 245.227 254.121C245.899 254.123 246.544 254.391 247.02 254.866C247.495 255.342 247.763 255.987 247.765 256.659Z" fill="#0B7D77"/>
<path d="M214.231 264.288C214.231 264.791 214.082 265.283 213.802 265.702C213.523 266.12 213.125 266.446 212.66 266.639C212.195 266.832 211.683 266.882 211.19 266.784C210.696 266.686 210.243 266.443 209.887 266.087C209.531 265.731 209.288 265.278 209.19 264.784C209.092 264.291 209.142 263.779 209.335 263.314C209.527 262.849 209.854 262.451 210.272 262.172C210.691 261.892 211.183 261.743 211.686 261.743C212.361 261.743 213.009 262.011 213.486 262.488C213.963 262.965 214.231 263.613 214.231 264.288Z" fill="#263238"/>
<path d="M222.61 264.288C222.61 264.791 222.46 265.283 222.181 265.702C221.901 266.12 221.503 266.446 221.038 266.639C220.573 266.832 220.062 266.882 219.568 266.784C219.074 266.686 218.621 266.443 218.265 266.087C217.909 265.731 217.666 265.278 217.568 264.784C217.47 264.291 217.52 263.779 217.713 263.314C217.906 262.849 218.232 262.451 218.65 262.172C219.069 261.892 219.561 261.743 220.064 261.743C220.739 261.743 221.387 262.011 221.864 262.488C222.341 262.965 222.61 263.613 222.61 264.288Z" fill="#0B7D77"/>
<path d="M230.988 264.288C230.988 264.791 230.839 265.283 230.559 265.702C230.279 266.12 229.882 266.446 229.417 266.639C228.952 266.832 228.44 266.882 227.946 266.784C227.453 266.686 226.999 266.443 226.643 266.087C226.287 265.731 226.045 265.278 225.947 264.784C225.848 264.291 225.899 263.779 226.091 263.314C226.284 262.849 226.61 262.451 227.029 262.172C227.447 261.892 227.939 261.743 228.443 261.743C229.118 261.743 229.765 262.011 230.243 262.488C230.72 262.965 230.988 263.613 230.988 264.288Z" fill="white"/>
<path d="M239.366 264.288C239.366 264.791 239.217 265.284 238.937 265.702C238.657 266.121 238.259 266.447 237.793 266.64C237.328 266.832 236.816 266.882 236.322 266.783C235.828 266.685 235.375 266.442 235.019 266.085C234.663 265.728 234.421 265.274 234.324 264.78C234.227 264.286 234.278 263.774 234.472 263.309C234.665 262.844 234.993 262.447 235.412 262.168C235.831 261.889 236.324 261.741 236.828 261.743C237.162 261.743 237.492 261.808 237.801 261.936C238.109 262.064 238.389 262.252 238.625 262.488C238.861 262.725 239.048 263.006 239.175 263.314C239.302 263.623 239.367 263.954 239.366 264.288Z" fill="#263238"/>
<path d="M247.765 264.288C247.765 264.791 247.616 265.284 247.336 265.702C247.056 266.121 246.658 266.447 246.192 266.64C245.727 266.832 245.215 266.882 244.721 266.783C244.227 266.685 243.773 266.442 243.418 266.085C243.062 265.728 242.82 265.274 242.723 264.78C242.625 264.286 242.677 263.774 242.871 263.309C243.064 262.844 243.391 262.447 243.811 262.168C244.23 261.889 244.723 261.741 245.227 261.743C245.561 261.743 245.891 261.808 246.2 261.936C246.508 262.064 246.788 262.252 247.024 262.488C247.26 262.725 247.447 263.006 247.574 263.314C247.701 263.623 247.766 263.954 247.765 264.288Z" fill="#0B7D77"/>
<path d="M214.231 271.909C214.233 272.413 214.085 272.906 213.806 273.325C213.527 273.745 213.13 274.072 212.665 274.266C212.2 274.459 211.688 274.511 211.194 274.413C210.7 274.316 210.246 274.074 209.889 273.718C209.532 273.363 209.289 272.909 209.191 272.415C209.092 271.921 209.142 271.409 209.334 270.944C209.527 270.478 209.853 270.08 210.272 269.8C210.69 269.52 211.183 269.371 211.686 269.371C212.36 269.371 213.006 269.638 213.483 270.114C213.961 270.59 214.23 271.235 214.231 271.909Z" fill="#0B7D77"/>
<path d="M222.61 271.909C222.611 272.413 222.463 272.906 222.184 273.325C221.905 273.745 221.508 274.072 221.043 274.266C220.578 274.459 220.066 274.511 219.572 274.413C219.078 274.316 218.624 274.074 218.267 273.718C217.911 273.363 217.667 272.909 217.569 272.415C217.47 271.921 217.52 271.409 217.712 270.944C217.905 270.478 218.231 270.08 218.65 269.8C219.068 269.52 219.561 269.371 220.064 269.371C220.738 269.371 221.385 269.638 221.862 270.114C222.339 270.59 222.608 271.235 222.61 271.909Z" fill="#263238"/>
<path d="M230.988 271.909C230.989 272.413 230.841 272.906 230.562 273.325C230.284 273.745 229.887 274.072 229.422 274.266C228.957 274.459 228.445 274.511 227.951 274.413C227.456 274.316 227.002 274.074 226.646 273.718C226.289 273.363 226.046 272.909 225.947 272.415C225.848 271.921 225.898 271.409 226.091 270.944C226.283 270.478 226.609 270.08 227.028 269.8C227.447 269.52 227.939 269.371 228.443 269.371C229.117 269.371 229.763 269.638 230.24 270.114C230.717 270.59 230.986 271.235 230.988 271.909Z" fill="#0B7D77"/>
<path d="M239.366 271.909C239.367 272.413 239.219 272.906 238.94 273.326C238.661 273.745 238.263 274.073 237.798 274.266C237.333 274.46 236.82 274.511 236.326 274.413C235.832 274.315 235.378 274.072 235.021 273.716C234.665 273.359 234.422 272.905 234.324 272.411C234.226 271.917 234.277 271.404 234.471 270.939C234.664 270.474 234.992 270.076 235.411 269.797C235.831 269.518 236.324 269.37 236.828 269.371C237.501 269.371 238.147 269.638 238.623 270.114C239.099 270.59 239.366 271.236 239.366 271.909Z" fill="#0B7D77"/>
<path d="M247.765 271.909C247.766 272.413 247.618 272.906 247.339 273.326C247.06 273.745 246.662 274.073 246.197 274.266C245.732 274.46 245.219 274.511 244.725 274.413C244.231 274.315 243.777 274.072 243.42 273.716C243.064 273.359 242.821 272.905 242.723 272.411C242.625 271.917 242.676 271.404 242.87 270.939C243.063 270.474 243.391 270.076 243.81 269.797C244.23 269.518 244.723 269.37 245.227 269.371C245.9 269.371 246.546 269.638 247.022 270.114C247.498 270.59 247.765 271.236 247.765 271.909Z" fill="white"/>
<path d="M205.791 254.121H204.326V274.454H205.791V254.121Z" fill="#263238"/>
<path d="M196.079 141.544H99.9967L92.5608 76.2856H188.643L196.079 141.544Z" fill="#A6A6A6"/>
<path d="M190.844 137.169H104.234L97.7954 80.6675H184.405L190.844 137.169Z" fill="#37474F"/>
<path d="M140.788 110.878L139.907 111.924L131.219 104.426L132.107 103.381L140.788 110.878Z" fill="#CEE5E4"/>
<path d="M138.552 103.381L139.769 104.426L133.455 111.924L132.244 110.878L138.552 103.381Z" fill="#CEE5E4"/>
<path d="M159.353 110.878L158.473 111.924L149.785 104.426L150.672 103.381L159.353 110.878Z" fill="#CEE5E4"/>
<path d="M157.118 103.381L158.335 104.426L152.02 111.924L150.81 110.878L157.118 103.381Z" fill="#CEE5E4"/>
<path d="M130.112 118.081L129.878 116.602H163.535L163.769 118.081H130.112Z" fill="#CEE5E4"/>
<path d="M224.275 137.169H100.671V141.544H224.275V137.169Z" fill="#A6A6A6"/>
<path d="M234.709 137.169H127.511V141.544H234.709V137.169Z" fill="#C7C7C7"/>
<path d="M184.715 83.4052L184.405 80.6675H97.7954L98.105 83.4052H184.715Z" fill="#263238"/>
<path d="M105.087 82.0365C105.098 82.2152 105.174 82.3837 105.301 82.5103C105.428 82.6369 105.596 82.713 105.775 82.7244C105.858 82.7211 105.939 82.6998 106.013 82.662C106.087 82.6241 106.152 82.5705 106.203 82.505C106.254 82.4395 106.29 82.3637 106.309 82.2828C106.328 82.2018 106.328 82.1178 106.311 82.0365C106.299 81.8583 106.222 81.6907 106.096 81.5643C105.969 81.438 105.802 81.3614 105.623 81.3486C105.54 81.3519 105.459 81.3732 105.385 81.4111C105.311 81.4489 105.247 81.5025 105.195 81.568C105.144 81.6335 105.108 81.7093 105.089 81.7903C105.071 81.8712 105.07 81.9552 105.087 82.0365Z" fill="#C7C7C7"/>
<path d="M102.576 82.0365C102.589 82.2147 102.666 82.3824 102.792 82.5087C102.918 82.635 103.086 82.7116 103.264 82.7244C103.347 82.7211 103.428 82.6998 103.502 82.662C103.576 82.6241 103.641 82.5705 103.692 82.505C103.743 82.4395 103.779 82.3637 103.798 82.2828C103.817 82.2018 103.818 82.1178 103.801 82.0365C103.788 81.8583 103.711 81.6907 103.585 81.5643C103.459 81.438 103.291 81.3614 103.113 81.3486C103.03 81.3519 102.948 81.3732 102.874 81.4111C102.801 81.4489 102.736 81.5025 102.685 81.568C102.634 81.6335 102.597 81.7093 102.579 81.7903C102.56 81.8712 102.559 81.9552 102.576 82.0365Z" fill="white"/>
<path d="M100.072 82.0365C100.085 82.2147 100.162 82.3824 100.288 82.5087C100.414 82.635 100.582 82.7116 100.76 82.7244C100.844 82.7221 100.926 82.7015 101.001 82.6641C101.076 82.6266 101.141 82.5732 101.193 82.5076C101.245 82.442 101.282 82.3658 101.301 82.2844C101.32 82.203 101.321 82.1183 101.304 82.0365C101.29 81.8588 101.213 81.6919 101.087 81.5659C100.96 81.4398 100.794 81.3628 100.616 81.3486C100.532 81.3509 100.45 81.3715 100.375 81.4089C100.301 81.4464 100.235 81.4998 100.183 81.5654C100.131 81.6311 100.095 81.7073 100.075 81.7887C100.056 81.8701 100.055 81.9547 100.072 82.0365Z" fill="#0B7D77"/>
<path d="M212.381 137.493C212.608 136.39 212.961 135.317 213.433 134.295C213.899 133.259 214.5 132.289 215.222 131.413C215.953 130.507 216.899 129.797 217.973 129.349C219.082 128.933 220.304 128.933 221.413 129.349C222.528 129.811 223.418 130.693 223.889 131.805C224.137 132.344 224.295 132.92 224.357 133.511C224.434 134.121 224.365 134.741 224.157 135.32C224.034 135.643 223.816 135.921 223.531 136.118C223.375 136.219 223.199 136.284 223.015 136.31C222.821 136.342 222.622 136.323 222.438 136.255C222.115 136.102 221.855 135.842 221.702 135.519C221.561 135.248 221.45 134.962 221.371 134.666C221.099 133.541 221.002 132.381 221.082 131.227C221.208 128.92 221.895 126.679 223.084 124.699C223.695 123.707 224.503 122.85 225.457 122.181C226.415 121.51 227.523 121.085 228.683 120.943C229.82 120.732 230.986 120.732 232.123 120.943C233.247 121.169 234.326 121.58 235.314 122.161C237.251 123.345 238.876 124.974 240.054 126.914C238.78 125.072 237.103 123.545 235.149 122.45C233.217 121.364 230.961 121.003 228.787 121.432C227.718 121.613 226.702 122.027 225.811 122.644C224.92 123.261 224.174 124.066 223.628 125.002C222.516 126.901 221.884 129.042 221.784 131.241C221.695 132.324 221.774 133.414 222.018 134.474C222.142 134.962 222.389 135.512 222.706 135.643C222.79 135.659 222.876 135.659 222.96 135.643C223.053 135.629 223.142 135.596 223.222 135.547C223.4 135.419 223.536 135.242 223.614 135.038C223.896 134.024 223.812 132.944 223.379 131.986C222.945 131.028 222.188 130.253 221.241 129.796C220.252 129.381 219.145 129.344 218.131 129.693C217.111 130.091 216.204 130.734 215.49 131.564C214.011 133.274 212.946 135.304 212.381 137.493Z" fill="#263238"/>
<path d="M110.48 90.9861C108.295 90.5064 106.03 90.5299 103.856 91.0549C102.792 91.3049 101.807 91.8129 100.987 92.5338C100.197 93.2693 99.7064 94.2716 99.6113 95.3472C99.5621 96.4083 99.9131 97.4493 100.595 98.2638C101.223 99.1054 102.148 99.676 103.181 99.8596C103.399 99.8886 103.621 99.8477 103.814 99.7427C103.897 99.698 103.968 99.6344 104.021 99.557C104.071 99.4881 104.104 99.4078 104.117 99.3231C104.117 98.9998 103.766 98.5252 103.381 98.195C102.56 97.4882 101.631 96.917 100.629 96.5028C98.6331 95.5808 96.4417 95.1604 94.2459 95.2784C93.1687 95.3378 92.1175 95.6328 91.1667 96.1427C90.2159 96.6526 89.3885 97.3649 88.743 98.2294C87.3642 99.9623 86.6516 102.132 86.7344 104.345C86.8047 106.582 87.3884 108.773 88.4403 110.749C87.2523 108.814 86.5447 106.623 86.3767 104.358C86.3137 103.215 86.4416 102.069 86.755 100.967C87.0785 99.8603 87.6031 98.8227 88.3027 97.9061C88.9622 96.9412 89.8478 96.1525 90.8823 95.6086C91.9155 95.067 93.0483 94.7416 94.2115 94.6525C96.515 94.5082 98.819 94.926 100.925 95.87C101.992 96.3277 102.981 96.9497 103.856 97.7135C104.086 97.9163 104.289 98.1474 104.461 98.4014C104.676 98.6861 104.79 99.0348 104.784 99.3919C104.757 99.5812 104.686 99.7615 104.577 99.919C104.469 100.076 104.325 100.207 104.158 100.3C103.853 100.463 103.504 100.528 103.161 100.486C102.551 100.41 101.968 100.188 101.462 99.839C100.965 99.5127 100.523 99.1086 100.155 98.6421C99.3871 97.7105 99.0143 96.5156 99.1161 95.3128C99.2376 94.1244 99.7966 93.0236 100.684 92.2243C101.572 91.4794 102.631 90.9665 103.766 90.7316C104.878 90.4977 106.016 90.4098 107.15 90.4702C108.276 90.5132 109.394 90.6863 110.48 90.9861Z" fill="#263238"/>
<path d="M198.486 113.693C198.472 112.775 198.648 111.864 199.003 111.018C199.358 110.171 199.885 109.407 200.549 108.774C201.227 108.122 202.065 107.659 202.978 107.433C203.904 107.223 204.868 107.256 205.777 107.529C206.678 107.798 207.515 108.245 208.24 108.843C208.984 109.431 209.59 110.175 210.015 111.024C210.261 111.487 210.346 112.02 210.255 112.537C210.181 112.838 209.991 113.098 209.726 113.259C209.485 113.408 209.21 113.493 208.928 113.507C208.632 113.508 208.343 113.417 208.102 113.245C207.887 113.087 207.705 112.889 207.566 112.661C207.317 112.235 207.145 111.77 207.057 111.285C206.892 110.361 206.892 109.416 207.057 108.492C207.195 107.57 207.461 106.672 207.848 105.823C208.608 104.09 209.997 102.708 211.734 101.957C212.607 101.597 213.542 101.412 214.486 101.414C215.414 101.423 216.331 101.61 217.189 101.964C218.03 102.319 218.816 102.794 219.521 103.374C220.232 103.934 220.868 104.584 221.413 105.307C220.231 103.963 218.739 102.929 217.065 102.295C216.249 101.984 215.379 101.84 214.506 101.869C213.634 101.899 212.775 102.102 211.982 102.466C210.397 103.196 209.139 104.488 208.453 106.092C207.732 107.675 207.493 109.436 207.765 111.154C207.828 111.561 207.966 111.953 208.171 112.31C208.24 112.464 208.349 112.596 208.487 112.693C208.625 112.79 208.787 112.848 208.955 112.86C209.125 112.853 209.291 112.803 209.437 112.716C209.499 112.68 209.553 112.631 209.596 112.573C209.638 112.515 209.669 112.449 209.684 112.379C209.741 112.003 209.673 111.619 209.492 111.285C208.689 109.748 207.312 108.591 205.66 108.066C204.841 107.801 203.968 107.746 203.122 107.908C202.273 108.078 201.484 108.472 200.838 109.049C200.16 109.63 199.602 110.339 199.199 111.136C198.795 111.933 198.553 112.802 198.486 113.693Z" fill="#263238"/>
<path d="M250.413 136.166C251.289 134.984 251.795 133.569 251.866 132.1C251.938 130.631 251.572 129.174 250.815 127.913C250.059 126.652 248.945 125.643 247.615 125.015C246.286 124.387 244.799 124.167 243.345 124.384C241.89 124.6 240.532 125.243 239.443 126.231C238.354 127.219 237.582 128.508 237.225 129.935C236.868 131.362 236.943 132.863 237.439 134.247C237.935 135.632 238.831 136.838 240.013 137.713C241.597 138.887 243.583 139.384 245.534 139.093C247.484 138.803 249.239 137.75 250.413 136.166ZM247.235 133.806C246.827 134.359 246.263 134.777 245.616 135.009C244.969 135.241 244.268 135.276 243.601 135.11C242.935 134.943 242.332 134.583 241.871 134.074C241.409 133.565 241.108 132.93 241.007 132.251C240.906 131.571 241.009 130.876 241.303 130.255C241.596 129.634 242.068 129.114 242.657 128.76C243.247 128.407 243.927 128.236 244.614 128.27C245.3 128.304 245.961 128.54 246.513 128.95C247.251 129.5 247.741 130.319 247.876 131.229C248.012 132.139 247.781 133.066 247.235 133.806Z" fill="#A6A6A6"/>
<path d="M241.34 138.311L239.043 136.612L237.963 138.332L240.013 139.845L241.34 138.311Z" fill="#A6A6A6"/>
<path d="M237.543 134.295L237.124 131.467L235.149 131.921L235.521 134.439L237.543 134.295Z" fill="#A6A6A6"/>
<path d="M237.701 128.771L239.407 126.473L237.688 125.393L236.167 127.436L237.701 128.771Z" fill="#A6A6A6"/>
<path d="M241.719 124.974L244.546 124.555L244.099 122.573L241.581 122.945L241.719 124.974Z" fill="#A6A6A6"/>
<path d="M247.249 125.125L249.54 126.831L250.62 125.111L248.583 123.598L247.249 125.125Z" fill="#A6A6A6"/>
<path d="M251.046 129.149L251.466 131.976L253.44 131.522L253.068 129.005L251.046 129.149Z" fill="#A6A6A6"/>
<path d="M250.888 134.673L249.182 136.971L250.902 138.05L252.422 136.008L250.888 134.673Z" fill="#A6A6A6"/>
<path d="M246.871 138.47L244.037 138.889L244.491 140.87L247.008 140.499L246.871 138.47Z" fill="#A6A6A6"/>
<path d="M241.781 132.093L243.356 134.088L245.873 133.71L246.809 131.35L245.234 129.355L242.716 129.727L241.781 132.093ZM244.773 131.075C244.9 131.17 244.997 131.301 245.05 131.451C245.103 131.601 245.11 131.763 245.071 131.918C245.032 132.072 244.948 132.211 244.83 132.317C244.712 132.424 244.565 132.493 244.408 132.516C244.25 132.539 244.089 132.515 243.946 132.447C243.802 132.379 243.682 132.269 243.6 132.133C243.519 131.996 243.479 131.839 243.487 131.68C243.495 131.521 243.55 131.368 243.645 131.24C243.773 131.07 243.964 130.957 244.175 130.926C244.386 130.895 244.601 130.949 244.773 131.075Z" fill="#A6A6A6"/>
<path d="M223.518 104.744C223.288 104.595 223.02 104.517 222.747 104.521C222.473 104.526 222.207 104.611 221.983 104.767C221.758 104.923 221.585 105.142 221.486 105.397C221.387 105.652 221.365 105.93 221.425 106.197C221.485 106.464 221.622 106.707 221.821 106.895C222.019 107.083 222.269 107.208 222.538 107.254C222.808 107.299 223.085 107.263 223.334 107.151C223.583 107.038 223.793 106.854 223.937 106.622C224.127 106.316 224.189 105.948 224.11 105.597C224.032 105.246 223.819 104.94 223.518 104.744ZM223.8 106.532C223.674 106.733 223.491 106.892 223.275 106.989C223.058 107.087 222.818 107.117 222.584 107.077C222.351 107.038 222.134 106.929 221.962 106.766C221.789 106.603 221.67 106.393 221.617 106.161C221.565 105.93 221.583 105.688 221.668 105.467C221.753 105.246 221.902 105.055 222.096 104.918C222.29 104.782 222.521 104.706 222.758 104.701C222.995 104.695 223.228 104.761 223.428 104.888C223.561 104.972 223.675 105.08 223.766 105.208C223.856 105.336 223.921 105.48 223.955 105.633C223.99 105.786 223.994 105.944 223.967 106.098C223.94 106.252 223.883 106.4 223.8 106.532ZM223.518 104.744C223.288 104.595 223.02 104.517 222.747 104.521C222.473 104.526 222.207 104.611 221.983 104.767C221.758 104.923 221.585 105.142 221.486 105.397C221.387 105.652 221.365 105.93 221.425 106.197C221.485 106.464 221.622 106.707 221.821 106.895C222.019 107.083 222.269 107.208 222.538 107.254C222.808 107.299 223.085 107.263 223.334 107.151C223.583 107.038 223.793 106.854 223.937 106.622C224.127 106.316 224.189 105.948 224.11 105.597C224.032 105.246 223.819 104.94 223.518 104.744ZM223.8 106.532C223.674 106.733 223.491 106.892 223.275 106.989C223.058 107.087 222.818 107.117 222.584 107.077C222.351 107.038 222.134 106.929 221.962 106.766C221.789 106.603 221.67 106.393 221.617 106.161C221.565 105.93 221.583 105.688 221.668 105.467C221.753 105.246 221.902 105.055 222.096 104.918C222.29 104.782 222.521 104.706 222.758 104.701C222.995 104.695 223.228 104.761 223.428 104.888C223.561 104.972 223.675 105.08 223.766 105.208C223.856 105.336 223.921 105.48 223.955 105.633C223.99 105.786 223.994 105.944 223.967 106.098C223.94 106.252 223.883 106.4 223.8 106.532ZM223.518 104.744C223.288 104.595 223.02 104.517 222.747 104.521C222.473 104.526 222.207 104.611 221.983 104.767C221.758 104.923 221.585 105.142 221.486 105.397C221.387 105.652 221.365 105.93 221.425 106.197C221.485 106.464 221.622 106.707 221.821 106.895C222.019 107.083 222.269 107.208 222.538 107.254C222.808 107.299 223.085 107.263 223.334 107.151C223.583 107.038 223.793 106.854 223.937 106.622C224.127 106.316 224.189 105.948 224.11 105.597C224.032 105.246 223.819 104.94 223.518 104.744ZM223.8 106.532C223.674 106.733 223.491 106.892 223.275 106.989C223.058 107.087 222.818 107.117 222.584 107.077C222.351 107.038 222.134 106.929 221.962 106.766C221.789 106.603 221.67 106.393 221.617 106.161C221.565 105.93 221.583 105.688 221.668 105.467C221.753 105.246 221.902 105.055 222.096 104.918C222.29 104.782 222.521 104.706 222.758 104.701C222.995 104.695 223.228 104.761 223.428 104.888C223.561 104.972 223.675 105.08 223.766 105.208C223.856 105.336 223.921 105.48 223.955 105.633C223.99 105.786 223.994 105.944 223.967 106.098C223.94 106.252 223.883 106.4 223.8 106.532ZM224.316 103.471C223.836 103.17 223.279 103.019 222.713 103.035C222.148 103.051 221.599 103.234 221.138 103.562C220.677 103.89 220.323 104.347 220.121 104.875C219.92 105.404 219.879 105.98 220.005 106.532C220.131 107.083 220.418 107.585 220.829 107.974C221.24 108.363 221.757 108.621 222.314 108.716C222.872 108.811 223.446 108.739 223.962 108.508C224.479 108.277 224.915 107.898 225.217 107.419C225.61 106.779 225.737 106.01 225.568 105.278C225.4 104.546 224.95 103.909 224.316 103.506V103.471ZM224.116 106.732C223.95 106.993 223.71 107.2 223.427 107.326C223.143 107.451 222.829 107.49 222.524 107.437C222.218 107.384 221.935 107.242 221.711 107.028C221.486 106.814 221.33 106.539 221.262 106.237C221.193 105.934 221.216 105.618 221.328 105.329C221.439 105.04 221.633 104.79 221.887 104.611C222.14 104.432 222.44 104.332 222.75 104.324C223.06 104.316 223.365 104.4 223.628 104.565C223.802 104.675 223.953 104.818 224.072 104.987C224.192 105.155 224.276 105.346 224.322 105.547C224.367 105.748 224.372 105.956 224.337 106.16C224.302 106.363 224.227 106.557 224.116 106.732ZM223.937 106.622C224.086 106.392 224.163 106.123 224.158 105.849C224.153 105.576 224.067 105.31 223.91 105.085C223.753 104.861 223.533 104.689 223.278 104.59C223.023 104.492 222.744 104.471 222.477 104.532C222.21 104.593 221.967 104.732 221.78 104.932C221.593 105.131 221.469 105.382 221.425 105.652C221.381 105.922 221.418 106.199 221.532 106.448C221.647 106.697 221.833 106.906 222.066 107.048C222.372 107.235 222.739 107.295 223.088 107.215C223.438 107.135 223.742 106.922 223.937 106.622ZM223.8 106.532C223.674 106.733 223.491 106.892 223.275 106.989C223.058 107.087 222.818 107.117 222.584 107.077C222.351 107.038 222.134 106.929 221.962 106.766C221.789 106.603 221.67 106.393 221.617 106.161C221.565 105.93 221.583 105.688 221.668 105.467C221.753 105.246 221.902 105.055 222.096 104.918C222.29 104.782 222.521 104.706 222.758 104.701C222.995 104.695 223.228 104.761 223.428 104.888C223.561 104.972 223.675 105.08 223.766 105.208C223.856 105.336 223.921 105.48 223.955 105.633C223.99 105.786 223.994 105.944 223.967 106.098C223.94 106.252 223.883 106.4 223.8 106.532ZM223.518 104.744C223.288 104.595 223.02 104.517 222.747 104.521C222.473 104.526 222.207 104.611 221.983 104.767C221.758 104.923 221.585 105.142 221.486 105.397C221.387 105.652 221.365 105.93 221.425 106.197C221.485 106.464 221.622 106.707 221.821 106.895C222.019 107.083 222.269 107.208 222.538 107.254C222.808 107.299 223.085 107.263 223.334 107.151C223.583 107.038 223.793 106.854 223.937 106.622C224.127 106.316 224.189 105.948 224.11 105.597C224.032 105.246 223.819 104.94 223.518 104.744ZM223.8 106.532C223.674 106.733 223.491 106.892 223.275 106.989C223.058 107.087 222.818 107.117 222.584 107.077C222.351 107.038 222.134 106.929 221.962 106.766C221.789 106.603 221.67 106.393 221.617 106.161C221.565 105.93 221.583 105.688 221.668 105.467C221.753 105.246 221.902 105.055 222.096 104.918C222.29 104.782 222.521 104.706 222.758 104.701C222.995 104.695 223.228 104.761 223.428 104.888C223.561 104.972 223.675 105.08 223.766 105.208C223.856 105.336 223.921 105.48 223.955 105.633C223.99 105.786 223.994 105.944 223.967 106.098C223.94 106.252 223.883 106.4 223.8 106.532ZM223.518 104.744C223.288 104.595 223.02 104.517 222.747 104.521C222.473 104.526 222.207 104.611 221.983 104.767C221.758 104.923 221.585 105.142 221.486 105.397C221.387 105.652 221.365 105.93 221.425 106.197C221.485 106.464 221.622 106.707 221.821 106.895C222.019 107.083 222.269 107.208 222.538 107.254C222.808 107.299 223.085 107.263 223.334 107.151C223.583 107.038 223.793 106.854 223.937 106.622C224.127 106.316 224.189 105.948 224.11 105.597C224.032 105.246 223.819 104.94 223.518 104.744ZM223.8 106.532C223.674 106.733 223.491 106.892 223.275 106.989C223.058 107.087 222.818 107.117 222.584 107.077C222.351 107.038 222.134 106.929 221.962 106.766C221.789 106.603 221.67 106.393 221.617 106.161C221.565 105.93 221.583 105.688 221.668 105.467C221.753 105.246 221.902 105.055 222.096 104.918C222.29 104.782 222.521 104.706 222.758 104.701C222.995 104.695 223.228 104.761 223.428 104.888C223.561 104.972 223.675 105.08 223.766 105.208C223.856 105.336 223.921 105.48 223.955 105.633C223.99 105.786 223.994 105.944 223.967 106.098C223.94 106.252 223.883 106.4 223.8 106.532Z" fill="#A6A6A6"/>
<path d="M221.798 108.513L220.862 107.929L220.498 108.617L221.33 109.139L221.798 108.513Z" fill="#A6A6A6"/>
<path d="M220.216 107.083L219.975 106.009L219.225 106.243L219.445 107.199L220.216 107.083Z" fill="#A6A6A6"/>
<path d="M220.113 104.957L220.697 104.022L220.01 103.657L219.487 104.489L220.113 104.957Z" fill="#A6A6A6"/>
<path d="M221.543 103.381L222.616 103.134L222.383 102.391L221.433 102.604L221.543 103.381Z" fill="#A6A6A6"/>
<path d="M223.669 103.271L224.604 103.863L224.969 103.168L224.137 102.645L223.669 103.271Z" fill="#A6A6A6"/>
<path d="M225.244 104.702L225.492 105.782L226.235 105.548L226.021 104.592L225.244 104.702Z" fill="#A6A6A6"/>
<path d="M225.354 106.834L224.763 107.763L225.457 108.128L225.98 107.295L225.354 106.834Z" fill="#A6A6A6"/>
<path d="M223.923 108.41L222.844 108.65L223.077 109.4L224.034 109.18L223.923 108.41Z" fill="#A6A6A6"/>
<path d="M88.7431 111.134C88.3616 111.012 87.9526 111.006 87.5677 111.116C87.1829 111.227 86.8396 111.45 86.5814 111.756C86.3232 112.062 86.1617 112.438 86.1173 112.836C86.0729 113.234 86.1477 113.636 86.3322 113.991C86.5167 114.347 86.8026 114.64 87.1536 114.832C87.5046 115.025 87.9049 115.109 88.3038 115.074C88.7028 115.04 89.0823 114.887 89.3944 114.636C89.7065 114.385 89.9371 114.047 90.0569 113.665C90.2168 113.155 90.1684 112.603 89.9222 112.128C89.676 111.654 89.2521 111.296 88.7431 111.134ZM89.823 113.589C89.718 113.925 89.5158 114.221 89.2421 114.441C88.9684 114.662 88.6354 114.796 88.2855 114.827C87.9355 114.857 87.5842 114.784 87.2762 114.615C86.9681 114.446 86.7171 114.189 86.555 113.878C86.3929 113.566 86.3269 113.213 86.3655 112.864C86.4041 112.515 86.5454 112.185 86.7716 111.916C86.9978 111.647 87.2987 111.452 87.6362 111.354C87.9737 111.256 88.3326 111.261 88.6674 111.367C88.8894 111.437 89.0955 111.55 89.2738 111.699C89.4521 111.849 89.5991 112.032 89.7065 112.238C89.8138 112.445 89.8794 112.67 89.8994 112.902C89.9194 113.134 89.8935 113.368 89.823 113.589ZM88.7431 111.134C88.3616 111.012 87.9526 111.006 87.5677 111.116C87.1829 111.227 86.8396 111.45 86.5814 111.756C86.3232 112.062 86.1617 112.438 86.1173 112.836C86.0729 113.234 86.1477 113.636 86.3322 113.991C86.5167 114.347 86.8026 114.64 87.1536 114.832C87.5046 115.025 87.9049 115.109 88.3038 115.074C88.7028 115.04 89.0823 114.887 89.3944 114.636C89.7065 114.385 89.9371 114.047 90.0569 113.665C90.2168 113.155 90.1684 112.603 89.9222 112.128C89.676 111.654 89.2521 111.296 88.7431 111.134ZM89.823 113.589C89.718 113.925 89.5158 114.221 89.2421 114.441C88.9684 114.662 88.6354 114.796 88.2855 114.827C87.9355 114.857 87.5842 114.784 87.2762 114.615C86.9681 114.446 86.7171 114.189 86.555 113.878C86.3929 113.566 86.3269 113.213 86.3655 112.864C86.4041 112.515 86.5454 112.185 86.7716 111.916C86.9978 111.647 87.2987 111.452 87.6362 111.354C87.9737 111.256 88.3326 111.261 88.6674 111.367C88.8894 111.437 89.0955 111.55 89.2738 111.699C89.4521 111.849 89.5991 112.032 89.7065 112.238C89.8138 112.445 89.8794 112.67 89.8994 112.902C89.9194 113.134 89.8935 113.368 89.823 113.589ZM88.7431 111.134C88.3616 111.012 87.9526 111.006 87.5677 111.116C87.1829 111.227 86.8396 111.45 86.5814 111.756C86.3232 112.062 86.1617 112.438 86.1173 112.836C86.0729 113.234 86.1477 113.636 86.3322 113.991C86.5167 114.347 86.8026 114.64 87.1536 114.832C87.5046 115.025 87.9049 115.109 88.3038 115.074C88.7028 115.04 89.0823 114.887 89.3944 114.636C89.7065 114.385 89.9371 114.047 90.0569 113.665C90.2168 113.155 90.1684 112.603 89.9222 112.128C89.676 111.654 89.2521 111.296 88.7431 111.134ZM89.823 113.589C89.718 113.925 89.5158 114.221 89.2421 114.441C88.9684 114.662 88.6354 114.796 88.2855 114.827C87.9355 114.857 87.5842 114.784 87.2762 114.615C86.9681 114.446 86.7171 114.189 86.555 113.878C86.3929 113.566 86.3269 113.213 86.3655 112.864C86.4041 112.515 86.5454 112.185 86.7716 111.916C86.9978 111.647 87.2987 111.452 87.6362 111.354C87.9737 111.256 88.3326 111.261 88.6674 111.367C88.8894 111.437 89.0955 111.55 89.2738 111.699C89.4521 111.849 89.5991 112.032 89.7065 112.238C89.8138 112.445 89.8794 112.67 89.8994 112.902C89.9194 113.134 89.8935 113.368 89.823 113.589ZM89.4103 108.994C88.6082 108.736 87.7474 108.721 86.9369 108.952C86.1265 109.184 85.4028 109.65 84.8577 110.293C84.3125 110.935 83.9703 111.725 83.8743 112.563C83.7784 113.4 83.9331 114.247 84.3189 114.996C84.7046 115.745 85.304 116.363 86.0412 116.772C86.7784 117.18 87.6202 117.36 88.46 117.29C89.2998 117.22 90.0999 116.902 90.7588 116.377C91.4178 115.851 91.9061 115.142 92.1618 114.339C92.4976 113.267 92.397 112.106 91.8818 111.108C91.3667 110.11 90.4785 109.355 89.4103 109.008V108.994ZM90.3596 113.761C90.2203 114.201 89.954 114.589 89.5944 114.877C89.2347 115.165 88.7977 115.34 88.3386 115.38C87.8796 115.42 87.419 115.323 87.015 115.101C86.611 114.879 86.2817 114.543 86.0688 114.134C85.8558 113.726 85.7687 113.263 85.8184 112.805C85.8682 112.347 86.0525 111.914 86.3482 111.56C86.6439 111.207 87.0377 110.949 87.4798 110.819C87.922 110.689 88.3927 110.693 88.8325 110.831C89.4222 111.019 89.9136 111.433 90.1996 111.982C90.4856 112.53 90.5431 113.17 90.3596 113.761ZM90.0569 113.665C90.1776 113.283 90.1822 112.874 90.0704 112.49C89.9585 112.106 89.7351 111.763 89.4284 111.506C89.1218 111.249 88.7457 111.088 88.3478 111.045C87.9499 111.002 87.548 111.077 87.1932 111.262C86.8383 111.448 86.5463 111.734 86.3543 112.085C86.1622 112.436 86.0787 112.836 86.1143 113.235C86.1499 113.634 86.303 114.013 86.5542 114.325C86.8054 114.636 87.1435 114.866 87.5255 114.986C87.7785 115.066 88.0447 115.095 88.3089 115.072C88.5732 115.049 88.8302 114.974 89.0654 114.851C89.3006 114.728 89.5092 114.56 89.6794 114.357C89.8495 114.153 89.9778 113.918 90.0569 113.665ZM89.823 113.589C89.718 113.925 89.5158 114.221 89.2421 114.441C88.9684 114.662 88.6354 114.796 88.2855 114.827C87.9355 114.857 87.5842 114.784 87.2762 114.615C86.9681 114.446 86.7171 114.189 86.555 113.878C86.3929 113.566 86.3269 113.213 86.3655 112.864C86.4041 112.515 86.5454 112.185 86.7716 111.916C86.9978 111.647 87.2987 111.452 87.6362 111.354C87.9737 111.256 88.3326 111.261 88.6674 111.367C88.8894 111.437 89.0955 111.55 89.2738 111.699C89.4521 111.849 89.5991 112.032 89.7065 112.238C89.8138 112.445 89.8794 112.67 89.8994 112.902C89.9194 113.134 89.8935 113.368 89.823 113.589ZM88.7431 111.134C88.3616 111.012 87.9526 111.006 87.5677 111.116C87.1829 111.227 86.8396 111.45 86.5814 111.756C86.3232 112.062 86.1617 112.438 86.1173 112.836C86.0729 113.234 86.1477 113.636 86.3322 113.991C86.5167 114.347 86.8026 114.64 87.1536 114.832C87.5046 115.025 87.9049 115.109 88.3038 115.074C88.7028 115.04 89.0823 114.887 89.3944 114.636C89.7065 114.385 89.9371 114.047 90.0569 113.665C90.2168 113.155 90.1684 112.603 89.9222 112.128C89.676 111.654 89.2521 111.296 88.7431 111.134ZM89.823 113.589C89.718 113.925 89.5158 114.221 89.2421 114.441C88.9684 114.662 88.6354 114.796 88.2855 114.827C87.9355 114.857 87.5842 114.784 87.2762 114.615C86.9681 114.446 86.7171 114.189 86.555 113.878C86.3929 113.566 86.3269 113.213 86.3655 112.864C86.4041 112.515 86.5454 112.185 86.7716 111.916C86.9978 111.647 87.2987 111.452 87.6362 111.354C87.9737 111.256 88.3326 111.261 88.6674 111.367C88.8894 111.437 89.0955 111.55 89.2738 111.699C89.4521 111.849 89.5991 112.032 89.7065 112.238C89.8138 112.445 89.8794 112.67 89.8994 112.902C89.9194 113.134 89.8935 113.368 89.823 113.589ZM88.7431 111.134C88.3616 111.012 87.9526 111.006 87.5677 111.116C87.1829 111.227 86.8396 111.45 86.5814 111.756C86.3232 112.062 86.1617 112.438 86.1173 112.836C86.0729 113.234 86.1477 113.636 86.3322 113.991C86.5167 114.347 86.8026 114.64 87.1536 114.832C87.5046 115.025 87.9049 115.109 88.3038 115.074C88.7028 115.04 89.0823 114.887 89.3944 114.636C89.7065 114.385 89.9371 114.047 90.0569 113.665C90.2168 113.155 90.1684 112.603 89.9222 112.128C89.676 111.654 89.2521 111.296 88.7431 111.134ZM89.823 113.589C89.718 113.925 89.5158 114.221 89.2421 114.441C88.9684 114.662 88.6354 114.796 88.2855 114.827C87.9355 114.857 87.5842 114.784 87.2762 114.615C86.9681 114.446 86.7171 114.189 86.555 113.878C86.3929 113.566 86.3269 113.213 86.3655 112.864C86.4041 112.515 86.5454 112.185 86.7716 111.916C86.9978 111.647 87.2987 111.452 87.6362 111.354C87.9737 111.256 88.3326 111.261 88.6674 111.367C88.8894 111.437 89.0955 111.55 89.2738 111.699C89.4521 111.849 89.5991 112.032 89.7065 112.238C89.8138 112.445 89.8794 112.67 89.8994 112.902C89.9194 113.134 89.8935 113.368 89.823 113.589Z" fill="#A6A6A6"/>
<path d="M87.6837 117.201L86.1222 116.706L85.8608 117.841L87.2503 118.274L87.6837 117.201Z" fill="#A6A6A6"/>
<path d="M84.877 115.735L84.1204 114.284L83.1367 114.896L83.8108 116.189L84.877 115.735Z" fill="#A6A6A6"/>
<path d="M83.9279 112.716L84.4231 111.154L83.2881 110.893L82.8479 112.283L83.9279 112.716Z" fill="#A6A6A6"/>
<path d="M85.393 109.909L86.8444 109.153L86.2253 108.169L84.939 108.836L85.393 109.909Z" fill="#A6A6A6"/>
<path d="M88.4128 108.96L89.9743 109.449L90.2357 108.321L88.8462 107.88L88.4128 108.96Z" fill="#A6A6A6"/>
<path d="M91.2192 110.426L91.9759 111.877L92.9595 111.258L92.2854 109.965L91.2192 110.426Z" fill="#A6A6A6"/>
<path d="M92.1686 113.438L91.6733 115L92.8083 115.261L93.2486 113.879L92.1686 113.438Z" fill="#A6A6A6"/>
<path d="M90.7034 116.245L89.252 117.002L89.871 117.992L91.1574 117.318L90.7034 116.245Z" fill="#A6A6A6"/>
</svg>
