<svg width="416" height="416" viewBox="0 0 416 416" fill="none" xmlns="http://www.w3.org/2000/svg">
<path d="M274.856 70.9486C276.818 58.8117 268.569 47.3827 256.432 45.4211C244.295 43.4596 232.866 51.7084 230.905 63.8453C228.943 75.9822 237.192 87.4112 249.329 89.3727C261.466 91.3342 272.895 83.0854 274.856 70.9486Z" fill="#EBEBEB"/>
<path d="M274.958 72.2113C276.846 60.6659 269.018 49.7755 257.472 47.8869C245.927 45.9983 235.037 53.8268 233.148 65.3722C231.259 76.9177 239.088 87.8081 250.633 89.6967C262.179 91.5852 273.069 83.7568 274.958 72.2113Z" fill="#DBDBDB"/>
<path d="M262.783 86.7876C272.975 82.6232 277.862 70.985 273.697 60.793C269.533 50.6011 257.895 45.7148 247.703 49.8793C237.511 54.0437 232.624 65.6819 236.789 75.8739C240.953 86.0658 252.591 90.9521 262.783 86.7876Z" fill="white"/>
<path d="M254.317 50.3857H253.81V53.3976H254.317V50.3857Z" fill="#EBEBEB"/>
<path d="M245.09 52.7495L244.65 53.0032L246.156 55.6118L246.595 55.3581L245.09 52.7495Z" fill="#EBEBEB"/>
<path d="M238.498 58.4315L238.244 58.873L240.865 60.379L241.118 59.9374L238.498 58.4315Z" fill="#EBEBEB"/>
<path d="M238.676 68.54H235.664V69.0476H238.676V68.54Z" fill="#EBEBEB"/>
<path d="M240.615 76.282L238.007 77.7883L238.261 78.2278L240.869 76.7214L240.615 76.282Z" fill="#EBEBEB"/>
<path d="M246.15 81.9905L244.645 84.5996L245.085 84.8531L246.589 82.244L246.15 81.9905Z" fill="#EBEBEB"/>
<path d="M254.317 84.1899H253.81V87.2018H254.317V84.1899Z" fill="#EBEBEB"/>
<path d="M261.99 82.0207L261.55 82.2744L263.056 84.8827L263.496 84.629L261.99 82.0207Z" fill="#EBEBEB"/>
<path d="M267.516 76.2724L267.263 76.7119L269.864 78.2137L270.118 77.7741L267.516 76.2724Z" fill="#EBEBEB"/>
<path d="M272.472 68.54H269.46V69.0476H272.472V68.54Z" fill="#EBEBEB"/>
<path d="M269.868 59.3666L267.267 60.8684L267.52 61.3079L270.122 59.8062L269.868 59.3666Z" fill="#EBEBEB"/>
<path d="M263.064 52.7388L261.56 55.3479L261.999 55.6014L263.504 52.9923L263.064 52.7388Z" fill="#EBEBEB"/>
<path d="M257.004 62.4256L248.298 79.5413L248.751 79.7714L257.457 62.6557L257.004 62.4256Z" fill="#EBEBEB"/>
<path d="M253.049 61.971L252.388 62.1033L256.101 80.6467L256.761 80.5145L253.049 61.971Z" fill="#DBDBDB"/>
<path d="M188.864 212.01H46.0262V47.0579H188.864V212.01ZM49.3459 208.682H185.536V50.3859H49.3542L49.3459 208.682Z" fill="#EBEBEB"/>
<path d="M117.811 51.2595H114.483V210.346H117.811V51.2595Z" fill="#EBEBEB"/>
<path d="M191.893 53.7886H43.0061V58.4228H191.893V53.7886Z" fill="#EBEBEB"/>
<path d="M191.893 59.0054H43.0061V63.6396H191.893V59.0054Z" fill="#EBEBEB"/>
<path d="M191.893 64.2136H43.0061V68.8479H191.893V64.2136Z" fill="#EBEBEB"/>
<path d="M191.893 69.4302H43.0061V74.0644H191.893V69.4302Z" fill="#EBEBEB"/>
<path d="M191.893 74.647H43.0061V79.2812H191.893V74.647Z" fill="#EBEBEB"/>
<path d="M191.893 79.8552H43.0061V84.4895H191.893V79.8552Z" fill="#EBEBEB"/>
<path d="M191.893 85.0718H43.0061V89.706H191.893V85.0718Z" fill="#EBEBEB"/>
<path d="M191.893 90.2886H43.0061V94.9228H191.893V90.2886Z" fill="#EBEBEB"/>
<path d="M191.893 95.4968H43.0061V100.131H191.893V95.4968Z" fill="#EBEBEB"/>
<path d="M182.008 52.8486H181.176V159.669H182.008V52.8486Z" fill="#263238"/>
<path d="M183.065 163.546H180.111L180.852 159.303H182.324L183.065 163.546Z" fill="#263238"/>
<path d="M185.004 52.8486H184.172V207.376H185.004V52.8486Z" fill="#263238"/>
<path d="M186.06 210.496H183.115L183.847 206.253H185.328L186.06 210.496Z" fill="#263238"/>
<path d="M197.051 46.4089H37.8394V56.1017H197.051V46.4089Z" fill="#DBDBDB"/>
<path d="M382.287 84.5811H292.531V197.608H382.287V84.5811Z" fill="#EBEBEB"/>
<path d="M370.864 107.935H303.647V110.074H370.864V107.935Z" fill="#DBDBDB"/>
<path d="M360.564 112.411H303.647V114.55H360.564V112.411Z" fill="#DBDBDB"/>
<path d="M347.052 116.879H303.647V119.017H347.052V116.879Z" fill="#DBDBDB"/>
<path d="M368.518 121.355H303.647V123.494H368.518V121.355Z" fill="#DBDBDB"/>
<path d="M363.002 125.823H303.647V127.961H363.002V125.823Z" fill="#DBDBDB"/>
<path d="M365.24 134.767H303.647V136.906H365.24V134.767Z" fill="#DBDBDB"/>
<path d="M327.242 139.243H303.647V141.382H327.242V139.243Z" fill="#DBDBDB"/>
<path d="M351.229 143.711H303.647V145.849H351.229V143.711Z" fill="#DBDBDB"/>
<path d="M368.518 148.188H303.647V150.326H368.518V148.188Z" fill="#DBDBDB"/>
<path d="M359.582 152.655H303.647V154.794H359.582V152.655Z" fill="#DBDBDB"/>
<path d="M364.258 161.599H303.647V163.737H364.258V161.599Z" fill="#DBDBDB"/>
<path d="M340.338 166.075H303.647V168.214H340.338V166.075Z" fill="#DBDBDB"/>
<path d="M340.338 179.612H303.647V181.75H340.338V179.612Z" fill="#DBDBDB"/>
<path d="M365.198 188.548C368.952 188.548 371.996 185.504 371.996 181.75C371.996 177.996 368.952 174.953 365.198 174.953C361.444 174.953 358.401 177.996 358.401 181.75C358.401 185.504 361.444 188.548 365.198 188.548Z" fill="#0B7D77"/>
<path d="M313.664 93.292C314.481 93.2924 315.274 93.5646 315.919 94.0658C315.945 94.0853 315.968 94.1101 315.984 94.1386C316.001 94.1671 316.011 94.1987 316.015 94.2315C316.019 94.2642 316.016 94.2974 316.007 94.329C315.997 94.3606 315.982 94.3899 315.96 94.4152C315.941 94.4411 315.917 94.4631 315.89 94.4797C315.863 94.4963 315.832 94.5072 315.8 94.5118C315.768 94.5165 315.736 94.5148 315.705 94.5067C315.674 94.4987 315.645 94.4846 315.619 94.4651C315.063 94.0229 314.374 93.7824 313.664 93.7829C312.854 93.7829 312.078 94.1046 311.505 94.6772C310.932 95.2498 310.611 96.0265 310.611 96.8363C310.611 97.6461 310.932 98.4228 311.505 98.9954C312.078 99.5681 312.854 99.8898 313.664 99.8898C314.369 99.9004 315.056 99.6618 315.603 99.2158C315.628 99.1942 315.658 99.1784 315.691 99.1695C315.723 99.1606 315.757 99.1589 315.791 99.1644C315.824 99.17 315.856 99.1826 315.883 99.2016C315.911 99.2205 315.935 99.2452 315.952 99.2741C315.977 99.2959 315.997 99.3228 316.01 99.3529C316.024 99.3831 316.031 99.4157 316.031 99.4488C316.031 99.4818 316.024 99.5145 316.01 99.5446C315.997 99.5748 315.977 99.6017 315.952 99.6235C315.304 100.116 314.512 100.382 313.697 100.381C313.232 100.381 312.771 100.289 312.341 100.111C311.911 99.9327 311.52 99.6716 311.191 99.3425C310.862 99.0134 310.601 98.6227 310.423 98.1927C310.245 97.7627 310.153 97.3018 310.153 96.8363C310.153 96.3709 310.245 95.91 310.423 95.48C310.601 95.0499 310.862 94.6592 311.191 94.3301C311.52 94.001 311.911 93.7399 312.341 93.5618C312.771 93.3837 313.232 93.292 313.697 93.292H313.664Z" fill="#A6A6A6"/>
<path d="M320.877 93.2921C321.587 93.2555 322.291 93.4325 322.899 93.8003C323.507 94.1682 323.991 94.7099 324.288 95.3554C324.585 96.001 324.682 96.7208 324.565 97.4218C324.449 98.1228 324.125 98.7728 323.635 99.2878C323.146 99.8028 322.513 100.159 321.819 100.311C321.124 100.462 320.401 100.402 319.741 100.138C319.081 99.8745 318.516 99.4188 318.118 98.8301C317.719 98.2415 317.507 97.547 317.508 96.8364C317.493 96.3817 317.569 95.9286 317.732 95.5035C317.894 95.0784 318.138 94.6898 318.452 94.36C318.765 94.0303 319.141 93.7661 319.558 93.5828C319.974 93.3995 320.423 93.3007 320.877 93.2921ZM320.877 99.8898C321.488 99.9248 322.094 99.7759 322.619 99.4623C323.143 99.1488 323.562 98.685 323.82 98.131C324.078 97.5771 324.164 96.9584 324.067 96.3551C323.969 95.7517 323.693 95.1915 323.274 94.7468C322.855 94.3021 322.312 93.9935 321.715 93.8608C321.118 93.7281 320.496 93.7775 319.928 94.0026C319.359 94.2276 318.872 94.618 318.528 95.1233C318.184 95.6285 318 96.2252 317.999 96.8364C317.976 97.6228 318.267 98.386 318.807 98.9585C319.346 99.531 320.091 99.8659 320.877 99.8898Z" fill="#A6A6A6"/>
<path d="M326.552 94.4235V100.139C326.558 100.174 326.557 100.21 326.548 100.244C326.539 100.279 326.523 100.311 326.5 100.338C326.478 100.365 326.449 100.387 326.417 100.402C326.385 100.417 326.35 100.425 326.315 100.425C326.279 100.425 326.244 100.417 326.212 100.402C326.18 100.387 326.152 100.365 326.129 100.338C326.106 100.311 326.09 100.279 326.081 100.244C326.072 100.21 326.071 100.174 326.077 100.139V93.733C326.061 93.6856 326.06 93.634 326.075 93.586C326.09 93.538 326.12 93.4962 326.161 93.4667C326.214 93.4305 326.279 93.4163 326.343 93.4271C326.407 93.438 326.463 93.4731 326.502 93.525L330.737 99.349V93.6664C330.737 93.6038 330.761 93.5437 330.804 93.4987C330.848 93.4537 330.907 93.4273 330.97 93.4251C331.002 93.424 331.034 93.4294 331.065 93.4411C331.095 93.4527 331.122 93.4703 331.146 93.4928C331.169 93.5153 331.187 93.5423 331.2 93.5721C331.213 93.6019 331.219 93.634 331.219 93.6664V100.098C331.219 100.13 331.213 100.162 331.2 100.192C331.187 100.222 331.169 100.249 331.146 100.271C331.122 100.294 331.095 100.312 331.065 100.323C331.034 100.335 331.002 100.34 330.97 100.339C330.934 100.339 330.899 100.33 330.868 100.314C330.836 100.299 330.808 100.276 330.787 100.248C330.777 100.244 330.768 100.239 330.761 100.232C330.754 100.224 330.748 100.216 330.745 100.206L326.552 94.4235Z" fill="#A6A6A6"/>
<path d="M335.446 93.8827H333.341C333.276 93.8806 333.215 93.8533 333.17 93.8067C333.125 93.7602 333.099 93.6979 333.099 93.6331C333.102 93.5698 333.128 93.5096 333.172 93.4648C333.217 93.42 333.277 93.3939 333.341 93.3918H338.033C338.097 93.3939 338.157 93.42 338.202 93.4648C338.246 93.5096 338.272 93.5698 338.275 93.6331C338.275 93.6979 338.249 93.7602 338.204 93.8067C338.159 93.8533 338.098 93.8806 338.033 93.8827H335.928V100.139C335.928 100.203 335.903 100.265 335.858 100.31C335.812 100.355 335.751 100.381 335.687 100.381C335.623 100.381 335.562 100.355 335.516 100.31C335.471 100.265 335.446 100.203 335.446 100.139V93.8827Z" fill="#A6A6A6"/>
<path d="M343.616 98.7998C343.616 98.5906 343.565 98.3846 343.466 98.2002C343.368 98.0158 343.225 97.8588 343.05 97.7432C342.797 97.5756 342.515 97.457 342.218 97.3937H342.168H340.504V100.156C340.494 100.213 340.463 100.265 340.419 100.302C340.374 100.34 340.317 100.36 340.259 100.36C340.201 100.36 340.144 100.34 340.099 100.302C340.054 100.265 340.024 100.213 340.013 100.156V93.6497C340.016 93.5908 340.04 93.5348 340.079 93.4909C340.118 93.447 340.172 93.4179 340.23 93.4084H342.227C342.678 93.4131 343.115 93.571 343.466 93.8561C343.816 94.1413 344.06 94.5369 344.156 94.9783C344.253 95.4197 344.197 95.8809 343.998 96.2864C343.798 96.6918 343.467 97.0177 343.059 97.2107C343.089 97.2322 343.123 97.2491 343.158 97.2606C343.44 97.4123 343.675 97.6366 343.841 97.9102C344.006 98.1838 344.095 98.4968 344.099 98.8164C344.084 99.0964 344.112 99.3769 344.182 99.6484C344.2 99.7116 344.235 99.7689 344.282 99.8149C344.338 99.8083 344.396 99.8201 344.445 99.8486C344.494 99.8771 344.533 99.9207 344.556 99.9729C344.572 100.037 344.564 100.104 344.536 100.164C344.507 100.223 344.458 100.27 344.398 100.297H344.257C344.16 100.288 344.067 100.253 343.988 100.196C343.909 100.139 343.847 100.062 343.807 99.9729C343.645 99.6044 343.58 99.2007 343.616 98.7998ZM342.218 93.8827H340.496V96.8945H342.26C342.659 96.889 343.04 96.7251 343.319 96.4387C343.597 96.1524 343.75 95.7672 343.745 95.3678C343.739 94.9684 343.575 94.5876 343.289 94.3091C343.003 94.0305 342.618 93.8772 342.218 93.8827Z" fill="#A6A6A6"/>
<path d="M350.172 98.5751H346.986L346.37 100.239C346.353 100.285 346.322 100.325 346.282 100.353C346.242 100.382 346.194 100.397 346.145 100.397H346.054C345.993 100.371 345.945 100.323 345.919 100.263C345.892 100.203 345.89 100.135 345.912 100.073L348.333 93.5998C348.355 93.5546 348.39 93.5165 348.432 93.49C348.475 93.4635 348.524 93.4497 348.575 93.45C348.625 93.4475 348.676 93.4605 348.719 93.4872C348.762 93.514 348.796 93.5532 348.816 93.5998L351.237 100.073C351.261 100.133 351.261 100.199 351.238 100.259C351.215 100.319 351.17 100.368 351.112 100.397H351.021C350.971 100.396 350.922 100.381 350.881 100.353C350.839 100.325 350.807 100.285 350.788 100.239L350.172 98.5751ZM347.169 98.0843H349.997L348.583 94.3319L347.169 98.0843Z" fill="#A6A6A6"/>
<path d="M355.722 93.292C356.538 93.2924 357.332 93.5646 357.976 94.0658C358.003 94.0853 358.025 94.1101 358.042 94.1386C358.058 94.1671 358.069 94.1987 358.073 94.2315C358.077 94.2642 358.074 94.2974 358.064 94.329C358.055 94.3606 358.039 94.3899 358.018 94.4152C357.999 94.4411 357.975 94.4631 357.948 94.4797C357.92 94.4963 357.89 94.5072 357.858 94.5118C357.826 94.5165 357.794 94.5148 357.763 94.5067C357.732 94.4987 357.702 94.4846 357.677 94.4651C357.121 94.0229 356.432 93.7824 355.722 93.7829C354.912 93.7829 354.135 94.1046 353.563 94.6772C352.99 95.2498 352.668 96.0265 352.668 96.8363C352.668 97.6461 352.99 98.4228 353.563 98.9954C354.135 99.5681 354.912 99.8898 355.722 99.8898C356.427 99.9004 357.114 99.6618 357.66 99.2158C357.686 99.1942 357.716 99.1784 357.749 99.1695C357.781 99.1606 357.815 99.1589 357.848 99.1644C357.882 99.17 357.913 99.1826 357.941 99.2016C357.969 99.2205 357.992 99.2452 358.01 99.2741C358.034 99.2959 358.054 99.3228 358.068 99.3529C358.081 99.3831 358.089 99.4157 358.089 99.4488C358.089 99.4818 358.081 99.5145 358.068 99.5446C358.054 99.5748 358.034 99.6017 358.01 99.6235C357.361 100.116 356.569 100.382 355.755 100.381C355.289 100.381 354.829 100.289 354.399 100.111C353.969 99.9327 353.578 99.6716 353.249 99.3425C352.92 99.0134 352.658 98.6227 352.48 98.1927C352.302 97.7627 352.211 97.3018 352.211 96.8363C352.211 96.3709 352.302 95.91 352.48 95.48C352.658 95.0499 352.92 94.6592 353.249 94.3301C353.578 94.001 353.969 93.7399 354.399 93.5618C354.829 93.3837 355.289 93.292 355.755 93.292H355.722Z" fill="#A6A6A6"/>
<path d="M361.92 93.8827H359.815C359.75 93.8806 359.689 93.8533 359.644 93.8067C359.599 93.7602 359.574 93.6979 359.574 93.6331C359.576 93.5698 359.602 93.5096 359.647 93.4648C359.692 93.42 359.752 93.3939 359.815 93.3918H364.508C364.571 93.3939 364.631 93.42 364.676 93.4648C364.721 93.5096 364.747 93.5698 364.749 93.6331C364.75 93.6655 364.744 93.6978 364.733 93.728C364.721 93.7583 364.704 93.7858 364.681 93.8091C364.659 93.8324 364.632 93.851 364.602 93.8636C364.572 93.8762 364.54 93.8827 364.508 93.8827H362.403V100.139C362.403 100.203 362.377 100.265 362.332 100.31C362.287 100.355 362.225 100.381 362.161 100.381C362.097 100.381 362.036 100.355 361.991 100.31C361.945 100.265 361.92 100.203 361.92 100.139V93.8827Z" fill="#A6A6A6"/>
<path d="M213.816 304.628H378.643L382.071 237.003H210.388L213.816 304.628Z" fill="#EBEBEB"/>
<path d="M370.831 267.962H301.916L300.626 244.483H372.337L370.831 267.962ZM302.706 267.13H370.049L371.446 245.315H301.508L302.706 267.13Z" fill="#DBDBDB"/>
<path d="M369.558 294.969H304.62L303.563 273.778H370.881L369.558 294.969ZM305.411 294.137H368.776L369.999 274.61H304.437L305.411 294.137Z" fill="#DBDBDB"/>
<path d="M343.009 258.752H331.427L330.703 253.086H343.741L343.009 258.752ZM332.193 257.92H342.31L342.826 253.918H331.677L332.193 257.92Z" fill="#DBDBDB"/>
<path d="M343.009 287.206H331.427L330.703 281.541H343.741L343.009 287.206ZM332.193 286.374H342.31L342.826 282.373H331.677L332.193 286.374Z" fill="#DBDBDB"/>
<path d="M289.777 267.962H220.863L219.573 244.483H291.283L289.777 267.962ZM221.653 267.13H288.995L290.368 245.315H220.48L221.653 267.13Z" fill="#DBDBDB"/>
<path d="M288.504 294.969H223.567L222.51 273.778H289.827L288.504 294.969ZM224.357 294.137H287.722L288.945 274.61H223.384L224.357 294.137Z" fill="#DBDBDB"/>
<path d="M261.955 258.752H250.374L249.65 253.086H262.687L261.955 258.752ZM251.139 257.92H261.248L261.764 253.918H250.615L251.139 257.92Z" fill="#DBDBDB"/>
<path d="M261.955 287.206H250.374L249.65 281.541H262.687L261.955 287.206ZM251.139 286.374H261.248L261.764 282.373H250.615L251.139 286.374Z" fill="#DBDBDB"/>
<path d="M228.6 304.628L227.56 312L225.48 326.801H221.412V304.628H228.6Z" fill="#EBEBEB"/>
<path d="M228.6 304.628L227.56 312H221.412V304.628H228.6Z" fill="#DBDBDB"/>
<path d="M363.859 304.628L364.89 312L366.979 326.801H371.047V304.628H363.859Z" fill="#EBEBEB"/>
<path d="M363.859 304.628L364.89 312H371.047V304.628H363.859Z" fill="#DBDBDB"/>
<path d="M208 393.461C290.912 393.461 358.126 384.704 358.126 373.901C358.126 363.098 290.912 354.341 208 354.341C125.088 354.341 57.874 363.098 57.874 373.901C57.874 384.704 125.088 393.461 208 393.461Z" fill="#EBEBEB"/>
<path d="M70.2874 352.494C95.1097 352.494 115.232 347.673 115.232 341.728C115.232 335.782 95.1097 330.961 70.2874 330.961C45.4652 330.961 25.3428 335.782 25.3428 341.728C25.3428 347.673 45.4652 352.494 70.2874 352.494Z" fill="#EBEBEB"/>
<path d="M27.7888 326.801L72.8416 326.602L117.894 326.527L208 326.394L298.106 326.527L343.158 326.602L388.211 326.801L343.158 327.009L298.106 327.084L208 327.217L117.894 327.084L72.8416 327.009L27.7888 326.801Z" fill="#263238"/>
<path d="M71.6102 182.716C71.6102 182.716 49.2377 179.587 54.4627 152.572C54.4627 152.572 79.4643 158.188 71.6102 182.716Z" fill="#0B7D77"/>
<path opacity="0.1" d="M71.6102 182.716C71.6102 182.716 49.2377 179.587 54.4627 152.572C54.4627 152.572 79.4643 158.188 71.6102 182.716Z" fill="black"/>
<path d="M70.4787 177.075C70.0417 175.709 69.5334 174.368 68.9562 173.056C68.9562 172.881 68.9562 172.707 68.8979 172.54C68.8979 172.166 68.8314 171.8 68.8064 171.425C68.7398 170.593 68.6899 169.811 68.64 169.004C68.5485 167.39 68.4486 165.776 68.4237 164.162C68.4237 164.07 68.2822 164.079 68.2822 164.162C68.2822 165.784 68.2822 167.398 68.2822 169.012C68.2822 169.844 68.3654 170.627 68.4154 171.434C68.4154 171.617 68.4154 171.791 68.4154 171.974C67.1579 169.284 65.6539 166.716 63.9226 164.303C63.1931 163.228 62.4071 162.192 61.568 161.2C60.6778 160.177 59.7376 159.203 58.8307 158.196C58.7725 158.13 58.681 158.196 58.7392 158.296C60.3457 160.073 61.7882 161.992 63.049 164.029C63.7312 165.052 64.3718 166.109 64.9875 167.182L64.7795 167.107L63.9475 166.783L62.1171 166.092C60.919 165.643 59.721 165.21 58.5229 164.753C58.448 164.753 58.3981 164.852 58.473 164.877C59.6627 165.352 60.8358 165.851 62.0173 166.358L63.7478 167.107L64.6214 167.465C64.8088 167.559 65.0073 167.629 65.2122 167.673C65.6614 168.505 66.1107 169.295 66.5267 170.127C67.5643 172.22 68.4756 174.373 69.2557 176.575C69.3139 176.725 69.3638 176.883 69.4221 177.041C68.8311 176.701 68.2166 176.404 67.5834 176.151L65.2704 175.103C63.6979 174.379 62.1421 173.647 60.6362 172.798C60.6207 172.789 60.6024 172.787 60.5852 172.792C60.5681 172.796 60.5535 172.808 60.5446 172.823C60.5358 172.838 60.5335 172.857 60.5382 172.874C60.5428 172.891 60.5542 172.906 60.5696 172.915C62.1088 173.747 63.6147 174.653 65.1539 175.485C65.9277 175.901 66.7014 176.317 67.4918 176.692C68.1423 177.078 68.85 177.359 69.5885 177.524C70.3392 179.571 70.8338 181.703 71.0611 183.872C71.3107 186.925 71.2858 190.004 71.3606 193.066H71.4355C71.6602 190.287 71.785 187.483 71.8016 184.696C71.7689 182.101 71.3223 179.528 70.4787 177.075Z" fill="#263238"/>
<path d="M67.0342 161.192C66.8182 162.771 66.743 164.366 66.8096 165.959C66.8096 166.001 66.8761 166.001 66.8761 165.959C66.9677 164.378 66.9843 162.798 67.1674 161.225C67.1757 161.142 67.0426 161.109 67.0342 161.192Z" fill="#263238"/>
<path d="M60.6362 162.548C59.6359 162.164 58.6724 161.691 57.7575 161.133C57.6826 161.084 57.616 161.208 57.6909 161.25C58.5873 161.855 59.5687 162.323 60.6029 162.639C60.6528 162.656 60.736 162.573 60.6362 162.548Z" fill="#263238"/>
<path d="M72.3258 225.597C72.3258 223.101 72.2592 220.655 72.2342 218.184C72.1843 209.972 72.1178 201.76 71.968 193.548C71.8515 187.025 71.699 180.508 71.5104 173.996C71.5098 173.979 71.505 173.963 71.4962 173.948C71.4875 173.933 71.4752 173.921 71.4605 173.913C71.4605 172.132 71.4605 170.352 71.4605 168.571C71.4605 168.522 71.4106 168.505 71.3523 168.505C71.2941 168.505 71.2442 168.505 71.2525 168.571C71.2525 170.357 71.2525 172.141 71.2525 173.921C71.2525 173.921 71.1942 173.963 71.1942 173.996C70.8698 185.644 70.5786 197.201 70.5037 208.807C70.5037 211.17 70.5037 213.524 70.5037 215.887C70.4205 223.447 70.39 231.013 70.4122 238.584C70.4122 239.782 70.4122 240.989 70.4122 242.195C70.4122 249.117 70.487 256.04 70.487 262.995C70.487 263.361 70.903 263.553 71.319 263.569C71.735 263.586 72.359 263.386 72.359 262.962C72.359 255.332 72.409 247.695 72.409 240.065C72.384 235.223 72.384 230.406 72.3258 225.597Z" fill="#263238"/>
<path d="M62.9824 218.084C62.9824 218.084 52.2163 210.113 42.0077 215.488C31.799 220.863 30.1849 241.646 30.1849 241.646C30.1849 241.646 45.1609 243.793 54.6291 234.799C63.7312 226.146 62.9824 218.084 62.9824 218.084Z" fill="#0B7D77"/>
<path d="M65.911 218.575C63.9344 217.787 61.7934 217.501 59.6793 217.743C59.2451 217.666 58.8057 217.621 58.3648 217.61L56.8422 217.493L53.7056 217.277C51.584 217.119 49.4541 216.986 47.3325 216.77C47.3178 216.775 47.3051 216.784 47.296 216.797C47.287 216.81 47.2822 216.825 47.2822 216.84C47.2822 216.856 47.287 216.871 47.296 216.884C47.3051 216.896 47.3178 216.906 47.3325 216.911C49.4291 217.177 51.4925 217.477 53.6141 217.685C54.6957 217.793 55.7773 217.909 56.8672 217.984L57.6493 218.059C57.3331 218.134 57.0086 218.209 56.6925 218.3C55.0039 218.792 53.3701 219.456 51.8169 220.281C50.9849 220.43 50.1529 220.672 49.3209 220.863C47.9897 221.179 46.6669 221.52 45.344 221.87C42.7315 222.552 40.144 223.326 37.5481 224.083C37.4649 224.083 37.5065 224.233 37.5481 224.208C40.1357 223.575 42.7481 222.993 45.344 222.377L49.1213 221.47L50.1113 221.237C47.2236 223.033 44.6422 225.281 42.4653 227.893C40.3703 230.472 38.5884 233.29 37.1571 236.288C37.1571 236.363 37.2237 236.438 37.2736 236.363C39.0454 233.299 41.2072 230.477 43.7049 227.968C43.655 228.11 43.6134 228.259 43.5635 228.401L42.9645 230.298C42.5651 231.571 42.1325 232.835 41.783 234.108C41.783 234.192 41.8912 234.217 41.9161 234.108C42.3737 232.877 42.8064 231.612 43.239 230.406C43.447 229.799 43.6633 229.2 43.8713 228.592C43.9878 228.276 44.096 227.96 44.1958 227.644C44.1958 227.552 44.2707 227.452 44.304 227.353C45.5034 226.188 46.7762 225.101 48.1145 224.099C49.8916 222.799 51.8089 221.703 53.8304 220.83C53.8304 221.013 53.7638 221.204 53.7222 221.379C53.6141 221.87 53.5059 222.361 53.4061 222.851C53.1981 223.866 52.9984 224.89 52.7987 225.913C52.391 227.993 52.1414 230.073 51.7504 232.186C51.7504 232.278 51.8669 232.311 51.8835 232.186C52.3661 230.09 52.9901 228.026 53.456 225.93C53.6889 224.882 53.9219 223.833 54.1465 222.785L54.4461 221.304C54.496 221.029 54.5625 220.755 54.5958 220.472L55.1782 220.231C57.9987 219.182 61.1187 218.425 64.1305 219.008C65.5552 219.271 66.8925 219.884 68.0233 220.789C69.1541 221.695 70.0433 222.867 70.6118 224.199C70.7117 224.432 71.0777 224.282 71.0195 224.041C70.4371 221.495 68.2822 219.573 65.911 218.575Z" fill="#263238"/>
<path d="M49.4374 227.444C49.1379 228.808 48.8301 230.173 48.5305 231.537C48.1906 232.844 47.9404 234.173 47.7817 235.514C47.7817 235.572 47.8483 235.572 47.8649 235.514C48.2612 234.203 48.567 232.866 48.7801 231.512C49.0464 230.164 49.3126 228.817 49.5705 227.469C49.5872 227.394 49.4541 227.361 49.4374 227.444Z" fill="#263238"/>
<path d="M39.0292 230.913C37.6564 231.604 36.3335 232.394 34.8691 232.968C34.861 232.972 34.8535 232.976 34.8472 232.983C34.8409 232.989 34.8358 232.996 34.8323 233.004C34.8289 233.012 34.827 233.021 34.8269 233.03C34.8268 233.039 34.8284 233.048 34.8317 233.056C34.835 233.064 34.8398 233.071 34.846 233.078C34.8522 233.084 34.8595 233.089 34.8676 233.093C34.8757 233.096 34.8845 233.098 34.8933 233.098C34.9021 233.098 34.9109 233.096 34.9191 233.093C36.3513 232.459 37.7483 231.748 39.104 230.963C39.104 230.963 39.104 230.897 39.0292 230.913Z" fill="#263238"/>
<path d="M65.4035 203.441C65.4035 203.441 52.2496 204.273 46.1261 195.612C40.0026 186.951 41.3837 174.545 41.3837 174.545C41.3837 174.545 55.2032 176.209 60.6861 182.458C66.169 188.706 65.4035 203.441 65.4035 203.441Z" fill="#0B7D77"/>
<path d="M71.552 216.42C71.0944 215.014 70.5286 213.624 69.9962 212.26C69.4637 210.895 68.9395 209.614 68.3322 208.316C67.1607 205.665 65.847 203.079 64.3968 200.57C63.465 198.973 62.4666 197.417 61.4432 195.886C61.4432 195.653 61.3766 195.42 61.3434 195.187C61.2851 194.779 61.2269 194.355 61.1603 193.964C61.0272 193.132 60.8858 192.3 60.7443 191.468C60.4448 189.646 60.0704 187.84 59.7792 186.027C59.7792 185.943 59.6294 185.943 59.6461 186.027C59.904 187.824 60.087 189.629 60.3366 191.426C60.4614 192.308 60.5779 193.19 60.711 194.072L60.8608 195.029C58.8546 192.092 56.6823 189.273 54.3546 186.584L53.4477 185.536C53.4477 185.436 53.3645 185.336 53.3229 185.236C53.223 184.987 53.1315 184.737 53.04 184.479C52.8403 183.963 52.6573 183.439 52.4659 182.915C52.0998 181.883 51.767 180.843 51.4842 179.787C51.4842 179.703 51.3344 179.745 51.3594 179.787C51.6256 180.868 51.9002 181.942 52.1914 183.007C52.3494 183.522 52.5158 184.03 52.6989 184.537C52.6989 184.621 52.7571 184.704 52.7904 184.787C51.1264 182.957 49.3542 181.193 47.5821 179.446C47.5238 179.387 47.4323 179.446 47.4906 179.545C50.8894 183.102 54.0051 186.918 56.809 190.96C56.4899 190.86 56.1648 190.779 55.8355 190.719C54.8205 190.519 53.8054 190.378 52.7821 190.245C50.6355 189.97 48.4973 189.704 46.3674 189.363C46.2758 189.363 46.2426 189.479 46.3674 189.496C48.4058 189.895 50.4192 190.328 52.4493 190.827C53.4061 191.044 54.3629 191.227 55.3197 191.418C56.1045 191.585 56.8772 191.805 57.6326 192.075C57.8406 192.383 58.0653 192.683 58.2733 192.991C59.2384 194.388 60.1619 195.828 61.0688 197.267L59.7293 197.009C58.7142 196.809 57.6909 196.626 56.6758 196.46C54.6707 196.127 52.6573 195.778 50.6771 195.328C50.5939 195.328 50.5606 195.445 50.6771 195.462C52.6906 195.936 54.679 196.485 56.6758 197.017C57.641 197.275 58.6144 197.508 59.5878 197.725L61.0438 198.041C61.2401 198.092 61.4406 198.126 61.6429 198.141C63.5648 201.252 65.3619 204.447 67.0342 207.7C67.7664 209.131 68.4736 210.579 69.1558 212.027C69.8381 213.474 70.4621 215.047 71.111 216.561C71.2026 216.877 71.6768 216.752 71.552 216.42Z" fill="#263238"/>
<path d="M58.1069 186.193C57.8573 184.937 57.5911 183.697 57.2749 182.433C57.2749 182.35 57.1252 182.391 57.1418 182.433C57.3914 183.664 57.6327 184.929 57.8573 186.135C58.0409 187.376 58.288 188.606 58.5978 189.821C58.5193 188.602 58.3553 187.39 58.1069 186.193Z" fill="#263238"/>
<path d="M50.4358 185.827C49.8285 185.519 49.1795 185.278 48.5472 184.995L47.5488 184.604L47.0413 184.404C46.8469 184.342 46.6599 184.258 46.4838 184.155C46.384 184.088 46.3257 184.255 46.4256 184.271C46.6207 184.324 46.8081 184.403 46.983 184.504L47.4822 184.729L48.4473 185.153C49.0778 185.449 49.7251 185.707 50.3859 185.927C50.4608 185.985 50.5107 185.86 50.4358 185.827Z" fill="#263238"/>
<path d="M78.8652 193.099C78.8652 193.099 86.8275 178.231 98.9331 175.926C111.039 173.622 118.46 186.085 118.46 186.085C118.46 186.085 109.624 197.367 98.4921 199.339C87.36 201.311 78.8652 193.099 78.8652 193.099Z" fill="#0B7D77"/>
<path d="M107.053 182.591C103.898 182.163 100.696 182.203 97.552 182.707L98.0928 182.416L100.78 181.035C102.627 180.014 104.523 179.087 106.463 178.256C106.554 178.215 106.463 178.09 106.413 178.131C104.516 179.013 102.552 179.795 100.655 180.627C99.6985 181.06 98.7667 181.518 97.8432 182.009C97.2441 182.325 96.5868 182.624 95.9961 183.007C93.336 183.541 90.7514 184.398 88.3001 185.561L89.8144 183.897C90.9376 182.657 92.0524 181.36 93.2921 180.236C93.3587 180.178 93.2921 180.087 93.1923 180.145C91.9277 181.293 90.5881 182.358 89.3568 183.556C88.7661 184.138 88.192 184.737 87.6345 185.361C87.36 185.669 87.0771 185.985 86.8025 186.318C82.6434 188.545 79.0297 191.666 76.2215 195.457C73.4133 199.248 71.4803 203.614 70.5619 208.241C70.5619 208.325 70.6701 208.366 70.695 208.283C72.4006 202.615 75.4554 197.444 79.5974 193.216C84.0613 188.683 89.676 185.453 95.8381 183.872C99.4933 182.941 103.274 182.598 107.037 182.857C107.072 182.859 107.107 182.847 107.133 182.824C107.16 182.801 107.176 182.768 107.178 182.732C107.18 182.697 107.169 182.662 107.145 182.636C107.122 182.609 107.089 182.593 107.053 182.591Z" fill="#263238"/>
<path opacity="0.1" d="M118.46 186.085C118.46 186.085 109.624 197.367 98.4922 199.339C90.0141 200.837 83.0419 196.419 80.1882 194.239L79.5725 193.232C79.5725 193.232 85.305 188.406 96.1543 185.619C107.004 182.832 118.46 186.085 118.46 186.085Z" fill="black"/>
<path d="M100.015 177.291C99.0878 177.833 98.1908 178.424 97.3274 179.063C96.486 179.705 95.7036 180.42 94.9895 181.201C94.9802 181.216 94.9764 181.234 94.9787 181.251C94.981 181.268 94.9893 181.284 95.0021 181.296C95.015 181.308 95.0315 181.315 95.049 181.316C95.0664 181.317 95.0836 181.311 95.0976 181.301C95.9296 180.602 96.7034 179.903 97.5437 179.246C98.353 178.58 99.2033 177.966 100.09 177.407C100.097 177.402 100.104 177.396 100.109 177.388C100.114 177.381 100.118 177.373 100.12 177.364C100.122 177.355 100.122 177.346 100.12 177.337C100.119 177.328 100.115 177.319 100.11 177.312C100.106 177.304 100.099 177.297 100.092 177.292C100.084 177.287 100.076 177.283 100.067 177.281C100.058 177.279 100.049 177.279 100.04 177.281C100.031 177.283 100.022 177.286 100.015 177.291Z" fill="#263238"/>
<path d="M106.662 179.804C106.213 179.995 105.755 180.153 105.306 180.344L103.958 180.902C103.867 180.902 103.908 181.102 104.008 181.06L105.356 180.511C105.814 180.328 106.255 180.12 106.704 179.937C106.787 179.903 106.746 179.77 106.662 179.804Z" fill="#263238"/>
<path d="M77.2761 211.811C77.2761 211.811 79.406 226.562 90.4966 231.72C101.587 236.879 115.107 231.72 115.107 231.72C115.107 231.72 109.824 199.813 77.2761 211.811Z" fill="#0B7D77"/>
<path d="M107.461 222.144C106.446 222.027 105.423 221.853 104.416 221.67L102.918 221.387L102.145 221.229C101.845 220.954 101.554 220.671 101.246 220.397C99.1396 218.552 96.8668 216.906 94.4569 215.48C93.1464 214.703 91.7906 214.006 90.3967 213.391H90.6047L94.2572 213.549C96.6866 213.666 99.1244 213.716 101.554 213.874C101.645 213.874 101.637 213.749 101.554 213.741C99.1078 213.574 96.6783 213.308 94.2406 213.1L90.6962 212.784L88.8658 212.626L88.3999 212.576C87.7676 212.335 87.1353 212.11 86.4863 211.91C83.4633 210.873 80.2116 210.694 77.093 211.395C74.3058 212.11 71.5186 213.94 70.7948 216.877C70.7948 216.977 70.9279 217.052 70.9695 216.952C72.0095 214.456 74.7385 213.25 77.2012 212.742C78.8479 212.43 80.5353 212.396 82.1932 212.643C82.3051 213.402 82.4918 214.149 82.7506 214.872C83.0585 215.912 83.358 216.952 83.6742 217.984C84.3065 220.056 84.997 222.144 85.6127 224.182C85.6127 224.2 85.6197 224.217 85.6322 224.229C85.6447 224.242 85.6616 224.249 85.6793 224.249C85.6969 224.249 85.7139 224.242 85.7263 224.229C85.7388 224.217 85.7458 224.2 85.7458 224.182C85.23 222.111 84.789 220.022 84.2898 217.942C84.0486 216.927 83.7906 215.912 83.541 214.897C83.3961 214.188 83.2099 213.488 82.9836 212.801C83.9553 212.97 84.9164 213.195 85.8623 213.474C87.5638 213.984 89.2311 214.601 90.8543 215.322C91.0124 216.37 91.2537 217.41 91.495 218.45C91.7945 219.748 92.1356 221.037 92.5433 222.31C92.548 222.323 92.5565 222.334 92.5677 222.342C92.5788 222.35 92.5921 222.354 92.6057 222.354C92.6193 222.354 92.6325 222.35 92.6437 222.342C92.6548 222.334 92.6633 222.323 92.6681 222.31L92.6182 222.069C92.3686 220.863 92.1023 219.656 91.8444 218.45C91.6447 217.476 91.4534 216.503 91.2454 215.538C92.6268 216.152 93.9763 216.835 95.2889 217.585C95.2889 217.884 95.3887 218.192 95.4303 218.466C95.5135 218.966 95.605 219.473 95.6966 219.981C95.9046 221.112 96.1292 222.252 96.4038 223.375C96.9057 225.551 97.542 227.693 98.309 229.79C98.2996 229.802 98.2944 229.816 98.2944 229.832C98.2944 229.847 98.2996 229.861 98.309 229.873L98.3756 229.948C98.4255 230.006 98.5004 229.948 98.4838 229.882C97.9762 227.693 97.3855 225.522 96.903 223.334C96.67 222.235 96.4287 221.137 96.2041 220.006C96.0959 219.457 95.9961 218.907 95.8879 218.342L95.813 217.851C97.3069 218.726 98.7487 219.687 100.131 220.73C102.525 222.522 104.74 224.542 106.746 226.762C106.82 226.853 106.978 226.762 106.904 226.628C106.08 225.511 105.2 224.436 104.266 223.409C103.709 222.81 103.126 222.227 102.536 221.661H102.719C103.243 221.753 103.759 221.828 104.283 221.894C105.306 222.036 106.338 222.136 107.37 222.252C107.519 222.269 107.553 222.144 107.461 222.144Z" fill="#263238"/>
<path d="M99.6736 227.136C99.6736 227.011 99.6736 226.878 99.6071 226.753C99.5405 226.628 99.4989 226.437 99.4739 226.27C99.2493 225.28 99.0579 224.29 98.8749 223.292C98.8749 223.225 98.7584 223.242 98.7584 223.292C98.826 224.612 99.107 225.913 99.5904 227.144C99.5904 227.186 99.6819 227.144 99.6736 227.144V227.136Z" fill="#263238"/>
<path d="M90.3885 226.895C90.3885 226.895 90.3885 226.828 90.3219 226.828C90.0057 225.522 89.7062 224.216 89.44 222.901C89.2985 222.211 89.1571 221.52 89.024 220.829C88.9491 220.455 88.8825 220.081 88.816 219.706C88.7869 219.377 88.7055 219.054 88.5747 218.749C88.57 218.737 88.5615 218.726 88.5503 218.718C88.5391 218.71 88.5259 218.706 88.5123 218.706C88.4987 218.706 88.4854 218.71 88.4743 218.718C88.4631 218.726 88.4546 218.737 88.4499 218.749C88.4411 219.42 88.5366 220.088 88.7328 220.73C88.8659 221.445 89.0073 222.169 89.1654 222.885C89.4899 224.341 89.8477 225.788 90.2637 227.219C90.2688 227.234 90.2783 227.247 90.291 227.256C90.3037 227.265 90.3188 227.27 90.3344 227.27C90.3499 227.27 90.3651 227.265 90.3778 227.256C90.3904 227.247 90.4 227.234 90.4051 227.219L90.3885 226.895Z" fill="#263238"/>
<path d="M106.496 217.876C104.466 217.601 102.444 217.31 100.414 217.044C100.331 217.044 100.298 217.169 100.414 217.177C102.436 217.477 104.466 217.726 106.496 218.009C106.496 218.026 106.538 217.893 106.496 217.876Z" fill="#263238"/>
<path d="M71.5936 177.216C71.5936 177.216 64.8045 147.447 96.7949 135.391C96.7949 135.391 105.664 174.587 71.5936 177.216Z" fill="#0B7D77"/>
<path d="M78.4992 160.335L78.8404 160.127L80.6541 159.112L84.3648 157.04C86.8026 155.667 89.2154 154.253 91.6698 152.88C91.753 152.88 91.6698 152.722 91.6032 152.763C89.1072 154.103 86.6112 155.359 84.1568 156.666L80.4877 158.604L78.9901 159.436C80.0551 157.414 81.1949 155.434 82.4512 153.521C84.1152 150.966 85.954 148.529 87.8592 146.166C87.8791 146.145 87.8898 146.117 87.889 146.088C87.8883 146.059 87.876 146.032 87.8551 146.012C87.8341 145.992 87.8061 145.981 87.7773 145.982C87.7484 145.983 87.721 145.995 87.7012 146.016C84.892 148.742 82.4098 151.785 80.3047 155.085C80.3047 154.977 80.3047 154.868 80.3047 154.769C80.3047 154.028 80.3629 153.288 80.3712 152.547C80.3712 151.091 80.3213 149.635 80.3712 148.187C80.3712 148.096 80.2381 148.104 80.2298 148.187C80.1716 149.618 79.9968 151.05 79.9136 152.481C79.9136 153.188 79.8471 153.903 79.8221 154.619C79.8221 155.002 79.8221 155.451 79.8221 155.867C79.1676 156.915 78.5381 157.977 77.9335 159.053C76.8613 160.994 75.9056 162.998 75.0714 165.052C75.0714 164.312 74.9965 163.571 74.9549 162.831C74.8551 161.167 74.6637 159.578 74.5888 157.947C74.5888 157.929 74.5818 157.912 74.5693 157.9C74.5569 157.887 74.5399 157.88 74.5223 157.88C74.5046 157.88 74.4877 157.887 74.4752 157.9C74.4627 157.912 74.4557 157.929 74.4557 157.947C74.4557 159.611 74.4557 161.208 74.4557 162.839C74.4557 163.671 74.5056 164.503 74.5556 165.285C74.5556 165.585 74.5556 165.892 74.6138 166.192C73.5966 168.854 72.7899 171.591 72.201 174.379C71.6461 177.354 71.2489 180.356 71.0112 183.373C71.0112 183.373 71.0112 183.373 71.0112 183.373C71.3337 180.659 71.8904 177.978 72.6752 175.361C73.0663 173.955 73.5072 172.557 73.9399 171.201C75.2711 170.577 76.544 169.795 77.8253 169.079L81.8439 166.883C84.5146 165.418 87.177 163.929 89.9309 162.639C90.0058 162.639 89.9309 162.481 89.856 162.523C87.0688 163.779 84.2567 165.019 81.536 166.358C80.1716 167.049 78.832 167.781 77.5008 168.53C76.3943 169.154 75.2461 169.778 74.1728 170.502C74.4807 169.57 74.8051 168.646 75.1629 167.739C76.1446 165.214 77.2583 162.743 78.4992 160.335Z" fill="#263238"/>
<path d="M75.8035 153.521C75.7984 153.506 75.7889 153.493 75.7762 153.484C75.7635 153.475 75.7484 153.47 75.7328 153.47C75.7173 153.47 75.7021 153.475 75.6894 153.484C75.6768 153.493 75.6672 153.506 75.6621 153.521C75.7786 155.185 75.8368 156.915 76.0199 158.613C76.0199 158.632 76.0278 158.651 76.0418 158.666C76.0558 158.68 76.0749 158.687 76.0947 158.687C76.1146 158.687 76.1337 158.68 76.1477 158.666C76.1617 158.651 76.1696 158.632 76.1696 158.613C76.1114 156.915 75.9283 155.226 75.8035 153.521Z" fill="#263238"/>
<path d="M91.1373 159.212C89.1405 160.044 87.1187 160.784 85.1219 161.616C85.072 161.616 85.1219 161.733 85.1219 161.708C87.1437 160.95 89.1322 160.127 91.1456 159.345C91.2621 159.311 91.2205 159.178 91.1373 159.212Z" fill="#263238"/>
<path d="M94.1824 145.475C92.2238 146.374 90.3232 147.394 88.4915 148.529C88.4783 148.543 88.4701 148.562 88.4683 148.582C88.4665 148.601 88.471 148.621 88.4813 148.638C88.4916 148.655 88.5071 148.668 88.5254 148.675C88.5437 148.682 88.5639 148.684 88.583 148.679C90.4384 147.589 92.327 146.549 94.2489 145.592C94.3321 145.6 94.2572 145.442 94.1824 145.475Z" fill="#263238"/>
<path d="M93.6915 241.604H47.5571V290.235H93.6915V241.604Z" fill="#455A64"/>
<path d="M46.7501 258.818H44.3872V342.118H46.7501V258.818Z" fill="#263238"/>
<path d="M96.6285 258.818H94.2656V342.118H96.6285V258.818Z" fill="#263238"/>
<path d="M72.9414 258.818H70.5785V342.118H72.9414V258.818Z" fill="#263238"/>
<path d="M95.447 287.123H45.5686V293.854H95.447V287.123Z" fill="#263238"/>
<path d="M279.244 314.912C279.244 314.912 279.244 350.746 279.244 350.771C279.244 357.619 279.186 363.626 278.845 366.729C278.849 366.737 278.852 366.745 278.852 366.754C278.852 366.763 278.849 366.771 278.845 366.779C278.845 367.515 278.674 368.242 278.346 368.901L278.304 368.942C276.274 370.332 221.528 372.212 219.598 371.63C217.668 371.047 219.157 365.506 221.262 363.734C223.367 361.962 243.976 351.878 243.976 351.878L244.317 316.06L279.244 314.912Z" fill="#AD6359"/>
<path d="M279.236 343.408V350.771C279.236 357.619 279.178 363.626 278.836 366.729C278.841 366.737 278.843 366.745 278.843 366.754C278.843 366.763 278.841 366.772 278.836 366.779C278.75 367.503 278.583 368.214 278.337 368.901L278.296 368.942C276.266 370.332 221.52 372.212 219.59 371.63C217.66 371.047 219.149 365.506 221.254 363.734C223.359 361.962 243.967 351.878 243.967 351.878L243.868 344.39L279.236 343.408Z" fill="#C7C7C7"/>
<path d="M219.59 371.629C221.52 372.212 276.266 370.34 278.304 368.942C279.086 368.426 279.277 360.431 279.236 350.771V350.463L243.901 351.295L243.942 351.894C243.942 351.894 223.309 361.987 221.229 363.759C219.149 365.531 217.651 371.072 219.59 371.629Z" fill="#263238"/>
<path d="M220.131 369.491C229.358 368.942 266.598 367.627 275.75 367.827C275.825 367.827 275.825 367.877 275.75 367.885C266.598 368.618 229.374 369.641 220.139 369.674C219.948 369.641 219.939 369.499 220.131 369.491Z" fill="#455A64"/>
<path d="M240.964 352.086C244.575 351.254 249.034 351.687 251.896 354.183C252.013 354.282 251.896 354.432 251.755 354.399C248.245 353.399 244.639 352.777 240.997 352.544C240.943 352.538 240.892 352.513 240.854 352.474C240.816 352.435 240.793 352.383 240.789 352.329C240.785 352.274 240.8 352.22 240.832 352.175C240.864 352.131 240.911 352.099 240.964 352.086Z" fill="#455A64"/>
<path d="M238.401 353.758C242.004 352.926 246.472 353.358 249.334 355.854C249.442 355.946 249.334 356.104 249.184 356.071C245.675 355.07 242.068 354.448 238.426 354.215C238.372 354.209 238.322 354.183 238.285 354.143C238.248 354.103 238.226 354.051 238.223 353.997C238.22 353.943 238.236 353.889 238.269 353.845C238.301 353.801 238.348 353.771 238.401 353.758Z" fill="#455A64"/>
<path d="M235.83 355.422C239.441 354.59 243.901 355.031 246.763 357.519C246.879 357.619 246.763 357.777 246.621 357.744C243.112 356.741 239.506 356.117 235.864 355.88C235.809 355.874 235.758 355.85 235.72 355.81C235.682 355.771 235.659 355.72 235.655 355.665C235.651 355.61 235.667 355.556 235.699 355.512C235.731 355.467 235.777 355.436 235.83 355.422Z" fill="#455A64"/>
<path d="M282.381 182.067L282.348 184.438L281.008 289.153L281 289.553L280.209 352.277L241.887 351.512L249.284 182.191L249.384 179.928L249.758 160.285H282.123L282.381 182.067Z" fill="#455A64"/>
<path d="M243.493 345.122C249.475 345.064 247.753 344.997 253.735 345.014C256.664 345.014 275.908 345.089 278.637 345.571C278.695 345.571 278.695 345.688 278.637 345.696C275.891 346.112 256.655 345.696 253.727 345.646C247.745 345.521 249.467 345.488 243.485 345.297C243.466 345.29 243.451 345.278 243.44 345.261C243.429 345.245 243.424 345.226 243.425 345.206C243.425 345.187 243.433 345.168 243.445 345.153C243.457 345.138 243.474 345.127 243.493 345.122Z" fill="#263238"/>
<path d="M260.657 193.082C260.657 193.065 260.65 193.048 260.638 193.035C260.625 193.023 260.608 193.016 260.591 193.016C260.573 193.016 260.556 193.023 260.544 193.035C260.531 193.048 260.524 193.065 260.524 193.082C260.524 203.108 260.117 208.724 259.875 218.741C259.634 228.758 259.343 238.776 259.043 248.785C258.503 268.811 257.695 288.82 256.955 308.838C256.539 320.065 256.02 331.286 255.399 342.501C255.399 342.516 255.405 342.531 255.416 342.542C255.427 342.553 255.442 342.559 255.457 342.559C255.473 342.559 255.488 342.553 255.499 342.542C255.51 342.531 255.516 342.516 255.516 342.501C256.972 322.533 258.361 302.498 259.16 282.472C259.959 262.446 260.524 242.428 260.616 222.402C260.699 211.162 260.632 204.323 260.657 193.082Z" fill="#263238"/>
<path d="M282.373 182.067L281.008 289.153L255.324 160.285H282.115L282.373 182.067Z" fill="#263238"/>
<path d="M322.225 312.974C322.225 312.974 327.051 348.475 327.051 348.5C328.016 355.289 328.715 361.255 328.815 364.375C328.815 364.375 328.815 364.375 328.815 364.425C328.912 365.151 328.844 365.891 328.615 366.588C328.614 366.604 328.614 366.621 328.615 366.638C326.785 368.302 272.788 377.537 270.799 377.221C268.811 376.905 269.543 371.214 271.349 369.175C273.154 367.137 292.257 354.366 292.257 354.366L287.764 318.831L322.225 312.974Z" fill="#AD6359"/>
<path d="M326.061 341.211C326.061 341.211 327.051 348.475 327.051 348.5C328.016 355.289 328.715 361.254 328.815 364.374C328.815 364.374 328.815 364.374 328.815 364.424C328.83 365.151 328.763 365.876 328.615 366.587C328.614 366.604 328.614 366.621 328.615 366.637C326.785 368.301 272.788 377.537 270.799 377.22C268.811 376.904 269.543 371.213 271.349 369.175C273.154 367.137 292.257 354.365 292.257 354.365L291.117 346.944L326.061 341.211Z" fill="#C7C7C7"/>
<path d="M270.766 377.22C272.763 377.537 326.751 368.293 328.582 366.637C329.289 366.013 328.399 358.076 327.051 348.5L327.001 348.2L292.107 353.775L292.223 354.365C292.223 354.365 273.137 367.145 271.315 369.183C269.493 371.222 268.736 376.896 270.766 377.22Z" fill="#263238"/>
<path d="M271.016 375.024C280.084 373.244 316.776 366.912 325.928 365.872C326.003 365.872 326.011 365.914 325.928 365.93C316.984 367.894 280.218 373.926 271.066 375.207C270.849 375.232 270.824 375.066 271.016 375.024Z" fill="#455A64"/>
<path d="M289.311 354.973C292.781 353.691 297.257 353.492 300.427 355.572C300.552 355.655 300.427 355.83 300.31 355.813C296.699 355.292 293.042 355.161 289.403 355.422C289.348 355.423 289.295 355.405 289.252 355.371C289.21 355.337 289.18 355.289 289.169 355.236C289.159 355.182 289.167 355.127 289.193 355.078C289.219 355.03 289.261 354.993 289.311 354.973Z" fill="#455A64"/>
<path d="M286.99 356.969C290.46 355.688 294.936 355.489 298.106 357.577C298.23 357.652 298.106 357.826 297.989 357.81C294.378 357.292 290.721 357.161 287.082 357.419C287.027 357.42 286.974 357.402 286.931 357.368C286.888 357.334 286.859 357.286 286.848 357.232C286.837 357.179 286.846 357.123 286.871 357.075C286.897 357.027 286.939 356.99 286.99 356.969Z" fill="#455A64"/>
<path d="M284.677 358.975C288.147 357.693 292.614 357.494 295.793 359.574C295.917 359.657 295.793 359.832 295.676 359.815C292.065 359.29 288.408 359.159 284.769 359.424C284.714 359.425 284.661 359.407 284.618 359.373C284.575 359.339 284.546 359.291 284.535 359.238C284.524 359.184 284.533 359.128 284.558 359.08C284.584 359.032 284.626 358.995 284.677 358.975Z" fill="#455A64"/>
<path d="M253.053 160.251C253.194 160.917 255.457 171.417 257.804 180.436C259.509 187.025 261.265 192.816 262.271 193.415C263.411 194.089 268.969 196.552 270.833 197.325L279.344 278.72L290.851 354.083L328.474 348.259L301.7 183.323L297.34 160.251H253.053Z" fill="#455A64"/>
<path d="M291.075 346.519C296.982 345.571 295.235 345.754 301.192 344.855C304.088 344.423 323.124 341.602 325.895 341.677C325.953 341.677 325.969 341.777 325.895 341.794C323.249 342.626 304.163 345.122 301.259 345.488C295.327 346.253 297.024 345.97 291.084 346.678C291.069 346.67 291.057 346.659 291.049 346.646C291.04 346.632 291.035 346.617 291.034 346.601C291.033 346.585 291.036 346.569 291.044 346.555C291.051 346.54 291.062 346.528 291.075 346.519Z" fill="#263238"/>
<path d="M312.832 324.014C311.892 318.789 310.96 313.564 309.995 308.339C308.07 297.889 306.129 287.442 304.171 276.998C300.244 256.092 296.361 235.17 292.523 214.232C290.376 202.417 290.426 203.524 288.554 191.651C288.554 191.576 288.405 191.585 288.421 191.651C290.218 202.201 289.37 199.888 291.067 210.454C292.764 221.021 294.545 231.363 296.417 241.788C300.177 262.746 304.121 283.67 308.106 304.587C309.216 310.455 310.35 316.315 311.509 322.167C312.674 328.141 314.005 334.081 315.237 340.038C315.237 340.172 315.478 340.163 315.453 340.038C314.588 334.705 313.806 329.347 312.832 324.014Z" fill="#263238"/>
<path d="M302.49 192.433C301.492 192.175 300.419 192.092 299.404 191.934C298.572 191.801 297.74 191.651 296.908 191.477C295.342 191.197 293.858 190.571 292.565 189.646C291.15 188.548 290.426 186.876 289.744 185.27C289.334 184.321 288.918 183.373 288.496 182.424L287.872 181.052C287.581 180.513 287.323 179.957 287.098 179.388C287.098 179.304 286.94 179.388 286.973 179.388C287.115 179.776 287.232 180.174 287.323 180.577C287.464 181.035 287.589 181.493 287.731 181.95C287.988 182.782 288.238 183.614 288.504 184.446C288.909 185.947 289.493 187.394 290.243 188.756C291.757 191.152 294.453 192.125 297.149 192.467C297.923 192.558 298.705 192.616 299.487 192.658C300.467 192.745 301.452 192.745 302.432 192.658C302.455 192.652 302.476 192.64 302.492 192.623C302.509 192.606 302.521 192.586 302.527 192.563C302.533 192.54 302.533 192.516 302.526 192.493C302.52 192.47 302.507 192.45 302.49 192.433Z" fill="#263238"/>
<path d="M259.318 191.976C263.286 193.417 267.119 195.204 270.774 197.317C270.805 197.332 270.829 197.358 270.841 197.39C270.853 197.422 270.851 197.457 270.837 197.488C270.822 197.519 270.796 197.543 270.764 197.554C270.732 197.566 270.697 197.565 270.666 197.55C266.806 195.886 262.87 194.305 259.11 192.442C259.058 192.409 259.019 192.358 259.001 192.298C258.984 192.239 258.988 192.176 259.013 192.119C259.038 192.063 259.083 192.017 259.139 191.991C259.195 191.964 259.258 191.959 259.318 191.976Z" fill="#263238"/>
<path d="M258.153 165.568C258.153 165.435 258.403 165.402 258.403 165.568C258.4 169.875 258.616 174.179 259.052 178.464C259.226 180.452 260.824 191.435 264.277 190.636C264.851 190.503 265.109 189.929 265.233 189.064C265.221 187.926 265.067 186.794 264.776 185.694C264.393 183.389 264.085 181.085 263.894 178.764C263.487 174.438 263.535 170.083 264.035 165.768C264.035 165.739 264.047 165.711 264.067 165.691C264.087 165.671 264.115 165.66 264.143 165.66C264.172 165.66 264.2 165.671 264.22 165.691C264.24 165.711 264.252 165.739 264.252 165.768C264.155 171.767 264.506 177.766 265.3 183.714C265.733 186.568 267.172 190.869 264.185 191.31C261.198 191.751 259.193 184.554 258.802 182.582C257.849 176.963 257.631 171.244 258.153 165.568Z" fill="#263238"/>
<path d="M264.185 190.886C264.489 191.629 264.747 192.391 264.959 193.166C265.181 193.764 265.291 194.399 265.283 195.038C265.278 195.064 265.266 195.087 265.247 195.106C265.229 195.125 265.205 195.138 265.179 195.143C265.153 195.149 265.127 195.146 265.102 195.136C265.078 195.126 265.057 195.109 265.042 195.087C264.671 194.528 264.39 193.913 264.21 193.265C263.944 192.566 263.669 191.859 263.428 191.152C263.393 191.052 263.399 190.941 263.445 190.845C263.491 190.749 263.573 190.676 263.673 190.64C263.774 190.605 263.884 190.611 263.98 190.657C264.076 190.703 264.15 190.785 264.185 190.886Z" fill="#263238"/>
<path d="M302.091 185.744C297.532 185.445 249.384 179.92 249.384 179.92L249.758 160.277H253.086H297.374L301.733 183.348L302.091 185.744Z" fill="#263238"/>
<path d="M268.37 115.165C262.862 132.405 253.535 150.201 250.84 153.704C243.61 163.122 221.886 172.399 215.255 173.597C212.385 174.113 205.504 155.601 207.284 153.055C209.065 150.509 236.063 140.192 237.386 138.819C238.301 137.862 249.692 123.186 257.354 114.333C266.931 103.326 269.818 110.656 268.37 115.165Z" fill="#AD6359"/>
<path d="M213.05 149.46L223.717 171.092C223.717 171.092 246.389 161.267 251.788 154.253C257.188 147.239 266.972 123.469 268.428 115.898C269.884 108.326 267.372 102.918 257.229 113.984C247.087 125.05 238.684 136.074 236.87 137.921C235.057 139.768 213.05 149.46 213.05 149.46Z" fill="#EBEBEB"/>
<path d="M213.949 148.362L226.728 170.776C226.728 170.776 246.696 161.233 251.788 154.968C256.88 148.703 265.275 129.468 267.904 119.084C270.533 108.701 268.994 101.338 257.238 114.042C245.482 126.747 238.834 135.974 236.438 138.046C235.298 138.944 213.949 148.362 213.949 148.362Z" fill="#37474F"/>
<path d="M219.332 150.434C219.98 150.434 220.505 149.909 220.505 149.261C220.505 148.613 219.98 148.088 219.332 148.088C218.684 148.088 218.159 148.613 218.159 149.261C218.159 149.909 218.684 150.434 219.332 150.434Z" fill="#263238"/>
<path d="M224.865 147.888C225.513 147.888 226.038 147.363 226.038 146.715C226.038 146.067 225.513 145.542 224.865 145.542C224.217 145.542 223.692 146.067 223.692 146.715C223.692 147.363 224.217 147.888 224.865 147.888Z" fill="#263238"/>
<path d="M267.904 119.051C265.275 129.434 256.888 148.637 251.788 154.935C249.608 157.622 244.733 160.9 239.849 163.779L265.583 107.419C269.568 106.338 269.693 111.995 267.904 119.051Z" fill="#263238"/>
<path d="M304.604 177.499C304.47 177.649 246.913 177.824 246.364 177.233C245.623 176.401 258.627 114.001 264.534 106.338C265.791 104.674 269.959 104.233 273.503 104.674C274.428 104.778 275.341 104.965 276.232 105.231H276.332C277.051 105.444 277.729 105.775 278.337 106.213C288.188 114.084 296.492 141.598 298.43 149.86C301.675 163.496 305.078 176.958 304.604 177.499Z" fill="#EBEBEB"/>
<path d="M278.171 105.481C278.171 105.481 273.487 131.023 272.671 137.663C271.856 144.302 273.054 179.371 273.054 179.371L309.196 182.042C309.196 182.042 301.384 158.829 301.292 157.356C301.292 157.356 294.803 129.551 288.721 117.936C286.064 113.126 282.478 108.893 278.171 105.481Z" fill="#37474F"/>
<path d="M309.196 182.042L292.806 180.827L281.108 108.052V108.102L288.446 117.503C288.529 117.653 288.613 117.803 288.687 117.953C294.769 129.601 301.259 157.373 301.259 157.373C301.384 158.829 309.196 182.042 309.196 182.042Z" fill="#263238"/>
<path d="M264.185 106.038C264.185 106.038 260.349 131.905 259.933 134.043C259.517 136.182 253.71 178.364 253.71 178.364L244.666 178.647L249.384 159.361C249.384 159.361 259.875 111.546 264.185 106.038Z" fill="#37474F"/>
<path d="M269.468 120.232L266.906 115.24L263.594 118.851L264.41 122.445L267.671 122.87L269.468 120.232Z" fill="#263238"/>
<path d="M267.671 122.87L269.235 159.594L262.355 171.742L258.777 158.072L264.41 122.446L267.671 122.87Z" fill="#263238"/>
<path d="M266.229 224.37L266.184 267.5L337.37 267.575L337.415 224.444L266.229 224.37Z" fill="#0B7D77"/>
<path opacity="0.1" d="M266.225 224.374L266.204 244.684L337.39 244.758L337.411 224.449L266.225 224.374Z" fill="black"/>
<path d="M264.53 238.146L339.085 238.224L339.107 218.098L264.551 218.02L264.53 238.146Z" fill="#0B7D77"/>
<path d="M286.142 206.569L286.125 218.042L291.525 218.05L291.533 211.519L312.125 211.544L312.117 218.075H317.516L317.525 206.594L286.142 206.569Z" fill="#263238"/>
<path d="M323.984 243.008L328.843 243.013L328.853 233.395L323.994 233.39L323.984 243.008Z" fill="#263238"/>
<path d="M274.755 242.968L279.614 242.973L279.624 233.355L274.765 233.35L274.755 242.968Z" fill="#263238"/>
<path d="M286.125 113.152C302.182 127.72 312.374 148.529 313.065 152.73C314.729 162.889 316.834 180.694 316.476 188.506C316.343 191.402 294.403 187.891 294.445 184.796C294.586 175.111 293.297 153.812 293.238 153.437C292.847 150.833 288.072 139.127 283.254 126.431C278.437 113.734 279.369 107.037 286.125 113.152Z" fill="#AD6359"/>
<path d="M292.132 215.147C292.772 215.438 293.486 215.526 294.177 215.4C294.869 215.273 295.505 214.938 296.001 214.44C296.627 215.456 297.589 216.222 298.721 216.603C300.743 217.185 302.54 214.265 302.54 214.265C303.412 215.185 304.539 215.822 305.777 216.095C307.765 216.453 310.003 213.766 310.003 213.766C311.268 214.164 312.634 214.099 313.855 213.583C315.927 212.609 317.683 206.669 318.115 203.249C318.548 199.83 316.559 189.721 316.376 187.757L294.445 184.812C294.445 184.812 288.155 199.605 288.221 203.698C288.28 207.168 289.719 213.949 292.132 215.147Z" fill="#AD6359"/>
<path d="M295.668 214.24C294.728 210.588 294.919 206.852 294.903 203.125C294.903 203.107 294.91 203.09 294.922 203.078C294.934 203.065 294.951 203.058 294.969 203.058C294.987 203.058 295.004 203.065 295.016 203.078C295.029 203.09 295.036 203.107 295.036 203.125C295.036 206.835 295.718 210.505 295.868 214.215C295.871 214.242 295.864 214.268 295.847 214.289C295.831 214.311 295.807 214.324 295.78 214.328C295.754 214.331 295.727 214.323 295.706 214.307C295.685 214.291 295.671 214.267 295.668 214.24Z" fill="#263238"/>
<path d="M302.266 214.157C302.131 213.307 302.109 212.442 302.199 211.586C302.199 210.679 302.299 209.764 302.374 208.857C302.518 207.038 302.704 205.224 302.931 203.416C302.931 203.333 303.064 203.333 303.056 203.416C302.923 205.23 302.815 207.043 302.748 208.857C302.748 209.772 302.698 210.679 302.682 211.586C302.718 212.447 302.662 213.308 302.515 214.157C302.506 214.183 302.489 214.204 302.466 214.22C302.444 214.236 302.418 214.244 302.39 214.244C302.363 214.244 302.337 214.236 302.314 214.22C302.292 214.204 302.275 214.183 302.266 214.157Z" fill="#263238"/>
<path d="M310.003 213.691C309.897 212.919 309.919 212.134 310.07 211.37C310.153 210.538 310.228 209.706 310.303 208.874C310.453 207.21 310.594 205.546 310.677 203.882C310.677 203.799 310.81 203.799 310.81 203.882C310.727 205.546 310.669 207.26 310.577 208.949L310.428 211.445C310.445 212.205 310.33 212.962 310.086 213.683C310.083 213.69 310.077 213.696 310.07 213.701C310.063 213.706 310.055 213.709 310.047 213.709C310.039 213.71 310.031 213.709 310.023 213.706C310.015 213.703 310.008 213.697 310.003 213.691Z" fill="#263238"/>
<path d="M293.372 184.912L317.691 186.227C317.691 186.227 315.894 159.603 313.964 152.206C312.033 144.81 295.56 120.157 285.834 111.222C276.682 102.81 276.682 109.807 280.151 119.667C283.621 129.526 292.207 153.354 292.498 155.093C292.789 156.832 293.372 184.912 293.372 184.912Z" fill="#37474F"/>
<path d="M294.462 180.003C295.393 179.92 296.334 180.003 297.265 180.003C298.197 180.003 299.129 180.045 300.061 180.086C301.858 180.161 303.655 180.27 305.452 180.386L310.835 180.744C312.691 180.869 314.588 180.902 316.426 181.176C316.439 181.181 316.45 181.19 316.458 181.201C316.466 181.212 316.47 181.225 316.47 181.239C316.47 181.252 316.466 181.266 316.458 181.277C316.45 181.288 316.439 181.296 316.426 181.301C314.571 181.376 312.682 181.21 310.827 181.143L305.336 180.918C303.505 180.835 301.675 180.744 299.845 180.627C298.946 180.577 298.047 180.511 297.157 180.411C296.267 180.311 295.335 180.303 294.453 180.128C294.37 180.111 294.395 180.012 294.462 180.003Z" fill="#263238"/>
<path d="M267.771 114.575C268.719 114.533 275.018 109.583 276.923 105.772C277.056 105.506 276.565 102.794 276.133 99.4741C275.875 97.4606 275.633 95.2059 275.567 93.1342C275.567 92.7099 274.136 93.5419 274.136 93.5419L271.473 94.2741L262.688 96.7202C263.515 99.2854 264.024 101.943 264.202 104.632C264.211 104.911 264.192 105.19 264.144 105.464C264.147 105.512 264.147 105.559 264.144 105.606C263.952 107.245 266.24 114.633 267.771 114.575Z" fill="#AD6359"/>
<path d="M264.177 105.481C264.18 105.528 264.18 105.575 264.177 105.622C264.622 105.665 265.071 105.665 265.516 105.622C274.252 105.14 274.976 93.9744 274.976 93.9744L271.523 94.2406L262.737 96.6867C263.565 99.252 264.074 101.909 264.252 104.599C264.259 104.895 264.234 105.191 264.177 105.481Z" fill="#263238"/>
<path d="M275.242 75.579C277.339 79.9137 276.989 93.442 274.202 96.8782C270.175 101.87 262.554 103.459 258.061 98.3758C253.71 93.4586 254.484 75.8369 257.687 72.5838C262.404 67.858 272.147 69.1726 275.242 75.579Z" fill="#AD6359"/>
<path d="M263.644 85.4465C263.644 85.4465 263.711 85.4465 263.711 85.5297C263.661 86.4366 263.761 87.4933 264.543 87.8094C264.543 87.8094 264.543 87.8677 264.543 87.8593C263.569 87.7013 263.453 86.3035 263.644 85.4465Z" fill="#263238"/>
<path d="M264.476 84.5147C265.941 84.4315 265.999 87.3767 264.634 87.4516C263.27 87.5265 263.245 84.5812 264.476 84.5147Z" fill="#263238"/>
<path d="M258.369 85.696C258.369 85.696 258.303 85.7376 258.303 85.7792C258.344 86.6861 258.245 87.7428 257.421 88.0589V88.1088C258.436 87.9424 258.561 86.528 258.369 85.696Z" fill="#263238"/>
<path d="M257.537 84.7476C256.073 84.6644 256.007 87.6097 257.371 87.6845C258.735 87.7594 258.752 84.8641 257.537 84.7476Z" fill="#263238"/>
<path d="M265.616 83.1502C265.208 83.0503 264.851 82.9006 264.468 82.7675C264.043 82.692 263.656 82.475 263.37 82.1518C263.298 82.0349 263.268 81.8974 263.285 81.7615C263.302 81.6255 263.364 81.4992 263.461 81.403C263.679 81.2362 263.937 81.1305 264.209 81.0968C264.481 81.0632 264.757 81.1028 265.009 81.2116C265.553 81.3556 266.024 81.6966 266.332 82.1684C266.395 82.2799 266.425 82.4074 266.418 82.5356C266.411 82.6638 266.367 82.7873 266.292 82.891C266.216 82.9948 266.112 83.0745 265.992 83.1205C265.872 83.1665 265.742 83.1768 265.616 83.1502Z" fill="#263238"/>
<path d="M256.373 83.2915C256.766 83.2049 257.155 83.0966 257.537 82.9671C257.962 82.9078 258.356 82.7122 258.661 82.4096C258.738 82.296 258.775 82.1597 258.766 82.0224C258.757 81.8852 258.702 81.755 258.611 81.6525C258.402 81.474 258.148 81.3551 257.878 81.3083C257.607 81.2614 257.328 81.2884 257.071 81.3863C256.522 81.5026 256.035 81.8201 255.707 82.2765C255.638 82.3846 255.602 82.5103 255.603 82.6385C255.604 82.7667 255.641 82.8919 255.712 82.9991C255.782 83.1063 255.882 83.191 255.999 83.2428C256.116 83.2947 256.246 83.3116 256.373 83.2915Z" fill="#263238"/>
<path d="M260.874 92.3021C261.264 92.7975 261.778 93.1818 262.363 93.417C262.685 93.5373 263.037 93.5548 263.37 93.4669C264.102 93.2589 264.102 92.6349 263.96 92.0193C263.879 91.7298 263.764 91.4507 263.619 91.1873C262.846 91.8411 261.884 92.2316 260.874 92.3021Z" fill="#263238"/>
<path d="M262.363 93.417C262.685 93.5374 263.037 93.5548 263.37 93.467C264.102 93.259 264.102 92.635 263.96 92.0193C263.577 92.0418 263.211 92.1914 262.922 92.4445C262.633 92.6976 262.436 93.0398 262.363 93.417Z" fill="#FF9ABB"/>
<path d="M255.823 77.1098C256.298 75.945 256.855 74.7719 257.546 74.5223C258.236 74.2727 258.727 75.97 260.316 76.0448C262.455 76.153 263.453 74.1728 266.44 73.9066C270.725 73.5239 272.68 77.0765 272.904 83.1667C273.096 88.5997 276.399 89.049 276.399 89.049C276.399 89.049 278.163 77.0183 274.735 73.1079C271.307 69.1975 263.486 67.5917 258.344 71.4439C256.439 72.8999 255.823 77.1098 255.823 77.1098Z" fill="#263238"/>
<path d="M273.612 86.9607C273.612 86.9607 276.016 82.2932 278.096 83.0919C280.176 83.8907 278.77 90.3803 276.607 91.5367C276.34 91.7031 276.042 91.8138 275.731 91.862C275.42 91.9102 275.103 91.895 274.798 91.8172C274.494 91.7395 274.208 91.6008 273.958 91.4096C273.708 91.2184 273.5 90.9787 273.345 90.7047L273.612 86.9607Z" fill="#AD6359"/>
<path d="M277.647 84.9473C277.647 84.9473 277.697 84.9889 277.647 85.0055C276.141 85.8375 275.5 87.4516 275.151 89.0657C275.221 88.8926 275.328 88.737 275.465 88.6096C275.601 88.4823 275.764 88.3863 275.941 88.3285C276.119 88.2706 276.307 88.2522 276.492 88.2747C276.678 88.2971 276.856 88.3598 277.015 88.4583C277.056 88.4583 277.015 88.5498 277.015 88.5498C276.722 88.4979 276.421 88.5381 276.153 88.6648C275.885 88.7915 275.662 88.9984 275.517 89.257C275.274 89.6893 275.078 90.1468 274.935 90.6215C274.885 90.7796 274.61 90.738 274.643 90.5633C274.294 88.4999 275.492 85.4465 277.647 84.9473Z" fill="#263238"/>
<path d="M264.135 105.797L267.272 113.501L276.79 103.767L279.502 106.879C279.502 106.879 270.2 122.304 270.142 121.63L266.964 115.024L262.413 119.633L262.754 108.077L264.135 105.797Z" fill="#EBEBEB"/>
<path d="M262.255 113.917C262.38 112.012 262.446 110.082 262.654 108.185C262.654 108.118 262.771 108.093 262.787 108.185C263.17 110.024 262.671 117.337 262.679 119.059C262.87 118.86 266.897 115.007 266.939 115.066C267.63 116.114 269.959 120.89 270.117 121.364C271.59 118.909 277.222 109.99 278.97 107.669C278.98 107.66 278.994 107.654 279.008 107.653C279.022 107.652 279.036 107.655 279.048 107.663C279.06 107.67 279.07 107.681 279.075 107.694C279.08 107.707 279.081 107.722 279.078 107.736C277.805 110.282 270.35 122.304 270.234 122.304C269.006 120.032 267.896 117.7 266.906 115.315C266.223 116.147 262.155 120.515 262.138 120.232C262.067 118.127 262.106 116.019 262.255 113.917Z" fill="#263238"/>
<path d="M156.666 113.735C167.132 134.393 177.765 184.088 178.755 190.736C179.429 195.254 155.676 199.339 155.676 196.211C155.676 192.2 150.883 145.292 151.341 126.755C151.59 116.53 154.502 109.466 156.666 113.735Z" fill="#EB9481"/>
<path d="M155.584 194.231C155.201 196.951 156.108 206.378 157.889 213.367C158.721 216.778 162.282 226.304 164.952 225.847C167.623 225.389 166.833 222.519 166.833 222.519C166.833 222.519 168.929 226.312 171.567 225.605C174.204 224.898 172.848 220.455 172.848 220.455C172.848 220.455 175.277 224.208 177.84 223.309C180.403 222.41 178.298 218.176 178.298 218.176C178.298 218.176 180.369 221.712 182.183 220.072C184.371 218.101 179.829 212.027 179.063 208.208C178.888 207.376 176.767 190.387 176.767 190.387L155.584 194.231Z" fill="#EB9481"/>
<path d="M178.331 218.117C175.003 213.641 174.321 211.103 173.905 205.637C173.899 205.618 173.887 205.602 173.872 205.591C173.856 205.579 173.837 205.573 173.817 205.573C173.798 205.573 173.779 205.579 173.763 205.591C173.747 205.602 173.736 205.618 173.73 205.637C173.655 211.037 174.054 214.34 178.123 218.308C178.323 218.483 178.489 218.325 178.331 218.117Z" fill="#263238"/>
<path d="M172.915 220.696C169.861 215.746 169.096 213 168.23 207.301C168.23 207.218 168.081 207.226 168.089 207.301C168.463 212.967 168.921 216.253 172.64 220.804C172.806 221.021 173.056 220.921 172.915 220.696Z" fill="#263238"/>
<path d="M166.591 222.144C163.987 217.152 163.022 214.165 162.897 208.524C162.891 208.502 162.877 208.482 162.858 208.468C162.84 208.453 162.817 208.446 162.793 208.446C162.77 208.446 162.747 208.453 162.728 208.468C162.709 208.482 162.696 208.502 162.689 208.524C162.257 214.29 163.438 218.009 166.433 222.219C166.641 222.46 166.758 222.427 166.591 222.144Z" fill="#263238"/>
<path d="M178.606 189.555C178.606 189.555 182.433 195.379 183.548 198.349C184.662 201.319 184.787 213.774 182.092 213.957C178.614 214.19 177.1 206.993 176.85 203.374C176.85 203.374 168.796 203.915 166.616 198.981C164.437 194.047 178.606 189.555 178.606 189.555Z" fill="#EB9481"/>
<path d="M181.118 213.699C177.79 211.628 177.74 206.852 177.216 203.358C177.211 203.306 177.193 203.256 177.164 203.212C177.135 203.168 177.096 203.132 177.05 203.107C177.005 203.082 176.953 203.068 176.901 203.066C176.849 203.065 176.797 203.077 176.75 203.1C173.364 203.1 168.58 202.118 166.533 199.189C166.529 199.178 166.522 199.168 166.513 199.159C166.505 199.151 166.494 199.144 166.483 199.14C166.471 199.136 166.459 199.135 166.447 199.136C166.435 199.137 166.424 199.141 166.413 199.147C166.403 199.153 166.394 199.162 166.387 199.172C166.38 199.182 166.375 199.193 166.373 199.205C166.371 199.217 166.372 199.229 166.375 199.241C166.378 199.252 166.384 199.263 166.392 199.272C168.156 202.717 172.781 204.065 176.492 203.823C176.975 207.409 177.233 212.202 181.093 213.733C181.118 213.741 181.135 213.716 181.118 213.699Z" fill="#263238"/>
<path d="M181.035 188.157L154.053 192.317C154.053 192.317 149.752 142.222 149.594 125.408C149.436 108.593 155.476 104.474 161.957 121.672C168.438 138.869 181.035 188.157 181.035 188.157Z" fill="#0B7D77"/>
<path d="M153.92 188.098C164.961 185.602 176.933 184.679 179.013 184.371C179.113 184.371 179.121 184.513 179.013 184.521C176.966 184.721 163.388 187.275 153.92 188.265C153.845 188.273 153.837 188.115 153.92 188.098Z" fill="#263238"/>
<path d="M213.724 371.588C211.852 372.195 156.982 371.371 154.968 370.049C154.727 369.899 154.694 364.94 154.76 358.143L152.09 317.766L186.809 317.865L189.555 352.809C189.555 352.809 197.342 356.404 203.765 359.549C206.575 360.826 209.307 362.27 211.944 363.875C214.015 365.606 215.596 370.989 213.724 371.588Z" fill="#EB9481"/>
<path d="M213.724 371.588C211.852 372.195 156.982 371.371 154.968 370.049C154.727 369.899 154.694 364.94 154.76 358.143C168.314 361.163 204.456 366.055 205.512 363.218C205.937 362.078 205.071 360.788 203.782 359.599C206.592 360.876 209.323 362.32 211.96 363.925C214.015 365.606 215.596 370.989 213.724 371.588Z" fill="#263238"/>
<path d="M137.43 170.81C137.43 170.81 147.264 275.159 147.48 276.424C147.48 276.59 147.589 278.52 147.68 281.657C148.229 298.871 149.577 352.552 149.577 352.552H190.828C190.828 352.552 188.14 288.97 186.593 274.144C184.621 255.216 172.499 170.81 172.499 170.81H137.43Z" fill="#37474F"/>
<path d="M152.398 279.952C151.127 258.286 149.217 236.654 146.665 215.056C145.217 202.908 143.47 190.803 141.74 178.689C141.74 178.581 141.557 178.589 141.573 178.689C144.768 200.246 147.023 221.953 148.97 243.676C150.917 265.4 152.298 287.073 153.13 308.822C153.637 321.136 154.02 333.466 154.411 345.788C154.421 345.841 154.45 345.889 154.491 345.923C154.533 345.958 154.586 345.977 154.64 345.977C154.694 345.977 154.746 345.958 154.788 345.923C154.83 345.889 154.858 345.841 154.869 345.788C154.319 323.856 153.687 301.891 152.398 279.952Z" fill="#263238"/>
<path d="M188.223 345.904C187.142 345.763 185.969 345.804 184.895 345.771C183.664 345.771 182.399 345.713 181.185 345.671C178.797 345.579 176.401 345.513 174.013 345.48C169.196 345.396 164.37 345.43 159.561 345.579L155.584 345.721C154.17 345.771 152.755 345.904 151.341 345.896C151.241 345.896 151.241 346.02 151.341 346.02C153.762 346.02 156.216 346.228 158.646 346.32C161.075 346.411 163.422 346.445 165.809 346.478C170.627 346.545 175.461 346.478 180.27 346.328C181.592 346.278 182.915 346.262 184.238 346.22L186.368 346.112C187 346.112 187.624 346.112 188.257 346.054C188.34 346.054 188.332 345.921 188.223 345.904Z" fill="#263238"/>
<path d="M167.232 170.81L148.387 306.725C148.121 296.591 147.855 287.223 147.68 281.657C147.589 278.52 147.514 276.59 147.48 276.424C147.247 275.159 137.43 170.81 137.43 170.81H167.232Z" fill="#263238"/>
<path d="M144.618 378.826C142.655 378.668 92.3188 356.803 90.9709 354.806C90.8045 354.582 92.6349 349.989 95.3556 343.741L106.454 304.637L138.57 317.524L129.509 352.244C129.509 352.244 135.333 358.559 140.042 363.892C142.146 366.155 144.113 368.542 145.933 371.039C147.189 373.41 146.574 378.993 144.618 378.826Z" fill="#EB9481"/>
<path d="M144.618 378.826C142.655 378.668 92.3188 356.803 90.9709 354.806C90.8045 354.582 92.6349 349.989 95.3556 343.741C106.712 351.745 138.187 370.148 140.284 367.935C141.116 367.053 140.808 365.523 140.076 363.925C142.179 366.189 144.146 368.575 145.966 371.072C147.189 373.41 146.573 378.993 144.618 378.826Z" fill="#263238"/>
<path d="M91.7446 339.714L131.988 352.194C131.988 352.194 151.64 283.263 153.146 267.072C154.636 251.023 156.075 218.234 156.716 194.447C156.716 194.447 163.438 190.47 165.144 188.298C166.849 186.127 168.38 178.314 171.741 170.826H122.504C110.739 193.681 119.592 203.848 119.592 208.832C119.592 232.893 115.956 264.834 114.799 269.568C112.387 279.435 91.7446 339.714 91.7446 339.714Z" fill="#37474F"/>
<path d="M131.897 343.391C130.89 342.975 129.75 342.717 128.702 342.393C127.512 342.035 126.314 341.702 125.133 341.336C122.853 340.629 120.557 339.955 118.261 339.306C113.629 337.986 108.964 336.771 104.266 335.662L100.389 334.772C99.0163 334.455 97.6103 334.214 96.2291 333.848C96.121 333.848 96.096 333.94 96.2291 333.973C98.5754 334.589 100.888 335.429 103.21 336.144C105.531 336.86 107.794 337.501 110.09 338.158C114.725 339.464 119.4 340.654 124.093 341.744C125.391 342.035 126.672 342.359 127.962 342.667L130.033 343.125C130.649 343.266 131.248 343.466 131.872 343.558C131.894 343.561 131.917 343.555 131.935 343.542C131.952 343.529 131.964 343.509 131.968 343.487C131.971 343.465 131.965 343.442 131.952 343.424C131.939 343.406 131.919 343.394 131.897 343.391Z" fill="#263238"/>
<path d="M166.292 187.758C163.942 188.837 161.712 190.159 159.636 191.701C157.431 193.216 155.401 194.954 153.279 196.577C153.196 196.643 153.279 196.777 153.363 196.718C155.601 195.287 157.947 194.031 160.16 192.558C162.382 191.21 164.477 189.662 166.417 187.932C166.475 187.866 166.4 187.716 166.292 187.758Z" fill="#263238"/>
<path d="M166.6 173.888C166.317 175.419 165.942 176.942 165.61 178.464C165.277 179.987 165.069 181.351 164.694 182.766C164.385 184.134 163.689 185.384 162.689 186.368C162.132 186.892 161.508 187.35 160.909 187.832C160.593 188.09 160.243 188.332 159.91 188.598C159.952 188.39 159.985 188.19 160.019 187.974C160.127 187.4 160.227 186.817 160.318 186.235C160.534 184.945 160.742 183.648 160.942 182.358C161.333 179.812 161.691 177.241 162.223 174.72C162.229 174.698 162.225 174.675 162.214 174.655C162.202 174.636 162.183 174.622 162.161 174.616C162.139 174.611 162.116 174.614 162.096 174.626C162.077 174.638 162.063 174.656 162.057 174.679C161.425 177.175 160.726 179.671 160.177 182.167C159.902 183.398 158.937 189.488 158.895 189.921C158.854 190.353 158.812 190.811 158.796 191.26C158.741 191.716 158.741 192.177 158.796 192.633C158.796 192.741 158.962 192.725 159.004 192.633C159.19 192.211 159.321 191.766 159.395 191.31C159.503 190.878 159.603 190.437 159.678 189.996C159.678 189.838 159.727 189.671 159.752 189.505C160.351 189.139 160.909 188.673 161.475 188.257C162.04 187.841 162.689 187.425 163.263 186.909C164.321 186.016 165.084 184.824 165.452 183.489C165.821 182.052 166.064 180.585 166.175 179.105C166.367 177.374 166.508 175.635 166.75 173.913C166.774 173.888 166.616 173.805 166.6 173.888Z" fill="#263238"/>
<path d="M165.568 107.544C164.778 117.32 163.796 127.371 161.516 136.922C159.736 144.36 155.692 150.143 147.622 150.916C140.134 151.632 129.775 150.084 124.284 144.419C121.722 141.781 121.164 138.47 121.838 134.942C122.778 130.042 130.408 103.517 132.729 95.2307C134.143 90.1888 135.541 85.072 137.837 80.3296C142.646 70.3456 147.821 71.1776 148.537 71.0528C149.211 70.7366 153.404 69.5219 158.796 72.0845C160.214 72.7466 161.477 73.7012 162.5 74.8856C163.524 76.0699 164.286 77.4573 164.736 78.9568C167.598 87.8758 166.333 98.3923 165.568 107.544Z" fill="#263238"/>
<path d="M146.757 72.2758C140.159 74.3225 137.746 80.8953 135.416 86.7526C132.172 94.9145 129.06 103.135 126.348 111.496C125.05 115.515 123.852 119.567 122.745 123.643C121.705 127.554 120.349 131.689 120.066 135.741C119.6 142.397 125.258 146.291 131.015 148.046C131.072 148.065 131.135 148.06 131.189 148.033C131.243 148.005 131.283 147.958 131.302 147.9C131.321 147.843 131.316 147.781 131.289 147.727C131.261 147.673 131.214 147.632 131.157 147.613C127.895 146.49 124.609 145.117 122.454 142.264C119.683 138.636 120.632 134.526 121.572 130.433C123.186 123.46 125.191 116.596 127.396 109.807C129.601 103.018 132.147 96.2957 134.742 89.6313C137.238 83.2832 139.543 74.7968 146.74 72.384C146.848 72.384 146.823 72.2509 146.757 72.2758Z" fill="#263238"/>
<path d="M166.575 86.4364C166.092 81.2031 164.129 75.895 158.995 73.6902C165.601 76.8351 166.25 84.6143 166.3 91.0374C166.356 97.8099 166.164 104.571 165.726 111.322C165.31 117.819 164.744 124.351 163.738 130.782C162.648 137.721 160.493 144.094 155.601 149.244C155.59 149.254 155.581 149.266 155.575 149.279C155.568 149.292 155.565 149.307 155.564 149.321C155.563 149.336 155.565 149.351 155.57 149.365C155.575 149.379 155.582 149.391 155.592 149.402C155.602 149.413 155.614 149.422 155.627 149.428C155.641 149.435 155.655 149.438 155.67 149.439C155.684 149.44 155.699 149.438 155.713 149.433C155.727 149.428 155.739 149.42 155.75 149.411C160.435 145.325 162.656 139.119 163.796 133.178C165.171 125.292 166.024 117.323 166.35 109.325C166.783 101.795 167.274 94.0159 166.575 86.4364Z" fill="#263238"/>
<path d="M146.366 108.875C146.682 109.707 151.532 114.783 155.459 114.092C156.732 113.859 155.792 106.829 155.792 106.829L155.842 106.296L156.524 98.8083L147.264 94.432L145.941 93.8662C145.941 93.8662 145.883 95.9296 145.85 98.4921C145.85 98.6169 145.85 98.7334 145.85 98.8582C145.841 98.9995 145.841 99.1412 145.85 99.2825C145.85 99.6653 145.85 100.056 145.85 100.447C145.85 100.838 145.85 101.03 145.85 101.338C145.85 101.645 145.85 101.962 145.85 102.269C145.872 104.481 146.044 106.688 146.366 108.875Z" fill="#EB9481"/>
<path d="M145.85 98.4921C146.848 100.439 148.258 102.146 149.982 103.493C151.706 104.841 153.703 105.798 155.834 106.296L156.516 98.8083L147.264 94.432L145.941 93.8662C145.941 93.8662 145.883 95.9296 145.85 98.4921Z" fill="#263238"/>
<path d="M166.042 87.7844C167.091 100.93 159.336 103.043 156.499 103.268C153.92 103.468 145.126 103.834 142.73 90.8545C140.334 77.8753 146.116 73.2161 151.981 72.4673C157.847 71.7185 165.002 74.6305 166.042 87.7844Z" fill="#EB9481"/>
<path d="M163.829 84.9889C163.529 84.9448 163.232 84.8836 162.939 84.8059C162.614 84.7863 162.304 84.6606 162.057 84.4481C161.994 84.3656 161.96 84.2648 161.96 84.1611C161.96 84.0574 161.994 83.9566 162.057 83.874C162.205 83.7309 162.389 83.6294 162.589 83.5797C162.789 83.53 162.999 83.534 163.197 83.5912C163.621 83.6445 164.008 83.859 164.278 84.1902C164.337 84.2678 164.372 84.3609 164.379 84.458C164.386 84.5552 164.364 84.6523 164.316 84.7372C164.269 84.8221 164.197 84.8912 164.11 84.9359C164.024 84.9806 163.926 84.9991 163.829 84.9889Z" fill="#263238"/>
<path d="M155.077 85.1719C155.384 85.1303 155.659 85.0471 155.967 84.9805C156.276 84.9459 156.567 84.8149 156.799 84.6061C156.863 84.5242 156.898 84.4231 156.898 84.3191C156.898 84.2151 156.863 84.114 156.799 84.0321C156.648 83.8896 156.463 83.7898 156.261 83.743C156.059 83.6962 155.848 83.7041 155.651 83.7658C155.232 83.8329 154.853 84.0522 154.586 84.3815C154.525 84.4619 154.491 84.5587 154.486 84.6592C154.482 84.7597 154.508 84.8591 154.561 84.9446C154.614 85.03 154.692 85.0974 154.784 85.138C154.876 85.1785 154.978 85.1904 155.077 85.1719Z" fill="#263238"/>
<path d="M157.132 88.4915C157.132 88.4915 157.065 88.4915 157.065 88.5663C157.123 89.4649 157.065 90.5049 156.233 90.8294C156.233 90.8294 156.233 90.8876 156.233 90.8793C157.248 90.6879 157.331 89.3318 157.132 88.4915Z" fill="#263238"/>
<path d="M156.3 87.5763C154.852 87.5181 154.835 90.4134 156.175 90.4717C157.514 90.5299 157.514 87.6262 156.3 87.5763Z" fill="#263238"/>
<path d="M155.734 87.726C155.476 87.8924 155.226 88.1753 154.902 88.2086C154.577 88.2419 154.286 87.934 154.07 87.6428H154.02C154.02 88.1919 154.211 88.766 154.852 88.8492C155.493 88.9324 155.792 88.4415 155.934 87.8841C155.925 87.8175 155.834 87.6595 155.734 87.726Z" fill="#263238"/>
<path d="M162.124 88.292C162.124 88.292 162.19 88.292 162.19 88.3669C162.148 89.2654 162.248 90.3054 163.064 90.6133C163.064 90.6133 163.064 90.6715 163.064 90.6632C162.065 90.5134 161.94 89.1323 162.124 88.292Z" fill="#263238"/>
<path d="M162.939 87.3602C164.378 87.277 164.453 90.1723 163.114 90.2555C161.774 90.3387 161.724 87.435 162.939 87.3602Z" fill="#263238"/>
<path d="M163.546 87.5431C163.779 87.6846 164.012 87.9591 164.287 87.9758C164.561 87.9924 164.828 87.6679 165.027 87.3601H165.069C165.069 87.9092 164.927 88.4916 164.403 88.6081C163.879 88.7246 163.571 88.2503 163.405 87.7095C163.38 87.6347 163.455 87.4766 163.546 87.5431Z" fill="#263238"/>
<path d="M160.809 92.3519C160.809 92.3519 161 93.6915 161 94.3238C161 94.3903 160.851 94.4153 160.634 94.4319C160.092 94.5346 159.531 94.4856 159.014 94.2904C158.498 94.0952 158.045 93.7613 157.706 93.3254C157.694 93.3121 157.687 93.2946 157.688 93.2767C157.689 93.2587 157.697 93.2418 157.71 93.2297C157.723 93.2176 157.741 93.2112 157.759 93.212C157.776 93.2128 157.793 93.2206 157.806 93.2339C158.612 93.7832 159.576 94.0548 160.551 94.0076C160.593 93.8329 160.143 91.7196 160.243 91.7113C160.735 91.7507 161.219 91.8571 161.683 92.0275C161.366 89.2236 160.601 86.4947 160.318 83.7075C160.318 83.6854 160.327 83.6642 160.343 83.6486C160.358 83.633 160.379 83.6243 160.401 83.6243C160.423 83.6243 160.445 83.633 160.46 83.6486C160.476 83.6642 160.485 83.6854 160.485 83.7075C161.397 86.6089 162.018 89.5938 162.34 92.6182C162.365 92.9011 161.059 92.4351 160.809 92.3519Z" fill="#263238"/>
<path d="M161.824 89.1654C161.624 87.0188 162.614 85.1718 164.029 85.0054C165.443 84.839 166.766 86.503 166.966 88.6495C167.165 90.7961 166.134 92.6431 164.761 92.8095C163.388 92.9759 162.024 91.3119 161.824 89.1654ZM162.348 89.1155C162.523 90.9708 163.58 92.3935 164.711 92.2937C165.843 92.1938 166.625 90.5881 166.45 88.7327C166.275 86.8774 165.21 85.4547 164.079 85.5545C162.947 85.6543 162.174 87.2601 162.348 89.1155Z" fill="#263238"/>
<path d="M152.048 90.089C152.03 89.3779 152.22 88.6771 152.595 88.0726C152.97 87.4681 153.514 86.9862 154.159 86.6861C154.804 86.386 155.522 86.2808 156.226 86.3834C156.93 86.4859 157.588 86.7918 158.121 87.2634C158.653 87.735 159.037 88.3519 159.224 89.0382C159.41 89.7246 159.393 90.4506 159.173 91.127C158.953 91.8035 158.54 92.401 157.985 92.8463C157.431 93.2915 156.758 93.565 156.05 93.6333C155.05 93.6903 154.068 93.3496 153.319 92.6857C152.569 92.0218 152.112 91.0883 152.048 90.089ZM152.572 90.0391C152.678 90.6373 152.956 91.1917 153.372 91.6347C153.788 92.0776 154.323 92.3899 154.914 92.5334C155.504 92.6769 156.123 92.6454 156.696 92.4427C157.269 92.2401 157.77 91.8751 158.139 91.3922C158.508 90.9094 158.728 90.3296 158.772 89.7237C158.817 89.1178 158.684 88.5121 158.391 87.9803C158.097 87.4486 157.654 87.014 157.118 86.7295C156.581 86.445 155.973 86.3229 155.368 86.3783C154.512 86.4941 153.737 86.9446 153.213 87.6308C152.689 88.3171 152.459 89.1831 152.572 90.0391Z" fill="#263238"/>
<path d="M159.103 89.0657C160.984 88.2337 161.924 88.7579 161.932 88.7662L162.215 88.3253C162.173 88.3253 161.059 87.5931 158.887 88.5915L159.103 89.0657Z" fill="#263238"/>
<path d="M152.256 89.7229L152.306 89.1988C151.956 89.1988 143.886 88.45 143.021 88.4833C142.156 88.5165 140.1 89.906 139.876 90.0641L140.175 90.4967C141.03 89.8503 141.986 89.3499 143.004 89.0157H143.104C143.736 89.0241 149.386 89.465 152.256 89.7229Z" fill="#263238"/>
<path d="M143.104 89.9143C144.527 89.8311 148.238 85.8957 148.354 79.0068C148.354 79.0068 147.822 85.1885 147.364 86.0954C146.906 87.0023 149.436 83.8823 149.602 78.3329C151.355 79.5832 153.277 80.5777 155.31 81.2865C157.93 82.0186 159.536 81.9937 159.727 81.8023C159.919 81.6109 156.05 80.3962 155.002 79.1981C155.002 79.1981 161.99 82.4346 165.202 82.6842C165.576 82.6842 166.034 75.0548 161.042 71.81C156.05 68.5652 148.188 72.0762 146.066 74.1229C146.066 74.1229 143.57 74.4724 140.883 78.1581C138.195 81.8439 141.573 90.0058 143.104 89.9143Z" fill="#263238"/>
<path d="M144.901 91.7032C144.901 91.7032 142.047 87.5432 140.175 88.5748C138.303 89.6065 140.417 95.572 142.605 96.404C142.878 96.53 143.174 96.5996 143.475 96.6086C143.776 96.6175 144.076 96.5657 144.356 96.4562C144.637 96.3467 144.892 96.1817 145.107 95.9711C145.322 95.7606 145.493 95.5088 145.608 95.2308L144.901 91.7032Z" fill="#EB9481"/>
<path d="M140.824 90.272V90.3302C142.355 90.9709 143.154 92.4019 143.711 93.8828C143.624 93.7274 143.504 93.5929 143.359 93.4888C143.214 93.3847 143.049 93.3135 142.873 93.2802C142.698 93.2469 142.518 93.2523 142.345 93.2961C142.172 93.3398 142.011 93.4208 141.873 93.5334C141.873 93.5334 141.873 93.6249 141.914 93.6166C142.185 93.5316 142.476 93.5332 142.746 93.6212C143.016 93.7092 143.251 93.8792 143.42 94.1075C143.702 94.4886 143.941 94.8986 144.136 95.3305C144.202 95.472 144.452 95.3971 144.402 95.239C144.435 93.2422 142.929 90.4883 140.824 90.272Z" fill="#263238"/>
<path d="M144.444 96.1043C144.445 96.2955 144.39 96.4829 144.285 96.6427C144.18 96.8025 144.03 96.9275 143.854 97.0018C143.677 97.0761 143.483 97.0965 143.295 97.0602C143.108 97.0239 142.935 96.9326 142.799 96.798C142.663 96.6633 142.571 96.4914 142.533 96.3039C142.495 96.1165 142.513 95.922 142.586 95.7452C142.659 95.5684 142.783 95.4171 142.941 95.3107C143.1 95.2043 143.287 95.1475 143.479 95.1475C143.733 95.1475 143.977 95.248 144.158 95.4272C144.339 95.6064 144.441 95.8497 144.444 96.1043Z" fill="white"/>
<path d="M173.888 175.261C173.888 175.261 129.576 175.918 118.577 175.144C118.577 175.144 127.546 124.309 139.377 111.463C139.817 110.981 140.284 110.522 140.774 110.09C141.498 109.483 141.398 104.632 141.74 104.266C142.081 103.9 156.458 105.789 156.641 106.138C156.824 106.488 157.564 111.064 157.564 111.064C160.826 115.224 171.317 129.601 172.54 135.533C173.763 141.465 169.911 148.013 169.911 148.013L173.888 175.261Z" fill="#0B7D77"/>
<path d="M135.99 120.532C133.37 133.162 134.925 160.468 140.982 165.46C150.966 173.63 174.961 176.018 181.659 176.808C184.546 177.149 190.295 158.255 188.315 155.817C186.335 153.379 156.84 149.585 155.434 148.329C154.461 147.43 149.876 130.932 145.924 121.63C140.608 109.042 136.947 115.873 135.99 120.532Z" fill="#EB9481"/>
<path d="M183.323 154.294C183.323 154.294 192.175 154.203 197.966 154.419C201.203 154.536 206.719 155.251 209.057 156.416C212.543 158.171 226.021 167.739 223.767 171.059C221.728 174.063 217.718 170.111 217.718 170.111C217.718 170.111 222.51 174.013 219.573 176.376C216.636 178.739 211.886 173.098 211.886 173.098C211.886 173.098 217.26 176.892 213.882 179.105C210.954 181.035 204.805 175.111 204.805 175.111C204.805 175.111 210.887 178.439 208.075 180.744C204.972 183.24 194.638 175.519 194.638 175.519C187.233 177.183 182.566 177.183 177.125 176.292C176.126 176.126 183.323 154.294 183.323 154.294Z" fill="#EB9481"/>
<path d="M213.367 174.412L212.16 173.139C211.414 172.296 210.619 171.496 209.781 170.743C208.949 170.028 208.117 169.345 207.201 168.696C206.286 168.047 205.254 167.399 204.339 166.691C204.264 166.633 204.181 166.741 204.264 166.791C205.173 167.492 206.045 168.239 206.877 169.029C207.709 169.778 208.541 170.543 209.373 171.301C210.205 172.058 211.037 172.732 211.869 173.455C212.277 173.813 212.701 174.188 213.075 174.562C213.43 174.946 213.817 175.3 214.232 175.619C214.273 175.619 214.323 175.619 214.298 175.552C214.029 175.14 213.717 174.758 213.367 174.412Z" fill="#263238"/>
<path d="M218.699 170.943C217.365 169.33 215.919 167.812 214.373 166.4C212.808 164.998 211.105 163.757 209.29 162.698C209.223 162.698 209.156 162.748 209.206 162.798C210.771 164.204 212.36 165.585 213.949 166.958C214.723 167.632 218.15 170.81 218.55 171.118C218.641 171.168 218.758 171.034 218.699 170.943Z" fill="#263238"/>
<path d="M208.433 177.807C207.138 176.318 205.748 174.915 204.273 173.605C202.649 172.409 200.939 171.336 199.156 170.394C199.089 170.394 199.023 170.46 199.081 170.502C200.695 171.7 202.326 172.856 203.882 174.129C204.647 174.753 207.526 177.399 208.308 177.923C208.391 177.973 208.483 177.873 208.433 177.807Z" fill="#263238"/>
<path d="M175.02 177.59L185.578 152.972C185.578 152.972 156.657 148.188 155.767 147.605C154.877 147.023 149.602 127.82 146.216 120.282C142.829 112.744 137.014 108.318 134.767 124.501C132.521 140.683 135.774 160.443 139.027 164.553C142.971 169.528 158.588 175.827 175.02 177.59Z" fill="#0B7D77"/>
<path d="M160.16 174.479C155.834 173.306 151.615 171.259 147.48 169.487C143.928 167.997 140.3 166.159 138.328 162.673C137.409 160.898 136.767 158.993 136.423 157.023C135.966 154.827 135.591 152.605 135.275 150.367C134.892 147.816 134.548 145.259 134.243 142.696C134.094 141.382 133.944 140.067 133.811 138.753C133.678 137.438 133.436 136.124 133.386 134.801C133.386 134.783 133.379 134.766 133.367 134.754C133.354 134.741 133.337 134.734 133.32 134.734C133.302 134.734 133.285 134.741 133.273 134.754C133.26 134.766 133.253 134.783 133.253 134.801C133.345 136.015 133.253 137.238 133.353 138.461C133.353 139.293 133.453 140.059 133.511 140.858L133.278 140.35C133.022 139.767 132.827 139.159 132.696 138.536C132.696 138.461 132.554 138.495 132.571 138.536C132.721 139.16 132.87 139.793 133.045 140.408C133.128 140.708 133.228 141.007 133.345 141.307C133.414 141.508 133.495 141.705 133.586 141.898C133.786 144.288 134.044 146.668 134.36 149.036C134.668 151.333 135.025 153.612 135.433 155.892C135.735 157.908 136.271 159.882 137.03 161.774C137.786 163.558 138.942 165.143 140.408 166.408C141.928 167.656 143.607 168.697 145.4 169.503C149.456 171.377 153.647 172.94 157.939 174.179C163.072 175.793 164.636 175.685 160.16 174.479Z" fill="#263238"/>
<path d="M171.018 150.409C169.953 150.268 157.365 147.622 156.874 147.48C156.628 147.405 156.406 147.268 156.229 147.081C156.053 146.894 155.928 146.665 155.867 146.415C155.476 145.4 155.135 144.36 154.769 143.337C154.136 141.573 153.493 139.818 152.838 138.07C152.838 137.679 152.764 137.238 152.722 136.897C152.68 136.556 152.597 135.965 152.522 135.5C152.356 134.493 152.056 133.503 151.932 132.496C151.932 132.396 151.773 132.429 151.798 132.496C152.052 133.487 152.203 134.502 152.248 135.524C152.289 135.924 152.314 136.356 152.339 136.731C151.957 135.708 151.565 134.684 151.158 133.669C150.684 132.488 150.143 131.298 149.76 130.083C149.76 130 149.61 130.042 149.635 130.083C150.068 131.173 150.376 132.33 150.717 133.411C151.058 134.493 151.424 135.658 151.79 136.781C152.506 138.986 153.263 141.174 154.028 143.37C154.394 144.427 154.752 145.5 155.143 146.548C155.25 146.941 155.462 147.297 155.755 147.58C156.047 147.863 156.411 148.061 156.807 148.154C158.995 148.745 169.695 150.517 170.993 150.567C171.126 150.65 171.159 150.426 171.018 150.409Z" fill="#263238"/>
<path d="M180.228 153.354C178.564 156.89 176.9 160.401 175.394 164.012C173.871 167.564 172.535 171.194 171.392 174.886C171.385 174.903 171.386 174.921 171.393 174.938C171.4 174.954 171.413 174.967 171.429 174.974C171.446 174.98 171.465 174.98 171.481 174.973C171.497 174.966 171.51 174.953 171.517 174.936C173.181 171.467 174.637 167.864 176.109 164.295C177.582 160.726 178.922 157.057 180.411 153.479C180.486 153.329 180.294 153.213 180.228 153.354Z" fill="#263238"/>
<path d="M211.328 150.542C210.055 151.258 202.767 149.244 199.813 151.457C197.858 152.922 195.944 156.449 195.528 161.05C195.104 165.801 198.856 165.56 200.246 163.546C201.939 160.896 203.416 158.113 204.664 155.226C206 155.492 207.317 155.845 208.607 156.283L211.328 150.542Z" fill="#AD6359"/>
<path d="M202.392 167.124C200.138 164.761 188.872 173.422 192.408 177.357C195.944 181.293 204.938 169.803 202.392 167.124Z" fill="#AD6359"/>
<path d="M206.153 170.51C203.898 168.147 192.633 176.808 196.169 180.744C199.705 184.679 208.699 173.189 206.153 170.51Z" fill="#AD6359"/>
<path d="M209.115 171.708C206.744 169.869 197.708 179.312 201.494 182.391C205.279 185.469 211.802 173.788 209.115 171.708Z" fill="#AD6359"/>
<path d="M212.335 172.224C209.614 171.184 203.882 182.499 208.266 184.288C212.651 186.077 215.421 173.364 212.335 172.224Z" fill="#AD6359"/>
<path d="M202.06 171.018C201.434 171.437 200.844 171.907 200.296 172.424C199.688 172.956 199.089 173.497 198.54 174.088C198.005 174.646 197.502 175.235 197.034 175.852C196.543 176.517 196.136 177.241 195.636 177.89C195.627 177.896 195.62 177.904 195.615 177.913C195.609 177.923 195.606 177.933 195.606 177.944C195.606 177.955 195.608 177.965 195.612 177.975C195.617 177.985 195.624 177.993 195.633 177.999C195.641 178.006 195.651 178.01 195.662 178.012C195.672 178.014 195.683 178.013 195.693 178.009C195.704 178.006 195.713 178 195.72 177.992C195.728 177.985 195.733 177.975 195.736 177.965C196.229 177.338 196.766 176.745 197.342 176.193C197.883 175.627 198.39 175.036 198.931 174.462C199.472 173.888 199.955 173.331 200.487 172.798C201.02 172.266 201.619 171.717 202.151 171.134C202.176 171.059 202.118 170.985 202.06 171.018Z" fill="#263238"/>
<path d="M206.536 172.074C206.053 172.815 204.364 175.685 203.848 176.409C203.332 177.133 202.792 177.857 202.243 178.564C201.693 179.271 201.161 180.045 200.537 180.711C200.487 180.769 200.579 180.86 200.637 180.802C201.261 180.136 201.943 179.529 202.534 178.83C203.124 178.131 203.665 177.424 204.198 176.684C205.122 175.216 205.955 173.694 206.694 172.124C206.694 172.049 206.577 172.008 206.536 172.074Z" fill="#263238"/>
<path d="M209.664 173.689C209.165 174.787 208.732 175.927 208.225 177.017C207.975 177.557 207.717 178.098 207.468 178.681L207.118 179.471C207.008 179.786 206.869 180.089 206.702 180.378C206.652 180.444 206.785 180.519 206.819 180.428C206.986 180.098 207.181 179.784 207.401 179.488C207.542 179.238 207.692 178.988 207.825 178.739C208.108 178.184 208.366 177.643 208.599 177.116C209.085 176.038 209.491 174.926 209.814 173.788C209.827 173.769 209.832 173.744 209.827 173.721C209.822 173.697 209.809 173.677 209.789 173.664C209.769 173.65 209.745 173.646 209.721 173.65C209.698 173.655 209.677 173.669 209.664 173.689Z" fill="#263238"/>
<path d="M217.011 79.1233C216.613 82.9238 215.167 86.5391 212.834 89.5659C210.501 92.5926 207.373 94.9118 203.8 96.2647C200.226 97.6177 196.346 97.9511 192.594 97.2279C188.842 96.5047 185.364 94.7533 182.549 92.169L172.224 93.6833L177.391 84.7642C176.048 81.4648 175.583 77.8738 176.041 74.3412C176.498 70.8085 177.863 67.4546 180.002 64.606C182.141 61.7575 184.981 59.5115 188.246 58.0868C191.511 56.6621 195.089 56.1072 198.632 56.4762C204.071 57.0447 209.062 59.7494 212.508 63.9959C215.954 68.2425 217.574 73.6834 217.011 79.1233Z" fill="white"/>
<path d="M217.011 79.1232C216.61 82.9224 215.171 86.5379 212.851 89.5731C212.277 90.3311 211.654 91.0509 210.987 91.728C210.299 92.3855 209.571 92.9996 208.807 93.5667C207.284 94.7246 205.603 95.6576 203.815 96.3373C202.037 97.0381 200.169 97.4835 198.266 97.6602C197.314 97.7501 196.358 97.7696 195.404 97.7184C194.446 97.6941 193.492 97.5939 192.55 97.4189C188.749 96.7347 185.215 95.0062 182.341 92.4269L182.591 92.5018L172.291 94.016L171.542 94.1325L171.916 93.4752L177.05 84.5395V84.889C175.846 81.941 175.333 78.7567 175.549 75.5798C175.765 72.4029 176.705 69.3176 178.298 66.56C179.903 63.8087 182.11 61.4564 184.754 59.6794C188.04 57.4795 191.884 56.2618 195.838 56.1691C199.791 56.0763 203.688 57.1122 207.074 59.1555C210.459 61.1988 213.192 64.1647 214.952 67.7056C216.712 71.2466 217.426 75.2158 217.011 79.1482V79.1232ZM217.011 79.1232C217.339 76.0173 216.951 72.8774 215.876 69.9452C214.8 67.0131 213.066 64.3669 210.806 62.2105C208.547 60.0541 205.823 58.4449 202.844 57.507C199.865 56.5691 196.71 56.3275 193.623 56.8006C190.567 57.2494 187.654 58.3875 185.103 60.1286C182.584 61.8982 180.48 64.195 178.938 66.8595C177.414 69.5324 176.518 72.5169 176.317 75.5872C176.128 78.65 176.623 81.7164 177.765 84.5645L177.84 84.7475L177.74 84.9222L172.548 93.8246L172.182 93.2755L182.508 91.8278H182.649L182.757 91.9194C185.511 94.4981 188.927 96.261 192.625 97.0112C193.549 97.1954 194.487 97.3094 195.428 97.3523C196.367 97.4188 197.31 97.4188 198.249 97.3523C200.133 97.2068 201.987 96.7979 203.757 96.1376C205.545 95.4984 207.228 94.5954 208.749 93.4586C210.296 92.3628 211.663 91.0323 212.801 89.5149C215.129 86.5016 216.585 82.9071 217.011 79.1232Z" fill="#263238"/>
<path d="M194.081 88.7411L185.278 79.822L188.232 76.9017L193.382 82.11L204.073 65.3452L207.576 67.5833L194.081 88.7411Z" fill="#0B7D77"/>
</svg>
